  0
SECTION
  2
HEADER
  9
$ANGBASE
  50
0.0
  9
$ANGDIR
  70
1
  9
$MEASUREMENT
  70
1
  0
ENDSEC
  0
SECTION
  2
TABLES
  0
TABLE
  2
LTYPE
  70
4
  0
LTYPE
  5
40F
  2
CONTINUOUS
  70
0
  3
Solid line
  72
65
  73
0
  40
0.0
  0
LTYPE
  5
410
  2
DASHDOT
 70
0
  3
Dash Dot ____ _ ____ _
 72
65
 73
4
 40
2.0
 49
1.25
 49
-0.25
 49
0.25
 49
-0.25
  0
LTYPE
  5
411
  2
DASHED
 70
0
  3
Dashed __ __ __ __ __
 72
65
 73
2
 40
0.75
 49
0.5
 49
-0.25
  0
LTYPE
  5
43B
  2
DOTTED
 70
0
  3
Dotted .  .  .  .
 72
65
 73
2
 40
0.2
 49
0.0
 49
-0.2
  0
ENDTAB
  0
TABLE
  2
STYLE
  70
4
  0
STYLE
  2
KICAD
  70
0
  40
0
  41
1
  42
1
  50
0
  71
0
  3
isocp.shx
  0
STYLE
  2
KICADB
  70
0
  40
0
  41
1
  42
1
  50
0
  71
0
  3
isocp.shx
  0
STYLE
  2
KICADI
  70
0
  40
0
  41
1
  42
1
  50
15
  71
0
  3
isocp.shx
  0
STYLE
  2
KICADBI
  70
0
  40
0
  41
1
  42
1
  50
15
  71
0
  3
isocp.shx
  0
ENDTAB
  0
TABLE
  2
LAYER
  70
1
  0
LAYER
  2
BLACK
  70
0
  62
7
  6
CONTINUOUS
  0
ENDTAB
  0
ENDSEC
  0
SECTION
  2
ENTITIES
0
LINE
8
BLACK
6
CONTINUOUS
10
50.4625750000000011
20
-116.7828499999999963
11
47.6376729999999995
21
-116.7828499999999963
0
LINE
8
BLACK
6
CONTINUOUS
10
47.6376729999999995
20
-116.7828499999999963
11
47.6376729999999995
21
-115.3181900000000013
0
LINE
8
BLACK
6
CONTINUOUS
10
47.6376729999999995
20
-115.3181900000000013
11
48.3487839999999949
21
-115.3181900000000013
0
LINE
8
BLACK
6
CONTINUOUS
10
48.3487839999999949
20
-115.3181900000000013
11
48.3487839999999949
21
-115.4226099999999917
0
LINE
8
BLACK
6
CONTINUOUS
10
48.3487839999999949
20
-115.4226099999999917
11
48.3758100000000013
21
-115.5234739999999931
0
LINE
8
BLACK
6
CONTINUOUS
10
48.3758100000000013
20
-115.5234739999999931
11
48.4280210000000011
21
-115.6139049999999884
0
LINE
8
BLACK
6
CONTINUOUS
10
48.4280210000000011
20
-115.6139049999999884
11
48.4625199999999978
21
-115.6532429999999891
0
LINE
8
BLACK
6
CONTINUOUS
10
48.4625199999999978
20
-115.6532429999999891
11
48.7672819999999945
21
-115.9580039999999883
0
LINE
8
BLACK
6
CONTINUOUS
10
48.7672819999999945
20
-115.9580039999999883
11
48.8066199999999952
21
-115.9925029999999992
0
LINE
8
BLACK
6
CONTINUOUS
10
48.8066199999999952
20
-115.9925029999999992
11
48.8970489999999955
21
-116.0447119999999899
0
LINE
8
BLACK
6
CONTINUOUS
10
48.8970489999999955
20
-116.0447119999999899
11
48.8970509999999976
21
-116.0447130000000016
0
LINE
8
BLACK
6
CONTINUOUS
10
48.8970509999999976
20
-116.0447130000000016
11
48.9708869999999976
21
-116.0644969999999887
0
LINE
8
BLACK
6
CONTINUOUS
10
48.9708869999999976
20
-116.0644969999999887
11
48.9979129999999969
21
-116.0717389999999938
0
LINE
8
BLACK
6
CONTINUOUS
10
48.9979129999999969
20
-116.0717389999999938
11
48.9979139999999944
21
-116.0717389999999938
0
LINE
8
BLACK
6
CONTINUOUS
10
48.9979139999999944
20
-116.0717389999999938
11
48.997914999999999
21
-116.0717389999999938
0
LINE
8
BLACK
6
CONTINUOUS
10
48.997914999999999
20
-116.0717389999999938
11
49.1023349999999965
21
-116.0717389999999938
0
LINE
8
BLACK
6
CONTINUOUS
10
49.1023349999999965
20
-116.0717389999999938
11
49.2031980000000004
21
-116.0447130000000016
0
LINE
8
BLACK
6
CONTINUOUS
10
49.2031980000000004
20
-116.0447130000000016
11
49.2936300000000003
21
-115.9925020000000018
0
LINE
8
BLACK
6
CONTINUOUS
10
49.2936300000000003
20
-115.9925020000000018
11
49.2936440000000005
21
-115.992486999999997
0
LINE
8
BLACK
6
CONTINUOUS
10
49.2936440000000005
20
-115.992486999999997
11
49.332965999999999
21
-115.9580039999999883
0
LINE
8
BLACK
6
CONTINUOUS
10
49.332965999999999
20
-115.9580039999999883
11
49.6377279999999956
21
-115.6532429999999891
0
LINE
8
BLACK
6
CONTINUOUS
10
49.6377279999999956
20
-115.6532429999999891
11
49.6722269999999995
21
-115.6139049999999884
0
LINE
8
BLACK
6
CONTINUOUS
10
49.6722269999999995
20
-115.6139049999999884
11
49.7244379999999992
21
-115.5234739999999931
0
LINE
8
BLACK
6
CONTINUOUS
10
49.7244379999999992
20
-115.5234739999999931
11
49.7514639999999986
21
-115.4226099999999917
0
LINE
8
BLACK
6
CONTINUOUS
10
49.7514639999999986
20
-115.4226099999999917
11
49.7514639999999986
21
-115.3181909999999988
0
LINE
8
BLACK
6
CONTINUOUS
10
49.7514639999999986
20
-115.3181909999999988
11
49.7244379999999992
21
-115.2173269999999974
0
LINE
8
BLACK
6
CONTINUOUS
10
49.7244379999999992
20
-115.2173269999999974
11
49.6722279999999969
21
-115.1268949999999904
0
LINE
8
BLACK
6
CONTINUOUS
10
49.6722279999999969
20
-115.1268949999999904
11
49.6722189999999983
21
-115.1268859999999989
0
LINE
8
BLACK
6
CONTINUOUS
10
49.6722189999999983
20
-115.1268859999999989
11
49.6377290000000002
21
-115.0875580000000014
0
LINE
8
BLACK
6
CONTINUOUS
10
49.6377290000000002
20
-115.0875580000000014
11
49.3329669999999965
21
-114.782794999999993
0
LINE
8
BLACK
6
CONTINUOUS
10
49.3329669999999965
20
-114.782794999999993
11
49.2936289999999957
21
-114.7482969999999938
0
LINE
8
BLACK
6
CONTINUOUS
10
49.2936289999999957
20
-114.7482969999999938
11
49.2031980000000004
21
-114.696085999999994
0
LINE
8
BLACK
6
CONTINUOUS
10
49.2031980000000004
20
-114.696085999999994
11
49.102333999999999
21
-114.6690600000000018
0
LINE
8
BLACK
6
CONTINUOUS
10
49.102333999999999
20
-114.6690600000000018
11
48.9979139999999944
21
-114.6690600000000018
0
LINE
8
BLACK
6
CONTINUOUS
10
48.9979139999999944
20
-114.6690600000000018
11
48.8970500000000001
21
-114.696085999999994
0
LINE
8
BLACK
6
CONTINUOUS
10
48.8970500000000001
20
-114.696085999999994
11
48.8066189999999978
21
-114.7482969999999938
0
LINE
8
BLACK
6
CONTINUOUS
10
48.8066189999999978
20
-114.7482969999999938
11
48.7672819999999945
21
-114.782794999999993
0
LINE
8
BLACK
6
CONTINUOUS
10
48.7672819999999945
20
-114.782794999999993
11
48.4625190000000003
21
-115.0875569999999897
0
LINE
8
BLACK
6
CONTINUOUS
10
48.4625190000000003
20
-115.0875569999999897
11
48.4280210000000011
21
-115.1268949999999904
0
LINE
8
BLACK
6
CONTINUOUS
10
48.4280210000000011
20
-115.1268949999999904
11
48.3758100000000013
21
-115.2173259999999999
0
LINE
8
BLACK
6
CONTINUOUS
10
48.3758100000000013
20
-115.2173259999999999
11
48.3487839999999949
21
-115.3181900000000013
0
LINE
8
BLACK
6
CONTINUOUS
10
48.3487839999999949
20
-115.3181900000000013
11
47.6376729999999995
21
-115.3181900000000013
0
LINE
8
BLACK
6
CONTINUOUS
10
47.6376729999999995
20
-115.3181900000000013
11
47.6376729999999995
21
-113.9579489999999993
0
LINE
8
BLACK
6
CONTINUOUS
10
47.6376729999999995
20
-113.9579489999999993
11
50.4625750000000011
21
-113.9579489999999993
0
LINE
8
BLACK
6
CONTINUOUS
10
50.4625750000000011
20
-113.9579489999999993
11
50.4625750000000011
21
-116.7828499999999963
0
LINE
8
BLACK
6
CONTINUOUS
10
132.9430389999999989
20
-55.5196849999999955
11
132.9887939999999844
21
-55.5724889999999974
0
LINE
8
BLACK
6
CONTINUOUS
10
132.9887939999999844
20
-55.5724889999999974
11
133.
21
-55.6239999999999952
0
LINE
8
BLACK
6
CONTINUOUS
10
133.
20
-55.6239999999999952
11
133.
21
-118.3766979999999904
0
LINE
8
BLACK
6
CONTINUOUS
10
133.
20
-118.3766979999999904
11
132.9803149999999903
21
-118.4437369999999987
0
LINE
8
BLACK
6
CONTINUOUS
10
132.9803149999999903
20
-118.4437369999999987
11
132.9275109999999813
21
-118.4894919999999985
0
LINE
8
BLACK
6
CONTINUOUS
10
132.9275109999999813
20
-118.4894919999999985
11
132.8767009999999971
21
-118.5006959999999907
0
LINE
8
BLACK
6
CONTINUOUS
10
132.8767009999999971
20
-118.5006959999999907
11
44.6247009999999946
21
-118.9992949999999894
0
LINE
8
BLACK
6
CONTINUOUS
10
44.6247009999999946
20
-118.9992949999999894
11
44.5575509999999966
21
-118.9799900000000008
0
LINE
8
BLACK
6
CONTINUOUS
10
44.5575509999999966
20
-118.9799900000000008
11
44.511497999999996
21
-118.9274449999999916
0
LINE
8
BLACK
6
CONTINUOUS
10
44.511497999999996
20
-118.9274449999999916
11
44.5
21
-118.8752969999999891
0
LINE
8
BLACK
6
CONTINUOUS
10
44.5
20
-118.8752969999999891
11
44.5
21
-116.0801620000000014
0
LINE
8
BLACK
6
CONTINUOUS
10
44.5
20
-116.0801620000000014
11
48.3403619999999989
21
-116.0801620000000014
0
LINE
8
BLACK
6
CONTINUOUS
10
48.3403619999999989
20
-116.0801620000000014
11
49.7598869999999991
21
-116.0801620000000014
0
LINE
8
BLACK
6
CONTINUOUS
10
49.7598869999999991
20
-116.0801620000000014
11
49.7598869999999991
21
-114.6606369999999941
0
LINE
8
BLACK
6
CONTINUOUS
10
49.7598869999999991
20
-114.6606369999999941
11
48.3403619999999989
21
-114.6606369999999941
0
LINE
8
BLACK
6
CONTINUOUS
10
48.3403619999999989
20
-114.6606369999999941
11
48.3403619999999989
21
-116.0801620000000014
0
LINE
8
BLACK
6
CONTINUOUS
10
48.3403619999999989
20
-116.0801620000000014
11
44.5
21
-116.0801620000000014
0
LINE
8
BLACK
6
CONTINUOUS
10
44.5
20
-116.0801620000000014
11
44.5
21
-55.6239999999999952
0
LINE
8
BLACK
6
CONTINUOUS
10
44.5
20
-55.6239999999999952
11
44.5196849999999955
21
-55.556960999999994
0
LINE
8
BLACK
6
CONTINUOUS
10
44.5196849999999955
20
-55.556960999999994
11
44.5724889999999974
21
-55.5112059999999943
0
LINE
8
BLACK
6
CONTINUOUS
10
44.5724889999999974
20
-55.5112059999999943
11
44.6239999999999952
21
-55.5
0
LINE
8
BLACK
6
CONTINUOUS
10
44.6239999999999952
20
-55.5
11
132.8760000000000048
21
-55.5
0
LINE
8
BLACK
6
CONTINUOUS
10
132.8760000000000048
20
-55.5
11
132.9430389999999989
21
-55.5196849999999955
0
LINE
8
BLACK
6
CONTINUOUS
10
44.5
20
-55.5
11
133.
21
-55.5
0
LINE
8
BLACK
6
CONTINUOUS
10
133.
20
-55.5
11
133.
21
-119.
0
LINE
8
BLACK
6
CONTINUOUS
10
133.
20
-119.
11
44.5
21
-119.
0
LINE
8
BLACK
6
CONTINUOUS
10
44.5
20
-119.
11
44.5
21
-55.5
0
CIRCLE
8
BLACK
10
70.3799999999999955
20
-60.8799999999999955
40
0.4
0
CIRCLE
8
BLACK
10
70.3799999999999955
20
-63.4199999999999946
40
0.4
0
CIRCLE
8
BLACK
10
70.3799999999999955
20
-65.9599999999999937
40
0.4
0
CIRCLE
8
BLACK
10
70.3799999999999955
20
-68.5
40
0.4
0
CIRCLE
8
BLACK
10
70.3799999999999955
20
-71.039999999999992
40
0.4
0
CIRCLE
8
BLACK
10
70.3799999999999955
20
-73.5799999999999983
40
0.4
0
CIRCLE
8
BLACK
10
70.3799999999999955
20
-76.1199999999999903
40
0.4
0
CIRCLE
8
BLACK
10
78.
20
-76.1199999999999903
40
0.4
0
CIRCLE
8
BLACK
10
78.
20
-73.5799999999999983
40
0.4
0
CIRCLE
8
BLACK
10
78.
20
-71.039999999999992
40
0.4
0
CIRCLE
8
BLACK
10
78.
20
-68.5
40
0.4
0
CIRCLE
8
BLACK
10
78.
20
-65.9599999999999937
40
0.4
0
CIRCLE
8
BLACK
10
78.
20
-63.4199999999999946
40
0.4
0
CIRCLE
8
BLACK
10
78.
20
-60.8799999999999955
40
0.4
0
CIRCLE
8
BLACK
10
83.3799999999999955
20
-87.4599999999999937
40
0.4
0
CIRCLE
8
BLACK
10
83.3799999999999955
20
-90.
40
0.4
0
CIRCLE
8
BLACK
10
83.3799999999999955
20
-92.539999999999992
40
0.4
0
CIRCLE
8
BLACK
10
83.3799999999999955
20
-95.0799999999999983
40
0.4
0
CIRCLE
8
BLACK
10
83.3799999999999955
20
-97.6199999999999903
40
0.4
0
CIRCLE
8
BLACK
10
83.3799999999999955
20
-100.1599999999999966
40
0.4
0
CIRCLE
8
BLACK
10
83.3799999999999955
20
-102.6999999999999886
40
0.4
0
CIRCLE
8
BLACK
10
83.3799999999999955
20
-105.2399999999999949
40
0.4
0
CIRCLE
8
BLACK
10
91.
20
-105.2399999999999949
40
0.4
0
CIRCLE
8
BLACK
10
91.
20
-102.6999999999999886
40
0.4
0
CIRCLE
8
BLACK
10
91.
20
-100.1599999999999966
40
0.4
0
CIRCLE
8
BLACK
10
91.
20
-97.6199999999999903
40
0.4
0
CIRCLE
8
BLACK
10
91.
20
-95.0799999999999983
40
0.4
0
CIRCLE
8
BLACK
10
91.
20
-92.539999999999992
40
0.4
0
CIRCLE
8
BLACK
10
91.
20
-90.
40
0.4
0
CIRCLE
8
BLACK
10
91.
20
-87.4599999999999937
40
0.4
0
CIRCLE
8
BLACK
10
98.5
20
-61.5
40
0.4
0
CIRCLE
8
BLACK
10
98.5
20
-64.039999999999992
40
0.4
0
CIRCLE
8
BLACK
10
98.5
20
-66.5799999999999983
40
0.4
0
CIRCLE
8
BLACK
10
98.5
20
-69.1199999999999903
40
0.4
0
CIRCLE
8
BLACK
10
98.5
20
-71.6599999999999966
40
0.4
0
CIRCLE
8
BLACK
10
98.5
20
-74.2000000000000028
40
0.4
0
CIRCLE
8
BLACK
10
98.5
20
-76.7399999999999949
40
0.4
0
CIRCLE
8
BLACK
10
90.8799999999999955
20
-76.7399999999999949
40
0.4
0
CIRCLE
8
BLACK
10
90.8799999999999955
20
-74.2000000000000028
40
0.4
0
CIRCLE
8
BLACK
10
90.8799999999999955
20
-71.6599999999999966
40
0.4
0
CIRCLE
8
BLACK
10
90.8799999999999955
20
-69.1199999999999903
40
0.4
0
CIRCLE
8
BLACK
10
90.8799999999999955
20
-66.5799999999999983
40
0.4
0
CIRCLE
8
BLACK
10
90.8799999999999955
20
-64.039999999999992
40
0.4
0
CIRCLE
8
BLACK
10
90.8799999999999955
20
-61.5
40
0.4
0
CIRCLE
8
BLACK
10
110.1199999999999903
20
-88.9200000000000017
40
0.4
0
CIRCLE
8
BLACK
10
110.1199999999999903
20
-91.4599999999999937
40
0.4
0
CIRCLE
8
BLACK
10
110.1199999999999903
20
-94.
40
0.4
0
CIRCLE
8
BLACK
10
110.1199999999999903
20
-96.539999999999992
40
0.4
0
CIRCLE
8
BLACK
10
110.1199999999999903
20
-99.0799999999999983
40
0.4
0
CIRCLE
8
BLACK
10
110.1199999999999903
20
-101.6199999999999903
40
0.4
0
CIRCLE
8
BLACK
10
110.1199999999999903
20
-104.1599999999999966
40
0.4
0
CIRCLE
8
BLACK
10
102.5
20
-104.1599999999999966
40
0.4
0
CIRCLE
8
BLACK
10
102.5
20
-101.6199999999999903
40
0.4
0
CIRCLE
8
BLACK
10
102.5
20
-99.0799999999999983
40
0.4
0
CIRCLE
8
BLACK
10
102.5
20
-96.539999999999992
40
0.4
0
CIRCLE
8
BLACK
10
102.5
20
-94.
40
0.4
0
CIRCLE
8
BLACK
10
102.5
20
-91.4599999999999937
40
0.4
0
CIRCLE
8
BLACK
10
102.5
20
-88.9200000000000017
40
0.4
0
CIRCLE
8
BLACK
10
128.5
20
-90.4599999999999937
40
0.4
0
CIRCLE
8
BLACK
10
128.5
20
-93.
40
0.4
0
CIRCLE
8
BLACK
10
128.5
20
-95.539999999999992
40
0.4
0
CIRCLE
8
BLACK
10
128.5
20
-98.0799999999999983
40
0.4
0
CIRCLE
8
BLACK
10
128.5
20
-100.6199999999999903
40
0.4
0
CIRCLE
8
BLACK
10
128.5
20
-103.1599999999999966
40
0.4
0
CIRCLE
8
BLACK
10
128.5
20
-105.6999999999999886
40
0.4
0
CIRCLE
8
BLACK
10
120.8799999999999955
20
-105.6999999999999886
40
0.4
0
CIRCLE
8
BLACK
10
120.8799999999999955
20
-103.1599999999999966
40
0.4
0
CIRCLE
8
BLACK
10
120.8799999999999955
20
-100.6199999999999903
40
0.4
0
CIRCLE
8
BLACK
10
120.8799999999999955
20
-98.0799999999999983
40
0.4
0
CIRCLE
8
BLACK
10
120.8799999999999955
20
-95.539999999999992
40
0.4
0
CIRCLE
8
BLACK
10
120.8799999999999955
20
-93.
40
0.4
0
CIRCLE
8
BLACK
10
120.8799999999999955
20
-90.4599999999999937
40
0.4
0
CIRCLE
8
BLACK
10
120.5
20
-62.4599999999999937
40
0.4
0
CIRCLE
8
BLACK
10
120.5
20
-65.
40
0.4
0
CIRCLE
8
BLACK
10
120.5
20
-67.539999999999992
40
0.4
0
CIRCLE
8
BLACK
10
120.5
20
-70.0799999999999983
40
0.4
0
CIRCLE
8
BLACK
10
120.5
20
-72.6199999999999903
40
0.4
0
CIRCLE
8
BLACK
10
120.5
20
-75.1599999999999966
40
0.4
0
CIRCLE
8
BLACK
10
120.5
20
-77.7000000000000028
40
0.4
0
CIRCLE
8
BLACK
10
112.8799999999999955
20
-77.7000000000000028
40
0.4
0
CIRCLE
8
BLACK
10
112.8799999999999955
20
-75.1599999999999966
40
0.4
0
CIRCLE
8
BLACK
10
112.8799999999999955
20
-72.6199999999999903
40
0.4
0
CIRCLE
8
BLACK
10
112.8799999999999955
20
-70.0799999999999983
40
0.4
0
CIRCLE
8
BLACK
10
112.8799999999999955
20
-67.539999999999992
40
0.4
0
CIRCLE
8
BLACK
10
112.8799999999999955
20
-65.
40
0.4
0
CIRCLE
8
BLACK
10
112.8799999999999955
20
-62.4599999999999937
40
0.4
0
CIRCLE
8
BLACK
10
51.5
20
-103.1999999999999886
40
0.5
0
CIRCLE
8
BLACK
10
51.5
20
-100.6599999999999966
40
0.5
0
CIRCLE
8
BLACK
10
51.5
20
-98.1199999999999903
40
0.5
0
CIRCLE
8
BLACK
10
51.5
20
-95.5799999999999983
40
0.5
0
CIRCLE
8
BLACK
10
51.5
20
-93.039999999999992
40
0.5
0
CIRCLE
8
BLACK
10
51.5
20
-90.5
40
0.5
0
CIRCLE
8
BLACK
10
51.5
20
-87.9599999999999937
40
0.5
0
CIRCLE
8
BLACK
10
71.8100000000000023
20
-87.4599999999999937
40
0.4
0
CIRCLE
8
BLACK
10
71.8100000000000023
20
-90.
40
0.4
0
CIRCLE
8
BLACK
10
71.8100000000000023
20
-92.539999999999992
40
0.4
0
CIRCLE
8
BLACK
10
71.8100000000000023
20
-95.0799999999999983
40
0.4
0
CIRCLE
8
BLACK
10
71.8100000000000023
20
-97.6199999999999903
40
0.4
0
CIRCLE
8
BLACK
10
71.8100000000000023
20
-100.1599999999999966
40
0.4
0
CIRCLE
8
BLACK
10
71.8100000000000023
20
-102.6999999999999886
40
0.4
0
CIRCLE
8
BLACK
10
71.8100000000000023
20
-105.2399999999999949
40
0.4
0
CIRCLE
8
BLACK
10
64.1899999999999977
20
-105.2399999999999949
40
0.4
0
CIRCLE
8
BLACK
10
64.1899999999999977
20
-102.6999999999999886
40
0.4
0
CIRCLE
8
BLACK
10
64.1899999999999977
20
-100.1599999999999966
40
0.4
0
CIRCLE
8
BLACK
10
64.1899999999999977
20
-97.6199999999999903
40
0.4
0
CIRCLE
8
BLACK
10
64.1899999999999977
20
-95.0799999999999983
40
0.4
0
CIRCLE
8
BLACK
10
64.1899999999999977
20
-92.539999999999992
40
0.4
0
CIRCLE
8
BLACK
10
64.1899999999999977
20
-90.
40
0.4
0
CIRCLE
8
BLACK
10
64.1899999999999977
20
-87.4599999999999937
40
0.4
0
CIRCLE
8
BLACK
10
59.1199999999999974
20
-58.9600000000000009
40
0.4
0
CIRCLE
8
BLACK
10
59.1199999999999974
20
-61.5
40
0.4
0
CIRCLE
8
BLACK
10
59.1199999999999974
20
-64.039999999999992
40
0.4
0
CIRCLE
8
BLACK
10
59.1199999999999974
20
-66.5799999999999983
40
0.4
0
CIRCLE
8
BLACK
10
59.1199999999999974
20
-69.1199999999999903
40
0.4
0
CIRCLE
8
BLACK
10
59.1199999999999974
20
-71.6599999999999966
40
0.4
0
CIRCLE
8
BLACK
10
59.1199999999999974
20
-74.2000000000000028
40
0.4
0
CIRCLE
8
BLACK
10
59.1199999999999974
20
-76.7399999999999949
40
0.4
0
CIRCLE
8
BLACK
10
51.5
20
-76.7399999999999949
40
0.4
0
CIRCLE
8
BLACK
10
51.5
20
-74.2000000000000028
40
0.4
0
CIRCLE
8
BLACK
10
51.5
20
-71.6599999999999966
40
0.4
0
CIRCLE
8
BLACK
10
51.5
20
-69.1199999999999903
40
0.4
0
CIRCLE
8
BLACK
10
51.5
20
-66.5799999999999983
40
0.4
0
CIRCLE
8
BLACK
10
51.5
20
-64.039999999999992
40
0.4
0
CIRCLE
8
BLACK
10
51.5
20
-61.5
40
0.4
0
CIRCLE
8
BLACK
10
51.5
20
-58.9600000000000009
40
0.4
  0
ENDSEC
  0
EOF
