  0
SECTION
  2
HEADER
  9
$ANGBASE
  50
0.0
  9
$ANGDIR
  70
1
  9
$MEASUREMENT
  70
1
  0
ENDSEC
  0
SECTION
  2
TABLES
  0
TABLE
  2
LTYPE
  70
4
  0
LTYPE
  5
40F
  2
CONTINUOUS
  70
0
  3
Solid line
  72
65
  73
0
  40
0.0
  0
LTYPE
  5
410
  2
DASHDOT
 70
0
  3
Dash Dot ____ _ ____ _
 72
65
 73
4
 40
2.0
 49
1.25
 49
-0.25
 49
0.25
 49
-0.25
  0
LTYPE
  5
411
  2
DASHED
 70
0
  3
Dashed __ __ __ __ __
 72
65
 73
2
 40
0.75
 49
0.5
 49
-0.25
  0
LTYPE
  5
43B
  2
DOTTED
 70
0
  3
Dotted .  .  .  .
 72
65
 73
2
 40
0.2
 49
0.0
 49
-0.2
  0
ENDTAB
  0
TABLE
  2
STYLE
  70
4
  0
STYLE
  2
KICAD
  70
0
  40
0
  41
1
  42
1
  50
0
  71
0
  3
isocp.shx
  0
STYLE
  2
KICADB
  70
0
  40
0
  41
1
  42
1
  50
0
  71
0
  3
isocp.shx
  0
STYLE
  2
KICADI
  70
0
  40
0
  41
1
  42
1
  50
15
  71
0
  3
isocp.shx
  0
STYLE
  2
KICADBI
  70
0
  40
0
  41
1
  42
1
  50
15
  71
0
  3
isocp.shx
  0
ENDTAB
  0
TABLE
  2
LAYER
  70
1
  0
LAYER
  2
BLACK
  70
0
  62
7
  6
CONTINUOUS
  0
ENDTAB
  0
ENDSEC
  0
SECTION
  2
ENTITIES
0
LINE
8
BLACK
6
CONTINUOUS
10
128.0225480000000005
20
-90.9424619999999919
11
128.1801150000000007
21
-91.0077289999999977
0
LINE
8
BLACK
6
CONTINUOUS
10
128.1801150000000007
20
-91.0077289999999977
11
128.3219220000000007
21
-91.1024809999999974
0
LINE
8
BLACK
6
CONTINUOUS
10
128.3219220000000007
20
-91.1024809999999974
11
128.4425190000000043
21
-91.223078000000001
0
LINE
8
BLACK
6
CONTINUOUS
10
128.4425190000000043
20
-91.223078000000001
11
128.5372710000000041
21
-91.364885000000001
0
LINE
8
BLACK
6
CONTINUOUS
10
128.5372710000000041
20
-91.364885000000001
11
128.5414609999999982
21
-91.375
0
LINE
8
BLACK
6
CONTINUOUS
10
128.5414609999999982
20
-91.375
11
130.8823509999999999
21
-91.375
0
LINE
8
BLACK
6
CONTINUOUS
10
130.8823509999999999
20
-91.375
11
131.0028829999999971
21
-91.2944629999999933
0
LINE
8
BLACK
6
CONTINUOUS
10
131.0028829999999971
20
-91.2944629999999933
11
131.1477720000000033
21
-91.2344480000000004
0
LINE
8
BLACK
6
CONTINUOUS
10
131.1477720000000033
20
-91.2344480000000004
11
131.3015859999999861
21
-91.2038519999999977
0
LINE
8
BLACK
6
CONTINUOUS
10
131.3015859999999861
20
-91.2038519999999977
11
131.4584140000000048
21
-91.2038519999999977
0
LINE
8
BLACK
6
CONTINUOUS
10
131.4584140000000048
20
-91.2038519999999977
11
131.6122279999999876
21
-91.2344480000000004
0
LINE
8
BLACK
6
CONTINUOUS
10
131.6122279999999876
20
-91.2344480000000004
11
131.7571169999999938
21
-91.2944629999999933
0
LINE
8
BLACK
6
CONTINUOUS
10
131.7571169999999938
20
-91.2944629999999933
11
131.8875150000000076
21
-91.3815919999999977
0
LINE
8
BLACK
6
CONTINUOUS
10
131.8875150000000076
20
-91.3815919999999977
11
131.9984079999999835
21
-91.4924850000000021
0
LINE
8
BLACK
6
CONTINUOUS
10
131.9984079999999835
20
-91.4924850000000021
11
132.085536999999988
21
-91.6228830000000016
0
LINE
8
BLACK
6
CONTINUOUS
10
132.085536999999988
20
-91.6228830000000016
11
132.1455519999999808
21
-91.7677719999999937
0
LINE
8
BLACK
6
CONTINUOUS
10
132.1455519999999808
20
-91.7677719999999937
11
132.1761479999999835
21
-91.9215859999999907
0
LINE
8
BLACK
6
CONTINUOUS
10
132.1761479999999835
20
-91.9215859999999907
11
132.1761479999999835
21
-92.0784139999999951
0
LINE
8
BLACK
6
CONTINUOUS
10
132.1761479999999835
20
-92.0784139999999951
11
132.1455519999999808
21
-92.2322279999999921
0
LINE
8
BLACK
6
CONTINUOUS
10
132.1455519999999808
20
-92.2322279999999921
11
132.085536999999988
21
-92.3771169999999984
0
LINE
8
BLACK
6
CONTINUOUS
10
132.085536999999988
20
-92.3771169999999984
11
131.9984079999999835
21
-92.5075149999999979
0
LINE
8
BLACK
6
CONTINUOUS
10
131.9984079999999835
20
-92.5075149999999979
11
131.8875150000000076
21
-92.6184080000000023
0
LINE
8
BLACK
6
CONTINUOUS
10
131.8875150000000076
20
-92.6184080000000023
11
131.7571169999999938
21
-92.7055369999999925
0
LINE
8
BLACK
6
CONTINUOUS
10
131.7571169999999938
20
-92.7055369999999925
11
131.6122279999999876
21
-92.7655519999999996
0
LINE
8
BLACK
6
CONTINUOUS
10
131.6122279999999876
20
-92.7655519999999996
11
131.4584140000000048
21
-92.7961480000000023
0
LINE
8
BLACK
6
CONTINUOUS
10
131.4584140000000048
20
-92.7961480000000023
11
131.3015859999999861
21
-92.7961480000000023
0
LINE
8
BLACK
6
CONTINUOUS
10
131.3015859999999861
20
-92.7961480000000023
11
131.1477720000000033
21
-92.7655519999999996
0
LINE
8
BLACK
6
CONTINUOUS
10
131.1477720000000033
20
-92.7655519999999996
11
131.0028829999999971
21
-92.7055369999999925
0
LINE
8
BLACK
6
CONTINUOUS
10
131.0028829999999971
20
-92.7055369999999925
11
130.8724849999999833
21
-92.6184080000000023
0
LINE
8
BLACK
6
CONTINUOUS
10
130.8724849999999833
20
-92.6184080000000023
11
130.7615920000000074
21
-92.5075149999999979
0
LINE
8
BLACK
6
CONTINUOUS
10
130.7615920000000074
20
-92.5075149999999979
11
130.6744630000000029
21
-92.3771169999999984
0
LINE
8
BLACK
6
CONTINUOUS
10
130.6744630000000029
20
-92.3771169999999984
11
130.6144479999999817
21
-92.2322279999999921
0
LINE
8
BLACK
6
CONTINUOUS
10
130.6144479999999817
20
-92.2322279999999921
11
130.6030639999999892
21
-92.1749999999999972
0
LINE
8
BLACK
6
CONTINUOUS
10
130.6030639999999892
20
-92.1749999999999972
11
128.5414609999999982
21
-92.1749999999999972
0
LINE
8
BLACK
6
CONTINUOUS
10
128.5414609999999982
20
-92.1749999999999972
11
128.5372710000000041
21
-92.1851149999999961
0
LINE
8
BLACK
6
CONTINUOUS
10
128.5372710000000041
20
-92.1851149999999961
11
128.4425190000000043
21
-92.3269219999999962
0
LINE
8
BLACK
6
CONTINUOUS
10
128.4425190000000043
20
-92.3269219999999962
11
128.3219220000000007
21
-92.4475189999999998
0
LINE
8
BLACK
6
CONTINUOUS
10
128.3219220000000007
20
-92.4475189999999998
11
128.1801150000000007
21
-92.5422709999999995
0
LINE
8
BLACK
6
CONTINUOUS
10
128.1801150000000007
20
-92.5422709999999995
11
128.0225480000000005
21
-92.607537999999991
0
LINE
8
BLACK
6
CONTINUOUS
10
128.0225480000000005
20
-92.607537999999991
11
127.8552749999999918
21
-92.6408109999999994
0
LINE
8
BLACK
6
CONTINUOUS
10
127.8552749999999918
20
-92.6408109999999994
11
127.6847250000000003
21
-92.6408109999999994
0
LINE
8
BLACK
6
CONTINUOUS
10
127.6847250000000003
20
-92.6408109999999994
11
127.5174519999999916
21
-92.607537999999991
0
LINE
8
BLACK
6
CONTINUOUS
10
127.5174519999999916
20
-92.607537999999991
11
127.3598849999999914
21
-92.5422709999999995
0
LINE
8
BLACK
6
CONTINUOUS
10
127.3598849999999914
20
-92.5422709999999995
11
127.2180779999999913
21
-92.4475189999999998
0
LINE
8
BLACK
6
CONTINUOUS
10
127.2180779999999913
20
-92.4475189999999998
11
127.0974809999999877
21
-92.3269219999999962
0
LINE
8
BLACK
6
CONTINUOUS
10
127.0974809999999877
20
-92.3269219999999962
11
127.002728999999988
21
-92.1851149999999961
0
LINE
8
BLACK
6
CONTINUOUS
10
127.002728999999988
20
-92.1851149999999961
11
126.9374619999999965
21
-92.0275479999999959
0
LINE
8
BLACK
6
CONTINUOUS
10
126.9374619999999965
20
-92.0275479999999959
11
126.9041889999999881
21
-91.8602750000000015
0
LINE
8
BLACK
6
CONTINUOUS
10
126.9041889999999881
20
-91.8602750000000015
11
126.9041889999999881
21
-91.6897249999999957
0
LINE
8
BLACK
6
CONTINUOUS
10
126.9041889999999881
20
-91.6897249999999957
11
126.9374619999999965
21
-91.5224520000000012
0
LINE
8
BLACK
6
CONTINUOUS
10
126.9374619999999965
20
-91.5224520000000012
11
127.002728999999988
21
-91.364885000000001
0
LINE
8
BLACK
6
CONTINUOUS
10
127.002728999999988
20
-91.364885000000001
11
127.0974809999999877
21
-91.223078000000001
0
LINE
8
BLACK
6
CONTINUOUS
10
127.0974809999999877
20
-91.223078000000001
11
127.2180779999999913
21
-91.1024809999999974
0
LINE
8
BLACK
6
CONTINUOUS
10
127.2180779999999913
20
-91.1024809999999974
11
127.3598849999999914
21
-91.0077289999999977
0
LINE
8
BLACK
6
CONTINUOUS
10
127.3598849999999914
20
-91.0077289999999977
11
127.5174519999999916
21
-90.9424619999999919
0
LINE
8
BLACK
6
CONTINUOUS
10
127.5174519999999916
20
-90.9424619999999919
11
127.6847250000000003
21
-90.9091889999999978
0
LINE
8
BLACK
6
CONTINUOUS
10
127.6847250000000003
20
-90.9091889999999978
11
127.8552749999999918
21
-90.9091889999999978
0
LINE
8
BLACK
6
CONTINUOUS
10
127.8552749999999918
20
-90.9091889999999978
11
128.0225480000000005
21
-90.9424619999999919
0
LINE
8
BLACK
6
CONTINUOUS
10
143.290284999999983
20
-91.043059999999997
11
143.4713969999999961
21
-91.1180789999999945
0
LINE
8
BLACK
6
CONTINUOUS
10
143.4713969999999961
20
-91.1180789999999945
11
143.6343929999999887
21
-91.2269900000000007
0
LINE
8
BLACK
6
CONTINUOUS
10
143.6343929999999887
20
-91.2269900000000007
11
143.7730099999999993
21
-91.3656069999999971
0
LINE
8
BLACK
6
CONTINUOUS
10
143.7730099999999993
20
-91.3656069999999971
11
143.8819210000000055
21
-91.5286029999999897
0
LINE
8
BLACK
6
CONTINUOUS
10
143.8819210000000055
20
-91.5286029999999897
11
143.956940000000003
21
-91.7097150000000028
0
LINE
8
BLACK
6
CONTINUOUS
10
143.956940000000003
20
-91.7097150000000028
11
143.9951849999999922
21
-91.9019830000000013
0
LINE
8
BLACK
6
CONTINUOUS
10
143.9951849999999922
20
-91.9019830000000013
11
143.9951849999999922
21
-92.0980169999999987
0
LINE
8
BLACK
6
CONTINUOUS
10
143.9951849999999922
20
-92.0980169999999987
11
143.956940000000003
21
-92.2902849999999972
0
LINE
8
BLACK
6
CONTINUOUS
10
143.956940000000003
20
-92.2902849999999972
11
143.8819210000000055
21
-92.4713969999999961
0
LINE
8
BLACK
6
CONTINUOUS
10
143.8819210000000055
20
-92.4713969999999961
11
143.7730099999999993
21
-92.6343930000000029
0
LINE
8
BLACK
6
CONTINUOUS
10
143.7730099999999993
20
-92.6343930000000029
11
143.6343929999999887
21
-92.7730099999999993
0
LINE
8
BLACK
6
CONTINUOUS
10
143.6343929999999887
20
-92.7730099999999993
11
143.4713969999999961
21
-92.8819209999999913
0
LINE
8
BLACK
6
CONTINUOUS
10
143.4713969999999961
20
-92.8819209999999913
11
143.290284999999983
21
-92.9569399999999888
0
LINE
8
BLACK
6
CONTINUOUS
10
143.290284999999983
20
-92.9569399999999888
11
143.0980169999999987
21
-92.9951849999999922
0
LINE
8
BLACK
6
CONTINUOUS
10
143.0980169999999987
20
-92.9951849999999922
11
142.9019830000000013
21
-92.9951849999999922
0
LINE
8
BLACK
6
CONTINUOUS
10
142.9019830000000013
20
-92.9951849999999922
11
142.7097149999999885
21
-92.9569399999999888
0
LINE
8
BLACK
6
CONTINUOUS
10
142.7097149999999885
20
-92.9569399999999888
11
142.5286030000000039
21
-92.8819209999999913
0
LINE
8
BLACK
6
CONTINUOUS
10
142.5286030000000039
20
-92.8819209999999913
11
142.3656069999999829
21
-92.7730099999999993
0
LINE
8
BLACK
6
CONTINUOUS
10
142.3656069999999829
20
-92.7730099999999993
11
142.2269900000000007
21
-92.6343930000000029
0
LINE
8
BLACK
6
CONTINUOUS
10
142.2269900000000007
20
-92.6343930000000029
11
142.1180789999999945
21
-92.4713969999999961
0
LINE
8
BLACK
6
CONTINUOUS
10
142.1180789999999945
20
-92.4713969999999961
11
142.0885049999999978
21
-92.3999999999999915
0
LINE
8
BLACK
6
CONTINUOUS
10
142.0885049999999978
20
-92.3999999999999915
11
139.6902469999999994
21
-92.3999999999999915
0
LINE
8
BLACK
6
CONTINUOUS
10
139.6902469999999994
20
-92.3999999999999915
11
139.6184079999999881
21
-92.5075149999999979
0
LINE
8
BLACK
6
CONTINUOUS
10
139.6184079999999881
20
-92.5075149999999979
11
139.5075149999999837
21
-92.6184080000000023
0
LINE
8
BLACK
6
CONTINUOUS
10
139.5075149999999837
20
-92.6184080000000023
11
139.3771169999999984
21
-92.7055369999999925
0
LINE
8
BLACK
6
CONTINUOUS
10
139.3771169999999984
20
-92.7055369999999925
11
139.2322279999999921
21
-92.7655519999999996
0
LINE
8
BLACK
6
CONTINUOUS
10
139.2322279999999921
20
-92.7655519999999996
11
139.0784139999999809
21
-92.7961480000000023
0
LINE
8
BLACK
6
CONTINUOUS
10
139.0784139999999809
20
-92.7961480000000023
11
138.9215859999999907
21
-92.7961480000000023
0
LINE
8
BLACK
6
CONTINUOUS
10
138.9215859999999907
20
-92.7961480000000023
11
138.7677720000000079
21
-92.7655519999999996
0
LINE
8
BLACK
6
CONTINUOUS
10
138.7677720000000079
20
-92.7655519999999996
11
138.6228830000000016
21
-92.7055369999999925
0
LINE
8
BLACK
6
CONTINUOUS
10
138.6228830000000016
20
-92.7055369999999925
11
138.4924849999999878
21
-92.6184080000000023
0
LINE
8
BLACK
6
CONTINUOUS
10
138.4924849999999878
20
-92.6184080000000023
11
138.3815919999999835
21
-92.5075149999999979
0
LINE
8
BLACK
6
CONTINUOUS
10
138.3815919999999835
20
-92.5075149999999979
11
138.2944630000000075
21
-92.3771169999999984
0
LINE
8
BLACK
6
CONTINUOUS
10
138.2944630000000075
20
-92.3771169999999984
11
138.2344479999999862
21
-92.2322279999999921
0
LINE
8
BLACK
6
CONTINUOUS
10
138.2344479999999862
20
-92.2322279999999921
11
138.2038519999999835
21
-92.0784139999999951
0
LINE
8
BLACK
6
CONTINUOUS
10
138.2038519999999835
20
-92.0784139999999951
11
138.2038519999999835
21
-91.9215859999999907
0
LINE
8
BLACK
6
CONTINUOUS
10
138.2038519999999835
20
-91.9215859999999907
11
138.2344479999999862
21
-91.7677719999999937
0
LINE
8
BLACK
6
CONTINUOUS
10
138.2344479999999862
20
-91.7677719999999937
11
138.2944630000000075
21
-91.6228830000000016
0
LINE
8
BLACK
6
CONTINUOUS
10
138.2944630000000075
20
-91.6228830000000016
11
138.3815919999999835
21
-91.4924850000000021
0
LINE
8
BLACK
6
CONTINUOUS
10
138.3815919999999835
20
-91.4924850000000021
11
138.4924849999999878
21
-91.3815919999999977
0
LINE
8
BLACK
6
CONTINUOUS
10
138.4924849999999878
20
-91.3815919999999977
11
138.6228830000000016
21
-91.2944629999999933
0
LINE
8
BLACK
6
CONTINUOUS
10
138.6228830000000016
20
-91.2944629999999933
11
138.7677720000000079
21
-91.2344480000000004
0
LINE
8
BLACK
6
CONTINUOUS
10
138.7677720000000079
20
-91.2344480000000004
11
138.9215859999999907
21
-91.2038519999999977
0
LINE
8
BLACK
6
CONTINUOUS
10
138.9215859999999907
20
-91.2038519999999977
11
139.0784139999999809
21
-91.2038519999999977
0
LINE
8
BLACK
6
CONTINUOUS
10
139.0784139999999809
20
-91.2038519999999977
11
139.2322279999999921
21
-91.2344480000000004
0
LINE
8
BLACK
6
CONTINUOUS
10
139.2322279999999921
20
-91.2344480000000004
11
139.3771169999999984
21
-91.2944629999999933
0
LINE
8
BLACK
6
CONTINUOUS
10
139.3771169999999984
20
-91.2944629999999933
11
139.5075149999999837
21
-91.3815919999999977
0
LINE
8
BLACK
6
CONTINUOUS
10
139.5075149999999837
20
-91.3815919999999977
11
139.6184079999999881
21
-91.4924850000000021
0
LINE
8
BLACK
6
CONTINUOUS
10
139.6184079999999881
20
-91.4924850000000021
11
139.6902469999999994
21
-91.5999999999999943
0
LINE
8
BLACK
6
CONTINUOUS
10
139.6902469999999994
20
-91.5999999999999943
11
142.0885049999999978
21
-91.5999999999999943
0
LINE
8
BLACK
6
CONTINUOUS
10
142.0885049999999978
20
-91.5999999999999943
11
142.1180789999999945
21
-91.5286029999999897
0
LINE
8
BLACK
6
CONTINUOUS
10
142.1180789999999945
20
-91.5286029999999897
11
142.2269900000000007
21
-91.3656069999999971
0
LINE
8
BLACK
6
CONTINUOUS
10
142.2269900000000007
20
-91.3656069999999971
11
142.3656069999999829
21
-91.2269900000000007
0
LINE
8
BLACK
6
CONTINUOUS
10
142.3656069999999829
20
-91.2269900000000007
11
142.5286030000000039
21
-91.1180789999999945
0
LINE
8
BLACK
6
CONTINUOUS
10
142.5286030000000039
20
-91.1180789999999945
11
142.7097149999999885
21
-91.043059999999997
0
LINE
8
BLACK
6
CONTINUOUS
10
142.7097149999999885
20
-91.043059999999997
11
142.9019830000000013
21
-91.0048149999999936
0
LINE
8
BLACK
6
CONTINUOUS
10
142.9019830000000013
20
-91.0048149999999936
11
143.0980169999999987
21
-91.0048149999999936
0
LINE
8
BLACK
6
CONTINUOUS
10
143.0980169999999987
20
-91.0048149999999936
11
143.290284999999983
21
-91.043059999999997
0
LINE
8
BLACK
6
CONTINUOUS
10
146.4425389999999823
20
-87.5201849999999979
11
146.4882939999999962
21
-87.5729889999999926
0
LINE
8
BLACK
6
CONTINUOUS
10
146.4882939999999962
20
-87.5729889999999926
11
146.4994999999999834
21
-87.6244999999999976
0
LINE
8
BLACK
6
CONTINUOUS
10
146.4994999999999834
20
-87.6244999999999976
11
146.4994999999999834
21
-95.8755000000000024
0
LINE
8
BLACK
6
CONTINUOUS
10
146.4994999999999834
20
-95.8755000000000024
11
146.4798150000000021
21
-95.9425389999999965
0
LINE
8
BLACK
6
CONTINUOUS
10
146.4798150000000021
20
-95.9425389999999965
11
146.4270109999999931
21
-95.9882939999999962
0
LINE
8
BLACK
6
CONTINUOUS
10
146.4270109999999931
20
-95.9882939999999962
11
146.3754999999999882
21
-95.9994999999999976
0
LINE
8
BLACK
6
CONTINUOUS
10
146.3754999999999882
20
-95.9994999999999976
11
117.6244999999999976
21
-95.9994999999999976
0
LINE
8
BLACK
6
CONTINUOUS
10
117.6244999999999976
20
-95.9994999999999976
11
117.5574609999999893
21
-95.9798150000000021
0
LINE
8
BLACK
6
CONTINUOUS
10
117.5574609999999893
20
-95.9798150000000021
11
117.5117059999999896
21
-95.9270109999999931
0
LINE
8
BLACK
6
CONTINUOUS
10
117.5117059999999896
20
-95.9270109999999931
11
117.5004999999999882
21
-95.8755000000000024
0
LINE
8
BLACK
6
CONTINUOUS
10
117.5004999999999882
20
-95.8755000000000024
11
117.5004999999999882
21
-91.8819469999999967
0
LINE
8
BLACK
6
CONTINUOUS
10
117.5004999999999882
20
-91.8819469999999967
11
117.5004999999999882
21
-87.6244999999999976
0
LINE
8
BLACK
6
CONTINUOUS
10
117.5004999999999882
20
-87.6244999999999976
11
117.5201849999999979
21
-87.5574609999999893
0
LINE
8
BLACK
6
CONTINUOUS
10
117.5201849999999979
20
-87.5574609999999893
11
117.5729889999999926
21
-87.5117059999999896
0
LINE
8
BLACK
6
CONTINUOUS
10
117.5729889999999926
20
-87.5117059999999896
11
117.6244999999999976
21
-87.5005000000000024
0
LINE
8
BLACK
6
CONTINUOUS
10
117.6244999999999976
20
-87.5005000000000024
11
146.3754999999999882
21
-87.5005000000000024
0
LINE
8
BLACK
6
CONTINUOUS
10
146.3754999999999882
20
-87.5005000000000024
11
146.4425389999999823
21
-87.5201849999999979
0
LINE
8
BLACK
6
CONTINUOUS
10
127.4538529999999952
20
-90.1317069999999916
11
127.4434019999999919
21
-90.1330829999999992
0
LINE
8
BLACK
6
CONTINUOUS
10
127.4434019999999919
20
-90.1330829999999992
11
127.3986989999999935
21
-90.1450600000000009
0
LINE
8
BLACK
6
CONTINUOUS
10
127.3986989999999935
20
-90.1450600000000009
11
127.2318839999999938
21
-90.1897579999999977
0
LINE
8
BLACK
6
CONTINUOUS
10
127.2318839999999938
20
-90.1897579999999977
11
127.1133739999999932
21
-90.2388469999999927
0
LINE
8
BLACK
6
CONTINUOUS
10
127.1133739999999932
20
-90.2388469999999927
11
127.0295719999999875
21
-90.2735599999999891
0
LINE
8
BLACK
6
CONTINUOUS
10
127.0295719999999875
20
-90.2735599999999891
11
127.0295689999999951
21
-90.2735610000000008
0
LINE
8
BLACK
6
CONTINUOUS
10
127.0295689999999951
20
-90.2735610000000008
11
127.0295610000000011
21
-90.2735649999999907
0
LINE
8
BLACK
6
CONTINUOUS
10
127.0295610000000011
20
-90.2735649999999907
11
126.8399289999999979
21
-90.3830489999999998
0
LINE
8
BLACK
6
CONTINUOUS
10
126.8399289999999979
20
-90.3830489999999998
11
126.6662010000000009
21
-90.5163549999999901
0
LINE
8
BLACK
6
CONTINUOUS
10
126.6662010000000009
20
-90.5163549999999901
11
126.6661939999999902
21
-90.5163609999999892
0
LINE
8
BLACK
6
CONTINUOUS
10
126.6661939999999902
20
-90.5163609999999892
11
126.5113609999999937
21
-90.6711939999999998
0
LINE
8
BLACK
6
CONTINUOUS
10
126.5113609999999937
20
-90.6711939999999998
11
126.5113549999999947
21
-90.6712009999999964
0
LINE
8
BLACK
6
CONTINUOUS
10
126.5113549999999947
20
-90.6712009999999964
11
126.3780489999999901
21
-90.8449289999999934
0
LINE
8
BLACK
6
CONTINUOUS
10
126.3780489999999901
20
-90.8449289999999934
11
126.2685649999999953
21
-91.0345609999999965
0
LINE
8
BLACK
6
CONTINUOUS
10
126.2685649999999953
20
-91.0345609999999965
11
126.2685579999999987
21
-91.0345749999999896
0
LINE
8
BLACK
6
CONTINUOUS
10
126.2685579999999987
20
-91.0345749999999896
11
126.2388069999999942
21
-91.1063979999999987
0
LINE
8
BLACK
6
CONTINUOUS
10
126.2388069999999942
20
-91.1063979999999987
11
126.2119280000000003
21
-91.1466240000000028
0
LINE
8
BLACK
6
CONTINUOUS
10
126.2119280000000003
20
-91.1466240000000028
11
125.9958269999999914
21
-91.362724
0
LINE
8
BLACK
6
CONTINUOUS
10
125.9958269999999914
20
-91.362724
11
125.9972709999999978
21
-91.364885000000001
0
LINE
8
BLACK
6
CONTINUOUS
10
125.9972709999999978
20
-91.364885000000001
11
126.0625379999999893
21
-91.5224520000000012
0
LINE
8
BLACK
6
CONTINUOUS
10
126.0625379999999893
20
-91.5224520000000012
11
126.0958109999999976
21
-91.6897249999999957
0
LINE
8
BLACK
6
CONTINUOUS
10
126.0958109999999976
20
-91.6897249999999957
11
126.0958109999999976
21
-91.8602750000000015
0
LINE
8
BLACK
6
CONTINUOUS
10
126.0958109999999976
20
-91.8602750000000015
11
126.0625379999999893
21
-92.0275479999999959
0
LINE
8
BLACK
6
CONTINUOUS
10
126.0625379999999893
20
-92.0275479999999959
11
125.9972709999999978
21
-92.1851149999999961
0
LINE
8
BLACK
6
CONTINUOUS
10
125.9972709999999978
20
-92.1851149999999961
11
125.9958279999999888
21
-92.1872740000000022
0
LINE
8
BLACK
6
CONTINUOUS
10
125.9958279999999888
20
-92.1872740000000022
11
126.2119269999999887
21
-92.403373000000002
0
LINE
8
BLACK
6
CONTINUOUS
10
126.2119269999999887
20
-92.403373000000002
11
126.2388059999999967
21
-92.4435989999999919
0
LINE
8
BLACK
6
CONTINUOUS
10
126.2388059999999967
20
-92.4435989999999919
11
126.2685579999999987
21
-92.5154239999999959
0
LINE
8
BLACK
6
CONTINUOUS
10
126.2685579999999987
20
-92.5154239999999959
11
126.2685649999999953
21
-92.515437999999989
0
LINE
8
BLACK
6
CONTINUOUS
10
126.2685649999999953
20
-92.515437999999989
11
126.3780489999999901
21
-92.7050699999999921
0
LINE
8
BLACK
6
CONTINUOUS
10
126.3780489999999901
20
-92.7050699999999921
11
126.5113549999999947
21
-92.8787979999999891
0
LINE
8
BLACK
6
CONTINUOUS
10
126.5113549999999947
20
-92.8787979999999891
11
126.5113609999999937
21
-92.8788049999999998
0
LINE
8
BLACK
6
CONTINUOUS
10
126.5113609999999937
20
-92.8788049999999998
11
126.6661939999999902
21
-93.0336379999999963
0
LINE
8
BLACK
6
CONTINUOUS
10
126.6661939999999902
20
-93.0336379999999963
11
126.6662010000000009
21
-93.0336439999999953
0
LINE
8
BLACK
6
CONTINUOUS
10
126.6662010000000009
20
-93.0336439999999953
11
126.8399289999999979
21
-93.1669499999999999
0
LINE
8
BLACK
6
CONTINUOUS
10
126.8399289999999979
20
-93.1669499999999999
11
127.0295610000000011
21
-93.2764339999999947
0
LINE
8
BLACK
6
CONTINUOUS
10
127.0295610000000011
20
-93.2764339999999947
11
127.029562999999996
21
-93.2764339999999947
0
LINE
8
BLACK
6
CONTINUOUS
10
127.029562999999996
20
-93.2764339999999947
11
127.0295719999999875
21
-93.2764399999999938
0
LINE
8
BLACK
6
CONTINUOUS
10
127.0295719999999875
20
-93.2764399999999938
11
127.2318829999999963
21
-93.360241000000002
0
LINE
8
BLACK
6
CONTINUOUS
10
127.2318829999999963
20
-93.360241000000002
11
127.4434019999999919
21
-93.416916999999998
0
LINE
8
BLACK
6
CONTINUOUS
10
127.4434019999999919
20
-93.416916999999998
11
127.6605099999999879
21
-93.4454999999999956
0
LINE
8
BLACK
6
CONTINUOUS
10
127.6605099999999879
20
-93.4454999999999956
11
127.6605169999999987
21
-93.4454999999999956
0
LINE
8
BLACK
6
CONTINUOUS
10
127.6605169999999987
20
-93.4454999999999956
11
127.8794829999999934
21
-93.4454999999999956
0
LINE
8
BLACK
6
CONTINUOUS
10
127.8794829999999934
20
-93.4454999999999956
11
127.8794899999999899
21
-93.4454999999999956
0
LINE
8
BLACK
6
CONTINUOUS
10
127.8794899999999899
20
-93.4454999999999956
11
128.0965980000000002
21
-93.416916999999998
0
LINE
8
BLACK
6
CONTINUOUS
10
128.0965980000000002
20
-93.416916999999998
11
128.3081169999999815
21
-93.360241000000002
0
LINE
8
BLACK
6
CONTINUOUS
10
128.3081169999999815
20
-93.360241000000002
11
128.5104279999999903
21
-93.2764399999999938
0
LINE
8
BLACK
6
CONTINUOUS
10
128.5104279999999903
20
-93.2764399999999938
11
128.7000710000000083
21
-93.1669499999999999
0
LINE
8
BLACK
6
CONTINUOUS
10
128.7000710000000083
20
-93.1669499999999999
11
128.8737999999999886
21
-93.0336429999999979
0
LINE
8
BLACK
6
CONTINUOUS
10
128.8737999999999886
20
-93.0336429999999979
11
128.8808300000000031
21
-93.0266129999999976
0
LINE
8
BLACK
6
CONTINUOUS
10
128.8808300000000031
20
-93.0266129999999976
11
128.8956249999999955
21
-93.0118190000000027
0
LINE
8
BLACK
6
CONTINUOUS
10
128.8956249999999955
20
-93.0118190000000027
11
128.9569479999999828
21
-92.9783339999999896
0
LINE
8
BLACK
6
CONTINUOUS
10
128.9569479999999828
20
-92.9783339999999896
11
128.9833059999999989
21
-92.9754999999999967
0
LINE
8
BLACK
6
CONTINUOUS
10
128.9833059999999989
20
-92.9754999999999967
11
130.0472340000000031
21
-92.9754999999999967
0
LINE
8
BLACK
6
CONTINUOUS
10
130.0472340000000031
20
-92.9754999999999967
11
130.1142729999999972
21
-92.9951849999999922
0
LINE
8
BLACK
6
CONTINUOUS
10
130.1142729999999972
20
-92.9951849999999922
11
130.1475509999999929
21
-93.0266129999999976
0
LINE
8
BLACK
6
CONTINUOUS
10
130.1475509999999929
20
-93.0266129999999976
11
130.1592059999999833
21
-93.0426549999999963
0
LINE
8
BLACK
6
CONTINUOUS
10
130.1592059999999833
20
-93.0426549999999963
11
130.3373449999999991
21
-93.2207939999999979
0
LINE
8
BLACK
6
CONTINUOUS
10
130.3373449999999991
20
-93.2207939999999979
11
130.3373499999999865
21
-93.220798000000002
0
LINE
8
BLACK
6
CONTINUOUS
10
130.3373499999999865
20
-93.220798000000002
11
130.5151170000000036
21
-93.3499520000000018
0
LINE
8
BLACK
6
CONTINUOUS
10
130.5151170000000036
20
-93.3499520000000018
11
130.5411550000000034
21
-93.3688700000000011
0
LINE
8
BLACK
6
CONTINUOUS
10
130.5411550000000034
20
-93.3688700000000011
11
130.6354489999999942
21
-93.4169149999999888
0
LINE
8
BLACK
6
CONTINUOUS
10
130.6354489999999942
20
-93.4169149999999888
11
130.7656159999999943
21
-93.4832389999999975
0
LINE
8
BLACK
6
CONTINUOUS
10
130.7656159999999943
20
-93.4832389999999975
11
130.7656179999999893
21
-93.4832389999999975
0
LINE
8
BLACK
6
CONTINUOUS
10
130.7656179999999893
20
-93.4832389999999975
11
130.7656209999999817
21
-93.4832409999999925
0
LINE
8
BLACK
6
CONTINUOUS
10
130.7656209999999817
20
-93.4832409999999925
11
131.0052149999999926
21
-93.561089999999993
0
LINE
8
BLACK
6
CONTINUOUS
10
131.0052149999999926
20
-93.561089999999993
11
131.25403799999998
21
-93.6004999999999967
0
LINE
8
BLACK
6
CONTINUOUS
10
131.25403799999998
20
-93.6004999999999967
11
131.2540390000000059
21
-93.6004999999999967
0
LINE
8
BLACK
6
CONTINUOUS
10
131.2540390000000059
20
-93.6004999999999967
11
131.505960999999985
21
-93.6004999999999967
0
LINE
8
BLACK
6
CONTINUOUS
10
131.505960999999985
20
-93.6004999999999967
11
131.5059619999999825
21
-93.6004999999999967
0
LINE
8
BLACK
6
CONTINUOUS
10
131.5059619999999825
20
-93.6004999999999967
11
131.7547849999999983
21
-93.561089999999993
0
LINE
8
BLACK
6
CONTINUOUS
10
131.7547849999999983
20
-93.561089999999993
11
131.9943789999999808
21
-93.4832409999999925
0
LINE
8
BLACK
6
CONTINUOUS
10
131.9943789999999808
20
-93.4832409999999925
11
132.2188449999999875
21
-93.3688700000000011
0
LINE
8
BLACK
6
CONTINUOUS
10
132.2188449999999875
20
-93.3688700000000011
11
132.4226559999999893
21
-93.2207930000000005
0
LINE
8
BLACK
6
CONTINUOUS
10
132.4226559999999893
20
-93.2207930000000005
11
132.6007929999999817
21
-93.0426559999999938
0
LINE
8
BLACK
6
CONTINUOUS
10
132.6007929999999817
20
-93.0426559999999938
11
132.7488699999999824
21
-92.8388449999999921
0
LINE
8
BLACK
6
CONTINUOUS
10
132.7488699999999824
20
-92.8388449999999921
11
132.8632409999999879
21
-92.6143789999999996
0
LINE
8
BLACK
6
CONTINUOUS
10
132.8632409999999879
20
-92.6143789999999996
11
132.9410900000000026
21
-92.3747850000000028
0
LINE
8
BLACK
6
CONTINUOUS
10
132.9410900000000026
20
-92.3747850000000028
11
132.9805000000000064
21
-92.1259620000000012
0
LINE
8
BLACK
6
CONTINUOUS
10
132.9805000000000064
20
-92.1259620000000012
11
132.9805000000000064
21
-91.8740379999999988
0
LINE
8
BLACK
6
CONTINUOUS
10
132.9805000000000064
20
-91.8740379999999988
11
132.9410900000000026
21
-91.6252149999999972
0
LINE
8
BLACK
6
CONTINUOUS
10
132.9410900000000026
20
-91.6252149999999972
11
132.8632409999999879
21
-91.3856210000000004
0
LINE
8
BLACK
6
CONTINUOUS
10
132.8632409999999879
20
-91.3856210000000004
11
132.863238999999993
21
-91.3856179999999938
0
LINE
8
BLACK
6
CONTINUOUS
10
132.863238999999993
20
-91.3856179999999938
11
132.863238999999993
21
-91.3856159999999988
0
LINE
8
BLACK
6
CONTINUOUS
10
132.863238999999993
20
-91.3856159999999988
11
132.7757079999999803
21
-91.2138279999999924
0
LINE
8
BLACK
6
CONTINUOUS
10
132.7757079999999803
20
-91.2138279999999924
11
132.7488699999999824
21
-91.1611549999999937
0
LINE
8
BLACK
6
CONTINUOUS
10
132.7488699999999824
20
-91.1611549999999937
11
132.6731729999999914
21
-91.0569670000000002
0
LINE
8
BLACK
6
CONTINUOUS
10
132.6731729999999914
20
-91.0569670000000002
11
132.6007979999999975
21
-90.957349999999991
0
LINE
8
BLACK
6
CONTINUOUS
10
132.6007979999999975
20
-90.957349999999991
11
132.6007940000000076
21
-90.9573449999999895
0
LINE
8
BLACK
6
CONTINUOUS
10
132.6007940000000076
20
-90.9573449999999895
11
132.4226539999999943
21
-90.7792049999999904
0
LINE
8
BLACK
6
CONTINUOUS
10
132.4226539999999943
20
-90.7792049999999904
11
132.4226490000000069
21
-90.7792010000000005
0
LINE
8
BLACK
6
CONTINUOUS
10
132.4226490000000069
20
-90.7792010000000005
11
132.2188479999999799
21
-90.6311319999999938
0
LINE
8
BLACK
6
CONTINUOUS
10
132.2188479999999799
20
-90.6311319999999938
11
132.2188469999999825
21
-90.6311309999999963
0
LINE
8
BLACK
6
CONTINUOUS
10
132.2188469999999825
20
-90.6311309999999963
11
132.2188449999999875
21
-90.6311299999999989
0
LINE
8
BLACK
6
CONTINUOUS
10
132.2188449999999875
20
-90.6311299999999989
11
132.148746999999986
21
-90.5954129999999935
0
LINE
8
BLACK
6
CONTINUOUS
10
132.148746999999986
20
-90.5954129999999935
11
131.9943829999999991
21
-90.5167599999999908
0
LINE
8
BLACK
6
CONTINUOUS
10
131.9943829999999991
20
-90.5167599999999908
11
131.7547849999999983
21
-90.4389099999999928
0
LINE
8
BLACK
6
CONTINUOUS
10
131.7547849999999983
20
-90.4389099999999928
11
131.5406869999999913
21
-90.4050000000000011
0
LINE
8
BLACK
6
CONTINUOUS
10
131.5406869999999913
20
-90.4050000000000011
11
131.5059619999999825
21
-90.3994999999999891
0
LINE
8
BLACK
6
CONTINUOUS
10
131.5059619999999825
20
-90.3994999999999891
11
131.25403799999998
21
-90.3994999999999891
0
LINE
8
BLACK
6
CONTINUOUS
10
131.25403799999998
20
-90.3994999999999891
11
131.2193129999999996
21
-90.4050000000000011
0
LINE
8
BLACK
6
CONTINUOUS
10
131.2193129999999996
20
-90.4050000000000011
11
131.0052139999999952
21
-90.4389099999999928
0
LINE
8
BLACK
6
CONTINUOUS
10
131.0052139999999952
20
-90.4389099999999928
11
130.7656159999999943
21
-90.5167599999999908
0
LINE
8
BLACK
6
CONTINUOUS
10
130.7656159999999943
20
-90.5167599999999908
11
130.6788229999999942
21
-90.5609850000000023
0
LINE
8
BLACK
6
CONTINUOUS
10
130.6788229999999942
20
-90.5609850000000023
11
130.6225279999999884
21
-90.5745000000000005
0
LINE
8
BLACK
6
CONTINUOUS
10
130.6225279999999884
20
-90.5745000000000005
11
128.9833059999999989
21
-90.5745000000000005
0
LINE
8
BLACK
6
CONTINUOUS
10
128.9833059999999989
20
-90.5745000000000005
11
128.9162670000000048
21
-90.5548149999999907
0
LINE
8
BLACK
6
CONTINUOUS
10
128.9162670000000048
20
-90.5548149999999907
11
128.8956249999999955
21
-90.5381809999999945
0
LINE
8
BLACK
6
CONTINUOUS
10
128.8956249999999955
20
-90.5381809999999945
11
128.8738050000000044
21
-90.5163609999999892
0
LINE
8
BLACK
6
CONTINUOUS
10
128.8738050000000044
20
-90.5163609999999892
11
128.8737979999999936
21
-90.5163549999999901
0
LINE
8
BLACK
6
CONTINUOUS
10
128.8737979999999936
20
-90.5163549999999901
11
128.7000699999999824
21
-90.3830489999999998
0
LINE
8
BLACK
6
CONTINUOUS
10
128.7000699999999824
20
-90.3830489999999998
11
128.5104379999999935
21
-90.2735649999999907
0
LINE
8
BLACK
6
CONTINUOUS
10
128.5104379999999935
20
-90.2735649999999907
11
128.5104330000000061
21
-90.2735619999999983
0
LINE
8
BLACK
6
CONTINUOUS
10
128.5104330000000061
20
-90.2735619999999983
11
128.5104279999999903
21
-90.2735599999999891
0
LINE
8
BLACK
6
CONTINUOUS
10
128.5104279999999903
20
-90.2735599999999891
11
128.3081169999999815
21
-90.1897589999999951
0
LINE
8
BLACK
6
CONTINUOUS
10
128.3081169999999815
20
-90.1897589999999951
11
128.3081180000000074
21
-90.1897589999999951
0
LINE
8
BLACK
6
CONTINUOUS
10
128.3081180000000074
20
-90.1897589999999951
11
128.3081149999999866
21
-90.1897579999999977
0
LINE
8
BLACK
6
CONTINUOUS
10
128.3081149999999866
20
-90.1897579999999977
11
128.2023570000000063
21
-90.16142099999999
0
LINE
8
BLACK
6
CONTINUOUS
10
128.2023570000000063
20
-90.16142099999999
11
128.0965980000000002
21
-90.1330829999999992
0
LINE
8
BLACK
6
CONTINUOUS
10
128.0965980000000002
20
-90.1330829999999992
11
128.0603140000000053
21
-90.1283059999999949
0
LINE
8
BLACK
6
CONTINUOUS
10
128.0603140000000053
20
-90.1283059999999949
11
127.8794970000000006
21
-90.1045000000000016
0
LINE
8
BLACK
6
CONTINUOUS
10
127.8794970000000006
20
-90.1045000000000016
11
127.8794899999999899
21
-90.1045000000000016
0
LINE
8
BLACK
6
CONTINUOUS
10
127.8794899999999899
20
-90.1045000000000016
11
127.6605099999999879
21
-90.1045000000000016
0
LINE
8
BLACK
6
CONTINUOUS
10
127.6605099999999879
20
-90.1045000000000016
11
127.6605019999999939
21
-90.1045000000000016
0
LINE
8
BLACK
6
CONTINUOUS
10
127.6605019999999939
20
-90.1045000000000016
11
127.4538529999999952
21
-90.1317069999999916
0
LINE
8
BLACK
6
CONTINUOUS
10
120.1308930000000004
20
-93.2226579999999956
11
120.2138279999999924
21
-93.282913999999991
0
LINE
8
BLACK
6
CONTINUOUS
10
120.2138279999999924
20
-93.282913999999991
11
120.4241969999999924
21
-93.3901019999999988
0
LINE
8
BLACK
6
CONTINUOUS
10
120.4241969999999924
20
-93.3901019999999988
11
120.6487519999999876
21
-93.4630650000000003
0
LINE
8
BLACK
6
CONTINUOUS
10
120.6487519999999876
20
-93.4630650000000003
11
120.6487509999999901
21
-93.4630650000000003
0
LINE
8
BLACK
6
CONTINUOUS
10
120.6487509999999901
20
-93.4630650000000003
11
120.8819479999999942
21
-93.5
0
LINE
8
BLACK
6
CONTINUOUS
10
120.8819479999999942
20
-93.5
11
121.1180519999999916
21
-93.5
0
LINE
8
BLACK
6
CONTINUOUS
10
121.1180519999999916
20
-93.5
11
121.3512470000000008
21
-93.4630650000000003
0
LINE
8
BLACK
6
CONTINUOUS
10
121.3512470000000008
20
-93.4630650000000003
11
121.5758019999999959
21
-93.3901019999999988
0
LINE
8
BLACK
6
CONTINUOUS
10
121.5758019999999959
20
-93.3901019999999988
11
121.7861629999999877
21
-93.2829179999999951
0
LINE
8
BLACK
6
CONTINUOUS
10
121.7861629999999877
20
-93.2829179999999951
11
121.786169000000001
21
-93.282913999999991
0
LINE
8
BLACK
6
CONTINUOUS
10
121.786169000000001
20
-93.282913999999991
11
121.869103999999993
21
-93.2226579999999956
0
LINE
8
BLACK
6
CONTINUOUS
10
121.869103999999993
20
-93.2226579999999956
11
121.8691049999999905
21
-93.2226579999999956
0
LINE
8
BLACK
6
CONTINUOUS
10
121.8691049999999905
20
-93.2226579999999956
11
121.5055479999999903
21
-92.8591009999999955
0
LINE
8
BLACK
6
CONTINUOUS
10
121.5055479999999903
20
-92.8591009999999955
11
121.4713969999999961
21
-92.8819209999999913
0
LINE
8
BLACK
6
CONTINUOUS
10
121.4713969999999961
20
-92.8819209999999913
11
121.2902849999999972
21
-92.9569399999999888
0
LINE
8
BLACK
6
CONTINUOUS
10
121.2902849999999972
20
-92.9569399999999888
11
121.0980169999999987
21
-92.9951849999999922
0
LINE
8
BLACK
6
CONTINUOUS
10
121.0980169999999987
20
-92.9951849999999922
11
120.9019830000000013
21
-92.9951849999999922
0
LINE
8
BLACK
6
CONTINUOUS
10
120.9019830000000013
20
-92.9951849999999922
11
120.7097149999999885
21
-92.9569399999999888
0
LINE
8
BLACK
6
CONTINUOUS
10
120.7097149999999885
20
-92.9569399999999888
11
120.5286029999999897
21
-92.8819209999999913
0
LINE
8
BLACK
6
CONTINUOUS
10
120.5286029999999897
20
-92.8819209999999913
11
120.4944500000000005
21
-92.859099999999998
0
LINE
8
BLACK
6
CONTINUOUS
10
120.4944500000000005
20
-92.859099999999998
11
120.1308930000000004
21
-93.2226579999999956
0
LINE
8
BLACK
6
CONTINUOUS
10
124.4539629999999875
20
-92.9045879999999897
11
124.4539639999999991
21
-92.9045890000000014
0
LINE
8
BLACK
6
CONTINUOUS
10
124.4539639999999991
20
-92.9045890000000014
11
124.5119579999999928
21
-92.946723999999989
0
LINE
8
BLACK
6
CONTINUOUS
10
124.5119579999999928
20
-92.946723999999989
11
124.5119709999999884
21
-92.9467319999999972
0
LINE
8
BLACK
6
CONTINUOUS
10
124.5119709999999884
20
-92.9467319999999972
11
124.7040979999999877
21
-93.0446269999999913
0
LINE
8
BLACK
6
CONTINUOUS
10
124.7040979999999877
20
-93.0446269999999913
11
124.9091899999999953
21
-93.1112649999999888
0
LINE
8
BLACK
6
CONTINUOUS
10
124.9091899999999953
20
-93.1112649999999888
11
125.1221800000000002
21
-93.144999999999996
0
LINE
8
BLACK
6
CONTINUOUS
10
125.1221800000000002
20
-93.144999999999996
11
125.3378199999999936
21
-93.144999999999996
0
LINE
8
BLACK
6
CONTINUOUS
10
125.3378199999999936
20
-93.144999999999996
11
125.550809000000001
21
-93.1112649999999888
0
LINE
8
BLACK
6
CONTINUOUS
10
125.550809000000001
20
-93.1112649999999888
11
125.7559009999999944
21
-93.0446269999999913
0
LINE
8
BLACK
6
CONTINUOUS
10
125.7559009999999944
20
-93.0446269999999913
11
125.9480359999999877
21
-92.9467279999999931
0
LINE
8
BLACK
6
CONTINUOUS
10
125.9480359999999877
20
-92.9467279999999931
11
126.0060339999999997
21
-92.9045890000000014
0
LINE
8
BLACK
6
CONTINUOUS
10
126.0060339999999997
20
-92.9045890000000014
11
126.0060339999999997
21
-92.9045879999999897
0
LINE
8
BLACK
6
CONTINUOUS
10
126.0060339999999997
20
-92.9045879999999897
11
125.6422740000000005
21
-92.5408279999999905
0
LINE
8
BLACK
6
CONTINUOUS
10
125.6422740000000005
20
-92.5408279999999905
11
125.6401149999999944
21
-92.5422709999999995
0
LINE
8
BLACK
6
CONTINUOUS
10
125.6401149999999944
20
-92.5422709999999995
11
125.4825479999999942
21
-92.607537999999991
0
LINE
8
BLACK
6
CONTINUOUS
10
125.4825479999999942
20
-92.607537999999991
11
125.3152749999999997
21
-92.6408109999999994
0
LINE
8
BLACK
6
CONTINUOUS
10
125.3152749999999997
20
-92.6408109999999994
11
125.144724999999994
21
-92.6408109999999994
0
LINE
8
BLACK
6
CONTINUOUS
10
125.144724999999994
20
-92.6408109999999994
11
124.9774519999999995
21
-92.607537999999991
0
LINE
8
BLACK
6
CONTINUOUS
10
124.9774519999999995
20
-92.607537999999991
11
124.8198849999999993
21
-92.5422709999999995
0
LINE
8
BLACK
6
CONTINUOUS
10
124.8198849999999993
20
-92.5422709999999995
11
124.8177239999999983
21
-92.5408269999999931
0
LINE
8
BLACK
6
CONTINUOUS
10
124.8177239999999983
20
-92.5408269999999931
11
124.4539629999999875
21
-92.9045879999999897
0
LINE
8
BLACK
6
CONTINUOUS
10
137.3994999999999891
20
-92.1259609999999896
11
137.4389099999999928
21
-92.3747850000000028
0
LINE
8
BLACK
6
CONTINUOUS
10
137.4389099999999928
20
-92.3747850000000028
11
137.516760000000005
21
-92.6143829999999895
0
LINE
8
BLACK
6
CONTINUOUS
10
137.516760000000005
20
-92.6143829999999895
11
137.5954130000000077
21
-92.7687469999999905
0
LINE
8
BLACK
6
CONTINUOUS
10
137.5954130000000077
20
-92.7687469999999905
11
137.6103430000000003
21
-92.7980489999999918
0
LINE
8
BLACK
6
CONTINUOUS
10
137.6103430000000003
20
-92.7980489999999918
11
137.6311319999999796
21
-92.8388479999999987
0
LINE
8
BLACK
6
CONTINUOUS
10
137.6311319999999796
20
-92.8388479999999987
11
137.7792010000000005
21
-93.0426489999999973
0
LINE
8
BLACK
6
CONTINUOUS
10
137.7792010000000005
20
-93.0426489999999973
11
137.7792049999999904
21
-93.0426539999999989
0
LINE
8
BLACK
6
CONTINUOUS
10
137.7792049999999904
20
-93.0426539999999989
11
137.9573450000000037
21
-93.2207939999999979
0
LINE
8
BLACK
6
CONTINUOUS
10
137.9573450000000037
20
-93.2207939999999979
11
137.957349999999991
21
-93.220798000000002
0
LINE
8
BLACK
6
CONTINUOUS
10
137.957349999999991
20
-93.220798000000002
11
138.1351169999999797
21
-93.3499520000000018
0
LINE
8
BLACK
6
CONTINUOUS
10
138.1351169999999797
20
-93.3499520000000018
11
138.1611550000000079
21
-93.3688700000000011
0
LINE
8
BLACK
6
CONTINUOUS
10
138.1611550000000079
20
-93.3688700000000011
11
138.2554489999999987
21
-93.4169149999999888
0
LINE
8
BLACK
6
CONTINUOUS
10
138.2554489999999987
20
-93.4169149999999888
11
138.3856159999999988
21
-93.4832389999999975
0
LINE
8
BLACK
6
CONTINUOUS
10
138.3856159999999988
20
-93.4832389999999975
11
138.3856179999999938
21
-93.4832389999999975
0
LINE
8
BLACK
6
CONTINUOUS
10
138.3856179999999938
20
-93.4832389999999975
11
138.3856209999999862
21
-93.4832409999999925
0
LINE
8
BLACK
6
CONTINUOUS
10
138.3856209999999862
20
-93.4832409999999925
11
138.6252149999999972
21
-93.561089999999993
0
LINE
8
BLACK
6
CONTINUOUS
10
138.6252149999999972
20
-93.561089999999993
11
138.8740379999999845
21
-93.6004999999999967
0
LINE
8
BLACK
6
CONTINUOUS
10
138.8740379999999845
20
-93.6004999999999967
11
138.874038999999982
21
-93.6004999999999967
0
LINE
8
BLACK
6
CONTINUOUS
10
138.874038999999982
20
-93.6004999999999967
11
139.1259609999999896
21
-93.6004999999999967
0
LINE
8
BLACK
6
CONTINUOUS
10
139.1259609999999896
20
-93.6004999999999967
11
139.125961999999987
21
-93.6004999999999967
0
LINE
8
BLACK
6
CONTINUOUS
10
139.125961999999987
20
-93.6004999999999967
11
139.3747850000000028
21
-93.561089999999993
0
LINE
8
BLACK
6
CONTINUOUS
10
139.3747850000000028
20
-93.561089999999993
11
139.6143789999999854
21
-93.4832409999999925
0
LINE
8
BLACK
6
CONTINUOUS
10
139.6143789999999854
20
-93.4832409999999925
11
139.8388449999999921
21
-93.3688700000000011
0
LINE
8
BLACK
6
CONTINUOUS
10
139.8388449999999921
20
-93.3688700000000011
11
139.9221679999999992
21
-93.3083309999999955
0
LINE
8
BLACK
6
CONTINUOUS
10
139.9221679999999992
20
-93.3083309999999955
11
140.0379930000000002
21
-93.224181999999999
0
LINE
8
BLACK
6
CONTINUOUS
10
140.0379930000000002
20
-93.224181999999999
11
140.1037989999999809
21
-93.2007019999999926
0
LINE
8
BLACK
6
CONTINUOUS
10
140.1037989999999809
20
-93.2007019999999926
11
140.1108779999999854
21
-93.200499999999991
0
LINE
8
BLACK
6
CONTINUOUS
10
140.1108779999999854
20
-93.200499999999991
11
141.602846999999997
21
-93.200499999999991
0
LINE
8
BLACK
6
CONTINUOUS
10
141.602846999999997
20
-93.200499999999991
11
141.6698859999999911
21
-93.2201850000000007
0
LINE
8
BLACK
6
CONTINUOUS
10
141.6698859999999911
20
-93.2201850000000007
11
141.6905229999999847
21
-93.2368139999999954
0
LINE
8
BLACK
6
CONTINUOUS
10
141.6905229999999847
20
-93.2368139999999954
11
141.8102959999999939
21
-93.3565869999999904
0
LINE
8
BLACK
6
CONTINUOUS
10
141.8102959999999939
20
-93.3565869999999904
11
141.8103030000000047
21
-93.3565940000000012
0
LINE
8
BLACK
6
CONTINUOUS
10
141.8103030000000047
20
-93.3565940000000012
11
141.8889179999999897
21
-93.416916999999998
0
LINE
8
BLACK
6
CONTINUOUS
10
141.8889179999999897
20
-93.416916999999998
11
141.9975499999999897
21
-93.5002729999999929
0
LINE
8
BLACK
6
CONTINUOUS
10
141.9975499999999897
20
-93.5002729999999929
11
142.1028880000000072
21
-93.561089999999993
0
LINE
8
BLACK
6
CONTINUOUS
10
142.1028880000000072
20
-93.561089999999993
11
142.201943
21
-93.6182799999999986
0
LINE
8
BLACK
6
CONTINUOUS
10
142.201943
20
-93.6182799999999986
11
142.2019479999999874
21
-93.6182819999999936
0
LINE
8
BLACK
6
CONTINUOUS
10
142.2019479999999874
20
-93.6182819999999936
11
142.2019509999999798
21
-93.6182840000000027
0
LINE
8
BLACK
6
CONTINUOUS
10
142.2019509999999798
20
-93.6182840000000027
11
142.4200069999999982
21
-93.708605999999989
0
LINE
8
BLACK
6
CONTINUOUS
10
142.4200069999999982
20
-93.708605999999989
11
142.6479860000000031
21
-93.7696929999999895
0
LINE
8
BLACK
6
CONTINUOUS
10
142.6479860000000031
20
-93.7696929999999895
11
142.8819890000000044
21
-93.8004999999999995
0
LINE
8
BLACK
6
CONTINUOUS
10
142.8819890000000044
20
-93.8004999999999995
11
142.8819959999999867
21
-93.8004999999999995
0
LINE
8
BLACK
6
CONTINUOUS
10
142.8819959999999867
20
-93.8004999999999995
11
143.1180039999999849
21
-93.8004999999999995
0
LINE
8
BLACK
6
CONTINUOUS
10
143.1180039999999849
20
-93.8004999999999995
11
143.1180109999999956
21
-93.8004999999999995
0
LINE
8
BLACK
6
CONTINUOUS
10
143.1180109999999956
20
-93.8004999999999995
11
143.3520139999999969
21
-93.7696929999999895
0
LINE
8
BLACK
6
CONTINUOUS
10
143.3520139999999969
20
-93.7696929999999895
11
143.5799930000000018
21
-93.708605999999989
0
LINE
8
BLACK
6
CONTINUOUS
10
143.5799930000000018
20
-93.708605999999989
11
143.7980489999999918
21
-93.6182840000000027
0
LINE
8
BLACK
6
CONTINUOUS
10
143.7980489999999918
20
-93.6182840000000027
11
144.0024499999999819
21
-93.5002729999999929
0
LINE
8
BLACK
6
CONTINUOUS
10
144.0024499999999819
20
-93.5002729999999929
11
144.1896989999999903
21
-93.356591999999992
0
LINE
8
BLACK
6
CONTINUOUS
10
144.1896989999999903
20
-93.356591999999992
11
144.3565920000000062
21
-93.1896989999999903
0
LINE
8
BLACK
6
CONTINUOUS
10
144.3565920000000062
20
-93.1896989999999903
11
144.5002729999999929
21
-93.0024499999999961
0
LINE
8
BLACK
6
CONTINUOUS
10
144.5002729999999929
20
-93.0024499999999961
11
144.6182839999999885
21
-92.7980489999999918
0
LINE
8
BLACK
6
CONTINUOUS
10
144.6182839999999885
20
-92.7980489999999918
11
144.7086060000000032
21
-92.5799930000000018
0
LINE
8
BLACK
6
CONTINUOUS
10
144.7086060000000032
20
-92.5799930000000018
11
144.7696929999999895
21
-92.3520139999999969
0
LINE
8
BLACK
6
CONTINUOUS
10
144.7696929999999895
20
-92.3520139999999969
11
144.8004999999999995
21
-92.1180109999999956
0
LINE
8
BLACK
6
CONTINUOUS
10
144.8004999999999995
20
-92.1180109999999956
11
144.8004999999999995
21
-91.8819889999999901
0
LINE
8
BLACK
6
CONTINUOUS
10
144.8004999999999995
20
-91.8819889999999901
11
144.7696929999999895
21
-91.6479859999999888
0
LINE
8
BLACK
6
CONTINUOUS
10
144.7696929999999895
20
-91.6479859999999888
11
144.7086060000000032
21
-91.4200069999999982
0
LINE
8
BLACK
6
CONTINUOUS
10
144.7086060000000032
20
-91.4200069999999982
11
144.6182839999999885
21
-91.201950999999994
0
LINE
8
BLACK
6
CONTINUOUS
10
144.6182839999999885
20
-91.201950999999994
11
144.6182819999999936
21
-91.2019480000000016
0
LINE
8
BLACK
6
CONTINUOUS
10
144.6182819999999936
20
-91.2019480000000016
11
144.6182799999999986
21
-91.201943
0
LINE
8
BLACK
6
CONTINUOUS
10
144.6182799999999986
20
-91.201943
11
144.5216489999999965
21
-91.0345749999999896
0
LINE
8
BLACK
6
CONTINUOUS
10
144.5216489999999965
20
-91.0345749999999896
11
144.5002729999999929
21
-90.9975499999999897
0
LINE
8
BLACK
6
CONTINUOUS
10
144.5002729999999929
20
-90.9975499999999897
11
144.3565920000000062
21
-90.8103009999999955
0
LINE
8
BLACK
6
CONTINUOUS
10
144.3565920000000062
20
-90.8103009999999955
11
144.3565869999999904
21
-90.8102949999999964
0
LINE
8
BLACK
6
CONTINUOUS
10
144.3565869999999904
20
-90.8102949999999964
11
144.1897040000000061
21
-90.6434119999999979
0
LINE
8
BLACK
6
CONTINUOUS
10
144.1897040000000061
20
-90.6434119999999979
11
144.1896969999999953
21
-90.6434059999999988
0
LINE
8
BLACK
6
CONTINUOUS
10
144.1896969999999953
20
-90.6434059999999988
11
144.0024540000000002
21
-90.4997299999999996
0
LINE
8
BLACK
6
CONTINUOUS
10
144.0024540000000002
20
-90.4997299999999996
11
144.0024530000000027
21
-90.4997290000000021
0
LINE
8
BLACK
6
CONTINUOUS
10
144.0024530000000027
20
-90.4997290000000021
11
144.0024499999999819
21
-90.4997269999999929
0
LINE
8
BLACK
6
CONTINUOUS
10
144.0024499999999819
20
-90.4997269999999929
11
143.8968069999999955
21
-90.4387339999999966
0
LINE
8
BLACK
6
CONTINUOUS
10
143.8968069999999955
20
-90.4387339999999966
11
143.7980560000000025
21
-90.3817189999999897
0
LINE
8
BLACK
6
CONTINUOUS
10
143.7980560000000025
20
-90.3817189999999897
11
143.7980450000000019
21
-90.3817140000000023
0
LINE
8
BLACK
6
CONTINUOUS
10
143.7980450000000019
20
-90.3817140000000023
11
143.5799930000000018
21
-90.2913939999999968
0
LINE
8
BLACK
6
CONTINUOUS
10
143.5799930000000018
20
-90.2913939999999968
11
143.352010000000007
21
-90.2303059999999988
0
LINE
8
BLACK
6
CONTINUOUS
10
143.352010000000007
20
-90.2303059999999988
11
143.1180200000000013
21
-90.1995009999999979
0
LINE
8
BLACK
6
CONTINUOUS
10
143.1180200000000013
20
-90.1995009999999979
11
143.1180169999999805
21
-90.1995000000000005
0
LINE
8
BLACK
6
CONTINUOUS
10
143.1180169999999805
20
-90.1995000000000005
11
143.1180109999999956
21
-90.1995000000000005
0
LINE
8
BLACK
6
CONTINUOUS
10
143.1180109999999956
20
-90.1995000000000005
11
142.8819890000000044
21
-90.1995000000000005
0
LINE
8
BLACK
6
CONTINUOUS
10
142.8819890000000044
20
-90.1995000000000005
11
142.8819829999999911
21
-90.1995000000000005
0
LINE
8
BLACK
6
CONTINUOUS
10
142.8819829999999911
20
-90.1995000000000005
11
142.8819790000000012
21
-90.1995009999999979
0
LINE
8
BLACK
6
CONTINUOUS
10
142.8819790000000012
20
-90.1995009999999979
11
142.6479889999999955
21
-90.2303059999999988
0
LINE
8
BLACK
6
CONTINUOUS
10
142.6479889999999955
20
-90.2303059999999988
11
142.4200060000000008
21
-90.2913939999999968
0
LINE
8
BLACK
6
CONTINUOUS
10
142.4200060000000008
20
-90.2913939999999968
11
142.2019540000000006
21
-90.3817140000000023
0
LINE
8
BLACK
6
CONTINUOUS
10
142.2019540000000006
20
-90.3817140000000023
11
142.201943
21
-90.3817189999999897
0
LINE
8
BLACK
6
CONTINUOUS
10
142.201943
20
-90.3817189999999897
11
141.9975450000000023
21
-90.4997299999999996
0
LINE
8
BLACK
6
CONTINUOUS
10
141.9975450000000023
20
-90.4997299999999996
11
141.8103030000000047
21
-90.6434050000000013
0
LINE
8
BLACK
6
CONTINUOUS
10
141.8103030000000047
20
-90.6434050000000013
11
141.7504160000000013
21
-90.7032930000000022
0
LINE
8
BLACK
6
CONTINUOUS
10
141.7504160000000013
20
-90.7032930000000022
11
141.6905260000000055
21
-90.7631820000000005
0
LINE
8
BLACK
6
CONTINUOUS
10
141.6905260000000055
20
-90.7631820000000005
11
141.6292059999999822
21
-90.7966660000000019
0
LINE
8
BLACK
6
CONTINUOUS
10
141.6292059999999822
20
-90.7966660000000019
11
141.602846999999997
21
-90.7994999999999948
0
LINE
8
BLACK
6
CONTINUOUS
10
141.602846999999997
20
-90.7994999999999948
11
140.1108779999999854
21
-90.7994999999999948
0
LINE
8
BLACK
6
CONTINUOUS
10
140.1108779999999854
20
-90.7994999999999948
11
140.0438389999999913
21
-90.7798149999999993
0
LINE
8
BLACK
6
CONTINUOUS
10
140.0438389999999913
20
-90.7798149999999993
11
140.0379930000000002
21
-90.775818000000001
0
LINE
8
BLACK
6
CONTINUOUS
10
140.0379930000000002
20
-90.775818000000001
11
139.8388479999999845
21
-90.6311319999999938
0
LINE
8
BLACK
6
CONTINUOUS
10
139.8388479999999845
20
-90.6311319999999938
11
139.838846999999987
21
-90.6311309999999963
0
LINE
8
BLACK
6
CONTINUOUS
10
139.838846999999987
20
-90.6311309999999963
11
139.8388449999999921
21
-90.6311299999999989
0
LINE
8
BLACK
6
CONTINUOUS
10
139.8388449999999921
20
-90.6311299999999989
11
139.7687469999999905
21
-90.5954129999999935
0
LINE
8
BLACK
6
CONTINUOUS
10
139.7687469999999905
20
-90.5954129999999935
11
139.6143830000000037
21
-90.5167599999999908
0
LINE
8
BLACK
6
CONTINUOUS
10
139.6143830000000037
20
-90.5167599999999908
11
139.3747850000000028
21
-90.4389099999999928
0
LINE
8
BLACK
6
CONTINUOUS
10
139.3747850000000028
20
-90.4389099999999928
11
139.1606869999999958
21
-90.4050000000000011
0
LINE
8
BLACK
6
CONTINUOUS
10
139.1606869999999958
20
-90.4050000000000011
11
139.125961999999987
21
-90.3994999999999891
0
LINE
8
BLACK
6
CONTINUOUS
10
139.125961999999987
20
-90.3994999999999891
11
138.8740379999999845
21
-90.3994999999999891
0
LINE
8
BLACK
6
CONTINUOUS
10
138.8740379999999845
20
-90.3994999999999891
11
138.8393130000000042
21
-90.4050000000000011
0
LINE
8
BLACK
6
CONTINUOUS
10
138.8393130000000042
20
-90.4050000000000011
11
138.6252139999999997
21
-90.4389099999999928
0
LINE
8
BLACK
6
CONTINUOUS
10
138.6252139999999997
20
-90.4389099999999928
11
138.3856159999999988
21
-90.5167599999999908
0
LINE
8
BLACK
6
CONTINUOUS
10
138.3856159999999988
20
-90.5167599999999908
11
138.1611509999999896
21
-90.6311319999999938
0
LINE
8
BLACK
6
CONTINUOUS
10
138.1611509999999896
20
-90.6311319999999938
11
137.957349999999991
21
-90.7792010000000005
0
LINE
8
BLACK
6
CONTINUOUS
10
137.957349999999991
20
-90.7792010000000005
11
137.9573450000000037
21
-90.7792049999999904
0
LINE
8
BLACK
6
CONTINUOUS
10
137.9573450000000037
20
-90.7792049999999904
11
137.7792049999999904
21
-90.9573449999999895
0
LINE
8
BLACK
6
CONTINUOUS
10
137.7792049999999904
20
-90.9573449999999895
11
137.7792010000000005
21
-90.957349999999991
0
LINE
8
BLACK
6
CONTINUOUS
10
137.7792010000000005
20
-90.957349999999991
11
137.6311319999999796
21
-91.1611509999999896
0
LINE
8
BLACK
6
CONTINUOUS
10
137.6311319999999796
20
-91.1611509999999896
11
137.516760000000005
21
-91.3856159999999988
0
LINE
8
BLACK
6
CONTINUOUS
10
137.516760000000005
20
-91.3856159999999988
11
137.4389099999999928
21
-91.6252139999999997
0
LINE
8
BLACK
6
CONTINUOUS
10
137.4389099999999928
20
-91.6252139999999997
11
137.3994999999999891
21
-91.8740379999999988
0
LINE
8
BLACK
6
CONTINUOUS
10
137.3994999999999891
20
-91.8740379999999988
11
137.3994999999999891
21
-92.1259609999999896
0
LINE
8
BLACK
6
CONTINUOUS
10
121.911494999999988
20
-92.3999999999999915
11
121.8819209999999913
21
-92.4713969999999961
0
LINE
8
BLACK
6
CONTINUOUS
10
121.8819209999999913
20
-92.4713969999999961
11
121.8591009999999955
21
-92.5055479999999903
0
LINE
8
BLACK
6
CONTINUOUS
10
121.8591009999999955
20
-92.5055479999999903
11
122.2226579999999956
21
-92.8691049999999905
0
LINE
8
BLACK
6
CONTINUOUS
10
122.2226579999999956
20
-92.8691049999999905
11
122.2226589999999931
21
-92.869103999999993
0
LINE
8
BLACK
6
CONTINUOUS
10
122.2226589999999931
20
-92.869103999999993
11
122.2829129999999935
21
-92.7861719999999934
0
LINE
8
BLACK
6
CONTINUOUS
10
122.2829129999999935
20
-92.7861719999999934
11
122.2829179999999951
21
-92.7861630000000019
0
LINE
8
BLACK
6
CONTINUOUS
10
122.2829179999999951
20
-92.7861630000000019
11
122.3901019999999988
21
-92.5758019999999959
0
LINE
8
BLACK
6
CONTINUOUS
10
122.3901019999999988
20
-92.5758019999999959
11
122.4472239999999914
21
-92.3999999999999915
0
LINE
8
BLACK
6
CONTINUOUS
10
122.4472239999999914
20
-92.3999999999999915
11
121.911494999999988
21
-92.3999999999999915
0
LINE
8
BLACK
6
CONTINUOUS
10
124.0108659999999929
20
-92.3999999999999915
11
124.0582709999999906
21
-92.4930359999999894
0
LINE
8
BLACK
6
CONTINUOUS
10
124.0582709999999906
20
-92.4930359999999894
11
124.1004099999999966
21
-92.5510340000000014
0
LINE
8
BLACK
6
CONTINUOUS
10
124.1004099999999966
20
-92.5510340000000014
11
124.100410999999994
21
-92.5510349999999988
0
LINE
8
BLACK
6
CONTINUOUS
10
124.100410999999994
20
-92.5510349999999988
11
124.2514460000000014
21
-92.3999999999999915
0
LINE
8
BLACK
6
CONTINUOUS
10
124.2514460000000014
20
-92.3999999999999915
11
124.0108659999999929
21
-92.3999999999999915
0
LINE
8
BLACK
6
CONTINUOUS
10
121.859099999999998
20
-91.4944500000000005
11
121.8819209999999913
21
-91.5286029999999897
0
LINE
8
BLACK
6
CONTINUOUS
10
121.8819209999999913
20
-91.5286029999999897
11
121.911494999999988
21
-91.5999999999999943
0
LINE
8
BLACK
6
CONTINUOUS
10
121.911494999999988
20
-91.5999999999999943
11
122.4472239999999914
21
-91.5999999999999943
0
LINE
8
BLACK
6
CONTINUOUS
10
122.4472239999999914
20
-91.5999999999999943
11
122.3901019999999988
21
-91.4241969999999924
0
LINE
8
BLACK
6
CONTINUOUS
10
122.3901019999999988
20
-91.4241969999999924
11
122.282913999999991
21
-91.2138279999999924
0
LINE
8
BLACK
6
CONTINUOUS
10
122.282913999999991
20
-91.2138279999999924
11
122.2226579999999956
21
-91.1308939999999978
0
LINE
8
BLACK
6
CONTINUOUS
10
122.2226579999999956
20
-91.1308939999999978
11
122.2226579999999956
21
-91.1308930000000004
0
LINE
8
BLACK
6
CONTINUOUS
10
122.2226579999999956
20
-91.1308930000000004
11
121.859099999999998
21
-91.4944500000000005
0
LINE
8
BLACK
6
CONTINUOUS
10
124.0582689999999957
20
-91.0569670000000002
11
123.9603719999999925
21
-91.2490979999999894
0
LINE
8
BLACK
6
CONTINUOUS
10
123.9603719999999925
20
-91.2490979999999894
11
123.8937339999999949
21
-91.454189999999997
0
LINE
8
BLACK
6
CONTINUOUS
10
123.8937339999999949
20
-91.454189999999997
11
123.8706399999999945
21
-91.5999999999999943
0
LINE
8
BLACK
6
CONTINUOUS
10
123.8706399999999945
20
-91.5999999999999943
11
124.3820369999999969
21
-91.5999999999999943
0
LINE
8
BLACK
6
CONTINUOUS
10
124.3820369999999969
20
-91.5999999999999943
11
124.3974619999999902
21
-91.5224520000000012
0
LINE
8
BLACK
6
CONTINUOUS
10
124.3974619999999902
20
-91.5224520000000012
11
124.4627289999999959
21
-91.364885000000001
0
LINE
8
BLACK
6
CONTINUOUS
10
124.4627289999999959
20
-91.364885000000001
11
124.4641709999999932
21
-91.3627249999999975
0
LINE
8
BLACK
6
CONTINUOUS
10
124.4641709999999932
20
-91.3627249999999975
11
124.1004099999999966
21
-90.9989640000000009
0
LINE
8
BLACK
6
CONTINUOUS
10
124.1004099999999966
20
-90.9989640000000009
11
124.0582689999999957
21
-91.0569670000000002
0
LINE
8
BLACK
6
CONTINUOUS
10
120.6487519999999876
20
-90.5369340000000022
11
120.4241969999999924
21
-90.6098969999999895
0
LINE
8
BLACK
6
CONTINUOUS
10
120.4241969999999924
20
-90.6098969999999895
11
120.2138300000000015
21
-90.7170839999999998
0
LINE
8
BLACK
6
CONTINUOUS
10
120.2138300000000015
20
-90.7170839999999998
11
120.1308939999999978
21
-90.7773399999999953
0
LINE
8
BLACK
6
CONTINUOUS
10
120.1308939999999978
20
-90.7773399999999953
11
120.4944519999999955
21
-91.1408979999999929
0
LINE
8
BLACK
6
CONTINUOUS
10
120.4944519999999955
20
-91.1408979999999929
11
120.5286029999999897
21
-91.1180789999999945
0
LINE
8
BLACK
6
CONTINUOUS
10
120.5286029999999897
20
-91.1180789999999945
11
120.7097149999999885
21
-91.043059999999997
0
LINE
8
BLACK
6
CONTINUOUS
10
120.7097149999999885
20
-91.043059999999997
11
120.9019830000000013
21
-91.0048149999999936
0
LINE
8
BLACK
6
CONTINUOUS
10
120.9019830000000013
20
-91.0048149999999936
11
121.0980169999999987
21
-91.0048149999999936
0
LINE
8
BLACK
6
CONTINUOUS
10
121.0980169999999987
20
-91.0048149999999936
11
121.2902849999999972
21
-91.043059999999997
0
LINE
8
BLACK
6
CONTINUOUS
10
121.2902849999999972
20
-91.043059999999997
11
121.4713969999999961
21
-91.1180789999999945
0
LINE
8
BLACK
6
CONTINUOUS
10
121.4713969999999961
20
-91.1180789999999945
11
121.5055469999999929
21
-91.1408969999999954
0
LINE
8
BLACK
6
CONTINUOUS
10
121.5055469999999929
20
-91.1408969999999954
11
121.8691049999999905
21
-90.7773399999999953
0
LINE
8
BLACK
6
CONTINUOUS
10
121.8691049999999905
20
-90.7773399999999953
11
121.869103999999993
21
-90.7773380000000003
0
LINE
8
BLACK
6
CONTINUOUS
10
121.869103999999993
20
-90.7773380000000003
11
121.7861750000000001
21
-90.7170869999999923
0
LINE
8
BLACK
6
CONTINUOUS
10
121.7861750000000001
20
-90.7170869999999923
11
121.5758019999999959
21
-90.6098969999999895
0
LINE
8
BLACK
6
CONTINUOUS
10
121.5758019999999959
20
-90.6098969999999895
11
121.3512470000000008
21
-90.5369340000000022
0
LINE
8
BLACK
6
CONTINUOUS
10
121.3512470000000008
20
-90.5369340000000022
11
121.3512479999999982
21
-90.5369340000000022
0
LINE
8
BLACK
6
CONTINUOUS
10
121.3512479999999982
20
-90.5369340000000022
11
121.1180519999999916
21
-90.5
0
LINE
8
BLACK
6
CONTINUOUS
10
121.1180519999999916
20
-90.5
11
120.8819479999999942
21
-90.5
0
LINE
8
BLACK
6
CONTINUOUS
10
120.8819479999999942
20
-90.5
11
120.6487519999999876
21
-90.5369340000000022
0
LINE
8
BLACK
6
CONTINUOUS
10
124.9091899999999953
20
-90.4387339999999966
11
124.7040979999999877
21
-90.5053719999999942
0
LINE
8
BLACK
6
CONTINUOUS
10
124.7040979999999877
20
-90.5053719999999942
11
124.5119669999999985
21
-90.6032689999999974
0
LINE
8
BLACK
6
CONTINUOUS
10
124.5119669999999985
20
-90.6032689999999974
11
124.4539639999999991
21
-90.6454099999999983
0
LINE
8
BLACK
6
CONTINUOUS
10
124.4539639999999991
20
-90.6454099999999983
11
124.8177249999999958
21
-91.0091709999999949
0
LINE
8
BLACK
6
CONTINUOUS
10
124.8177249999999958
20
-91.0091709999999949
11
124.8198849999999993
21
-91.0077289999999977
0
LINE
8
BLACK
6
CONTINUOUS
10
124.8198849999999993
20
-91.0077289999999977
11
124.9774519999999995
21
-90.9424619999999919
0
LINE
8
BLACK
6
CONTINUOUS
10
124.9774519999999995
20
-90.9424619999999919
11
125.144724999999994
21
-90.9091889999999978
0
LINE
8
BLACK
6
CONTINUOUS
10
125.144724999999994
20
-90.9091889999999978
11
125.3152749999999997
21
-90.9091889999999978
0
LINE
8
BLACK
6
CONTINUOUS
10
125.3152749999999997
20
-90.9091889999999978
11
125.4825479999999942
21
-90.9424619999999919
0
LINE
8
BLACK
6
CONTINUOUS
10
125.4825479999999942
20
-90.9424619999999919
11
125.6401149999999944
21
-91.0077289999999977
0
LINE
8
BLACK
6
CONTINUOUS
10
125.6401149999999944
20
-91.0077289999999977
11
125.6422729999999888
21
-91.0091709999999949
0
LINE
8
BLACK
6
CONTINUOUS
10
125.6422729999999888
20
-91.0091709999999949
11
126.0060349999999971
21
-90.6454109999999957
0
LINE
8
BLACK
6
CONTINUOUS
10
126.0060349999999971
20
-90.6454109999999957
11
126.0060339999999997
21
-90.6454099999999983
0
LINE
8
BLACK
6
CONTINUOUS
10
126.0060339999999997
20
-90.6454099999999983
11
125.9480359999999877
21
-90.6032709999999923
0
LINE
8
BLACK
6
CONTINUOUS
10
125.9480359999999877
20
-90.6032709999999923
11
125.7559009999999944
21
-90.5053719999999942
0
LINE
8
BLACK
6
CONTINUOUS
10
125.7559009999999944
20
-90.5053719999999942
11
125.550809000000001
21
-90.4387339999999966
0
LINE
8
BLACK
6
CONTINUOUS
10
125.550809000000001
20
-90.4387339999999966
11
125.3378199999999936
21
-90.4050000000000011
0
LINE
8
BLACK
6
CONTINUOUS
10
125.3378199999999936
20
-90.4050000000000011
11
125.1221800000000002
21
-90.4050000000000011
0
LINE
8
BLACK
6
CONTINUOUS
10
125.1221800000000002
20
-90.4050000000000011
11
124.9091899999999953
21
-90.4387339999999966
0
LINE
8
BLACK
6
CONTINUOUS
10
119.5
20
-92.1180519999999916
11
119.536933999999988
21
-92.3512470000000008
0
LINE
8
BLACK
6
CONTINUOUS
10
119.536933999999988
20
-92.3512470000000008
11
119.6098969999999895
21
-92.5758019999999959
0
LINE
8
BLACK
6
CONTINUOUS
10
119.6098969999999895
20
-92.5758019999999959
11
119.7170869999999923
21
-92.7861740000000026
0
LINE
8
BLACK
6
CONTINUOUS
10
119.7170869999999923
20
-92.7861740000000026
11
119.7773380000000003
21
-92.869103999999993
0
LINE
8
BLACK
6
CONTINUOUS
10
119.7773380000000003
20
-92.869103999999993
11
119.7773399999999953
21
-92.8691049999999905
0
LINE
8
BLACK
6
CONTINUOUS
10
119.7773399999999953
20
-92.8691049999999905
11
120.1408969999999954
21
-92.5055469999999929
0
LINE
8
BLACK
6
CONTINUOUS
10
120.1408969999999954
20
-92.5055469999999929
11
120.1180789999999945
21
-92.4713969999999961
0
LINE
8
BLACK
6
CONTINUOUS
10
120.1180789999999945
20
-92.4713969999999961
11
120.043059999999997
21
-92.2902849999999972
0
LINE
8
BLACK
6
CONTINUOUS
10
120.043059999999997
20
-92.2902849999999972
11
120.0048149999999936
21
-92.0980169999999987
0
LINE
8
BLACK
6
CONTINUOUS
10
120.0048149999999936
20
-92.0980169999999987
11
120.0048149999999936
21
-91.9019830000000013
0
LINE
8
BLACK
6
CONTINUOUS
10
120.0048149999999936
20
-91.9019830000000013
11
120.043059999999997
21
-91.7097150000000028
0
LINE
8
BLACK
6
CONTINUOUS
10
120.043059999999997
20
-91.7097150000000028
11
120.1180789999999945
21
-91.5286029999999897
0
LINE
8
BLACK
6
CONTINUOUS
10
120.1180789999999945
20
-91.5286029999999897
11
120.1408979999999929
21
-91.4944519999999955
0
LINE
8
BLACK
6
CONTINUOUS
10
120.1408979999999929
20
-91.4944519999999955
11
119.7773399999999953
21
-91.1308939999999978
0
LINE
8
BLACK
6
CONTINUOUS
10
119.7773399999999953
20
-91.1308939999999978
11
119.7170839999999998
21
-91.2138300000000015
0
LINE
8
BLACK
6
CONTINUOUS
10
119.7170839999999998
20
-91.2138300000000015
11
119.6098969999999895
21
-91.4241969999999924
0
LINE
8
BLACK
6
CONTINUOUS
10
119.6098969999999895
20
-91.4241969999999924
11
119.536933999999988
21
-91.6487520000000018
0
LINE
8
BLACK
6
CONTINUOUS
10
119.536933999999988
20
-91.6487520000000018
11
119.5
21
-91.8819469999999967
0
LINE
8
BLACK
6
CONTINUOUS
10
119.5
20
-91.8819469999999967
11
119.5
21
-92.1180519999999916
0
CIRCLE
8
BLACK
10
143.
20
-92.
40
0.175
0
CIRCLE
8
BLACK
10
125.2299999999999898
20
-91.7749999999999915
40
0.175
0
CIRCLE
8
BLACK
10
127.769999999999996
20
-91.7749999999999915
40
0.175
0
CIRCLE
8
BLACK
10
139.
20
-92.
40
0.175
0
CIRCLE
8
BLACK
10
131.3799999999999955
20
-92.
40
0.175
0
CIRCLE
8
BLACK
10
121.
20
-92.
40
0.175
0
LINE
8
BLACK
6
CONTINUOUS
10
117.
20
-96.5
11
117.
21
-87.
0
LINE
8
BLACK
6
CONTINUOUS
10
147.
20
-96.5
11
117.
21
-96.5
0
LINE
8
BLACK
6
CONTINUOUS
10
147.
20
-87.
11
147.
21
-96.5
0
LINE
8
BLACK
6
CONTINUOUS
10
117.
20
-87.
11
147.
21
-87.
0
CIRCLE
8
WHITE
10
143.
20
-92.
40
0.175
0
CIRCLE
8
WHITE
10
125.2299999999999898
20
-91.7749999999999915
40
0.175
0
CIRCLE
8
WHITE
10
127.769999999999996
20
-91.7749999999999915
40
0.175
0
CIRCLE
8
WHITE
10
139.
20
-92.
40
0.175
0
CIRCLE
8
WHITE
10
131.3799999999999955
20
-92.
40
0.175
0
CIRCLE
8
WHITE
10
121.
20
-92.
40
0.175
  0
ENDSEC
  0
EOF
