  0
SECTION
  2
HEADER
  9
$ANGBASE
  50
0.0
  9
$ANGDIR
  70
1
  9
$MEASUREMENT
  70
1
  0
ENDSEC
  0
SECTION
  2
TABLES
  0
TABLE
  2
LTYPE
  70
4
  0
LTYPE
  5
40F
  2
CONTINUOUS
  70
0
  3
Solid line
  72
65
  73
0
  40
0.0
  0
LTYPE
  5
410
  2
DASHDOT
 70
0
  3
Dash Dot ____ _ ____ _
 72
65
 73
4
 40
2.0
 49
1.25
 49
-0.25
 49
0.25
 49
-0.25
  0
LTYPE
  5
411
  2
DASHED
 70
0
  3
Dashed __ __ __ __ __
 72
65
 73
2
 40
0.75
 49
0.5
 49
-0.25
  0
LTYPE
  5
43B
  2
DOTTED
 70
0
  3
Dotted .  .  .  .
 72
65
 73
2
 40
0.2
 49
0.0
 49
-0.2
  0
ENDTAB
  0
TABLE
  2
STYLE
  70
4
  0
STYLE
  2
KICAD
  70
0
  40
0
  41
1
  42
1
  50
0
  71
0
  3
isocp.shx
  0
STYLE
  2
KICADB
  70
0
  40
0
  41
1
  42
1
  50
0
  71
0
  3
isocp.shx
  0
STYLE
  2
KICADI
  70
0
  40
0
  41
1
  42
1
  50
15
  71
0
  3
isocp.shx
  0
STYLE
  2
KICADBI
  70
0
  40
0
  41
1
  42
1
  50
15
  71
0
  3
isocp.shx
  0
ENDTAB
  0
TABLE
  2
LAYER
  70
1
  0
LAYER
  2
BLACK
  70
0
  62
7
  6
CONTINUOUS
  0
ENDTAB
  0
ENDSEC
  0
SECTION
  2
ENTITIES
0
LINE
8
BLACK
6
CONTINUOUS
10
171.773130999999978
20
-88.857326999999998
11
171.9477399999999818
21
-88.9140609999999896
0
LINE
8
BLACK
6
CONTINUOUS
10
171.9477399999999818
20
-88.9140609999999896
11
172.1113229999999987
21
-88.9974109999999996
0
LINE
8
BLACK
6
CONTINUOUS
10
172.1113229999999987
20
-88.9974109999999996
11
172.25985399999999
21
-89.1053249999999935
0
LINE
8
BLACK
6
CONTINUOUS
10
172.25985399999999
20
-89.1053249999999935
11
172.3896749999999827
21
-89.2351460000000003
0
LINE
8
BLACK
6
CONTINUOUS
10
172.3896749999999827
20
-89.2351460000000003
11
172.4975890000000049
21
-89.3836769999999916
0
LINE
8
BLACK
6
CONTINUOUS
10
172.4975890000000049
20
-89.3836769999999916
11
172.5809390000000008
21
-89.5472599999999943
0
LINE
8
BLACK
6
CONTINUOUS
10
172.5809390000000008
20
-89.5472599999999943
11
172.6376729999999782
21
-89.7218689999999981
0
LINE
8
BLACK
6
CONTINUOUS
10
172.6376729999999782
20
-89.7218689999999981
11
172.6663929999999993
21
-89.9032029999999907
0
LINE
8
BLACK
6
CONTINUOUS
10
172.6663929999999993
20
-89.9032029999999907
11
172.6663929999999993
21
-90.08679699999999
0
LINE
8
BLACK
6
CONTINUOUS
10
172.6663929999999993
20
-90.08679699999999
11
172.6376729999999782
21
-90.2681309999999968
0
LINE
8
BLACK
6
CONTINUOUS
10
172.6376729999999782
20
-90.2681309999999968
11
172.5809390000000008
21
-90.4427400000000006
0
LINE
8
BLACK
6
CONTINUOUS
10
172.5809390000000008
20
-90.4427400000000006
11
172.4975890000000049
21
-90.6063229999999891
0
LINE
8
BLACK
6
CONTINUOUS
10
172.4975890000000049
20
-90.6063229999999891
11
172.3896749999999827
21
-90.7548539999999946
0
LINE
8
BLACK
6
CONTINUOUS
10
172.3896749999999827
20
-90.7548539999999946
11
172.25985399999999
21
-90.8846750000000014
0
LINE
8
BLACK
6
CONTINUOUS
10
172.25985399999999
20
-90.8846750000000014
11
172.1113229999999987
21
-90.9925889999999953
0
LINE
8
BLACK
6
CONTINUOUS
10
172.1113229999999987
20
-90.9925889999999953
11
171.9477399999999818
21
-91.0759389999999911
0
LINE
8
BLACK
6
CONTINUOUS
10
171.9477399999999818
20
-91.0759389999999911
11
171.9000000000000057
21
-91.0914499999999947
0
LINE
8
BLACK
6
CONTINUOUS
10
171.9000000000000057
20
-91.0914499999999947
11
171.9000000000000057
21
-96.0243139999999897
0
LINE
8
BLACK
6
CONTINUOUS
10
171.9000000000000057
20
-96.0243139999999897
11
173.6893969999999854
21
-97.8137119999999953
0
LINE
8
BLACK
6
CONTINUOUS
10
173.6893969999999854
20
-97.8137119999999953
11
173.7413880000000006
21
-97.8033709999999985
0
LINE
8
BLACK
6
CONTINUOUS
10
173.7413880000000006
20
-97.8033709999999985
11
173.8786120000000039
21
-97.8033709999999985
0
LINE
8
BLACK
6
CONTINUOUS
10
173.8786120000000039
20
-97.8033709999999985
11
174.013198999999986
21
-97.8301419999999951
0
LINE
8
BLACK
6
CONTINUOUS
10
174.013198999999986
20
-97.8301419999999951
11
174.1399779999999851
21
-97.8826549999999997
0
LINE
8
BLACK
6
CONTINUOUS
10
174.1399779999999851
20
-97.8826549999999997
11
174.2540750000000003
21
-97.9588929999999891
0
LINE
8
BLACK
6
CONTINUOUS
10
174.2540750000000003
20
-97.9588929999999891
11
174.3511069999999847
21
-98.055925000000002
0
LINE
8
BLACK
6
CONTINUOUS
10
174.3511069999999847
20
-98.055925000000002
11
174.4273450000000025
21
-98.1700219999999888
0
LINE
8
BLACK
6
CONTINUOUS
10
174.4273450000000025
20
-98.1700219999999888
11
174.4798579999999788
21
-98.2968010000000021
0
LINE
8
BLACK
6
CONTINUOUS
10
174.4798579999999788
20
-98.2968010000000021
11
174.5066290000000038
21
-98.4313879999999983
0
LINE
8
BLACK
6
CONTINUOUS
10
174.5066290000000038
20
-98.4313879999999983
11
174.5066290000000038
21
-98.5686120000000017
0
LINE
8
BLACK
6
CONTINUOUS
10
174.5066290000000038
20
-98.5686120000000017
11
174.4798579999999788
21
-98.7031989999999979
0
LINE
8
BLACK
6
CONTINUOUS
10
174.4798579999999788
20
-98.7031989999999979
11
174.4273450000000025
21
-98.829977999999997
0
LINE
8
BLACK
6
CONTINUOUS
10
174.4273450000000025
20
-98.829977999999997
11
174.3511069999999847
21
-98.944074999999998
0
LINE
8
BLACK
6
CONTINUOUS
10
174.3511069999999847
20
-98.944074999999998
11
174.2540750000000003
21
-99.0411069999999967
0
LINE
8
BLACK
6
CONTINUOUS
10
174.2540750000000003
20
-99.0411069999999967
11
174.1399779999999851
21
-99.1173450000000003
0
LINE
8
BLACK
6
CONTINUOUS
10
174.1399779999999851
20
-99.1173450000000003
11
174.128042999999991
21
-99.1222879999999975
0
LINE
8
BLACK
6
CONTINUOUS
10
174.128042999999991
20
-99.1222879999999975
11
174.1273410000000013
21
-99.1235049999999944
0
LINE
8
BLACK
6
CONTINUOUS
10
174.1273410000000013
20
-99.1235049999999944
11
174.0535050000000012
21
-99.1973409999999944
0
LINE
8
BLACK
6
CONTINUOUS
10
174.0535050000000012
20
-99.1973409999999944
11
173.9630729999999801
21
-99.2495519999999942
0
LINE
8
BLACK
6
CONTINUOUS
10
173.9630729999999801
20
-99.2495519999999942
11
173.8622100000000046
21
-99.2765780000000007
0
LINE
8
BLACK
6
CONTINUOUS
10
173.8622100000000046
20
-99.2765780000000007
11
173.75779
21
-99.2765780000000007
0
LINE
8
BLACK
6
CONTINUOUS
10
173.75779
20
-99.2765780000000007
11
173.656926999999996
21
-99.2495519999999942
0
LINE
8
BLACK
6
CONTINUOUS
10
173.656926999999996
20
-99.2495519999999942
11
173.6374050000000011
21
-99.2382799999999889
0
LINE
8
BLACK
6
CONTINUOUS
10
173.6374050000000011
20
-99.2382799999999889
11
167.0928429999999878
21
-105.7828429999999997
0
LINE
8
BLACK
6
CONTINUOUS
10
167.0928429999999878
20
-105.7828429999999997
11
167.0535050000000012
21
-105.817340999999999
0
LINE
8
BLACK
6
CONTINUOUS
10
167.0535050000000012
20
-105.817340999999999
11
166.963074000000006
21
-105.8695519999999988
0
LINE
8
BLACK
6
CONTINUOUS
10
166.963074000000006
20
-105.8695519999999988
11
166.8622100000000046
21
-105.896577999999991
0
LINE
8
BLACK
6
CONTINUOUS
10
166.8622100000000046
20
-105.896577999999991
11
166.8100000000000023
21
-105.8999999999999915
0
LINE
8
BLACK
6
CONTINUOUS
10
166.8100000000000023
20
-105.8999999999999915
11
166.7605570000000057
21
-105.8999999999999915
0
LINE
8
BLACK
6
CONTINUOUS
10
166.7605570000000057
20
-105.8999999999999915
11
166.7311069999999802
21
-105.944074999999998
0
LINE
8
BLACK
6
CONTINUOUS
10
166.7311069999999802
20
-105.944074999999998
11
166.6340749999999957
21
-106.0411069999999967
0
LINE
8
BLACK
6
CONTINUOUS
10
166.6340749999999957
20
-106.0411069999999967
11
166.5199779999999805
21
-106.1173450000000003
0
LINE
8
BLACK
6
CONTINUOUS
10
166.5199779999999805
20
-106.1173450000000003
11
166.3931989999999814
21
-106.1698579999999907
0
LINE
8
BLACK
6
CONTINUOUS
10
166.3931989999999814
20
-106.1698579999999907
11
166.2586119999999994
21
-106.1966290000000015
0
LINE
8
BLACK
6
CONTINUOUS
10
166.2586119999999994
20
-106.1966290000000015
11
166.1213879999999961
21
-106.1966290000000015
0
LINE
8
BLACK
6
CONTINUOUS
10
166.1213879999999961
20
-106.1966290000000015
11
166.0693969999999808
21
-106.186286999999993
0
LINE
8
BLACK
6
CONTINUOUS
10
166.0693969999999808
20
-106.186286999999993
11
164.1618430000000046
21
-108.0938429999999926
0
LINE
8
BLACK
6
CONTINUOUS
10
164.1618430000000046
20
-108.0938429999999926
11
164.1225049999999896
21
-108.1283409999999918
0
LINE
8
BLACK
6
CONTINUOUS
10
164.1225049999999896
20
-108.1283409999999918
11
164.0320739999999944
21
-108.1805519999999916
0
LINE
8
BLACK
6
CONTINUOUS
10
164.0320739999999944
20
-108.1805519999999916
11
163.931209999999993
21
-108.207577999999998
0
LINE
8
BLACK
6
CONTINUOUS
10
163.931209999999993
20
-108.207577999999998
11
163.8789999999999907
21
-108.2109999999999985
0
LINE
8
BLACK
6
CONTINUOUS
10
163.8789999999999907
20
-108.2109999999999985
11
160.1108409999999935
21
-108.2109999999999985
0
LINE
8
BLACK
6
CONTINUOUS
10
160.1108409999999935
20
-108.2109999999999985
11
160.0586309999999912
21
-108.207577999999998
0
LINE
8
BLACK
6
CONTINUOUS
10
160.0586309999999912
20
-108.207577999999998
11
159.9577669999999898
21
-108.1805519999999916
0
LINE
8
BLACK
6
CONTINUOUS
10
159.9577669999999898
20
-108.1805519999999916
11
159.8673359999999946
21
-108.1283409999999918
0
LINE
8
BLACK
6
CONTINUOUS
10
159.8673359999999946
20
-108.1283409999999918
11
159.8279979999999796
21
-108.0938429999999926
0
LINE
8
BLACK
6
CONTINUOUS
10
159.8279979999999796
20
-108.0938429999999926
11
155.6886329999999816
21
-103.9544779999999946
0
LINE
8
BLACK
6
CONTINUOUS
10
155.6886329999999816
20
-103.9544779999999946
11
155.6571169999999995
21
-103.9755369999999886
0
LINE
8
BLACK
6
CONTINUOUS
10
155.6571169999999995
20
-103.9755369999999886
11
155.5122279999999932
21
-104.0355519999999956
0
LINE
8
BLACK
6
CONTINUOUS
10
155.5122279999999932
20
-104.0355519999999956
11
155.358413999999982
21
-104.0661479999999983
0
LINE
8
BLACK
6
CONTINUOUS
10
155.358413999999982
20
-104.0661479999999983
11
155.2800000000000011
21
-104.0699999999999932
0
LINE
8
BLACK
6
CONTINUOUS
10
155.2800000000000011
20
-104.0699999999999932
11
154.4799999999999898
21
-104.0699999999999932
0
LINE
8
BLACK
6
CONTINUOUS
10
154.4799999999999898
20
-104.0699999999999932
11
154.4015859999999805
21
-104.0661479999999983
0
LINE
8
BLACK
6
CONTINUOUS
10
154.4015859999999805
20
-104.0661479999999983
11
154.2477719999999977
21
-104.0355519999999956
0
LINE
8
BLACK
6
CONTINUOUS
10
154.2477719999999977
20
-104.0355519999999956
11
154.1028829999999914
21
-103.9755369999999886
0
LINE
8
BLACK
6
CONTINUOUS
10
154.1028829999999914
20
-103.9755369999999886
11
153.972485000000006
21
-103.8884079999999983
0
LINE
8
BLACK
6
CONTINUOUS
10
153.972485000000006
20
-103.8884079999999983
11
153.8615920000000017
21
-103.777514999999994
0
LINE
8
BLACK
6
CONTINUOUS
10
153.8615920000000017
20
-103.777514999999994
11
153.7897529999999904
21
-103.6700000000000017
0
LINE
8
BLACK
6
CONTINUOUS
10
153.7897529999999904
20
-103.6700000000000017
11
153.0456849999999918
21
-103.6700000000000017
0
LINE
8
BLACK
6
CONTINUOUS
10
153.0456849999999918
20
-103.6700000000000017
11
151.4000000000000057
21
-105.315685000000002
0
LINE
8
BLACK
6
CONTINUOUS
10
151.4000000000000057
20
-105.315685000000002
11
151.4000000000000057
21
-106.8199999999999932
0
LINE
8
BLACK
6
CONTINUOUS
10
151.4000000000000057
20
-106.8199999999999932
11
151.5499999999999829
21
-106.8199999999999932
0
LINE
8
BLACK
6
CONTINUOUS
10
151.5499999999999829
20
-106.8199999999999932
11
151.645670999999993
21
-106.8390299999999939
0
LINE
8
BLACK
6
CONTINUOUS
10
151.645670999999993
20
-106.8390299999999939
11
151.7267769999999985
21
-106.8932229999999919
0
LINE
8
BLACK
6
CONTINUOUS
10
151.7267769999999985
20
-106.8932229999999919
11
151.7809699999999964
21
-106.9743289999999973
0
LINE
8
BLACK
6
CONTINUOUS
10
151.7809699999999964
20
-106.9743289999999973
11
151.7999999999999829
21
-107.0699999999999932
0
LINE
8
BLACK
6
CONTINUOUS
10
151.7999999999999829
20
-107.0699999999999932
11
151.7999999999999829
21
-108.1700000000000017
0
LINE
8
BLACK
6
CONTINUOUS
10
151.7999999999999829
20
-108.1700000000000017
11
151.7809699999999964
21
-108.2656709999999975
0
LINE
8
BLACK
6
CONTINUOUS
10
151.7809699999999964
20
-108.2656709999999975
11
151.7267769999999985
21
-108.3467769999999888
0
LINE
8
BLACK
6
CONTINUOUS
10
151.7267769999999985
20
-108.3467769999999888
11
151.645670999999993
21
-108.4009700000000009
0
LINE
8
BLACK
6
CONTINUOUS
10
151.645670999999993
20
-108.4009700000000009
11
151.5499999999999829
21
-108.4200000000000017
0
LINE
8
BLACK
6
CONTINUOUS
10
151.5499999999999829
20
-108.4200000000000017
11
150.4499999999999886
21
-108.4200000000000017
0
LINE
8
BLACK
6
CONTINUOUS
10
150.4499999999999886
20
-108.4200000000000017
11
150.354329000000007
21
-108.4009700000000009
0
LINE
8
BLACK
6
CONTINUOUS
10
150.354329000000007
20
-108.4009700000000009
11
150.2732230000000015
21
-108.3467769999999888
0
LINE
8
BLACK
6
CONTINUOUS
10
150.2732230000000015
20
-108.3467769999999888
11
150.2190300000000036
21
-108.2656709999999975
0
LINE
8
BLACK
6
CONTINUOUS
10
150.2190300000000036
20
-108.2656709999999975
11
150.1999999999999886
21
-108.1700000000000017
0
LINE
8
BLACK
6
CONTINUOUS
10
150.1999999999999886
20
-108.1700000000000017
11
150.1999999999999886
21
-107.0699999999999932
0
LINE
8
BLACK
6
CONTINUOUS
10
150.1999999999999886
20
-107.0699999999999932
11
150.2190300000000036
21
-106.9743289999999973
0
LINE
8
BLACK
6
CONTINUOUS
10
150.2190300000000036
20
-106.9743289999999973
11
150.2732230000000015
21
-106.8932229999999919
0
LINE
8
BLACK
6
CONTINUOUS
10
150.2732230000000015
20
-106.8932229999999919
11
150.354329000000007
21
-106.8390299999999939
0
LINE
8
BLACK
6
CONTINUOUS
10
150.354329000000007
20
-106.8390299999999939
11
150.4499999999999886
21
-106.8199999999999932
0
LINE
8
BLACK
6
CONTINUOUS
10
150.4499999999999886
20
-106.8199999999999932
11
150.5999999999999943
21
-106.8199999999999932
0
LINE
8
BLACK
6
CONTINUOUS
10
150.5999999999999943
20
-106.8199999999999932
11
150.5999999999999943
21
-105.1499999999999915
0
LINE
8
BLACK
6
CONTINUOUS
10
150.5999999999999943
20
-105.1499999999999915
11
150.6034219999999948
21
-105.0977899999999892
0
LINE
8
BLACK
6
CONTINUOUS
10
150.6034219999999948
20
-105.0977899999999892
11
150.617715000000004
21
-105.0444479999999885
0
LINE
8
BLACK
6
CONTINUOUS
10
150.617715000000004
20
-105.0444479999999885
11
150.6304480000000012
21
-104.996926000000002
0
LINE
8
BLACK
6
CONTINUOUS
10
150.6304480000000012
20
-104.996926000000002
11
150.682659000000001
21
-104.9064949999999925
0
LINE
8
BLACK
6
CONTINUOUS
10
150.682659000000001
20
-104.9064949999999925
11
150.7171569999999861
21
-104.8671569999999917
0
LINE
8
BLACK
6
CONTINUOUS
10
150.7171569999999861
20
-104.8671569999999917
11
152.5971569999999815
21
-102.9871579999999938
0
LINE
8
BLACK
6
CONTINUOUS
10
152.5971569999999815
20
-102.9871579999999938
11
152.6364949999999965
21
-102.952658999999997
0
LINE
8
BLACK
6
CONTINUOUS
10
152.6364949999999965
20
-102.952658999999997
11
152.6447969999999827
21
-102.9478659999999905
0
LINE
8
BLACK
6
CONTINUOUS
10
152.6447969999999827
20
-102.9478659999999905
11
152.7269269999999892
21
-102.9004479999999973
0
LINE
8
BLACK
6
CONTINUOUS
10
152.7269269999999892
20
-102.9004479999999973
11
152.8277899999999931
21
-102.8734219999999908
0
LINE
8
BLACK
6
CONTINUOUS
10
152.8277899999999931
20
-102.8734219999999908
11
152.8799999999999955
21
-102.8699999999999903
0
LINE
8
BLACK
6
CONTINUOUS
10
152.8799999999999955
20
-102.8699999999999903
11
153.7897529999999904
21
-102.8699999999999903
0
LINE
8
BLACK
6
CONTINUOUS
10
153.7897529999999904
20
-102.8699999999999903
11
153.8615920000000017
21
-102.7624849999999981
0
LINE
8
BLACK
6
CONTINUOUS
10
153.8615920000000017
20
-102.7624849999999981
11
153.972485000000006
21
-102.6515919999999937
0
LINE
8
BLACK
6
CONTINUOUS
10
153.972485000000006
20
-102.6515919999999937
11
154.1028829999999914
21
-102.5644629999999893
0
LINE
8
BLACK
6
CONTINUOUS
10
154.1028829999999914
20
-102.5644629999999893
11
154.2477719999999977
21
-102.5044479999999965
0
LINE
8
BLACK
6
CONTINUOUS
10
154.2477719999999977
20
-102.5044479999999965
11
154.4015859999999805
21
-102.4738519999999937
0
LINE
8
BLACK
6
CONTINUOUS
10
154.4015859999999805
20
-102.4738519999999937
11
154.4799999999999898
21
-102.4699999999999989
0
LINE
8
BLACK
6
CONTINUOUS
10
154.4799999999999898
20
-102.4699999999999989
11
154.4799999999999898
21
-101.5300000000000011
0
LINE
8
BLACK
6
CONTINUOUS
10
154.4799999999999898
20
-101.5300000000000011
11
154.4015859999999805
21
-101.5261479999999921
0
LINE
8
BLACK
6
CONTINUOUS
10
154.4015859999999805
20
-101.5261479999999921
11
154.2477719999999977
21
-101.4955519999999893
0
LINE
8
BLACK
6
CONTINUOUS
10
154.2477719999999977
20
-101.4955519999999893
11
154.1028829999999914
21
-101.4355369999999965
0
LINE
8
BLACK
6
CONTINUOUS
10
154.1028829999999914
20
-101.4355369999999965
11
153.972485000000006
21
-101.3484079999999921
0
LINE
8
BLACK
6
CONTINUOUS
10
153.972485000000006
20
-101.3484079999999921
11
153.8615920000000017
21
-101.2375150000000019
0
LINE
8
BLACK
6
CONTINUOUS
10
153.8615920000000017
20
-101.2375150000000019
11
153.7744629999999972
21
-101.1071170000000023
0
LINE
8
BLACK
6
CONTINUOUS
10
153.7744629999999972
20
-101.1071170000000023
11
153.7144480000000044
21
-100.9622279999999961
0
LINE
8
BLACK
6
CONTINUOUS
10
153.7144480000000044
20
-100.9622279999999961
11
153.6838520000000017
21
-100.8084139999999991
0
LINE
8
BLACK
6
CONTINUOUS
10
153.6838520000000017
20
-100.8084139999999991
11
153.6838520000000017
21
-100.6515859999999947
0
LINE
8
BLACK
6
CONTINUOUS
10
153.6838520000000017
20
-100.6515859999999947
11
153.7144480000000044
21
-100.4977719999999977
0
LINE
8
BLACK
6
CONTINUOUS
10
153.7144480000000044
20
-100.4977719999999977
11
153.7744629999999972
21
-100.3528829999999914
0
LINE
8
BLACK
6
CONTINUOUS
10
153.7744629999999972
20
-100.3528829999999914
11
153.8615920000000017
21
-100.2224849999999918
0
LINE
8
BLACK
6
CONTINUOUS
10
153.8615920000000017
20
-100.2224849999999918
11
153.972485000000006
21
-100.1115920000000017
0
LINE
8
BLACK
6
CONTINUOUS
10
153.972485000000006
20
-100.1115920000000017
11
154.1028829999999914
21
-100.0244629999999972
0
LINE
8
BLACK
6
CONTINUOUS
10
154.1028829999999914
20
-100.0244629999999972
11
154.2477719999999977
21
-99.9644479999999902
0
LINE
8
BLACK
6
CONTINUOUS
10
154.2477719999999977
20
-99.9644479999999902
11
154.4015859999999805
21
-99.9338520000000017
0
LINE
8
BLACK
6
CONTINUOUS
10
154.4015859999999805
20
-99.9338520000000017
11
154.4799999999999898
21
-99.9299999999999926
0
LINE
8
BLACK
6
CONTINUOUS
10
154.4799999999999898
20
-99.9299999999999926
11
155.2800000000000011
21
-99.9299999999999926
0
LINE
8
BLACK
6
CONTINUOUS
10
155.2800000000000011
20
-99.9299999999999926
11
155.358413999999982
21
-99.9338520000000017
0
LINE
8
BLACK
6
CONTINUOUS
10
155.358413999999982
20
-99.9338520000000017
11
155.5122279999999932
21
-99.9644479999999902
0
LINE
8
BLACK
6
CONTINUOUS
10
155.5122279999999932
20
-99.9644479999999902
11
155.6571169999999995
21
-100.0244629999999972
0
LINE
8
BLACK
6
CONTINUOUS
10
155.6571169999999995
20
-100.0244629999999972
11
155.7875149999999849
21
-100.1115920000000017
0
LINE
8
BLACK
6
CONTINUOUS
10
155.7875149999999849
20
-100.1115920000000017
11
155.8984079999999892
21
-100.2224849999999918
0
LINE
8
BLACK
6
CONTINUOUS
10
155.8984079999999892
20
-100.2224849999999918
11
155.9855369999999937
21
-100.3528829999999914
0
LINE
8
BLACK
6
CONTINUOUS
10
155.9855369999999937
20
-100.3528829999999914
11
156.0455519999999865
21
-100.4977719999999977
0
LINE
8
BLACK
6
CONTINUOUS
10
156.0455519999999865
20
-100.4977719999999977
11
156.0761479999999892
21
-100.6515859999999947
0
LINE
8
BLACK
6
CONTINUOUS
10
156.0761479999999892
20
-100.6515859999999947
11
156.0761479999999892
21
-100.8084139999999991
0
LINE
8
BLACK
6
CONTINUOUS
10
156.0761479999999892
20
-100.8084139999999991
11
156.0455519999999865
21
-100.9622279999999961
0
LINE
8
BLACK
6
CONTINUOUS
10
156.0455519999999865
20
-100.9622279999999961
11
155.9855369999999937
21
-101.1071170000000023
0
LINE
8
BLACK
6
CONTINUOUS
10
155.9855369999999937
20
-101.1071170000000023
11
155.8984079999999892
21
-101.2375150000000019
0
LINE
8
BLACK
6
CONTINUOUS
10
155.8984079999999892
20
-101.2375150000000019
11
155.7875149999999849
21
-101.3484079999999921
0
LINE
8
BLACK
6
CONTINUOUS
10
155.7875149999999849
20
-101.3484079999999921
11
155.6571169999999995
21
-101.4355369999999965
0
LINE
8
BLACK
6
CONTINUOUS
10
155.6571169999999995
20
-101.4355369999999965
11
155.5122279999999932
21
-101.4955519999999893
0
LINE
8
BLACK
6
CONTINUOUS
10
155.5122279999999932
20
-101.4955519999999893
11
155.358413999999982
21
-101.5261479999999921
0
LINE
8
BLACK
6
CONTINUOUS
10
155.358413999999982
20
-101.5261479999999921
11
155.2800000000000011
21
-101.5300000000000011
0
LINE
8
BLACK
6
CONTINUOUS
10
155.2800000000000011
20
-101.5300000000000011
11
155.2800000000000011
21
-102.4699999999999989
0
LINE
8
BLACK
6
CONTINUOUS
10
155.2800000000000011
20
-102.4699999999999989
11
155.358413999999982
21
-102.4738519999999937
0
LINE
8
BLACK
6
CONTINUOUS
10
155.358413999999982
20
-102.4738519999999937
11
155.5122279999999932
21
-102.5044479999999965
0
LINE
8
BLACK
6
CONTINUOUS
10
155.5122279999999932
20
-102.5044479999999965
11
155.6571169999999995
21
-102.5644629999999893
0
LINE
8
BLACK
6
CONTINUOUS
10
155.6571169999999995
20
-102.5644629999999893
11
155.7875149999999849
21
-102.6515919999999937
0
LINE
8
BLACK
6
CONTINUOUS
10
155.7875149999999849
20
-102.6515919999999937
11
155.8984079999999892
21
-102.7624849999999981
0
LINE
8
BLACK
6
CONTINUOUS
10
155.8984079999999892
20
-102.7624849999999981
11
155.9855369999999937
21
-102.8928829999999977
0
LINE
8
BLACK
6
CONTINUOUS
10
155.9855369999999937
20
-102.8928829999999977
11
156.0455519999999865
21
-103.0377719999999897
0
LINE
8
BLACK
6
CONTINUOUS
10
156.0455519999999865
20
-103.0377719999999897
11
156.0761479999999892
21
-103.1915860000000009
0
LINE
8
BLACK
6
CONTINUOUS
10
156.0761479999999892
20
-103.1915860000000009
11
156.0761479999999892
21
-103.2106209999999891
0
LINE
8
BLACK
6
CONTINUOUS
10
156.0761479999999892
20
-103.2106209999999891
11
160.2765269999999873
21
-107.4110000000000014
0
LINE
8
BLACK
6
CONTINUOUS
10
160.2765269999999873
20
-107.4110000000000014
11
163.7133139999999969
21
-107.4110000000000014
0
LINE
8
BLACK
6
CONTINUOUS
10
163.7133139999999969
20
-107.4110000000000014
11
165.5037119999999788
21
-105.620601999999991
0
LINE
8
BLACK
6
CONTINUOUS
10
165.5037119999999788
20
-105.620601999999991
11
165.4933709999999962
21
-105.5686120000000017
0
LINE
8
BLACK
6
CONTINUOUS
10
165.4933709999999962
20
-105.5686120000000017
11
165.4933709999999962
21
-105.4313879999999983
0
LINE
8
BLACK
6
CONTINUOUS
10
165.4933709999999962
20
-105.4313879999999983
11
165.5201419999999928
21
-105.2968010000000021
0
LINE
8
BLACK
6
CONTINUOUS
10
165.5201419999999928
20
-105.2968010000000021
11
165.5726549999999975
21
-105.1700219999999888
0
LINE
8
BLACK
6
CONTINUOUS
10
165.5726549999999975
20
-105.1700219999999888
11
165.6488929999999868
21
-105.055925000000002
0
LINE
8
BLACK
6
CONTINUOUS
10
165.6488929999999868
20
-105.055925000000002
11
165.7459249999999997
21
-104.9588929999999891
0
LINE
8
BLACK
6
CONTINUOUS
10
165.7459249999999997
20
-104.9588929999999891
11
165.8600219999999865
21
-104.8826549999999997
0
LINE
8
BLACK
6
CONTINUOUS
10
165.8600219999999865
20
-104.8826549999999997
11
165.9868009999999856
21
-104.8301419999999951
0
LINE
8
BLACK
6
CONTINUOUS
10
165.9868009999999856
20
-104.8301419999999951
11
166.1213879999999961
21
-104.8033709999999985
0
LINE
8
BLACK
6
CONTINUOUS
10
166.1213879999999961
20
-104.8033709999999985
11
166.2586119999999994
21
-104.8033709999999985
0
LINE
8
BLACK
6
CONTINUOUS
10
166.2586119999999994
20
-104.8033709999999985
11
166.3931989999999814
21
-104.8301419999999951
0
LINE
8
BLACK
6
CONTINUOUS
10
166.3931989999999814
20
-104.8301419999999951
11
166.5199779999999805
21
-104.8826549999999997
0
LINE
8
BLACK
6
CONTINUOUS
10
166.5199779999999805
20
-104.8826549999999997
11
166.6340749999999957
21
-104.9588929999999891
0
LINE
8
BLACK
6
CONTINUOUS
10
166.6340749999999957
20
-104.9588929999999891
11
166.7097479999999905
21
-105.0345659999999981
0
LINE
8
BLACK
6
CONTINUOUS
10
166.7097479999999905
20
-105.0345659999999981
11
173.1237119999999834
21
-98.6206009999999935
0
LINE
8
BLACK
6
CONTINUOUS
10
173.1237119999999834
20
-98.6206009999999935
11
173.1133710000000008
21
-98.5686120000000017
0
LINE
8
BLACK
6
CONTINUOUS
10
173.1133710000000008
20
-98.5686120000000017
11
173.1133710000000008
21
-98.4313879999999983
0
LINE
8
BLACK
6
CONTINUOUS
10
173.1133710000000008
20
-98.4313879999999983
11
173.1237119999999834
21
-98.3793969999999973
0
LINE
8
BLACK
6
CONTINUOUS
10
173.1237119999999834
20
-98.3793969999999973
11
171.2171569999999861
21
-96.4728429999999975
0
LINE
8
BLACK
6
CONTINUOUS
10
171.2171569999999861
20
-96.4728429999999975
11
171.182659000000001
21
-96.4335049999999967
0
LINE
8
BLACK
6
CONTINUOUS
10
171.182659000000001
20
-96.4335049999999967
11
171.1304480000000012
21
-96.3430740000000014
0
LINE
8
BLACK
6
CONTINUOUS
10
171.1304480000000012
20
-96.3430740000000014
11
171.1034219999999948
21
-96.24221
0
LINE
8
BLACK
6
CONTINUOUS
10
171.1034219999999948
20
-96.24221
11
171.0999999999999943
21
-96.1899999999999977
0
LINE
8
BLACK
6
CONTINUOUS
10
171.0999999999999943
20
-96.1899999999999977
11
171.0999999999999943
21
-91.0914499999999947
0
LINE
8
BLACK
6
CONTINUOUS
10
171.0999999999999943
20
-91.0914499999999947
11
171.0522599999999898
21
-91.0759389999999911
0
LINE
8
BLACK
6
CONTINUOUS
10
171.0522599999999898
20
-91.0759389999999911
11
170.8886770000000013
21
-90.9925889999999953
0
LINE
8
BLACK
6
CONTINUOUS
10
170.8886770000000013
20
-90.9925889999999953
11
170.7401459999999815
21
-90.8846750000000014
0
LINE
8
BLACK
6
CONTINUOUS
10
170.7401459999999815
20
-90.8846750000000014
11
170.6103249999999889
21
-90.7548539999999946
0
LINE
8
BLACK
6
CONTINUOUS
10
170.6103249999999889
20
-90.7548539999999946
11
170.5024109999999951
21
-90.6063229999999891
0
LINE
8
BLACK
6
CONTINUOUS
10
170.5024109999999951
20
-90.6063229999999891
11
170.4190609999999992
21
-90.4427400000000006
0
LINE
8
BLACK
6
CONTINUOUS
10
170.4190609999999992
20
-90.4427400000000006
11
170.3623269999999934
21
-90.2681309999999968
0
LINE
8
BLACK
6
CONTINUOUS
10
170.3623269999999934
20
-90.2681309999999968
11
170.3336070000000007
21
-90.08679699999999
0
LINE
8
BLACK
6
CONTINUOUS
10
170.3336070000000007
20
-90.08679699999999
11
170.3336070000000007
21
-89.9032029999999907
0
LINE
8
BLACK
6
CONTINUOUS
10
170.3336070000000007
20
-89.9032029999999907
11
170.3623269999999934
21
-89.7218689999999981
0
LINE
8
BLACK
6
CONTINUOUS
10
170.3623269999999934
20
-89.7218689999999981
11
170.4190609999999992
21
-89.5472599999999943
0
LINE
8
BLACK
6
CONTINUOUS
10
170.4190609999999992
20
-89.5472599999999943
11
170.5024109999999951
21
-89.3836769999999916
0
LINE
8
BLACK
6
CONTINUOUS
10
170.5024109999999951
20
-89.3836769999999916
11
170.6103249999999889
21
-89.2351460000000003
0
LINE
8
BLACK
6
CONTINUOUS
10
170.6103249999999889
20
-89.2351460000000003
11
170.7401459999999815
21
-89.1053249999999935
0
LINE
8
BLACK
6
CONTINUOUS
10
170.7401459999999815
20
-89.1053249999999935
11
170.8886770000000013
21
-88.9974109999999996
0
LINE
8
BLACK
6
CONTINUOUS
10
170.8886770000000013
20
-88.9974109999999996
11
171.0522599999999898
21
-88.9140609999999896
0
LINE
8
BLACK
6
CONTINUOUS
10
171.0522599999999898
20
-88.9140609999999896
11
171.2268689999999935
21
-88.857326999999998
0
LINE
8
BLACK
6
CONTINUOUS
10
171.2268689999999935
20
-88.857326999999998
11
171.4082029999999861
21
-88.828606999999991
0
LINE
8
BLACK
6
CONTINUOUS
10
171.4082029999999861
20
-88.828606999999991
11
171.5917969999999855
21
-88.828606999999991
0
LINE
8
BLACK
6
CONTINUOUS
10
171.5917969999999855
20
-88.828606999999991
11
171.773130999999978
21
-88.857326999999998
0
LINE
8
BLACK
6
CONTINUOUS
10
162.9784139999999866
20
-105.013852
11
163.1322279999999978
21
-105.0444479999999885
0
LINE
8
BLACK
6
CONTINUOUS
10
163.1322279999999978
20
-105.0444479999999885
11
163.2771170000000041
21
-105.1044629999999955
0
LINE
8
BLACK
6
CONTINUOUS
10
163.2771170000000041
20
-105.1044629999999955
11
163.4075149999999894
21
-105.191592
0
LINE
8
BLACK
6
CONTINUOUS
10
163.4075149999999894
20
-105.191592
11
163.5184079999999938
21
-105.3024849999999901
0
LINE
8
BLACK
6
CONTINUOUS
10
163.5184079999999938
20
-105.3024849999999901
11
163.6055369999999982
21
-105.4328829999999897
0
LINE
8
BLACK
6
CONTINUOUS
10
163.6055369999999982
20
-105.4328829999999897
11
163.665551999999991
21
-105.577771999999996
0
LINE
8
BLACK
6
CONTINUOUS
10
163.665551999999991
20
-105.577771999999996
11
163.6961479999999938
21
-105.731585999999993
0
LINE
8
BLACK
6
CONTINUOUS
10
163.6961479999999938
20
-105.731585999999993
11
163.6961479999999938
21
-105.8884139999999974
0
LINE
8
BLACK
6
CONTINUOUS
10
163.6961479999999938
20
-105.8884139999999974
11
163.665551999999991
21
-106.0422279999999944
0
LINE
8
BLACK
6
CONTINUOUS
10
163.665551999999991
20
-106.0422279999999944
11
163.6055369999999982
21
-106.1871170000000006
0
LINE
8
BLACK
6
CONTINUOUS
10
163.6055369999999982
20
-106.1871170000000006
11
163.5184079999999938
21
-106.3175150000000002
0
LINE
8
BLACK
6
CONTINUOUS
10
163.5184079999999938
20
-106.3175150000000002
11
163.4075149999999894
21
-106.4284079999999904
0
LINE
8
BLACK
6
CONTINUOUS
10
163.4075149999999894
20
-106.4284079999999904
11
163.2771170000000041
21
-106.5155369999999948
0
LINE
8
BLACK
6
CONTINUOUS
10
163.2771170000000041
20
-106.5155369999999948
11
163.1322279999999978
21
-106.5755520000000018
0
LINE
8
BLACK
6
CONTINUOUS
10
163.1322279999999978
20
-106.5755520000000018
11
162.9784139999999866
21
-106.6061479999999904
0
LINE
8
BLACK
6
CONTINUOUS
10
162.9784139999999866
20
-106.6061479999999904
11
162.9000000000000057
21
-106.6099999999999994
0
LINE
8
BLACK
6
CONTINUOUS
10
162.9000000000000057
20
-106.6099999999999994
11
162.0999999999999943
21
-106.6099999999999994
0
LINE
8
BLACK
6
CONTINUOUS
10
162.0999999999999943
20
-106.6099999999999994
11
162.021585999999985
21
-106.6061479999999904
0
LINE
8
BLACK
6
CONTINUOUS
10
162.021585999999985
20
-106.6061479999999904
11
161.8677720000000022
21
-106.5755520000000018
0
LINE
8
BLACK
6
CONTINUOUS
10
161.8677720000000022
20
-106.5755520000000018
11
161.7228829999999959
21
-106.5155369999999948
0
LINE
8
BLACK
6
CONTINUOUS
10
161.7228829999999959
20
-106.5155369999999948
11
161.5924849999999822
21
-106.4284079999999904
0
LINE
8
BLACK
6
CONTINUOUS
10
161.5924849999999822
20
-106.4284079999999904
11
161.4815920000000062
21
-106.3175150000000002
0
LINE
8
BLACK
6
CONTINUOUS
10
161.4815920000000062
20
-106.3175150000000002
11
161.3944630000000018
21
-106.1871170000000006
0
LINE
8
BLACK
6
CONTINUOUS
10
161.3944630000000018
20
-106.1871170000000006
11
161.3344479999999805
21
-106.0422279999999944
0
LINE
8
BLACK
6
CONTINUOUS
10
161.3344479999999805
20
-106.0422279999999944
11
161.3038520000000062
21
-105.8884139999999974
0
LINE
8
BLACK
6
CONTINUOUS
10
161.3038520000000062
20
-105.8884139999999974
11
161.3038520000000062
21
-105.731585999999993
0
LINE
8
BLACK
6
CONTINUOUS
10
161.3038520000000062
20
-105.731585999999993
11
161.3344479999999805
21
-105.577771999999996
0
LINE
8
BLACK
6
CONTINUOUS
10
161.3344479999999805
20
-105.577771999999996
11
161.3944630000000018
21
-105.4328829999999897
0
LINE
8
BLACK
6
CONTINUOUS
10
161.3944630000000018
20
-105.4328829999999897
11
161.4815920000000062
21
-105.3024849999999901
0
LINE
8
BLACK
6
CONTINUOUS
10
161.4815920000000062
20
-105.3024849999999901
11
161.5924849999999822
21
-105.191592
0
LINE
8
BLACK
6
CONTINUOUS
10
161.5924849999999822
20
-105.191592
11
161.7228829999999959
21
-105.1044629999999955
0
LINE
8
BLACK
6
CONTINUOUS
10
161.7228829999999959
20
-105.1044629999999955
11
161.8677720000000022
21
-105.0444479999999885
0
LINE
8
BLACK
6
CONTINUOUS
10
161.8677720000000022
20
-105.0444479999999885
11
162.021585999999985
21
-105.013852
0
LINE
8
BLACK
6
CONTINUOUS
10
162.021585999999985
20
-105.013852
11
162.0999999999999943
21
-105.0099999999999909
0
LINE
8
BLACK
6
CONTINUOUS
10
162.0999999999999943
20
-105.0099999999999909
11
162.9000000000000057
21
-105.0099999999999909
0
LINE
8
BLACK
6
CONTINUOUS
10
162.9000000000000057
20
-105.0099999999999909
11
162.9784139999999866
21
-105.013852
0
LINE
8
BLACK
6
CONTINUOUS
10
162.9784139999999866
20
-102.4738519999999937
11
163.1322279999999978
21
-102.5044479999999965
0
LINE
8
BLACK
6
CONTINUOUS
10
163.1322279999999978
20
-102.5044479999999965
11
163.2771170000000041
21
-102.5644629999999893
0
LINE
8
BLACK
6
CONTINUOUS
10
163.2771170000000041
20
-102.5644629999999893
11
163.4075149999999894
21
-102.6515919999999937
0
LINE
8
BLACK
6
CONTINUOUS
10
163.4075149999999894
20
-102.6515919999999937
11
163.5184079999999938
21
-102.7624849999999981
0
LINE
8
BLACK
6
CONTINUOUS
10
163.5184079999999938
20
-102.7624849999999981
11
163.6055369999999982
21
-102.8928829999999977
0
LINE
8
BLACK
6
CONTINUOUS
10
163.6055369999999982
20
-102.8928829999999977
11
163.665551999999991
21
-103.0377719999999897
0
LINE
8
BLACK
6
CONTINUOUS
10
163.665551999999991
20
-103.0377719999999897
11
163.6961479999999938
21
-103.1915860000000009
0
LINE
8
BLACK
6
CONTINUOUS
10
163.6961479999999938
20
-103.1915860000000009
11
163.6961479999999938
21
-103.3484139999999911
0
LINE
8
BLACK
6
CONTINUOUS
10
163.6961479999999938
20
-103.3484139999999911
11
163.665551999999991
21
-103.5022280000000023
0
LINE
8
BLACK
6
CONTINUOUS
10
163.665551999999991
20
-103.5022280000000023
11
163.6055369999999982
21
-103.6471169999999944
0
LINE
8
BLACK
6
CONTINUOUS
10
163.6055369999999982
20
-103.6471169999999944
11
163.5184079999999938
21
-103.777514999999994
0
LINE
8
BLACK
6
CONTINUOUS
10
163.5184079999999938
20
-103.777514999999994
11
163.4075149999999894
21
-103.8884079999999983
0
LINE
8
BLACK
6
CONTINUOUS
10
163.4075149999999894
20
-103.8884079999999983
11
163.2771170000000041
21
-103.9755369999999886
0
LINE
8
BLACK
6
CONTINUOUS
10
163.2771170000000041
20
-103.9755369999999886
11
163.1322279999999978
21
-104.0355519999999956
0
LINE
8
BLACK
6
CONTINUOUS
10
163.1322279999999978
20
-104.0355519999999956
11
162.9784139999999866
21
-104.0661479999999983
0
LINE
8
BLACK
6
CONTINUOUS
10
162.9784139999999866
20
-104.0661479999999983
11
162.9000000000000057
21
-104.0699999999999932
0
LINE
8
BLACK
6
CONTINUOUS
10
162.9000000000000057
20
-104.0699999999999932
11
162.0999999999999943
21
-104.0699999999999932
0
LINE
8
BLACK
6
CONTINUOUS
10
162.0999999999999943
20
-104.0699999999999932
11
162.021585999999985
21
-104.0661479999999983
0
LINE
8
BLACK
6
CONTINUOUS
10
162.021585999999985
20
-104.0661479999999983
11
161.8677720000000022
21
-104.0355519999999956
0
LINE
8
BLACK
6
CONTINUOUS
10
161.8677720000000022
20
-104.0355519999999956
11
161.7228829999999959
21
-103.9755369999999886
0
LINE
8
BLACK
6
CONTINUOUS
10
161.7228829999999959
20
-103.9755369999999886
11
161.5924849999999822
21
-103.8884079999999983
0
LINE
8
BLACK
6
CONTINUOUS
10
161.5924849999999822
20
-103.8884079999999983
11
161.4815920000000062
21
-103.777514999999994
0
LINE
8
BLACK
6
CONTINUOUS
10
161.4815920000000062
20
-103.777514999999994
11
161.3944630000000018
21
-103.6471169999999944
0
LINE
8
BLACK
6
CONTINUOUS
10
161.3944630000000018
20
-103.6471169999999944
11
161.3344479999999805
21
-103.5022280000000023
0
LINE
8
BLACK
6
CONTINUOUS
10
161.3344479999999805
20
-103.5022280000000023
11
161.3038520000000062
21
-103.3484139999999911
0
LINE
8
BLACK
6
CONTINUOUS
10
161.3038520000000062
20
-103.3484139999999911
11
161.3038520000000062
21
-103.1915860000000009
0
LINE
8
BLACK
6
CONTINUOUS
10
161.3038520000000062
20
-103.1915860000000009
11
161.3344479999999805
21
-103.0377719999999897
0
LINE
8
BLACK
6
CONTINUOUS
10
161.3344479999999805
20
-103.0377719999999897
11
161.3944630000000018
21
-102.8928829999999977
0
LINE
8
BLACK
6
CONTINUOUS
10
161.3944630000000018
20
-102.8928829999999977
11
161.4815920000000062
21
-102.7624849999999981
0
LINE
8
BLACK
6
CONTINUOUS
10
161.4815920000000062
20
-102.7624849999999981
11
161.5924849999999822
21
-102.6515919999999937
0
LINE
8
BLACK
6
CONTINUOUS
10
161.5924849999999822
20
-102.6515919999999937
11
161.7228829999999959
21
-102.5644629999999893
0
LINE
8
BLACK
6
CONTINUOUS
10
161.7228829999999959
20
-102.5644629999999893
11
161.8677720000000022
21
-102.5044479999999965
0
LINE
8
BLACK
6
CONTINUOUS
10
161.8677720000000022
20
-102.5044479999999965
11
162.021585999999985
21
-102.4738519999999937
0
LINE
8
BLACK
6
CONTINUOUS
10
162.021585999999985
20
-102.4738519999999937
11
162.0999999999999943
21
-102.4699999999999989
0
LINE
8
BLACK
6
CONTINUOUS
10
162.0999999999999943
20
-102.4699999999999989
11
162.9000000000000057
21
-102.4699999999999989
0
LINE
8
BLACK
6
CONTINUOUS
10
162.9000000000000057
20
-102.4699999999999989
11
162.9784139999999866
21
-102.4738519999999937
0
LINE
8
BLACK
6
CONTINUOUS
10
157.4301679999999806
20
-89.041444999999996
11
157.6540249999999901
21
-89.1141810000000021
0
LINE
8
BLACK
6
CONTINUOUS
10
157.6540249999999901
20
-89.1141810000000021
11
157.8637479999999869
21
-89.2210400000000021
0
LINE
8
BLACK
6
CONTINUOUS
10
157.8637479999999869
20
-89.2210400000000021
11
158.0541719999999941
21
-89.3593910000000022
0
LINE
8
BLACK
6
CONTINUOUS
10
158.0541719999999941
20
-89.3593910000000022
11
158.2206089999999961
21
-89.52582799999999
0
LINE
8
BLACK
6
CONTINUOUS
10
158.2206089999999961
20
-89.52582799999999
11
158.3589599999999962
21
-89.7162519999999972
0
LINE
8
BLACK
6
CONTINUOUS
10
158.3589599999999962
20
-89.7162519999999972
11
158.3629080000000044
21
-89.7239999999999895
0
LINE
8
BLACK
6
CONTINUOUS
10
158.3629080000000044
20
-89.7239999999999895
11
162.4821010000000001
21
-89.7239999999999895
0
LINE
8
BLACK
6
CONTINUOUS
10
162.4821010000000001
20
-89.7239999999999895
11
162.5343110000000024
21
-89.72742199999999
0
LINE
8
BLACK
6
CONTINUOUS
10
162.5343110000000024
20
-89.72742199999999
11
162.6351750000000038
21
-89.7544479999999965
0
LINE
8
BLACK
6
CONTINUOUS
10
162.6351750000000038
20
-89.7544479999999965
11
162.7256059999999991
21
-89.8066589999999962
0
LINE
8
BLACK
6
CONTINUOUS
10
162.7256059999999991
20
-89.8066589999999962
11
162.7649439999999856
21
-89.8411569999999955
0
LINE
8
BLACK
6
CONTINUOUS
10
162.7649439999999856
20
-89.8411569999999955
11
166.4728429999999832
21
-93.5490559999999931
0
LINE
8
BLACK
6
CONTINUOUS
10
166.4728429999999832
20
-93.5490559999999931
11
166.5073409999999967
21
-93.5883939999999939
0
LINE
8
BLACK
6
CONTINUOUS
10
166.5073409999999967
20
-93.5883939999999939
11
166.5595519999999965
21
-93.6788249999999891
0
LINE
8
BLACK
6
CONTINUOUS
10
166.5595519999999965
20
-93.6788249999999891
11
166.5595519999999965
21
-93.6788260000000008
0
LINE
8
BLACK
6
CONTINUOUS
10
166.5595519999999965
20
-93.6788260000000008
11
166.5865780000000029
21
-93.7796889999999905
0
LINE
8
BLACK
6
CONTINUOUS
10
166.5865780000000029
20
-93.7796889999999905
11
166.5900000000000034
21
-93.8318989999999928
0
LINE
8
BLACK
6
CONTINUOUS
10
166.5900000000000034
20
-93.8318989999999928
11
166.5900000000000034
21
-97.9294419999999946
0
LINE
8
BLACK
6
CONTINUOUS
10
166.5900000000000034
20
-97.9294419999999946
11
166.6340749999999957
21
-97.9588929999999891
0
LINE
8
BLACK
6
CONTINUOUS
10
166.6340749999999957
20
-97.9588929999999891
11
166.7311069999999802
21
-98.055925000000002
0
LINE
8
BLACK
6
CONTINUOUS
10
166.7311069999999802
20
-98.055925000000002
11
166.807344999999998
21
-98.1700219999999888
0
LINE
8
BLACK
6
CONTINUOUS
10
166.807344999999998
20
-98.1700219999999888
11
166.8598580000000027
21
-98.2968010000000021
0
LINE
8
BLACK
6
CONTINUOUS
10
166.8598580000000027
20
-98.2968010000000021
11
166.8866289999999992
21
-98.4313879999999983
0
LINE
8
BLACK
6
CONTINUOUS
10
166.8866289999999992
20
-98.4313879999999983
11
166.8866289999999992
21
-98.5686120000000017
0
LINE
8
BLACK
6
CONTINUOUS
10
166.8866289999999992
20
-98.5686120000000017
11
166.8598580000000027
21
-98.7031989999999979
0
LINE
8
BLACK
6
CONTINUOUS
10
166.8598580000000027
20
-98.7031989999999979
11
166.807344999999998
21
-98.829977999999997
0
LINE
8
BLACK
6
CONTINUOUS
10
166.807344999999998
20
-98.829977999999997
11
166.7311069999999802
21
-98.944074999999998
0
LINE
8
BLACK
6
CONTINUOUS
10
166.7311069999999802
20
-98.944074999999998
11
166.6340749999999957
21
-99.0411069999999967
0
LINE
8
BLACK
6
CONTINUOUS
10
166.6340749999999957
20
-99.0411069999999967
11
166.5900000000000034
21
-99.0705569999999938
0
LINE
8
BLACK
6
CONTINUOUS
10
166.5900000000000034
20
-99.0705569999999938
11
166.5900000000000034
21
-101.4294419999999946
0
LINE
8
BLACK
6
CONTINUOUS
10
166.5900000000000034
20
-101.4294419999999946
11
166.6340749999999957
21
-101.4588929999999891
0
LINE
8
BLACK
6
CONTINUOUS
10
166.6340749999999957
20
-101.4588929999999891
11
166.7311069999999802
21
-101.555925000000002
0
LINE
8
BLACK
6
CONTINUOUS
10
166.7311069999999802
20
-101.555925000000002
11
166.807344999999998
21
-101.6700219999999888
0
LINE
8
BLACK
6
CONTINUOUS
10
166.807344999999998
20
-101.6700219999999888
11
166.8598580000000027
21
-101.7968010000000021
0
LINE
8
BLACK
6
CONTINUOUS
10
166.8598580000000027
20
-101.7968010000000021
11
166.8866289999999992
21
-101.9313879999999983
0
LINE
8
BLACK
6
CONTINUOUS
10
166.8866289999999992
20
-101.9313879999999983
11
166.8866289999999992
21
-102.0686120000000017
0
LINE
8
BLACK
6
CONTINUOUS
10
166.8866289999999992
20
-102.0686120000000017
11
166.8598580000000027
21
-102.2031989999999979
0
LINE
8
BLACK
6
CONTINUOUS
10
166.8598580000000027
20
-102.2031989999999979
11
166.807344999999998
21
-102.329977999999997
0
LINE
8
BLACK
6
CONTINUOUS
10
166.807344999999998
20
-102.329977999999997
11
166.7311069999999802
21
-102.444074999999998
0
LINE
8
BLACK
6
CONTINUOUS
10
166.7311069999999802
20
-102.444074999999998
11
166.6340749999999957
21
-102.5411069999999967
0
LINE
8
BLACK
6
CONTINUOUS
10
166.6340749999999957
20
-102.5411069999999967
11
166.5199779999999805
21
-102.6173450000000003
0
LINE
8
BLACK
6
CONTINUOUS
10
166.5199779999999805
20
-102.6173450000000003
11
166.3931989999999814
21
-102.6698579999999907
0
LINE
8
BLACK
6
CONTINUOUS
10
166.3931989999999814
20
-102.6698579999999907
11
166.2586119999999994
21
-102.6966290000000015
0
LINE
8
BLACK
6
CONTINUOUS
10
166.2586119999999994
20
-102.6966290000000015
11
166.1213879999999961
21
-102.6966290000000015
0
LINE
8
BLACK
6
CONTINUOUS
10
166.1213879999999961
20
-102.6966290000000015
11
165.9868009999999856
21
-102.6698579999999907
0
LINE
8
BLACK
6
CONTINUOUS
10
165.9868009999999856
20
-102.6698579999999907
11
165.8600219999999865
21
-102.6173450000000003
0
LINE
8
BLACK
6
CONTINUOUS
10
165.8600219999999865
20
-102.6173450000000003
11
165.7459249999999997
21
-102.5411069999999967
0
LINE
8
BLACK
6
CONTINUOUS
10
165.7459249999999997
20
-102.5411069999999967
11
165.6488929999999868
21
-102.444074999999998
0
LINE
8
BLACK
6
CONTINUOUS
10
165.6488929999999868
20
-102.444074999999998
11
165.5726549999999975
21
-102.329977999999997
0
LINE
8
BLACK
6
CONTINUOUS
10
165.5726549999999975
20
-102.329977999999997
11
165.5201419999999928
21
-102.2031989999999979
0
LINE
8
BLACK
6
CONTINUOUS
10
165.5201419999999928
20
-102.2031989999999979
11
165.4933709999999962
21
-102.0686120000000017
0
LINE
8
BLACK
6
CONTINUOUS
10
165.4933709999999962
20
-102.0686120000000017
11
165.4933709999999962
21
-101.9313879999999983
0
LINE
8
BLACK
6
CONTINUOUS
10
165.4933709999999962
20
-101.9313879999999983
11
165.5201419999999928
21
-101.7968010000000021
0
LINE
8
BLACK
6
CONTINUOUS
10
165.5201419999999928
20
-101.7968010000000021
11
165.5726549999999975
21
-101.6700219999999888
0
LINE
8
BLACK
6
CONTINUOUS
10
165.5726549999999975
20
-101.6700219999999888
11
165.6488929999999868
21
-101.555925000000002
0
LINE
8
BLACK
6
CONTINUOUS
10
165.6488929999999868
20
-101.555925000000002
11
165.7459249999999997
21
-101.4588929999999891
0
LINE
8
BLACK
6
CONTINUOUS
10
165.7459249999999997
20
-101.4588929999999891
11
165.789999999999992
21
-101.4294419999999946
0
LINE
8
BLACK
6
CONTINUOUS
10
165.789999999999992
20
-101.4294419999999946
11
165.789999999999992
21
-99.0705569999999938
0
LINE
8
BLACK
6
CONTINUOUS
10
165.789999999999992
20
-99.0705569999999938
11
165.7459249999999997
21
-99.0411069999999967
0
LINE
8
BLACK
6
CONTINUOUS
10
165.7459249999999997
20
-99.0411069999999967
11
165.6488929999999868
21
-98.944074999999998
0
LINE
8
BLACK
6
CONTINUOUS
10
165.6488929999999868
20
-98.944074999999998
11
165.5726549999999975
21
-98.829977999999997
0
LINE
8
BLACK
6
CONTINUOUS
10
165.5726549999999975
20
-98.829977999999997
11
165.5201419999999928
21
-98.7031989999999979
0
LINE
8
BLACK
6
CONTINUOUS
10
165.5201419999999928
20
-98.7031989999999979
11
165.4933709999999962
21
-98.5686120000000017
0
LINE
8
BLACK
6
CONTINUOUS
10
165.4933709999999962
20
-98.5686120000000017
11
165.4933709999999962
21
-98.4313879999999983
0
LINE
8
BLACK
6
CONTINUOUS
10
165.4933709999999962
20
-98.4313879999999983
11
165.5201419999999928
21
-98.2968010000000021
0
LINE
8
BLACK
6
CONTINUOUS
10
165.5201419999999928
20
-98.2968010000000021
11
165.5726549999999975
21
-98.1700219999999888
0
LINE
8
BLACK
6
CONTINUOUS
10
165.5726549999999975
20
-98.1700219999999888
11
165.6488929999999868
21
-98.055925000000002
0
LINE
8
BLACK
6
CONTINUOUS
10
165.6488929999999868
20
-98.055925000000002
11
165.7459249999999997
21
-97.9588929999999891
0
LINE
8
BLACK
6
CONTINUOUS
10
165.7459249999999997
20
-97.9588929999999891
11
165.789999999999992
21
-97.9294419999999946
0
LINE
8
BLACK
6
CONTINUOUS
10
165.789999999999992
20
-97.9294419999999946
11
165.789999999999992
21
-93.9975850000000008
0
LINE
8
BLACK
6
CONTINUOUS
10
165.789999999999992
20
-93.9975850000000008
11
162.3164150000000063
21
-90.5240000000000009
0
LINE
8
BLACK
6
CONTINUOUS
10
162.3164150000000063
20
-90.5240000000000009
11
158.5753760000000057
21
-90.5240000000000009
0
LINE
8
BLACK
6
CONTINUOUS
10
158.5753760000000057
20
-90.5240000000000009
11
158.5753760000000057
21
-90.6176889999999986
0
LINE
8
BLACK
6
CONTINUOUS
10
158.5753760000000057
20
-90.6176889999999986
11
158.5385550000000023
21
-90.8501679999999965
0
LINE
8
BLACK
6
CONTINUOUS
10
158.5385550000000023
20
-90.8501679999999965
11
158.465818999999982
21
-91.0740249999999918
0
LINE
8
BLACK
6
CONTINUOUS
10
158.465818999999982
20
-91.0740249999999918
11
158.3589599999999962
21
-91.2837480000000028
0
LINE
8
BLACK
6
CONTINUOUS
10
158.3589599999999962
20
-91.2837480000000028
11
158.2206089999999961
21
-91.4741719999999958
0
LINE
8
BLACK
6
CONTINUOUS
10
158.2206089999999961
20
-91.4741719999999958
11
158.0541719999999941
21
-91.6406089999999978
0
LINE
8
BLACK
6
CONTINUOUS
10
158.0541719999999941
20
-91.6406089999999978
11
157.8637479999999869
21
-91.7789599999999979
0
LINE
8
BLACK
6
CONTINUOUS
10
157.8637479999999869
20
-91.7789599999999979
11
157.6540249999999901
21
-91.8858189999999979
0
LINE
8
BLACK
6
CONTINUOUS
10
157.6540249999999901
20
-91.8858189999999979
11
157.4301679999999806
21
-91.9585549999999898
0
LINE
8
BLACK
6
CONTINUOUS
10
157.4301679999999806
20
-91.9585549999999898
11
157.1976889999999969
21
-91.9953759999999932
0
LINE
8
BLACK
6
CONTINUOUS
10
157.1976889999999969
20
-91.9953759999999932
11
156.9623109999999997
21
-91.9953759999999932
0
LINE
8
BLACK
6
CONTINUOUS
10
156.9623109999999997
20
-91.9953759999999932
11
156.7298319999999876
21
-91.9585549999999898
0
LINE
8
BLACK
6
CONTINUOUS
10
156.7298319999999876
20
-91.9585549999999898
11
156.5059750000000065
21
-91.8858189999999979
0
LINE
8
BLACK
6
CONTINUOUS
10
156.5059750000000065
20
-91.8858189999999979
11
156.2962519999999813
21
-91.7789599999999979
0
LINE
8
BLACK
6
CONTINUOUS
10
156.2962519999999813
20
-91.7789599999999979
11
156.1058280000000025
21
-91.6406089999999978
0
LINE
8
BLACK
6
CONTINUOUS
10
156.1058280000000025
20
-91.6406089999999978
11
155.9393910000000005
21
-91.4741719999999958
0
LINE
8
BLACK
6
CONTINUOUS
10
155.9393910000000005
20
-91.4741719999999958
11
155.8010400000000004
21
-91.2837480000000028
0
LINE
8
BLACK
6
CONTINUOUS
10
155.8010400000000004
20
-91.2837480000000028
11
155.6941809999999862
21
-91.0740249999999918
0
LINE
8
BLACK
6
CONTINUOUS
10
155.6941809999999862
20
-91.0740249999999918
11
155.6214449999999943
21
-90.8501679999999965
0
LINE
8
BLACK
6
CONTINUOUS
10
155.6214449999999943
20
-90.8501679999999965
11
155.5846239999999909
21
-90.6176889999999986
0
LINE
8
BLACK
6
CONTINUOUS
10
155.5846239999999909
20
-90.6176889999999986
11
155.5846239999999909
21
-90.3823110000000014
0
LINE
8
BLACK
6
CONTINUOUS
10
155.5846239999999909
20
-90.3823110000000014
11
155.6214449999999943
21
-90.1498319999999893
0
LINE
8
BLACK
6
CONTINUOUS
10
155.6214449999999943
20
-90.1498319999999893
11
155.6941809999999862
21
-89.925974999999994
0
LINE
8
BLACK
6
CONTINUOUS
10
155.6941809999999862
20
-89.925974999999994
11
155.8010400000000004
21
-89.7162519999999972
0
LINE
8
BLACK
6
CONTINUOUS
10
155.8010400000000004
20
-89.7162519999999972
11
155.9393910000000005
21
-89.52582799999999
0
LINE
8
BLACK
6
CONTINUOUS
10
155.9393910000000005
20
-89.52582799999999
11
156.1058280000000025
21
-89.3593910000000022
0
LINE
8
BLACK
6
CONTINUOUS
10
156.1058280000000025
20
-89.3593910000000022
11
156.2962519999999813
21
-89.2210400000000021
0
LINE
8
BLACK
6
CONTINUOUS
10
156.2962519999999813
20
-89.2210400000000021
11
156.5059750000000065
21
-89.1141810000000021
0
LINE
8
BLACK
6
CONTINUOUS
10
156.5059750000000065
20
-89.1141810000000021
11
156.7298319999999876
21
-89.041444999999996
0
LINE
8
BLACK
6
CONTINUOUS
10
156.7298319999999876
20
-89.041444999999996
11
156.9623109999999997
21
-89.0046239999999926
0
LINE
8
BLACK
6
CONTINUOUS
10
156.9623109999999997
20
-89.0046239999999926
11
157.1976889999999969
21
-89.0046239999999926
0
LINE
8
BLACK
6
CONTINUOUS
10
157.1976889999999969
20
-89.0046239999999926
11
157.4301679999999806
21
-89.041444999999996
0
LINE
8
BLACK
6
CONTINUOUS
10
162.9784139999999866
20
-99.9338520000000017
11
163.1322279999999978
21
-99.9644479999999902
0
LINE
8
BLACK
6
CONTINUOUS
10
163.1322279999999978
20
-99.9644479999999902
11
163.2771170000000041
21
-100.0244629999999972
0
LINE
8
BLACK
6
CONTINUOUS
10
163.2771170000000041
20
-100.0244629999999972
11
163.4075149999999894
21
-100.1115920000000017
0
LINE
8
BLACK
6
CONTINUOUS
10
163.4075149999999894
20
-100.1115920000000017
11
163.5184079999999938
21
-100.2224849999999918
0
LINE
8
BLACK
6
CONTINUOUS
10
163.5184079999999938
20
-100.2224849999999918
11
163.6055369999999982
21
-100.3528829999999914
0
LINE
8
BLACK
6
CONTINUOUS
10
163.6055369999999982
20
-100.3528829999999914
11
163.665551999999991
21
-100.4977719999999977
0
LINE
8
BLACK
6
CONTINUOUS
10
163.665551999999991
20
-100.4977719999999977
11
163.6961479999999938
21
-100.6515859999999947
0
LINE
8
BLACK
6
CONTINUOUS
10
163.6961479999999938
20
-100.6515859999999947
11
163.6961479999999938
21
-100.8084139999999991
0
LINE
8
BLACK
6
CONTINUOUS
10
163.6961479999999938
20
-100.8084139999999991
11
163.665551999999991
21
-100.9622279999999961
0
LINE
8
BLACK
6
CONTINUOUS
10
163.665551999999991
20
-100.9622279999999961
11
163.6055369999999982
21
-101.1071170000000023
0
LINE
8
BLACK
6
CONTINUOUS
10
163.6055369999999982
20
-101.1071170000000023
11
163.5184079999999938
21
-101.2375150000000019
0
LINE
8
BLACK
6
CONTINUOUS
10
163.5184079999999938
20
-101.2375150000000019
11
163.4075149999999894
21
-101.3484079999999921
0
LINE
8
BLACK
6
CONTINUOUS
10
163.4075149999999894
20
-101.3484079999999921
11
163.2771170000000041
21
-101.4355369999999965
0
LINE
8
BLACK
6
CONTINUOUS
10
163.2771170000000041
20
-101.4355369999999965
11
163.1322279999999978
21
-101.4955519999999893
0
LINE
8
BLACK
6
CONTINUOUS
10
163.1322279999999978
20
-101.4955519999999893
11
162.9784139999999866
21
-101.5261479999999921
0
LINE
8
BLACK
6
CONTINUOUS
10
162.9784139999999866
20
-101.5261479999999921
11
162.9000000000000057
21
-101.5300000000000011
0
LINE
8
BLACK
6
CONTINUOUS
10
162.9000000000000057
20
-101.5300000000000011
11
162.0999999999999943
21
-101.5300000000000011
0
LINE
8
BLACK
6
CONTINUOUS
10
162.0999999999999943
20
-101.5300000000000011
11
162.021585999999985
21
-101.5261479999999921
0
LINE
8
BLACK
6
CONTINUOUS
10
162.021585999999985
20
-101.5261479999999921
11
161.8677720000000022
21
-101.4955519999999893
0
LINE
8
BLACK
6
CONTINUOUS
10
161.8677720000000022
20
-101.4955519999999893
11
161.7228829999999959
21
-101.4355369999999965
0
LINE
8
BLACK
6
CONTINUOUS
10
161.7228829999999959
20
-101.4355369999999965
11
161.5924849999999822
21
-101.3484079999999921
0
LINE
8
BLACK
6
CONTINUOUS
10
161.5924849999999822
20
-101.3484079999999921
11
161.4815920000000062
21
-101.2375150000000019
0
LINE
8
BLACK
6
CONTINUOUS
10
161.4815920000000062
20
-101.2375150000000019
11
161.3944630000000018
21
-101.1071170000000023
0
LINE
8
BLACK
6
CONTINUOUS
10
161.3944630000000018
20
-101.1071170000000023
11
161.3344479999999805
21
-100.9622279999999961
0
LINE
8
BLACK
6
CONTINUOUS
10
161.3344479999999805
20
-100.9622279999999961
11
161.3038520000000062
21
-100.8084139999999991
0
LINE
8
BLACK
6
CONTINUOUS
10
161.3038520000000062
20
-100.8084139999999991
11
161.3038520000000062
21
-100.6515859999999947
0
LINE
8
BLACK
6
CONTINUOUS
10
161.3038520000000062
20
-100.6515859999999947
11
161.3344479999999805
21
-100.4977719999999977
0
LINE
8
BLACK
6
CONTINUOUS
10
161.3344479999999805
20
-100.4977719999999977
11
161.3944630000000018
21
-100.3528829999999914
0
LINE
8
BLACK
6
CONTINUOUS
10
161.3944630000000018
20
-100.3528829999999914
11
161.4815920000000062
21
-100.2224849999999918
0
LINE
8
BLACK
6
CONTINUOUS
10
161.4815920000000062
20
-100.2224849999999918
11
161.5924849999999822
21
-100.1115920000000017
0
LINE
8
BLACK
6
CONTINUOUS
10
161.5924849999999822
20
-100.1115920000000017
11
161.7228829999999959
21
-100.0244629999999972
0
LINE
8
BLACK
6
CONTINUOUS
10
161.7228829999999959
20
-100.0244629999999972
11
161.8677720000000022
21
-99.9644479999999902
0
LINE
8
BLACK
6
CONTINUOUS
10
161.8677720000000022
20
-99.9644479999999902
11
162.021585999999985
21
-99.9338520000000017
0
LINE
8
BLACK
6
CONTINUOUS
10
162.021585999999985
20
-99.9338520000000017
11
162.0999999999999943
21
-99.9299999999999926
0
LINE
8
BLACK
6
CONTINUOUS
10
162.0999999999999943
20
-99.9299999999999926
11
162.9000000000000057
21
-99.9299999999999926
0
LINE
8
BLACK
6
CONTINUOUS
10
162.9000000000000057
20
-99.9299999999999926
11
162.9784139999999866
21
-99.9338520000000017
0
LINE
8
BLACK
6
CONTINUOUS
10
152.3501679999999965
20
-89.041444999999996
11
152.574025000000006
21
-89.1141810000000021
0
LINE
8
BLACK
6
CONTINUOUS
10
152.574025000000006
20
-89.1141810000000021
11
152.7837480000000028
21
-89.2210400000000021
0
LINE
8
BLACK
6
CONTINUOUS
10
152.7837480000000028
20
-89.2210400000000021
11
152.9741719999999816
21
-89.3593910000000022
0
LINE
8
BLACK
6
CONTINUOUS
10
152.9741719999999816
20
-89.3593910000000022
11
153.1406089999999836
21
-89.52582799999999
0
LINE
8
BLACK
6
CONTINUOUS
10
153.1406089999999836
20
-89.52582799999999
11
153.2789599999999837
21
-89.7162519999999972
0
LINE
8
BLACK
6
CONTINUOUS
10
153.2789599999999837
20
-89.7162519999999972
11
153.3858189999999979
21
-89.925974999999994
0
LINE
8
BLACK
6
CONTINUOUS
10
153.3858189999999979
20
-89.925974999999994
11
153.4585549999999898
21
-90.1498319999999893
0
LINE
8
BLACK
6
CONTINUOUS
10
153.4585549999999898
20
-90.1498319999999893
11
153.4953759999999932
21
-90.3823110000000014
0
LINE
8
BLACK
6
CONTINUOUS
10
153.4953759999999932
20
-90.3823110000000014
11
153.4953759999999932
21
-90.6176889999999986
0
LINE
8
BLACK
6
CONTINUOUS
10
153.4953759999999932
20
-90.6176889999999986
11
153.4585549999999898
21
-90.8501679999999965
0
LINE
8
BLACK
6
CONTINUOUS
10
153.4585549999999898
20
-90.8501679999999965
11
153.3858189999999979
21
-91.0740249999999918
0
LINE
8
BLACK
6
CONTINUOUS
10
153.3858189999999979
20
-91.0740249999999918
11
153.3027469999999823
21
-91.2370609999999971
0
LINE
8
BLACK
6
CONTINUOUS
10
153.3027469999999823
20
-91.2370609999999971
11
155.162842999999981
21
-93.0971569999999957
0
LINE
8
BLACK
6
CONTINUOUS
10
155.162842999999981
20
-93.0971569999999957
11
155.1973409999999944
21
-93.1364949999999965
0
LINE
8
BLACK
6
CONTINUOUS
10
155.1973409999999944
20
-93.1364949999999965
11
155.2495519999999942
21
-93.2269259999999917
0
LINE
8
BLACK
6
CONTINUOUS
10
155.2495519999999942
20
-93.2269259999999917
11
155.2495519999999942
21
-93.2269269999999892
0
LINE
8
BLACK
6
CONTINUOUS
10
155.2495519999999942
20
-93.2269269999999892
11
155.2765780000000007
21
-93.3277899999999931
0
LINE
8
BLACK
6
CONTINUOUS
10
155.2765780000000007
20
-93.3277899999999931
11
155.2800000000000011
21
-93.3799999999999955
0
LINE
8
BLACK
6
CONTINUOUS
10
155.2800000000000011
20
-93.3799999999999955
11
155.2800000000000011
21
-97.3900000000000006
0
LINE
8
BLACK
6
CONTINUOUS
10
155.2800000000000011
20
-97.3900000000000006
11
155.8299999999999841
21
-97.3900000000000006
0
LINE
8
BLACK
6
CONTINUOUS
10
155.8299999999999841
20
-97.3900000000000006
11
155.9256709999999941
21
-97.4090300000000013
0
LINE
8
BLACK
6
CONTINUOUS
10
155.9256709999999941
20
-97.4090300000000013
11
156.0067769999999996
21
-97.4632229999999993
0
LINE
8
BLACK
6
CONTINUOUS
10
156.0067769999999996
20
-97.4632229999999993
11
156.0609699999999975
21
-97.5443289999999905
0
LINE
8
BLACK
6
CONTINUOUS
10
156.0609699999999975
20
-97.5443289999999905
11
156.0799999999999841
21
-97.6400000000000006
0
LINE
8
BLACK
6
CONTINUOUS
10
156.0799999999999841
20
-97.6400000000000006
11
156.0799999999999841
21
-98.7399999999999949
0
LINE
8
BLACK
6
CONTINUOUS
10
156.0799999999999841
20
-98.7399999999999949
11
156.0609699999999975
21
-98.8356709999999907
0
LINE
8
BLACK
6
CONTINUOUS
10
156.0609699999999975
20
-98.8356709999999907
11
156.0067769999999996
21
-98.9167769999999962
0
LINE
8
BLACK
6
CONTINUOUS
10
156.0067769999999996
20
-98.9167769999999962
11
155.9256709999999941
21
-98.9709699999999941
0
LINE
8
BLACK
6
CONTINUOUS
10
155.9256709999999941
20
-98.9709699999999941
11
155.8299999999999841
21
-98.9899999999999949
0
LINE
8
BLACK
6
CONTINUOUS
10
155.8299999999999841
20
-98.9899999999999949
11
153.9300000000000068
21
-98.9899999999999949
0
LINE
8
BLACK
6
CONTINUOUS
10
153.9300000000000068
20
-98.9899999999999949
11
153.8343289999999968
21
-98.9709699999999941
0
LINE
8
BLACK
6
CONTINUOUS
10
153.8343289999999968
20
-98.9709699999999941
11
153.7532229999999913
21
-98.9167769999999962
0
LINE
8
BLACK
6
CONTINUOUS
10
153.7532229999999913
20
-98.9167769999999962
11
153.6990299999999934
21
-98.8356709999999907
0
LINE
8
BLACK
6
CONTINUOUS
10
153.6990299999999934
20
-98.8356709999999907
11
153.6800000000000068
21
-98.7399999999999949
0
LINE
8
BLACK
6
CONTINUOUS
10
153.6800000000000068
20
-98.7399999999999949
11
153.6800000000000068
21
-97.6400000000000006
0
LINE
8
BLACK
6
CONTINUOUS
10
153.6800000000000068
20
-97.6400000000000006
11
153.6990299999999934
21
-97.5443289999999905
0
LINE
8
BLACK
6
CONTINUOUS
10
153.6990299999999934
20
-97.5443289999999905
11
153.7532229999999913
21
-97.4632229999999993
0
LINE
8
BLACK
6
CONTINUOUS
10
153.7532229999999913
20
-97.4632229999999993
11
153.8343289999999968
21
-97.4090300000000013
0
LINE
8
BLACK
6
CONTINUOUS
10
153.8343289999999968
20
-97.4090300000000013
11
153.9300000000000068
21
-97.3900000000000006
0
LINE
8
BLACK
6
CONTINUOUS
10
153.9300000000000068
20
-97.3900000000000006
11
154.4799999999999898
21
-97.3900000000000006
0
LINE
8
BLACK
6
CONTINUOUS
10
154.4799999999999898
20
-97.3900000000000006
11
154.4799999999999898
21
-93.5456859999999892
0
LINE
8
BLACK
6
CONTINUOUS
10
154.4799999999999898
20
-93.5456859999999892
11
152.7370609999999829
21
-91.8027469999999965
0
LINE
8
BLACK
6
CONTINUOUS
10
152.7370609999999829
20
-91.8027469999999965
11
152.574025000000006
21
-91.8858189999999979
0
LINE
8
BLACK
6
CONTINUOUS
10
152.574025000000006
20
-91.8858189999999979
11
152.3501679999999965
21
-91.9585549999999898
0
LINE
8
BLACK
6
CONTINUOUS
10
152.3501679999999965
20
-91.9585549999999898
11
152.1176889999999844
21
-91.9953759999999932
0
LINE
8
BLACK
6
CONTINUOUS
10
152.1176889999999844
20
-91.9953759999999932
11
151.8823109999999872
21
-91.9953759999999932
0
LINE
8
BLACK
6
CONTINUOUS
10
151.8823109999999872
20
-91.9953759999999932
11
151.6498320000000035
21
-91.9585549999999898
0
LINE
8
BLACK
6
CONTINUOUS
10
151.6498320000000035
20
-91.9585549999999898
11
151.425974999999994
21
-91.8858189999999979
0
LINE
8
BLACK
6
CONTINUOUS
10
151.425974999999994
20
-91.8858189999999979
11
151.2162519999999972
21
-91.7789599999999979
0
LINE
8
BLACK
6
CONTINUOUS
10
151.2162519999999972
20
-91.7789599999999979
11
151.02582799999999
21
-91.6406089999999978
0
LINE
8
BLACK
6
CONTINUOUS
10
151.02582799999999
20
-91.6406089999999978
11
150.859390999999988
21
-91.4741719999999958
0
LINE
8
BLACK
6
CONTINUOUS
10
150.859390999999988
20
-91.4741719999999958
11
150.7210399999999879
21
-91.2837480000000028
0
LINE
8
BLACK
6
CONTINUOUS
10
150.7210399999999879
20
-91.2837480000000028
11
150.6141810000000021
21
-91.0740249999999918
0
LINE
8
BLACK
6
CONTINUOUS
10
150.6141810000000021
20
-91.0740249999999918
11
150.5414449999999817
21
-90.8501679999999965
0
LINE
8
BLACK
6
CONTINUOUS
10
150.5414449999999817
20
-90.8501679999999965
11
150.5046240000000068
21
-90.6176889999999986
0
LINE
8
BLACK
6
CONTINUOUS
10
150.5046240000000068
20
-90.6176889999999986
11
150.5046240000000068
21
-90.3823110000000014
0
LINE
8
BLACK
6
CONTINUOUS
10
150.5046240000000068
20
-90.3823110000000014
11
150.5414449999999817
21
-90.1498319999999893
0
LINE
8
BLACK
6
CONTINUOUS
10
150.5414449999999817
20
-90.1498319999999893
11
150.6141810000000021
21
-89.925974999999994
0
LINE
8
BLACK
6
CONTINUOUS
10
150.6141810000000021
20
-89.925974999999994
11
150.7210399999999879
21
-89.7162519999999972
0
LINE
8
BLACK
6
CONTINUOUS
10
150.7210399999999879
20
-89.7162519999999972
11
150.859390999999988
21
-89.52582799999999
0
LINE
8
BLACK
6
CONTINUOUS
10
150.859390999999988
20
-89.52582799999999
11
151.02582799999999
21
-89.3593910000000022
0
LINE
8
BLACK
6
CONTINUOUS
10
151.02582799999999
20
-89.3593910000000022
11
151.2162519999999972
21
-89.2210400000000021
0
LINE
8
BLACK
6
CONTINUOUS
10
151.2162519999999972
20
-89.2210400000000021
11
151.425974999999994
21
-89.1141810000000021
0
LINE
8
BLACK
6
CONTINUOUS
10
151.425974999999994
20
-89.1141810000000021
11
151.6498320000000035
21
-89.041444999999996
0
LINE
8
BLACK
6
CONTINUOUS
10
151.6498320000000035
20
-89.041444999999996
11
151.8823109999999872
21
-89.0046239999999926
0
LINE
8
BLACK
6
CONTINUOUS
10
151.8823109999999872
20
-89.0046239999999926
11
152.1176889999999844
21
-89.0046239999999926
0
LINE
8
BLACK
6
CONTINUOUS
10
152.1176889999999844
20
-89.0046239999999926
11
152.3501679999999965
21
-89.041444999999996
0
LINE
8
BLACK
6
CONTINUOUS
10
161.7731310000000065
20
-91.357326999999998
11
161.9477399999999818
21
-91.4140609999999896
0
LINE
8
BLACK
6
CONTINUOUS
10
161.9477399999999818
20
-91.4140609999999896
11
162.1113229999999987
21
-91.4974109999999996
0
LINE
8
BLACK
6
CONTINUOUS
10
162.1113229999999987
20
-91.4974109999999996
11
162.25985399999999
21
-91.6053249999999935
0
LINE
8
BLACK
6
CONTINUOUS
10
162.25985399999999
20
-91.6053249999999935
11
162.3896749999999827
21
-91.7351460000000003
0
LINE
8
BLACK
6
CONTINUOUS
10
162.3896749999999827
20
-91.7351460000000003
11
162.4975890000000049
21
-91.8836769999999916
0
LINE
8
BLACK
6
CONTINUOUS
10
162.4975890000000049
20
-91.8836769999999916
11
162.5809390000000008
21
-92.0472599999999943
0
LINE
8
BLACK
6
CONTINUOUS
10
162.5809390000000008
20
-92.0472599999999943
11
162.6376730000000066
21
-92.2218689999999981
0
LINE
8
BLACK
6
CONTINUOUS
10
162.6376730000000066
20
-92.2218689999999981
11
162.6663929999999993
21
-92.4032029999999907
0
LINE
8
BLACK
6
CONTINUOUS
10
162.6663929999999993
20
-92.4032029999999907
11
162.6663929999999993
21
-92.58679699999999
0
LINE
8
BLACK
6
CONTINUOUS
10
162.6663929999999993
20
-92.58679699999999
11
162.6376730000000066
21
-92.7681309999999968
0
LINE
8
BLACK
6
CONTINUOUS
10
162.6376730000000066
20
-92.7681309999999968
11
162.5809390000000008
21
-92.9427400000000006
0
LINE
8
BLACK
6
CONTINUOUS
10
162.5809390000000008
20
-92.9427400000000006
11
162.4975890000000049
21
-93.1063229999999891
0
LINE
8
BLACK
6
CONTINUOUS
10
162.4975890000000049
20
-93.1063229999999891
11
162.3896749999999827
21
-93.2548539999999946
0
LINE
8
BLACK
6
CONTINUOUS
10
162.3896749999999827
20
-93.2548539999999946
11
162.25985399999999
21
-93.3846750000000014
0
LINE
8
BLACK
6
CONTINUOUS
10
162.25985399999999
20
-93.3846750000000014
11
162.1113229999999987
21
-93.4925889999999953
0
LINE
8
BLACK
6
CONTINUOUS
10
162.1113229999999987
20
-93.4925889999999953
11
161.9477399999999818
21
-93.5759389999999911
0
LINE
8
BLACK
6
CONTINUOUS
10
161.9477399999999818
20
-93.5759389999999911
11
161.9000000000000057
21
-93.5914499999999947
0
LINE
8
BLACK
6
CONTINUOUS
10
161.9000000000000057
20
-93.5914499999999947
11
161.9000000000000057
21
-97.0243139999999897
0
LINE
8
BLACK
6
CONTINUOUS
10
161.9000000000000057
20
-97.0243139999999897
11
162.2656859999999881
21
-97.3900000000000006
0
LINE
8
BLACK
6
CONTINUOUS
10
162.2656859999999881
20
-97.3900000000000006
11
162.9000000000000057
21
-97.3900000000000006
0
LINE
8
BLACK
6
CONTINUOUS
10
162.9000000000000057
20
-97.3900000000000006
11
162.9784139999999866
21
-97.3938519999999954
0
LINE
8
BLACK
6
CONTINUOUS
10
162.9784139999999866
20
-97.3938519999999954
11
163.1322279999999978
21
-97.4244479999999982
0
LINE
8
BLACK
6
CONTINUOUS
10
163.1322279999999978
20
-97.4244479999999982
11
163.2771170000000041
21
-97.484462999999991
0
LINE
8
BLACK
6
CONTINUOUS
10
163.2771170000000041
20
-97.484462999999991
11
163.4075149999999894
21
-97.5715919999999954
0
LINE
8
BLACK
6
CONTINUOUS
10
163.4075149999999894
20
-97.5715919999999954
11
163.5184079999999938
21
-97.6824849999999998
0
LINE
8
BLACK
6
CONTINUOUS
10
163.5184079999999938
20
-97.6824849999999998
11
163.6055369999999982
21
-97.8128829999999994
0
LINE
8
BLACK
6
CONTINUOUS
10
163.6055369999999982
20
-97.8128829999999994
11
163.665551999999991
21
-97.9577719999999914
0
LINE
8
BLACK
6
CONTINUOUS
10
163.665551999999991
20
-97.9577719999999914
11
163.6961479999999938
21
-98.1115860000000026
0
LINE
8
BLACK
6
CONTINUOUS
10
163.6961479999999938
20
-98.1115860000000026
11
163.6961479999999938
21
-98.2684139999999928
0
LINE
8
BLACK
6
CONTINUOUS
10
163.6961479999999938
20
-98.2684139999999928
11
163.665551999999991
21
-98.4222279999999898
0
LINE
8
BLACK
6
CONTINUOUS
10
163.665551999999991
20
-98.4222279999999898
11
163.6055369999999982
21
-98.5671169999999961
0
LINE
8
BLACK
6
CONTINUOUS
10
163.6055369999999982
20
-98.5671169999999961
11
163.5184079999999938
21
-98.6975149999999957
0
LINE
8
BLACK
6
CONTINUOUS
10
163.5184079999999938
20
-98.6975149999999957
11
163.4075149999999894
21
-98.808408
0
LINE
8
BLACK
6
CONTINUOUS
10
163.4075149999999894
20
-98.808408
11
163.2771170000000041
21
-98.8955369999999903
0
LINE
8
BLACK
6
CONTINUOUS
10
163.2771170000000041
20
-98.8955369999999903
11
163.1322279999999978
21
-98.9555519999999973
0
LINE
8
BLACK
6
CONTINUOUS
10
163.1322279999999978
20
-98.9555519999999973
11
162.9784139999999866
21
-98.986148
0
LINE
8
BLACK
6
CONTINUOUS
10
162.9784139999999866
20
-98.986148
11
162.9000000000000057
21
-98.9899999999999949
0
LINE
8
BLACK
6
CONTINUOUS
10
162.9000000000000057
20
-98.9899999999999949
11
162.0999999999999943
21
-98.9899999999999949
0
LINE
8
BLACK
6
CONTINUOUS
10
162.0999999999999943
20
-98.9899999999999949
11
162.021585999999985
21
-98.986148
0
LINE
8
BLACK
6
CONTINUOUS
10
162.021585999999985
20
-98.986148
11
161.8677720000000022
21
-98.9555519999999973
0
LINE
8
BLACK
6
CONTINUOUS
10
161.8677720000000022
20
-98.9555519999999973
11
161.7228829999999959
21
-98.8955369999999903
0
LINE
8
BLACK
6
CONTINUOUS
10
161.7228829999999959
20
-98.8955369999999903
11
161.5924849999999822
21
-98.808408
0
LINE
8
BLACK
6
CONTINUOUS
10
161.5924849999999822
20
-98.808408
11
161.4815920000000062
21
-98.6975149999999957
0
LINE
8
BLACK
6
CONTINUOUS
10
161.4815920000000062
20
-98.6975149999999957
11
161.3944630000000018
21
-98.5671169999999961
0
LINE
8
BLACK
6
CONTINUOUS
10
161.3944630000000018
20
-98.5671169999999961
11
161.3344479999999805
21
-98.4222279999999898
0
LINE
8
BLACK
6
CONTINUOUS
10
161.3344479999999805
20
-98.4222279999999898
11
161.3038520000000062
21
-98.2684139999999928
0
LINE
8
BLACK
6
CONTINUOUS
10
161.3038520000000062
20
-98.2684139999999928
11
161.3038520000000062
21
-98.1115860000000026
0
LINE
8
BLACK
6
CONTINUOUS
10
161.3038520000000062
20
-98.1115860000000026
11
161.3344479999999805
21
-97.9577719999999914
0
LINE
8
BLACK
6
CONTINUOUS
10
161.3344479999999805
20
-97.9577719999999914
11
161.3944630000000018
21
-97.8128829999999994
0
LINE
8
BLACK
6
CONTINUOUS
10
161.3944630000000018
20
-97.8128829999999994
11
161.4596449999999948
21
-97.7153299999999945
0
LINE
8
BLACK
6
CONTINUOUS
10
161.4596449999999948
20
-97.7153299999999945
11
161.2171569999999861
21
-97.4728429999999975
0
LINE
8
BLACK
6
CONTINUOUS
10
161.2171569999999861
20
-97.4728429999999975
11
161.182659000000001
21
-97.4335049999999967
0
LINE
8
BLACK
6
CONTINUOUS
10
161.182659000000001
20
-97.4335049999999967
11
161.1304480000000012
21
-97.3430740000000014
0
LINE
8
BLACK
6
CONTINUOUS
10
161.1304480000000012
20
-97.3430740000000014
11
161.1034219999999948
21
-97.24221
0
LINE
8
BLACK
6
CONTINUOUS
10
161.1034219999999948
20
-97.24221
11
161.0999999999999943
21
-97.1899999999999977
0
LINE
8
BLACK
6
CONTINUOUS
10
161.0999999999999943
20
-97.1899999999999977
11
161.0999999999999943
21
-93.5914499999999947
0
LINE
8
BLACK
6
CONTINUOUS
10
161.0999999999999943
20
-93.5914499999999947
11
161.0522599999999898
21
-93.5759389999999911
0
LINE
8
BLACK
6
CONTINUOUS
10
161.0522599999999898
20
-93.5759389999999911
11
160.8886770000000013
21
-93.4925889999999953
0
LINE
8
BLACK
6
CONTINUOUS
10
160.8886770000000013
20
-93.4925889999999953
11
160.7401459999999815
21
-93.3846750000000014
0
LINE
8
BLACK
6
CONTINUOUS
10
160.7401459999999815
20
-93.3846750000000014
11
160.6103249999999889
21
-93.2548539999999946
0
LINE
8
BLACK
6
CONTINUOUS
10
160.6103249999999889
20
-93.2548539999999946
11
160.5024109999999951
21
-93.1063229999999891
0
LINE
8
BLACK
6
CONTINUOUS
10
160.5024109999999951
20
-93.1063229999999891
11
160.4190609999999992
21
-92.9427400000000006
0
LINE
8
BLACK
6
CONTINUOUS
10
160.4190609999999992
20
-92.9427400000000006
11
160.3623269999999934
21
-92.7681309999999968
0
LINE
8
BLACK
6
CONTINUOUS
10
160.3623269999999934
20
-92.7681309999999968
11
160.3336070000000007
21
-92.58679699999999
0
LINE
8
BLACK
6
CONTINUOUS
10
160.3336070000000007
20
-92.58679699999999
11
160.3336070000000007
21
-92.4032029999999907
0
LINE
8
BLACK
6
CONTINUOUS
10
160.3336070000000007
20
-92.4032029999999907
11
160.3623269999999934
21
-92.2218689999999981
0
LINE
8
BLACK
6
CONTINUOUS
10
160.3623269999999934
20
-92.2218689999999981
11
160.4190609999999992
21
-92.0472599999999943
0
LINE
8
BLACK
6
CONTINUOUS
10
160.4190609999999992
20
-92.0472599999999943
11
160.5024109999999951
21
-91.8836769999999916
0
LINE
8
BLACK
6
CONTINUOUS
10
160.5024109999999951
20
-91.8836769999999916
11
160.6103249999999889
21
-91.7351460000000003
0
LINE
8
BLACK
6
CONTINUOUS
10
160.6103249999999889
20
-91.7351460000000003
11
160.7401459999999815
21
-91.6053249999999935
0
LINE
8
BLACK
6
CONTINUOUS
10
160.7401459999999815
20
-91.6053249999999935
11
160.8886770000000013
21
-91.4974109999999996
0
LINE
8
BLACK
6
CONTINUOUS
10
160.8886770000000013
20
-91.4974109999999996
11
161.0522599999999898
21
-91.4140609999999896
0
LINE
8
BLACK
6
CONTINUOUS
10
161.0522599999999898
20
-91.4140609999999896
11
161.2268689999999935
21
-91.357326999999998
0
LINE
8
BLACK
6
CONTINUOUS
10
161.2268689999999935
20
-91.357326999999998
11
161.4082029999999861
21
-91.328606999999991
0
LINE
8
BLACK
6
CONTINUOUS
10
161.4082029999999861
20
-91.328606999999991
11
161.5917969999999855
21
-91.328606999999991
0
LINE
8
BLACK
6
CONTINUOUS
10
161.5917969999999855
20
-91.328606999999991
11
161.7731310000000065
21
-91.357326999999998
0
LINE
8
BLACK
6
CONTINUOUS
10
161.7731310000000065
20
-86.357326999999998
11
161.9477399999999818
21
-86.4140609999999896
0
LINE
8
BLACK
6
CONTINUOUS
10
161.9477399999999818
20
-86.4140609999999896
11
162.1113229999999987
21
-86.4974109999999996
0
LINE
8
BLACK
6
CONTINUOUS
10
162.1113229999999987
20
-86.4974109999999996
11
162.25985399999999
21
-86.6053249999999935
0
LINE
8
BLACK
6
CONTINUOUS
10
162.25985399999999
20
-86.6053249999999935
11
162.3896749999999827
21
-86.7351460000000003
0
LINE
8
BLACK
6
CONTINUOUS
10
162.3896749999999827
20
-86.7351460000000003
11
162.4975890000000049
21
-86.8836769999999916
0
LINE
8
BLACK
6
CONTINUOUS
10
162.4975890000000049
20
-86.8836769999999916
11
162.5809390000000008
21
-87.0472599999999943
0
LINE
8
BLACK
6
CONTINUOUS
10
162.5809390000000008
20
-87.0472599999999943
11
162.6376730000000066
21
-87.2218689999999981
0
LINE
8
BLACK
6
CONTINUOUS
10
162.6376730000000066
20
-87.2218689999999981
11
162.6663929999999993
21
-87.4032029999999907
0
LINE
8
BLACK
6
CONTINUOUS
10
162.6663929999999993
20
-87.4032029999999907
11
162.6663929999999993
21
-87.58679699999999
0
LINE
8
BLACK
6
CONTINUOUS
10
162.6663929999999993
20
-87.58679699999999
11
162.6376730000000066
21
-87.7681309999999968
0
LINE
8
BLACK
6
CONTINUOUS
10
162.6376730000000066
20
-87.7681309999999968
11
162.5809390000000008
21
-87.9427400000000006
0
LINE
8
BLACK
6
CONTINUOUS
10
162.5809390000000008
20
-87.9427400000000006
11
162.4975890000000049
21
-88.1063229999999891
0
LINE
8
BLACK
6
CONTINUOUS
10
162.4975890000000049
20
-88.1063229999999891
11
162.3896749999999827
21
-88.2548539999999946
0
LINE
8
BLACK
6
CONTINUOUS
10
162.3896749999999827
20
-88.2548539999999946
11
162.25985399999999
21
-88.3846750000000014
0
LINE
8
BLACK
6
CONTINUOUS
10
162.25985399999999
20
-88.3846750000000014
11
162.1113229999999987
21
-88.4925889999999953
0
LINE
8
BLACK
6
CONTINUOUS
10
162.1113229999999987
20
-88.4925889999999953
11
161.9477399999999818
21
-88.5759389999999911
0
LINE
8
BLACK
6
CONTINUOUS
10
161.9477399999999818
20
-88.5759389999999911
11
161.7731310000000065
21
-88.6326729999999969
0
LINE
8
BLACK
6
CONTINUOUS
10
161.7731310000000065
20
-88.6326729999999969
11
161.5917969999999855
21
-88.6613929999999897
0
LINE
8
BLACK
6
CONTINUOUS
10
161.5917969999999855
20
-88.6613929999999897
11
161.4082029999999861
21
-88.6613929999999897
0
LINE
8
BLACK
6
CONTINUOUS
10
161.4082029999999861
20
-88.6613929999999897
11
161.2268689999999935
21
-88.6326729999999969
0
LINE
8
BLACK
6
CONTINUOUS
10
161.2268689999999935
20
-88.6326729999999969
11
161.0522599999999898
21
-88.5759389999999911
0
LINE
8
BLACK
6
CONTINUOUS
10
161.0522599999999898
20
-88.5759389999999911
11
160.8886770000000013
21
-88.4925889999999953
0
LINE
8
BLACK
6
CONTINUOUS
10
160.8886770000000013
20
-88.4925889999999953
11
160.7401459999999815
21
-88.3846750000000014
0
LINE
8
BLACK
6
CONTINUOUS
10
160.7401459999999815
20
-88.3846750000000014
11
160.6103249999999889
21
-88.2548539999999946
0
LINE
8
BLACK
6
CONTINUOUS
10
160.6103249999999889
20
-88.2548539999999946
11
160.5024109999999951
21
-88.1063229999999891
0
LINE
8
BLACK
6
CONTINUOUS
10
160.5024109999999951
20
-88.1063229999999891
11
160.4190609999999992
21
-87.9427400000000006
0
LINE
8
BLACK
6
CONTINUOUS
10
160.4190609999999992
20
-87.9427400000000006
11
160.3623269999999934
21
-87.7681309999999968
0
LINE
8
BLACK
6
CONTINUOUS
10
160.3623269999999934
20
-87.7681309999999968
11
160.3336070000000007
21
-87.58679699999999
0
LINE
8
BLACK
6
CONTINUOUS
10
160.3336070000000007
20
-87.58679699999999
11
160.3336070000000007
21
-87.4032029999999907
0
LINE
8
BLACK
6
CONTINUOUS
10
160.3336070000000007
20
-87.4032029999999907
11
160.3623269999999934
21
-87.2218689999999981
0
LINE
8
BLACK
6
CONTINUOUS
10
160.3623269999999934
20
-87.2218689999999981
11
160.4190609999999992
21
-87.0472599999999943
0
LINE
8
BLACK
6
CONTINUOUS
10
160.4190609999999992
20
-87.0472599999999943
11
160.5024109999999951
21
-86.8836769999999916
0
LINE
8
BLACK
6
CONTINUOUS
10
160.5024109999999951
20
-86.8836769999999916
11
160.6103249999999889
21
-86.7351460000000003
0
LINE
8
BLACK
6
CONTINUOUS
10
160.6103249999999889
20
-86.7351460000000003
11
160.7401459999999815
21
-86.6053249999999935
0
LINE
8
BLACK
6
CONTINUOUS
10
160.7401459999999815
20
-86.6053249999999935
11
160.8886770000000013
21
-86.4974109999999996
0
LINE
8
BLACK
6
CONTINUOUS
10
160.8886770000000013
20
-86.4974109999999996
11
161.0522599999999898
21
-86.4140609999999896
0
LINE
8
BLACK
6
CONTINUOUS
10
161.0522599999999898
20
-86.4140609999999896
11
161.2268689999999935
21
-86.357326999999998
0
LINE
8
BLACK
6
CONTINUOUS
10
161.2268689999999935
20
-86.357326999999998
11
161.4082029999999861
21
-86.328606999999991
0
LINE
8
BLACK
6
CONTINUOUS
10
161.4082029999999861
20
-86.328606999999991
11
161.5917969999999855
21
-86.328606999999991
0
LINE
8
BLACK
6
CONTINUOUS
10
161.5917969999999855
20
-86.328606999999991
11
161.7731310000000065
21
-86.357326999999998
0
LINE
8
BLACK
6
CONTINUOUS
10
151.8499999999999943
20
-97.3499999999999943
11
151.4000000000000057
21
-97.3499999999999943
0
LINE
8
BLACK
6
CONTINUOUS
10
151.4000000000000057
20
-97.3499999999999943
11
151.4000000000000057
21
-99.3097519999999889
0
LINE
8
BLACK
6
CONTINUOUS
10
151.4000000000000057
20
-99.3097519999999889
11
151.5075149999999837
21
-99.3815919999999977
0
LINE
8
BLACK
6
CONTINUOUS
10
151.5075149999999837
20
-99.3815919999999977
11
151.6184079999999881
21
-99.4924850000000021
0
LINE
8
BLACK
6
CONTINUOUS
10
151.6184079999999881
20
-99.4924850000000021
11
151.7055369999999925
21
-99.6228830000000016
0
LINE
8
BLACK
6
CONTINUOUS
10
151.7055369999999925
20
-99.6228830000000016
11
151.7655519999999854
21
-99.7677719999999937
0
LINE
8
BLACK
6
CONTINUOUS
10
151.7655519999999854
20
-99.7677719999999937
11
151.7961479999999881
21
-99.9215859999999907
0
LINE
8
BLACK
6
CONTINUOUS
10
151.7961479999999881
20
-99.9215859999999907
11
151.7961479999999881
21
-100.0784139999999951
0
LINE
8
BLACK
6
CONTINUOUS
10
151.7961479999999881
20
-100.0784139999999951
11
151.7655519999999854
21
-100.2322279999999921
0
LINE
8
BLACK
6
CONTINUOUS
10
151.7655519999999854
20
-100.2322279999999921
11
151.7055369999999925
21
-100.3771169999999984
0
LINE
8
BLACK
6
CONTINUOUS
10
151.7055369999999925
20
-100.3771169999999984
11
151.6184079999999881
21
-100.5075149999999979
0
LINE
8
BLACK
6
CONTINUOUS
10
151.6184079999999881
20
-100.5075149999999979
11
151.5075149999999837
21
-100.6184080000000023
0
LINE
8
BLACK
6
CONTINUOUS
10
151.5075149999999837
20
-100.6184080000000023
11
151.3771169999999984
21
-100.7055369999999925
0
LINE
8
BLACK
6
CONTINUOUS
10
151.3771169999999984
20
-100.7055369999999925
11
151.2322279999999921
21
-100.7655519999999996
0
LINE
8
BLACK
6
CONTINUOUS
10
151.2322279999999921
20
-100.7655519999999996
11
151.0784139999999809
21
-100.7961480000000023
0
LINE
8
BLACK
6
CONTINUOUS
10
151.0784139999999809
20
-100.7961480000000023
11
150.9215859999999907
21
-100.7961480000000023
0
LINE
8
BLACK
6
CONTINUOUS
10
150.9215859999999907
20
-100.7961480000000023
11
150.7677719999999795
21
-100.7655519999999996
0
LINE
8
BLACK
6
CONTINUOUS
10
150.7677719999999795
20
-100.7655519999999996
11
150.6228830000000016
21
-100.7055369999999925
0
LINE
8
BLACK
6
CONTINUOUS
10
150.6228830000000016
20
-100.7055369999999925
11
150.4924849999999878
21
-100.6184080000000023
0
LINE
8
BLACK
6
CONTINUOUS
10
150.4924849999999878
20
-100.6184080000000023
11
150.3815919999999835
21
-100.5075149999999979
0
LINE
8
BLACK
6
CONTINUOUS
10
150.3815919999999835
20
-100.5075149999999979
11
150.294462999999979
21
-100.3771169999999984
0
LINE
8
BLACK
6
CONTINUOUS
10
150.294462999999979
20
-100.3771169999999984
11
150.2344479999999862
21
-100.2322279999999921
0
LINE
8
BLACK
6
CONTINUOUS
10
150.2344479999999862
20
-100.2322279999999921
11
150.2038519999999835
21
-100.0784139999999951
0
LINE
8
BLACK
6
CONTINUOUS
10
150.2038519999999835
20
-100.0784139999999951
11
150.2038519999999835
21
-99.9215859999999907
0
LINE
8
BLACK
6
CONTINUOUS
10
150.2038519999999835
20
-99.9215859999999907
11
150.2344479999999862
21
-99.7677719999999937
0
LINE
8
BLACK
6
CONTINUOUS
10
150.2344479999999862
20
-99.7677719999999937
11
150.294462999999979
21
-99.6228830000000016
0
LINE
8
BLACK
6
CONTINUOUS
10
150.294462999999979
20
-99.6228830000000016
11
150.3815919999999835
21
-99.4924850000000021
0
LINE
8
BLACK
6
CONTINUOUS
10
150.3815919999999835
20
-99.4924850000000021
11
150.4924849999999878
21
-99.3815919999999977
0
LINE
8
BLACK
6
CONTINUOUS
10
150.4924849999999878
20
-99.3815919999999977
11
150.5999999999999943
21
-99.3097519999999889
0
LINE
8
BLACK
6
CONTINUOUS
10
150.5999999999999943
20
-99.3097519999999889
11
150.5999999999999943
21
-97.3499999999999943
0
LINE
8
BLACK
6
CONTINUOUS
10
150.5999999999999943
20
-97.3499999999999943
11
150.1500000000000057
21
-97.3499999999999943
0
LINE
8
BLACK
6
CONTINUOUS
10
150.1500000000000057
20
-97.3499999999999943
11
150.1500000000000057
21
-95.6499999999999915
0
LINE
8
BLACK
6
CONTINUOUS
10
150.1500000000000057
20
-95.6499999999999915
11
151.8499999999999943
21
-95.6499999999999915
0
LINE
8
BLACK
6
CONTINUOUS
10
151.8499999999999943
20
-95.6499999999999915
11
151.8499999999999943
21
-97.3499999999999943
0
LINE
8
BLACK
6
CONTINUOUS
10
148.4199999999999875
20
-92.
11
145.4199999999999875
21
-92.
0
LINE
8
BLACK
6
CONTINUOUS
10
145.4199999999999875
20
-92.
11
145.4199999999999875
21
-89.
0
LINE
8
BLACK
6
CONTINUOUS
10
145.4199999999999875
20
-89.
11
148.4199999999999875
21
-89.
0
LINE
8
BLACK
6
CONTINUOUS
10
148.4199999999999875
20
-89.
11
148.4199999999999875
21
-92.
0
LINE
8
BLACK
6
CONTINUOUS
10
175.9425389999999823
20
-83.5201849999999979
11
175.9882939999999962
21
-83.5729889999999926
0
LINE
8
BLACK
6
CONTINUOUS
10
175.9882939999999962
20
-83.5729889999999926
11
175.9994999999999834
21
-83.6244999999999976
0
LINE
8
BLACK
6
CONTINUOUS
10
175.9994999999999834
20
-83.6244999999999976
11
175.9994999999999834
21
-110.8754999999999882
0
LINE
8
BLACK
6
CONTINUOUS
10
175.9994999999999834
20
-110.8754999999999882
11
175.9798150000000021
21
-110.9425389999999965
0
LINE
8
BLACK
6
CONTINUOUS
10
175.9798150000000021
20
-110.9425389999999965
11
175.9270109999999931
21
-110.9882939999999962
0
LINE
8
BLACK
6
CONTINUOUS
10
175.9270109999999931
20
-110.9882939999999962
11
175.8754999999999882
21
-110.9994999999999976
0
LINE
8
BLACK
6
CONTINUOUS
10
175.8754999999999882
20
-110.9994999999999976
11
142.6244999999999834
21
-110.9994999999999976
0
LINE
8
BLACK
6
CONTINUOUS
10
142.6244999999999834
20
-110.9994999999999976
11
142.5574609999999893
21
-110.9798149999999879
0
LINE
8
BLACK
6
CONTINUOUS
10
142.5574609999999893
20
-110.9798149999999879
11
142.5117060000000038
21
-110.9270109999999931
0
LINE
8
BLACK
6
CONTINUOUS
10
142.5117060000000038
20
-110.9270109999999931
11
142.5004999999999882
21
-110.8754999999999882
0
LINE
8
BLACK
6
CONTINUOUS
10
142.5004999999999882
20
-110.8754999999999882
11
142.5004999999999882
21
-107.0183949999999982
0
LINE
8
BLACK
6
CONTINUOUS
10
142.5004999999999882
20
-107.0183949999999982
11
142.5004999999999882
21
-95.6050389999999908
0
LINE
8
BLACK
6
CONTINUOUS
10
142.5004999999999882
20
-95.6050389999999908
11
142.5004999999999882
21
-88.9550389999999993
0
LINE
8
BLACK
6
CONTINUOUS
10
142.5004999999999882
20
-88.9550389999999993
11
142.5004999999999882
21
-83.6244999999999976
0
LINE
8
BLACK
6
CONTINUOUS
10
142.5004999999999882
20
-83.6244999999999976
11
142.5201849999999979
21
-83.5574609999999893
0
LINE
8
BLACK
6
CONTINUOUS
10
142.5201849999999979
20
-83.5574609999999893
11
142.5729890000000069
21
-83.5117059999999896
0
LINE
8
BLACK
6
CONTINUOUS
10
142.5729890000000069
20
-83.5117059999999896
11
142.6244999999999834
21
-83.5005000000000024
0
LINE
8
BLACK
6
CONTINUOUS
10
142.6244999999999834
20
-83.5005000000000024
11
175.8754999999999882
21
-83.5005000000000024
0
LINE
8
BLACK
6
CONTINUOUS
10
175.8754999999999882
20
-83.5005000000000024
11
175.9425389999999823
21
-83.5201849999999979
0
LINE
8
BLACK
6
CONTINUOUS
10
149.3994999999999891
20
-108.2216039999999992
11
149.4146989999999846
21
-108.3759319999999917
0
LINE
8
BLACK
6
CONTINUOUS
10
149.4146989999999846
20
-108.3759319999999917
11
149.4146999999999821
21
-108.3759340000000009
0
LINE
8
BLACK
6
CONTINUOUS
10
149.4146999999999821
20
-108.3759340000000009
11
149.4747679999999832
21
-108.5739540000000005
0
LINE
8
BLACK
6
CONTINUOUS
10
149.4747679999999832
20
-108.5739540000000005
11
149.5723150000000032
21
-108.756450000000001
0
LINE
8
BLACK
6
CONTINUOUS
10
149.5723150000000032
20
-108.756450000000001
11
149.5723169999999982
21
-108.7564519999999959
0
LINE
8
BLACK
6
CONTINUOUS
10
149.5723169999999982
20
-108.7564519999999959
11
149.7035889999999938
21
-108.9164099999999991
0
LINE
8
BLACK
6
CONTINUOUS
10
149.7035889999999938
20
-108.9164099999999991
11
149.7834389999999871
21
-108.9819399999999945
0
LINE
8
BLACK
6
CONTINUOUS
10
149.7834389999999871
20
-108.9819399999999945
11
149.8635500000000036
21
-109.0476850000000013
0
LINE
8
BLACK
6
CONTINUOUS
10
149.8635500000000036
20
-109.0476850000000013
11
150.0460459999999898
21
-109.1452319999999929
0
LINE
8
BLACK
6
CONTINUOUS
10
150.0460459999999898
20
-109.1452319999999929
11
150.2440660000000037
21
-109.205299999999994
0
LINE
8
BLACK
6
CONTINUOUS
10
150.2440660000000037
20
-109.205299999999994
11
150.2440650000000062
21
-109.205299999999994
0
LINE
8
BLACK
6
CONTINUOUS
10
150.2440650000000062
20
-109.205299999999994
11
150.2826469999999972
21
-109.2090999999999923
0
LINE
8
BLACK
6
CONTINUOUS
10
150.2826469999999972
20
-109.2090999999999923
11
150.3983920000000012
21
-109.2205000000000013
0
LINE
8
BLACK
6
CONTINUOUS
10
150.3983920000000012
20
-109.2205000000000013
11
150.3983949999999936
21
-109.2205000000000013
0
LINE
8
BLACK
6
CONTINUOUS
10
150.3983949999999936
20
-109.2205000000000013
11
151.6016050000000064
21
-109.2205000000000013
0
LINE
8
BLACK
6
CONTINUOUS
10
151.6016050000000064
20
-109.2205000000000013
11
151.6016079999999988
21
-109.2205000000000013
0
LINE
8
BLACK
6
CONTINUOUS
10
151.6016079999999988
20
-109.2205000000000013
11
151.7559339999999963
21
-109.205299999999994
0
LINE
8
BLACK
6
CONTINUOUS
10
151.7559339999999963
20
-109.205299999999994
11
151.9539539999999818
21
-109.1452319999999929
0
LINE
8
BLACK
6
CONTINUOUS
10
151.9539539999999818
20
-109.1452319999999929
11
152.1364499999999964
21
-109.0476850000000013
0
LINE
8
BLACK
6
CONTINUOUS
10
152.1364499999999964
20
-109.0476850000000013
11
152.2964099999999803
21
-108.9164099999999991
0
LINE
8
BLACK
6
CONTINUOUS
10
152.2964099999999803
20
-108.9164099999999991
11
152.4276849999999968
21
-108.756450000000001
0
LINE
8
BLACK
6
CONTINUOUS
10
152.4276849999999968
20
-108.756450000000001
11
152.5252319999999884
21
-108.5739540000000005
0
LINE
8
BLACK
6
CONTINUOUS
10
152.5252319999999884
20
-108.5739540000000005
11
152.5852999999999895
21
-108.3759340000000009
0
LINE
8
BLACK
6
CONTINUOUS
10
152.5852999999999895
20
-108.3759340000000009
11
152.6004999999999825
21
-108.2216079999999891
0
LINE
8
BLACK
6
CONTINUOUS
10
152.6004999999999825
20
-108.2216079999999891
11
152.6004999999999825
21
-107.0183919999999915
0
LINE
8
BLACK
6
CONTINUOUS
10
152.6004999999999825
20
-107.0183919999999915
11
152.5852999999999895
21
-106.864065999999994
0
LINE
8
BLACK
6
CONTINUOUS
10
152.5852999999999895
20
-106.864065999999994
11
152.5252319999999884
21
-106.6660459999999944
0
LINE
8
BLACK
6
CONTINUOUS
10
152.5252319999999884
20
-106.6660459999999944
11
152.4276849999999968
21
-106.4835499999999939
0
LINE
8
BLACK
6
CONTINUOUS
10
152.4276849999999968
20
-106.4835499999999939
11
152.3719920000000059
21
-106.4156869999999913
0
LINE
8
BLACK
6
CONTINUOUS
10
152.3719920000000059
20
-106.4156869999999913
11
152.2964099999999803
21
-106.3235889999999984
0
LINE
8
BLACK
6
CONTINUOUS
10
152.2964099999999803
20
-106.3235889999999984
11
152.2458359999999971
21
-106.282084999999995
0
LINE
8
BLACK
6
CONTINUOUS
10
152.2458359999999971
20
-106.282084999999995
11
152.2448650000000043
21
-106.2806599999999975
0
LINE
8
BLACK
6
CONTINUOUS
10
152.2448650000000043
20
-106.2806599999999975
11
152.2432969999999841
21
-106.2799440000000004
0
LINE
8
BLACK
6
CONTINUOUS
10
152.2432969999999841
20
-106.2799440000000004
11
152.2252670000000023
21
-106.2518879999999939
0
LINE
8
BLACK
6
CONTINUOUS
10
152.2252670000000023
20
-106.2518879999999939
11
152.2065010000000029
21
-106.2243390000000005
0
LINE
8
BLACK
6
CONTINUOUS
10
152.2065010000000029
20
-106.2243390000000005
11
152.2061559999999929
21
-106.2221509999999967
0
LINE
8
BLACK
6
CONTINUOUS
10
152.2061559999999929
20
-106.2221509999999967
11
152.2055229999999995
21
-106.2211659999999966
0
LINE
8
BLACK
6
CONTINUOUS
10
152.2055229999999995
20
-106.2211659999999966
11
152.2005000000000052
21
-106.1862309999999923
0
LINE
8
BLACK
6
CONTINUOUS
10
152.2005000000000052
20
-106.1862309999999923
11
152.2005000000000052
21
-105.6986249999999927
0
LINE
8
BLACK
6
CONTINUOUS
10
152.2005000000000052
20
-105.6986249999999927
11
152.2201849999999865
21
-105.6315859999999986
0
LINE
8
BLACK
6
CONTINUOUS
10
152.2201849999999865
20
-105.6315859999999986
11
152.236818999999997
21
-105.6109439999999893
0
LINE
8
BLACK
6
CONTINUOUS
10
152.236818999999997
20
-105.6109439999999893
11
152.719112999999993
21
-105.1286499999999933
0
LINE
8
BLACK
6
CONTINUOUS
10
152.719112999999993
20
-105.1286499999999933
11
153.315905999999984
21
-104.5318559999999906
0
LINE
8
BLACK
6
CONTINUOUS
10
153.315905999999984
20
-104.5318559999999906
11
153.3772270000000049
21
-104.4983730000000008
0
LINE
8
BLACK
6
CONTINUOUS
10
153.3772270000000049
20
-104.4983730000000008
11
153.4469189999999799
21
-104.5033569999999941
0
LINE
8
BLACK
6
CONTINUOUS
10
153.4469189999999799
20
-104.5033569999999941
11
153.4764700000000062
21
-104.5192210000000017
0
LINE
8
BLACK
6
CONTINUOUS
10
153.4764700000000062
20
-104.5192210000000017
11
153.6231439999999964
21
-104.6257849999999934
0
LINE
8
BLACK
6
CONTINUOUS
10
153.6231439999999964
20
-104.6257849999999934
11
153.6658099999999934
21
-104.6811139999999938
0
LINE
8
BLACK
6
CONTINUOUS
10
153.6658099999999934
20
-104.6811139999999938
11
153.6717889999999898
21
-104.7507279999999952
0
LINE
8
BLACK
6
CONTINUOUS
10
153.6717889999999898
20
-104.7507279999999952
11
153.6391840000000002
21
-104.8125229999999988
0
LINE
8
BLACK
6
CONTINUOUS
10
153.6391840000000002
20
-104.8125229999999988
11
153.6362049999999897
21
-104.8153159999999957
0
LINE
8
BLACK
6
CONTINUOUS
10
153.6362049999999897
20
-104.8153159999999957
11
153.4884169999999983
21
-104.9631040000000013
0
LINE
8
BLACK
6
CONTINUOUS
10
153.4884169999999983
20
-104.9631040000000013
11
153.4884169999999983
21
-104.9631049999999988
0
LINE
8
BLACK
6
CONTINUOUS
10
153.4884169999999983
20
-104.9631049999999988
11
153.3681399999999826
21
-105.1286499999999933
0
LINE
8
BLACK
6
CONTINUOUS
10
153.3681399999999826
20
-105.1286499999999933
11
153.2752439999999865
21
-105.3109699999999975
0
LINE
8
BLACK
6
CONTINUOUS
10
153.2752439999999865
20
-105.3109699999999975
11
153.2120089999999948
21
-105.5055859999999939
0
LINE
8
BLACK
6
CONTINUOUS
10
153.2120089999999948
20
-105.5055859999999939
11
153.2033909999999821
21
-105.5600000000000023
0
LINE
8
BLACK
6
CONTINUOUS
10
153.2033909999999821
20
-105.5600000000000023
11
153.7218089999999791
21
-105.5600000000000023
0
LINE
8
BLACK
6
CONTINUOUS
10
153.7218089999999791
20
-105.5600000000000023
11
153.7744629999999972
21
-105.4328829999999897
0
LINE
8
BLACK
6
CONTINUOUS
10
153.7744629999999972
20
-105.4328829999999897
11
153.8615920000000017
21
-105.3024849999999901
0
LINE
8
BLACK
6
CONTINUOUS
10
153.8615920000000017
20
-105.3024849999999901
11
153.972485000000006
21
-105.191592
0
LINE
8
BLACK
6
CONTINUOUS
10
153.972485000000006
20
-105.191592
11
154.1028829999999914
21
-105.1044629999999955
0
LINE
8
BLACK
6
CONTINUOUS
10
154.1028829999999914
20
-105.1044629999999955
11
154.2477719999999977
21
-105.0444479999999885
0
LINE
8
BLACK
6
CONTINUOUS
10
154.2477719999999977
20
-105.0444479999999885
11
154.4015859999999805
21
-105.013852
0
LINE
8
BLACK
6
CONTINUOUS
10
154.4015859999999805
20
-105.013852
11
154.4799999999999898
21
-105.0099999999999909
0
LINE
8
BLACK
6
CONTINUOUS
10
154.4799999999999898
20
-105.0099999999999909
11
155.2800000000000011
21
-105.0099999999999909
0
LINE
8
BLACK
6
CONTINUOUS
10
155.2800000000000011
20
-105.0099999999999909
11
155.358413999999982
21
-105.013852
0
LINE
8
BLACK
6
CONTINUOUS
10
155.358413999999982
20
-105.013852
11
155.5122279999999932
21
-105.0444479999999885
0
LINE
8
BLACK
6
CONTINUOUS
10
155.5122279999999932
20
-105.0444479999999885
11
155.6571169999999995
21
-105.1044629999999955
0
LINE
8
BLACK
6
CONTINUOUS
10
155.6571169999999995
20
-105.1044629999999955
11
155.7875149999999849
21
-105.191592
0
LINE
8
BLACK
6
CONTINUOUS
10
155.7875149999999849
20
-105.191592
11
155.8984079999999892
21
-105.3024849999999901
0
LINE
8
BLACK
6
CONTINUOUS
10
155.8984079999999892
20
-105.3024849999999901
11
155.9855369999999937
21
-105.4328829999999897
0
LINE
8
BLACK
6
CONTINUOUS
10
155.9855369999999937
20
-105.4328829999999897
11
156.0455519999999865
21
-105.577771999999996
0
LINE
8
BLACK
6
CONTINUOUS
10
156.0455519999999865
20
-105.577771999999996
11
156.0761479999999892
21
-105.731585999999993
0
LINE
8
BLACK
6
CONTINUOUS
10
156.0761479999999892
20
-105.731585999999993
11
156.0761479999999892
21
-105.8884139999999974
0
LINE
8
BLACK
6
CONTINUOUS
10
156.0761479999999892
20
-105.8884139999999974
11
156.0455519999999865
21
-106.0422279999999944
0
LINE
8
BLACK
6
CONTINUOUS
10
156.0455519999999865
20
-106.0422279999999944
11
155.9855369999999937
21
-106.1871170000000006
0
LINE
8
BLACK
6
CONTINUOUS
10
155.9855369999999937
20
-106.1871170000000006
11
155.9203540000000032
21
-106.2846679999999964
0
LINE
8
BLACK
6
CONTINUOUS
10
155.9203540000000032
20
-106.2846679999999964
11
156.2804179999999974
21
-106.6447319999999905
0
LINE
8
BLACK
6
CONTINUOUS
10
156.2804179999999974
20
-106.6447319999999905
11
156.3918589999999824
21
-106.4913489999999996
0
LINE
8
BLACK
6
CONTINUOUS
10
156.3918589999999824
20
-106.4913489999999996
11
156.4847550000000069
21
-106.3090289999999953
0
LINE
8
BLACK
6
CONTINUOUS
10
156.4847550000000069
20
-106.3090289999999953
11
156.5267839999999921
21
-106.1796810000000022
0
LINE
8
BLACK
6
CONTINUOUS
10
156.5267839999999921
20
-106.1796810000000022
11
156.566221999999982
21
-106.1220050000000015
0
LINE
8
BLACK
6
CONTINUOUS
10
156.566221999999982
20
-106.1220050000000015
11
156.6305799999999806
21
-106.0948069999999888
0
LINE
8
BLACK
6
CONTINUOUS
10
156.6305799999999806
20
-106.0948069999999888
11
156.6994269999999858
21
-106.1067219999999907
0
LINE
8
BLACK
6
CONTINUOUS
10
156.6994269999999858
20
-106.1067219999999907
11
156.7323930000000018
21
-106.1303159999999934
0
LINE
8
BLACK
6
CONTINUOUS
10
156.7323930000000018
20
-106.1303159999999934
11
159.3287679999999966
21
-108.7266899999999907
0
LINE
8
BLACK
6
CONTINUOUS
10
159.3287679999999966
20
-108.7266899999999907
11
159.4816419999999937
21
-108.8377599999999887
0
LINE
8
BLACK
6
CONTINUOUS
10
159.4816419999999937
20
-108.8377599999999887
11
159.5611879999999871
21
-108.8782899999999927
0
LINE
8
BLACK
6
CONTINUOUS
10
159.5611879999999871
20
-108.8782899999999927
11
159.6500039999999956
21
-108.9235449999999901
0
LINE
8
BLACK
6
CONTINUOUS
10
159.6500039999999956
20
-108.9235449999999901
11
159.6500059999999905
21
-108.9235449999999901
0
LINE
8
BLACK
6
CONTINUOUS
10
159.6500059999999905
20
-108.9235449999999901
11
159.650008999999983
21
-108.9235469999999992
0
LINE
8
BLACK
6
CONTINUOUS
10
159.650008999999983
20
-108.9235469999999992
11
159.7463379999999802
21
-108.9548459999999892
0
LINE
8
BLACK
6
CONTINUOUS
10
159.7463379999999802
20
-108.9548459999999892
11
159.8297220000000038
21
-108.9819399999999945
0
LINE
8
BLACK
6
CONTINUOUS
10
159.8297220000000038
20
-108.9819399999999945
11
160.0163550000000043
21
-109.0114999999999981
0
LINE
8
BLACK
6
CONTINUOUS
10
160.0163550000000043
20
-109.0114999999999981
11
160.0163599999999917
21
-109.0114999999999981
0
LINE
8
BLACK
6
CONTINUOUS
10
160.0163599999999917
20
-109.0114999999999981
11
163.9734859999999799
21
-109.0114999999999981
0
LINE
8
BLACK
6
CONTINUOUS
10
163.9734859999999799
20
-109.0114999999999981
11
164.1601179999999829
21
-108.9819399999999945
0
LINE
8
BLACK
6
CONTINUOUS
10
164.1601179999999829
20
-108.9819399999999945
11
164.3398320000000012
21
-108.9235469999999992
0
LINE
8
BLACK
6
CONTINUOUS
10
164.3398320000000012
20
-108.9235469999999992
11
164.5081989999999905
21
-108.8377599999999887
0
LINE
8
BLACK
6
CONTINUOUS
10
164.5081989999999905
20
-108.8377599999999887
11
164.6610739999999851
21
-108.7266899999999907
0
LINE
8
BLACK
6
CONTINUOUS
10
164.6610739999999851
20
-108.7266899999999907
11
166.3736739999999941
21
-107.0140869999999893
0
LINE
8
BLACK
6
CONTINUOUS
10
166.3736739999999941
20
-107.0140869999999893
11
166.4349949999999865
21
-106.9806039999999996
0
LINE
8
BLACK
6
CONTINUOUS
10
166.4349949999999865
20
-106.9806039999999996
11
166.4419089999999812
21
-106.9793039999999991
0
LINE
8
BLACK
6
CONTINUOUS
10
166.4419089999999812
20
-106.9793039999999991
11
166.5413680000000056
21
-106.9635529999999903
0
LINE
8
BLACK
6
CONTINUOUS
10
166.5413680000000056
20
-106.9635529999999903
11
166.7659919999999829
21
-106.8905680000000018
0
LINE
8
BLACK
6
CONTINUOUS
10
166.7659919999999829
20
-106.8905680000000018
11
166.9764329999999859
21
-106.7833430000000021
0
LINE
8
BLACK
6
CONTINUOUS
10
166.9764329999999859
20
-106.7833430000000021
11
167.1476380000000006
21
-106.6589539999999943
0
LINE
8
BLACK
6
CONTINUOUS
10
167.1476380000000006
20
-106.6589539999999943
11
167.1821989999999971
21
-106.6413450000000012
0
LINE
8
BLACK
6
CONTINUOUS
10
167.1821989999999971
20
-106.6413450000000012
11
167.2708319999999844
21
-106.6125469999999922
0
LINE
8
BLACK
6
CONTINUOUS
10
167.2708319999999844
20
-106.6125469999999922
11
167.4391990000000021
21
-106.5267599999999959
0
LINE
8
BLACK
6
CONTINUOUS
10
167.4391990000000021
20
-106.5267599999999959
11
167.4651819999999987
21
-106.5078819999999951
0
LINE
8
BLACK
6
CONTINUOUS
10
167.4651819999999987
20
-106.5078819999999951
11
167.5920739999999967
21
-106.4156899999999979
0
LINE
8
BLACK
6
CONTINUOUS
10
167.5920739999999967
20
-106.4156899999999979
11
168.6022119999999802
21
-105.4055520000000001
0
LINE
8
BLACK
6
CONTINUOUS
10
168.6022119999999802
20
-105.4055520000000001
11
169.5156479999999988
21
-104.4921159999999958
0
LINE
8
BLACK
6
CONTINUOUS
10
169.5156479999999988
20
-104.4921159999999958
11
170.9998809999999878
21
-103.0078819999999951
0
LINE
8
BLACK
6
CONTINUOUS
10
170.9998809999999878
20
-103.0078819999999951
11
172.4431659999999908
21
-101.5645959999999945
0
LINE
8
BLACK
6
CONTINUOUS
10
172.4431659999999908
20
-101.5645959999999945
11
172.5044859999999858
21
-101.5311129999999906
0
LINE
8
BLACK
6
CONTINUOUS
10
172.5044859999999858
20
-101.5311129999999906
11
172.5741779999999892
21
-101.536096999999998
0
LINE
8
BLACK
6
CONTINUOUS
10
172.5741779999999892
20
-101.536096999999998
11
172.6301109999999994
21
-101.577968999999996
0
LINE
8
BLACK
6
CONTINUOUS
10
172.6301109999999994
20
-101.577968999999996
11
172.6545279999999991
21
-101.6434330000000017
0
LINE
8
BLACK
6
CONTINUOUS
10
172.6545279999999991
20
-101.6434330000000017
11
172.648775999999998
21
-101.6905939999999902
0
LINE
8
BLACK
6
CONTINUOUS
10
172.648775999999998
20
-101.6905939999999902
11
172.6395479999999907
21
-101.7189970000000017
0
LINE
8
BLACK
6
CONTINUOUS
10
172.6395479999999907
20
-101.7189970000000017
11
172.6099999999999852
21
-101.9055520000000001
0
LINE
8
BLACK
6
CONTINUOUS
10
172.6099999999999852
20
-101.9055520000000001
11
172.6099999999999852
21
-102.0944470000000024
0
LINE
8
BLACK
6
CONTINUOUS
10
172.6099999999999852
20
-102.0944470000000024
11
172.6395479999999907
21
-102.2810020000000009
0
LINE
8
BLACK
6
CONTINUOUS
10
172.6395479999999907
20
-102.2810020000000009
11
172.6979139999999973
21
-102.4606369999999913
0
LINE
8
BLACK
6
CONTINUOUS
10
172.6979139999999973
20
-102.4606369999999913
11
172.7836659999999824
21
-102.6289329999999893
0
LINE
8
BLACK
6
CONTINUOUS
10
172.7836659999999824
20
-102.6289329999999893
11
172.8021159999999838
21
-102.6543279999999925
0
LINE
8
BLACK
6
CONTINUOUS
10
172.8021159999999838
20
-102.6543279999999925
11
173.1732690000000048
21
-102.283175
0
LINE
8
BLACK
6
CONTINUOUS
10
173.1732690000000048
20
-102.283175
11
173.1401419999999973
21
-102.2031989999999979
0
LINE
8
BLACK
6
CONTINUOUS
10
173.1401419999999973
20
-102.2031989999999979
11
173.1133710000000008
21
-102.0686120000000017
0
LINE
8
BLACK
6
CONTINUOUS
10
173.1133710000000008
20
-102.0686120000000017
11
173.1133710000000008
21
-101.9313879999999983
0
LINE
8
BLACK
6
CONTINUOUS
10
173.1133710000000008
20
-101.9313879999999983
11
173.1401419999999973
21
-101.7968010000000021
0
LINE
8
BLACK
6
CONTINUOUS
10
173.1401419999999973
20
-101.7968010000000021
11
173.192655000000002
21
-101.6700219999999888
0
LINE
8
BLACK
6
CONTINUOUS
10
173.192655000000002
20
-101.6700219999999888
11
173.2688929999999914
21
-101.555925000000002
0
LINE
8
BLACK
6
CONTINUOUS
10
173.2688929999999914
20
-101.555925000000002
11
173.3659250000000043
21
-101.4588929999999891
0
LINE
8
BLACK
6
CONTINUOUS
10
173.3659250000000043
20
-101.4588929999999891
11
173.4800219999999911
21
-101.3826549999999997
0
LINE
8
BLACK
6
CONTINUOUS
10
173.4800219999999911
20
-101.3826549999999997
11
173.6068009999999902
21
-101.3301419999999951
0
LINE
8
BLACK
6
CONTINUOUS
10
173.6068009999999902
20
-101.3301419999999951
11
173.7413880000000006
21
-101.3033709999999985
0
LINE
8
BLACK
6
CONTINUOUS
10
173.7413880000000006
20
-101.3033709999999985
11
173.8786120000000039
21
-101.3033709999999985
0
LINE
8
BLACK
6
CONTINUOUS
10
173.8786120000000039
20
-101.3033709999999985
11
174.013198999999986
21
-101.3301419999999951
0
LINE
8
BLACK
6
CONTINUOUS
10
174.013198999999986
20
-101.3301419999999951
11
174.0931750000000022
21
-101.3632690000000025
0
LINE
8
BLACK
6
CONTINUOUS
10
174.0931750000000022
20
-101.3632690000000025
11
174.4643279999999947
21
-100.9921159999999958
0
LINE
8
BLACK
6
CONTINUOUS
10
174.4643279999999947
20
-100.9921159999999958
11
174.4389329999999916
21
-100.9736659999999944
0
LINE
8
BLACK
6
CONTINUOUS
10
174.4389329999999916
20
-100.9736659999999944
11
174.2706369999999936
21
-100.887913999999995
0
LINE
8
BLACK
6
CONTINUOUS
10
174.2706369999999936
20
-100.887913999999995
11
174.0910020000000031
21
-100.8295479999999884
0
LINE
8
BLACK
6
CONTINUOUS
10
174.0910020000000031
20
-100.8295479999999884
11
173.9044470000000047
21
-100.7999999999999972
0
LINE
8
BLACK
6
CONTINUOUS
10
173.9044470000000047
20
-100.7999999999999972
11
173.7155529999999999
21
-100.7999999999999972
0
LINE
8
BLACK
6
CONTINUOUS
10
173.7155529999999999
20
-100.7999999999999972
11
173.5289970000000039
21
-100.8295479999999884
0
LINE
8
BLACK
6
CONTINUOUS
10
173.5289970000000039
20
-100.8295479999999884
11
173.5005939999999782
21
-100.8387759999999957
0
LINE
8
BLACK
6
CONTINUOUS
10
173.5005939999999782
20
-100.8387759999999957
11
173.430751999999984
21
-100.8407689999999945
0
LINE
8
BLACK
6
CONTINUOUS
10
173.430751999999984
20
-100.8407689999999945
11
173.3709209999999814
21
-100.8046870000000013
0
LINE
8
BLACK
6
CONTINUOUS
10
173.3709209999999814
20
-100.8046870000000013
11
173.3400949999999909
21
-100.7419849999999997
0
LINE
8
BLACK
6
CONTINUOUS
10
173.3400949999999909
20
-100.7419849999999997
11
173.3480610000000013
21
-100.6725709999999907
0
LINE
8
BLACK
6
CONTINUOUS
10
173.3480610000000013
20
-100.6725709999999907
11
173.3745949999999993
21
-100.6331659999999886
0
LINE
8
BLACK
6
CONTINUOUS
10
173.3745949999999993
20
-100.6331659999999886
11
173.9030620000000056
21
-100.1046989999999965
0
LINE
8
BLACK
6
CONTINUOUS
10
173.9030620000000056
20
-100.1046989999999965
11
173.964382999999998
21
-100.0712159999999926
0
LINE
8
BLACK
6
CONTINUOUS
10
173.964382999999998
20
-100.0712159999999926
11
173.9712979999999902
21
-100.0699159999999921
0
LINE
8
BLACK
6
CONTINUOUS
10
173.9712979999999902
20
-100.0699159999999921
11
174.0911179999999945
21
-100.0509399999999971
0
LINE
8
BLACK
6
CONTINUOUS
10
174.0911179999999945
20
-100.0509399999999971
11
174.2708319999999844
21
-99.9925470000000018
0
LINE
8
BLACK
6
CONTINUOUS
10
174.2708319999999844
20
-99.9925470000000018
11
174.4391990000000021
21
-99.9067599999999914
0
LINE
8
BLACK
6
CONTINUOUS
10
174.4391990000000021
20
-99.9067599999999914
11
174.5920729999999992
21
-99.7956899999999933
0
LINE
8
BLACK
6
CONTINUOUS
10
174.5920729999999992
20
-99.7956899999999933
11
174.6187479999999823
21
-99.7690130000000011
0
LINE
8
BLACK
6
CONTINUOUS
10
174.6187479999999823
20
-99.7690130000000011
11
174.6335299999999791
21
-99.7563889999999986
0
LINE
8
BLACK
6
CONTINUOUS
10
174.6335299999999791
20
-99.7563889999999986
11
174.7875099999999975
21
-99.6445169999999933
0
LINE
8
BLACK
6
CONTINUOUS
10
174.7875099999999975
20
-99.6445169999999933
11
174.9545169999999814
21
-99.4775099999999952
0
LINE
8
BLACK
6
CONTINUOUS
10
174.9545169999999814
20
-99.4775099999999952
11
175.0933430000000044
21
-99.2864330000000024
0
LINE
8
BLACK
6
CONTINUOUS
10
175.0933430000000044
20
-99.2864330000000024
11
175.2005680000000041
21
-99.0759919999999994
0
LINE
8
BLACK
6
CONTINUOUS
10
175.2005680000000041
20
-99.0759919999999994
11
175.2735529999999926
21
-98.8513679999999937
0
LINE
8
BLACK
6
CONTINUOUS
10
175.2735529999999926
20
-98.8513679999999937
11
175.3102309999999875
21
-98.6197930000000014
0
LINE
8
BLACK
6
CONTINUOUS
10
175.3102309999999875
20
-98.6197930000000014
11
175.3104999999999905
21
-98.6180969999999917
0
LINE
8
BLACK
6
CONTINUOUS
10
175.3104999999999905
20
-98.6180969999999917
11
175.3104999999999905
21
-98.3819019999999966
0
LINE
8
BLACK
6
CONTINUOUS
10
175.3104999999999905
20
-98.3819019999999966
11
175.2735529999999926
21
-98.1486309999999946
0
LINE
8
BLACK
6
CONTINUOUS
10
175.2735529999999926
20
-98.1486309999999946
11
175.2005659999999807
21
-97.924002999999999
0
LINE
8
BLACK
6
CONTINUOUS
10
175.2005659999999807
20
-97.924002999999999
11
175.0933419999999785
21
-97.7135660000000001
0
LINE
8
BLACK
6
CONTINUOUS
10
175.0933419999999785
20
-97.7135660000000001
11
175.0831389999999885
21
-97.6995229999999992
0
LINE
8
BLACK
6
CONTINUOUS
10
175.0831389999999885
20
-97.6995229999999992
11
174.9545169999999814
21
-97.5224899999999906
0
LINE
8
BLACK
6
CONTINUOUS
10
174.9545169999999814
20
-97.5224899999999906
11
174.7875099999999975
21
-97.3554829999999924
0
LINE
8
BLACK
6
CONTINUOUS
10
174.7875099999999975
20
-97.3554829999999924
11
174.5964329999999904
21
-97.2166569999999979
0
LINE
8
BLACK
6
CONTINUOUS
10
174.5964329999999904
20
-97.2166569999999979
11
174.3859960000000058
21
-97.1094329999999957
0
LINE
8
BLACK
6
CONTINUOUS
10
174.3859960000000058
20
-97.1094329999999957
11
174.1613679999999817
21
-97.036445999999998
0
LINE
8
BLACK
6
CONTINUOUS
10
174.1613679999999817
20
-97.036445999999998
11
174.0619559999999808
21
-97.0207010000000025
0
LINE
8
BLACK
6
CONTINUOUS
10
174.0619559999999808
20
-97.0207010000000025
11
173.9988209999999924
21
-96.9907709999999952
0
LINE
8
BLACK
6
CONTINUOUS
10
173.9988209999999924
20
-96.9907709999999952
11
173.9936730000000011
21
-96.9859089999999924
0
LINE
8
BLACK
6
CONTINUOUS
10
173.9936730000000011
20
-96.9859089999999924
11
172.736818999999997
21
-95.7290550000000025
0
LINE
8
BLACK
6
CONTINUOUS
10
172.736818999999997
20
-95.7290550000000025
11
172.7033339999999839
21
-95.6677320000000009
0
LINE
8
BLACK
6
CONTINUOUS
10
172.7033339999999839
20
-95.6677320000000009
11
172.7005000000000052
21
-95.641373999999999
0
LINE
8
BLACK
6
CONTINUOUS
10
172.7005000000000052
20
-95.641373999999999
11
172.7005000000000052
21
-91.6187339999999892
0
LINE
8
BLACK
6
CONTINUOUS
10
172.7005000000000052
20
-91.6187339999999892
11
172.7201849999999865
21
-91.5516949999999952
0
LINE
8
BLACK
6
CONTINUOUS
10
172.7201849999999865
20
-91.5516949999999952
11
172.7490139999999883
21
-91.5203580000000017
0
LINE
8
BLACK
6
CONTINUOUS
10
172.7490139999999883
20
-91.5203580000000017
11
172.8020290000000045
21
-91.4796789999999902
0
LINE
8
BLACK
6
CONTINUOUS
10
172.8020290000000045
20
-91.4796789999999902
11
172.9846789999999999
21
-91.2970289999999949
0
LINE
8
BLACK
6
CONTINUOUS
10
172.9846789999999999
20
-91.2970289999999949
11
173.1419259999999838
21
-91.0921000000000021
0
LINE
8
BLACK
6
CONTINUOUS
10
173.1419259999999838
20
-91.0921000000000021
11
173.2710799999999836
21
-90.8683999999999941
0
LINE
8
BLACK
6
CONTINUOUS
10
173.2710799999999836
20
-90.8683999999999941
11
173.3699289999999849
21
-90.6297560000000004
0
LINE
8
BLACK
6
CONTINUOUS
10
173.3699289999999849
20
-90.6297560000000004
11
173.4367839999999887
21
-90.3802499999999895
0
LINE
8
BLACK
6
CONTINUOUS
10
173.4367839999999887
20
-90.3802499999999895
11
173.470499999999987
21
-90.1241529999999926
0
LINE
8
BLACK
6
CONTINUOUS
10
173.470499999999987
20
-90.1241529999999926
11
173.470499999999987
21
-89.8658470000000023
0
LINE
8
BLACK
6
CONTINUOUS
10
173.470499999999987
20
-89.8658470000000023
11
173.4367839999999887
21
-89.6097499999999911
0
LINE
8
BLACK
6
CONTINUOUS
10
173.4367839999999887
20
-89.6097499999999911
11
173.3699289999999849
21
-89.3602439999999945
0
LINE
8
BLACK
6
CONTINUOUS
10
173.3699289999999849
20
-89.3602439999999945
11
173.2710799999999836
21
-89.1216000000000008
0
LINE
8
BLACK
6
CONTINUOUS
10
173.2710799999999836
20
-89.1216000000000008
11
173.2710779999999886
21
-89.1215969999999942
0
LINE
8
BLACK
6
CONTINUOUS
10
173.2710779999999886
20
-89.1215969999999942
11
173.2710759999999937
21
-89.1215919999999926
0
LINE
8
BLACK
6
CONTINUOUS
10
173.2710759999999937
20
-89.1215919999999926
11
173.1419300000000021
21
-88.8979069999999894
0
LINE
8
BLACK
6
CONTINUOUS
10
173.1419300000000021
20
-88.8979069999999894
11
173.1419259999999838
21
-88.8978999999999928
0
LINE
8
BLACK
6
CONTINUOUS
10
173.1419259999999838
20
-88.8978999999999928
11
173.0645250000000033
21
-88.7970289999999949
0
LINE
8
BLACK
6
CONTINUOUS
10
173.0645250000000033
20
-88.7970289999999949
11
172.9846799999999973
21
-88.6929719999999975
0
LINE
8
BLACK
6
CONTINUOUS
10
172.9846799999999973
20
-88.6929719999999975
11
172.9846739999999841
21
-88.6929650000000009
0
LINE
8
BLACK
6
CONTINUOUS
10
172.9846739999999841
20
-88.6929650000000009
11
172.8020339999999919
21
-88.5103249999999946
0
LINE
8
BLACK
6
CONTINUOUS
10
172.8020339999999919
20
-88.5103249999999946
11
172.8020269999999812
21
-88.5103189999999955
0
LINE
8
BLACK
6
CONTINUOUS
10
172.8020269999999812
20
-88.5103189999999955
11
172.5971079999999915
21
-88.3530799999999914
0
LINE
8
BLACK
6
CONTINUOUS
10
172.5971079999999915
20
-88.3530799999999914
11
172.5971059999999966
21
-88.3530779999999965
0
LINE
8
BLACK
6
CONTINUOUS
10
172.5971059999999966
20
-88.3530779999999965
11
172.5970999999999833
21
-88.3530739999999923
0
LINE
8
BLACK
6
CONTINUOUS
10
172.5970999999999833
20
-88.3530739999999923
11
172.5970949999999959
21
-88.3530709999999999
0
LINE
8
BLACK
6
CONTINUOUS
10
172.5970949999999959
20
-88.3530709999999999
11
172.5970920000000035
21
-88.3530689999999908
0
LINE
8
BLACK
6
CONTINUOUS
10
172.5970920000000035
20
-88.3530689999999908
11
172.3734069999999861
21
-88.2239229999999992
0
LINE
8
BLACK
6
CONTINUOUS
10
172.3734069999999861
20
-88.2239229999999992
11
172.3733959999999854
21
-88.2239179999999976
0
LINE
8
BLACK
6
CONTINUOUS
10
172.3733959999999854
20
-88.2239179999999976
11
172.134758000000005
21
-88.1250709999999913
0
LINE
8
BLACK
6
CONTINUOUS
10
172.134758000000005
20
-88.1250709999999913
11
171.88524799999999
21
-88.0582149999999899
0
LINE
8
BLACK
6
CONTINUOUS
10
171.88524799999999
20
-88.0582149999999899
11
171.6291619999999796
21
-88.0245010000000008
0
LINE
8
BLACK
6
CONTINUOUS
10
171.6291619999999796
20
-88.0245010000000008
11
171.6291589999999871
21
-88.0244999999999891
0
LINE
8
BLACK
6
CONTINUOUS
10
171.6291589999999871
20
-88.0244999999999891
11
171.6291530000000023
21
-88.0244999999999891
0
LINE
8
BLACK
6
CONTINUOUS
10
171.6291530000000023
20
-88.0244999999999891
11
171.3708469999999977
21
-88.0244999999999891
0
LINE
8
BLACK
6
CONTINUOUS
10
171.3708469999999977
20
-88.0244999999999891
11
171.3708409999999844
21
-88.0244999999999891
0
LINE
8
BLACK
6
CONTINUOUS
10
171.3708409999999844
20
-88.0244999999999891
11
171.3708369999999945
21
-88.0245010000000008
0
LINE
8
BLACK
6
CONTINUOUS
10
171.3708369999999945
20
-88.0245010000000008
11
171.1147509999999841
21
-88.0582149999999899
0
LINE
8
BLACK
6
CONTINUOUS
10
171.1147509999999841
20
-88.0582149999999899
11
170.8652409999999975
21
-88.1250709999999913
0
LINE
8
BLACK
6
CONTINUOUS
10
170.8652409999999975
20
-88.1250709999999913
11
170.6266029999999887
21
-88.2239179999999976
0
LINE
8
BLACK
6
CONTINUOUS
10
170.6266029999999887
20
-88.2239179999999976
11
170.626591999999988
21
-88.2239229999999992
0
LINE
8
BLACK
6
CONTINUOUS
10
170.626591999999988
20
-88.2239229999999992
11
170.402906999999999
21
-88.3530689999999908
0
LINE
8
BLACK
6
CONTINUOUS
10
170.402906999999999
20
-88.3530689999999908
11
170.4028909999999826
21
-88.3530799999999914
0
LINE
8
BLACK
6
CONTINUOUS
10
170.4028909999999826
20
-88.3530799999999914
11
170.1979719999999929
21
-88.5103189999999955
0
LINE
8
BLACK
6
CONTINUOUS
10
170.1979719999999929
20
-88.5103189999999955
11
170.1979649999999822
21
-88.5103249999999946
0
LINE
8
BLACK
6
CONTINUOUS
10
170.1979649999999822
20
-88.5103249999999946
11
170.01532499999999
21
-88.6929650000000009
0
LINE
8
BLACK
6
CONTINUOUS
10
170.01532499999999
20
-88.6929650000000009
11
170.0153190000000052
21
-88.6929719999999975
0
LINE
8
BLACK
6
CONTINUOUS
10
170.0153190000000052
20
-88.6929719999999975
11
169.8580800000000011
21
-88.8978910000000013
0
LINE
8
BLACK
6
CONTINUOUS
10
169.8580800000000011
20
-88.8978910000000013
11
169.8580690000000004
21
-88.8979069999999894
0
LINE
8
BLACK
6
CONTINUOUS
10
169.8580690000000004
20
-88.8979069999999894
11
169.7289229999999804
21
-89.1215919999999926
0
LINE
8
BLACK
6
CONTINUOUS
10
169.7289229999999804
20
-89.1215919999999926
11
169.7289179999999931
21
-89.1216029999999932
0
LINE
8
BLACK
6
CONTINUOUS
10
169.7289179999999931
20
-89.1216029999999932
11
169.6300709999999867
21
-89.360241000000002
0
LINE
8
BLACK
6
CONTINUOUS
10
169.6300709999999867
20
-89.360241000000002
11
169.5632149999999854
21
-89.6097510000000028
0
LINE
8
BLACK
6
CONTINUOUS
10
169.5632149999999854
20
-89.6097510000000028
11
169.529500999999982
21
-89.8658369999999991
0
LINE
8
BLACK
6
CONTINUOUS
10
169.529500999999982
20
-89.8658369999999991
11
169.5294999999999845
21
-89.8658530000000013
0
LINE
8
BLACK
6
CONTINUOUS
10
169.5294999999999845
20
-89.8658530000000013
11
169.5294999999999845
21
-90.1241459999999961
0
LINE
8
BLACK
6
CONTINUOUS
10
169.5294999999999845
20
-90.1241459999999961
11
169.529500999999982
21
-90.1241619999999983
0
LINE
8
BLACK
6
CONTINUOUS
10
169.529500999999982
20
-90.1241619999999983
11
169.5632149999999854
21
-90.3802479999999946
0
LINE
8
BLACK
6
CONTINUOUS
10
169.5632149999999854
20
-90.3802479999999946
11
169.6300709999999867
21
-90.6297579999999954
0
LINE
8
BLACK
6
CONTINUOUS
10
169.6300709999999867
20
-90.6297579999999954
11
169.7289179999999931
21
-90.86839599999999
0
LINE
8
BLACK
6
CONTINUOUS
10
169.7289179999999931
20
-90.86839599999999
11
169.7289229999999804
21
-90.8684069999999906
0
LINE
8
BLACK
6
CONTINUOUS
10
169.7289229999999804
20
-90.8684069999999906
11
169.8580690000000004
21
-91.0920919999999938
0
LINE
8
BLACK
6
CONTINUOUS
10
169.8580690000000004
20
-91.0920919999999938
11
169.8580800000000011
21
-91.0921079999999961
0
LINE
8
BLACK
6
CONTINUOUS
10
169.8580800000000011
20
-91.0921079999999961
11
170.0153190000000052
21
-91.2970269999999999
0
LINE
8
BLACK
6
CONTINUOUS
10
170.0153190000000052
20
-91.2970269999999999
11
170.01532499999999
21
-91.2970339999999965
0
LINE
8
BLACK
6
CONTINUOUS
10
170.01532499999999
20
-91.2970339999999965
11
170.1979629999999872
21
-91.4796719999999937
0
LINE
8
BLACK
6
CONTINUOUS
10
170.1979629999999872
20
-91.4796719999999937
11
170.197968000000003
21
-91.4796759999999978
0
LINE
8
BLACK
6
CONTINUOUS
10
170.197968000000003
20
-91.4796759999999978
11
170.1979709999999955
21
-91.4796789999999902
0
LINE
8
BLACK
6
CONTINUOUS
10
170.1979709999999955
20
-91.4796789999999902
11
170.2509859999999833
21
-91.5203580000000017
0
LINE
8
BLACK
6
CONTINUOUS
10
170.2509859999999833
20
-91.5203580000000017
11
170.2921889999999792
21
-91.576785000000001
0
LINE
8
BLACK
6
CONTINUOUS
10
170.2921889999999792
20
-91.576785000000001
11
170.2994999999999948
21
-91.6187339999999892
0
LINE
8
BLACK
6
CONTINUOUS
10
170.2994999999999948
20
-91.6187339999999892
11
170.2994999999999948
21
-96.2844860000000011
0
LINE
8
BLACK
6
CONTINUOUS
10
170.2994999999999948
20
-96.2844860000000011
11
170.3290590000000009
21
-96.4711179999999899
0
LINE
8
BLACK
6
CONTINUOUS
10
170.3290590000000009
20
-96.4711179999999899
11
170.3874539999999911
21
-96.6508359999999982
0
LINE
8
BLACK
6
CONTINUOUS
10
170.3874539999999911
20
-96.6508359999999982
11
170.4442559999999958
21
-96.762315000000001
0
LINE
8
BLACK
6
CONTINUOUS
10
170.4442559999999958
20
-96.762315000000001
11
170.4732400000000041
21
-96.8191989999999976
0
LINE
8
BLACK
6
CONTINUOUS
10
170.4732400000000041
20
-96.8191989999999976
11
170.5843099999999879
21
-96.9720739999999921
0
LINE
8
BLACK
6
CONTINUOUS
10
170.5843099999999879
20
-96.9720739999999921
11
170.5843119999999828
21
-96.9720760000000013
0
LINE
8
BLACK
6
CONTINUOUS
10
170.5843119999999828
20
-96.9720760000000013
11
172.0245539999999949
21
-98.4123179999999991
0
LINE
8
BLACK
6
CONTINUOUS
10
172.0245539999999949
20
-98.4123179999999991
11
172.0580389999999795
21
-98.4736410000000006
0
LINE
8
BLACK
6
CONTINUOUS
10
172.0580389999999795
20
-98.4736410000000006
11
172.0530550000000005
21
-98.5433329999999899
0
LINE
8
BLACK
6
CONTINUOUS
10
172.0530550000000005
20
-98.5433329999999899
11
172.0245539999999949
21
-98.5876799999999918
0
LINE
8
BLACK
6
CONTINUOUS
10
172.0245539999999949
20
-98.5876799999999918
11
167.6509969999999896
21
-102.961236999999997
0
LINE
8
BLACK
6
CONTINUOUS
10
167.6509969999999896
20
-102.961236999999997
11
167.5896740000000023
21
-102.9947219999999959
0
LINE
8
BLACK
6
CONTINUOUS
10
167.5896740000000023
20
-102.9947219999999959
11
167.5199819999999988
21
-102.9897379999999885
0
LINE
8
BLACK
6
CONTINUOUS
10
167.5199819999999988
20
-102.9897379999999885
11
167.4640489999999886
21
-102.9478659999999905
0
LINE
8
BLACK
6
CONTINUOUS
10
167.4640489999999886
20
-102.9478659999999905
11
167.4396319999999889
21
-102.882401999999999
0
LINE
8
BLACK
6
CONTINUOUS
10
167.4396319999999889
20
-102.882401999999999
11
167.4544839999999795
21
-102.8141289999999941
0
LINE
8
BLACK
6
CONTINUOUS
10
167.4544839999999795
20
-102.8141289999999941
11
167.4629929999999831
21
-102.8006769999999932
0
LINE
8
BLACK
6
CONTINUOUS
10
167.4629929999999831
20
-102.8006769999999932
11
167.4733429999999998
21
-102.7864330000000024
0
LINE
8
BLACK
6
CONTINUOUS
10
167.4733429999999998
20
-102.7864330000000024
11
167.5805679999999995
21
-102.5759919999999994
0
LINE
8
BLACK
6
CONTINUOUS
10
167.5805679999999995
20
-102.5759919999999994
11
167.6535529999999881
21
-102.3513679999999937
0
LINE
8
BLACK
6
CONTINUOUS
10
167.6535529999999881
20
-102.3513679999999937
11
167.6537699999999802
21
-102.3499999999999943
0
LINE
8
BLACK
6
CONTINUOUS
10
167.6537699999999802
20
-102.3499999999999943
11
167.6904999999999859
21
-102.1180969999999917
0
LINE
8
BLACK
6
CONTINUOUS
10
167.6904999999999859
20
-102.1180969999999917
11
167.6904999999999859
21
-101.8819019999999966
0
LINE
8
BLACK
6
CONTINUOUS
10
167.6904999999999859
20
-101.8819019999999966
11
167.6535529999999881
21
-101.6486309999999946
0
LINE
8
BLACK
6
CONTINUOUS
10
167.6535529999999881
20
-101.6486309999999946
11
167.5805660000000046
21
-101.424002999999999
0
LINE
8
BLACK
6
CONTINUOUS
10
167.5805660000000046
20
-101.424002999999999
11
167.5399950000000047
21
-101.3443789999999893
0
LINE
8
BLACK
6
CONTINUOUS
10
167.5399950000000047
20
-101.3443789999999893
11
167.4733429999999998
21
-101.2135669999999976
0
LINE
8
BLACK
6
CONTINUOUS
10
167.4733429999999998
20
-101.2135669999999976
11
167.4141819999999825
21
-101.1321379999999976
0
LINE
8
BLACK
6
CONTINUOUS
10
167.4141819999999825
20
-101.1321379999999976
11
167.3907020000000045
21
-101.0663319999999885
0
LINE
8
BLACK
6
CONTINUOUS
10
167.3907020000000045
20
-101.0663319999999885
11
167.390500000000003
21
-101.0592529999999982
0
LINE
8
BLACK
6
CONTINUOUS
10
167.390500000000003
20
-101.0592529999999982
11
167.390500000000003
21
-99.4407459999999901
0
LINE
8
BLACK
6
CONTINUOUS
10
167.390500000000003
20
-99.4407459999999901
11
167.4101849999999843
21
-99.373706999999996
0
LINE
8
BLACK
6
CONTINUOUS
10
167.4101849999999843
20
-99.373706999999996
11
167.4141730000000052
21
-99.3678709999999938
0
LINE
8
BLACK
6
CONTINUOUS
10
167.4141730000000052
20
-99.3678709999999938
11
167.4733429999999998
21
-99.2864330000000024
0
LINE
8
BLACK
6
CONTINUOUS
10
167.4733429999999998
20
-99.2864330000000024
11
167.5805679999999995
21
-99.0759919999999994
0
LINE
8
BLACK
6
CONTINUOUS
10
167.5805679999999995
20
-99.0759919999999994
11
167.6535529999999881
21
-98.8513679999999937
0
LINE
8
BLACK
6
CONTINUOUS
10
167.6535529999999881
20
-98.8513679999999937
11
167.6902309999999829
21
-98.6197930000000014
0
LINE
8
BLACK
6
CONTINUOUS
10
167.6902309999999829
20
-98.6197930000000014
11
167.6904999999999859
21
-98.6180969999999917
0
LINE
8
BLACK
6
CONTINUOUS
10
167.6904999999999859
20
-98.6180969999999917
11
167.6904999999999859
21
-98.3819019999999966
0
LINE
8
BLACK
6
CONTINUOUS
10
167.6904999999999859
20
-98.3819019999999966
11
167.6535529999999881
21
-98.1486309999999946
0
LINE
8
BLACK
6
CONTINUOUS
10
167.6535529999999881
20
-98.1486309999999946
11
167.5805660000000046
21
-97.924002999999999
0
LINE
8
BLACK
6
CONTINUOUS
10
167.5805660000000046
20
-97.924002999999999
11
167.5251350000000059
21
-97.8152149999999949
0
LINE
8
BLACK
6
CONTINUOUS
10
167.5251350000000059
20
-97.8152149999999949
11
167.4733429999999998
21
-97.7135669999999976
0
LINE
8
BLACK
6
CONTINUOUS
10
167.4733429999999998
20
-97.7135669999999976
11
167.462697999999989
21
-97.698915999999997
0
LINE
8
BLACK
6
CONTINUOUS
10
167.462697999999989
20
-97.698915999999997
11
167.4141819999999825
21
-97.6321379999999976
0
LINE
8
BLACK
6
CONTINUOUS
10
167.4141819999999825
20
-97.6321379999999976
11
167.3907020000000045
21
-97.5663319999999885
0
LINE
8
BLACK
6
CONTINUOUS
10
167.3907020000000045
20
-97.5663319999999885
11
167.390500000000003
21
-97.5592529999999982
0
LINE
8
BLACK
6
CONTINUOUS
10
167.390500000000003
20
-97.5592529999999982
11
167.390500000000003
21
-93.737417999999991
0
LINE
8
BLACK
6
CONTINUOUS
10
167.390500000000003
20
-93.737417999999991
11
167.3784149999999897
21
-93.6611180000000019
0
LINE
8
BLACK
6
CONTINUOUS
10
167.3784149999999897
20
-93.6611180000000019
11
167.3784149999999897
21
-93.6611169999999902
0
LINE
8
BLACK
6
CONTINUOUS
10
167.3784149999999897
20
-93.6611169999999902
11
167.3609399999999994
21
-93.5507829999999956
0
LINE
8
BLACK
6
CONTINUOUS
10
167.3609399999999994
20
-93.5507829999999956
11
167.3609399999999994
21
-93.5507810000000006
0
LINE
8
BLACK
6
CONTINUOUS
10
167.3609399999999994
20
-93.5507810000000006
11
167.3025470000000041
21
-93.3710669999999965
0
LINE
8
BLACK
6
CONTINUOUS
10
167.3025470000000041
20
-93.3710669999999965
11
167.3025449999999807
21
-93.3710639999999898
0
LINE
8
BLACK
6
CONTINUOUS
10
167.3025449999999807
20
-93.3710639999999898
11
167.3025449999999807
21
-93.3710619999999949
0
LINE
8
BLACK
6
CONTINUOUS
10
167.3025449999999807
20
-93.3710619999999949
11
167.2167589999999961
21
-93.2026989999999955
0
LINE
8
BLACK
6
CONTINUOUS
10
167.2167589999999961
20
-93.2026989999999955
11
167.1056899999999814
21
-93.0498249999999985
0
LINE
8
BLACK
6
CONTINUOUS
10
167.1056899999999814
20
-93.0498249999999985
11
163.2641749999999945
21
-89.2083099999999973
0
LINE
8
BLACK
6
CONTINUOUS
10
163.2641749999999945
20
-89.2083099999999973
11
163.1113
21
-89.0972399999999993
0
LINE
8
BLACK
6
CONTINUOUS
10
163.1113
20
-89.0972399999999993
11
162.9806079999999895
21
-89.0306489999999968
0
LINE
8
BLACK
6
CONTINUOUS
10
162.9806079999999895
20
-89.0306489999999968
11
162.9298129999999958
21
-88.9826759999999979
0
LINE
8
BLACK
6
CONTINUOUS
10
162.9298129999999958
20
-88.9826759999999979
11
162.9130179999999939
21
-88.9148550000000029
0
LINE
8
BLACK
6
CONTINUOUS
10
162.9130179999999939
20
-88.9148550000000029
11
162.9355549999999937
21
-88.8487200000000001
0
LINE
8
BLACK
6
CONTINUOUS
10
162.9355549999999937
20
-88.8487200000000001
11
162.9492189999999994
21
-88.8324879999999979
0
LINE
8
BLACK
6
CONTINUOUS
10
162.9492189999999994
20
-88.8324879999999979
11
162.9846789999999999
21
-88.7970289999999949
0
LINE
8
BLACK
6
CONTINUOUS
10
162.9846789999999999
20
-88.7970289999999949
11
163.1419259999999838
21
-88.5921000000000021
0
LINE
8
BLACK
6
CONTINUOUS
10
163.1419259999999838
20
-88.5921000000000021
11
163.2710799999999836
21
-88.3683999999999941
0
LINE
8
BLACK
6
CONTINUOUS
10
163.2710799999999836
20
-88.3683999999999941
11
163.3699289999999849
21
-88.1297560000000004
0
LINE
8
BLACK
6
CONTINUOUS
10
163.3699289999999849
20
-88.1297560000000004
11
163.4367839999999887
21
-87.8802499999999895
0
LINE
8
BLACK
6
CONTINUOUS
10
163.4367839999999887
20
-87.8802499999999895
11
163.470499999999987
21
-87.6241529999999926
0
LINE
8
BLACK
6
CONTINUOUS
10
163.470499999999987
20
-87.6241529999999926
11
163.470499999999987
21
-87.3658470000000023
0
LINE
8
BLACK
6
CONTINUOUS
10
163.470499999999987
20
-87.3658470000000023
11
163.4367839999999887
21
-87.1097499999999911
0
LINE
8
BLACK
6
CONTINUOUS
10
163.4367839999999887
20
-87.1097499999999911
11
163.3699289999999849
21
-86.8602439999999945
0
LINE
8
BLACK
6
CONTINUOUS
10
163.3699289999999849
20
-86.8602439999999945
11
163.2710799999999836
21
-86.6216000000000008
0
LINE
8
BLACK
6
CONTINUOUS
10
163.2710799999999836
20
-86.6216000000000008
11
163.2710779999999886
21
-86.6215969999999942
0
LINE
8
BLACK
6
CONTINUOUS
10
163.2710779999999886
20
-86.6215969999999942
11
163.2710759999999937
21
-86.6215919999999926
0
LINE
8
BLACK
6
CONTINUOUS
10
163.2710759999999937
20
-86.6215919999999926
11
163.1419300000000021
21
-86.3979069999999894
0
LINE
8
BLACK
6
CONTINUOUS
10
163.1419300000000021
20
-86.3979069999999894
11
163.1419259999999838
21
-86.3978999999999928
0
LINE
8
BLACK
6
CONTINUOUS
10
163.1419259999999838
20
-86.3978999999999928
11
162.9846789999999999
21
-86.192971
0
LINE
8
BLACK
6
CONTINUOUS
10
162.9846789999999999
20
-86.192971
11
162.9846739999999841
21
-86.1929650000000009
0
LINE
8
BLACK
6
CONTINUOUS
10
162.9846739999999841
20
-86.1929650000000009
11
162.8020339999999919
21
-86.0103249999999946
0
LINE
8
BLACK
6
CONTINUOUS
10
162.8020339999999919
20
-86.0103249999999946
11
162.8020269999999812
21
-86.0103189999999955
0
LINE
8
BLACK
6
CONTINUOUS
10
162.8020269999999812
20
-86.0103189999999955
11
162.5971079999999915
21
-85.8530799999999914
0
LINE
8
BLACK
6
CONTINUOUS
10
162.5971079999999915
20
-85.8530799999999914
11
162.5971059999999966
21
-85.8530779999999965
0
LINE
8
BLACK
6
CONTINUOUS
10
162.5971059999999966
20
-85.8530779999999965
11
162.5970999999999833
21
-85.8530739999999923
0
LINE
8
BLACK
6
CONTINUOUS
10
162.5970999999999833
20
-85.8530739999999923
11
162.5970949999999959
21
-85.8530709999999999
0
LINE
8
BLACK
6
CONTINUOUS
10
162.5970949999999959
20
-85.8530709999999999
11
162.5970920000000035
21
-85.8530689999999908
0
LINE
8
BLACK
6
CONTINUOUS
10
162.5970920000000035
20
-85.8530689999999908
11
162.3734069999999861
21
-85.7239229999999992
0
LINE
8
BLACK
6
CONTINUOUS
10
162.3734069999999861
20
-85.7239229999999992
11
162.3733959999999854
21
-85.7239179999999976
0
LINE
8
BLACK
6
CONTINUOUS
10
162.3733959999999854
20
-85.7239179999999976
11
162.134758000000005
21
-85.6250709999999913
0
LINE
8
BLACK
6
CONTINUOUS
10
162.134758000000005
20
-85.6250709999999913
11
161.88524799999999
21
-85.5582149999999899
0
LINE
8
BLACK
6
CONTINUOUS
10
161.88524799999999
20
-85.5582149999999899
11
161.6291619999999796
21
-85.5245010000000008
0
LINE
8
BLACK
6
CONTINUOUS
10
161.6291619999999796
20
-85.5245010000000008
11
161.6291589999999871
21
-85.5244999999999891
0
LINE
8
BLACK
6
CONTINUOUS
10
161.6291589999999871
20
-85.5244999999999891
11
161.6291530000000023
21
-85.5244999999999891
0
LINE
8
BLACK
6
CONTINUOUS
10
161.6291530000000023
20
-85.5244999999999891
11
161.3708469999999977
21
-85.5244999999999891
0
LINE
8
BLACK
6
CONTINUOUS
10
161.3708469999999977
20
-85.5244999999999891
11
161.3708409999999844
21
-85.5244999999999891
0
LINE
8
BLACK
6
CONTINUOUS
10
161.3708409999999844
20
-85.5244999999999891
11
161.3708369999999945
21
-85.5245010000000008
0
LINE
8
BLACK
6
CONTINUOUS
10
161.3708369999999945
20
-85.5245010000000008
11
161.1147509999999841
21
-85.5582149999999899
0
LINE
8
BLACK
6
CONTINUOUS
10
161.1147509999999841
20
-85.5582149999999899
11
160.8652409999999975
21
-85.6250709999999913
0
LINE
8
BLACK
6
CONTINUOUS
10
160.8652409999999975
20
-85.6250709999999913
11
160.6266029999999887
21
-85.7239179999999976
0
LINE
8
BLACK
6
CONTINUOUS
10
160.6266029999999887
20
-85.7239179999999976
11
160.626591999999988
21
-85.7239229999999992
0
LINE
8
BLACK
6
CONTINUOUS
10
160.626591999999988
20
-85.7239229999999992
11
160.402906999999999
21
-85.8530689999999908
0
LINE
8
BLACK
6
CONTINUOUS
10
160.402906999999999
20
-85.8530689999999908
11
160.4028909999999826
21
-85.8530799999999914
0
LINE
8
BLACK
6
CONTINUOUS
10
160.4028909999999826
20
-85.8530799999999914
11
160.1979719999999929
21
-86.0103189999999955
0
LINE
8
BLACK
6
CONTINUOUS
10
160.1979719999999929
20
-86.0103189999999955
11
160.1979649999999822
21
-86.0103249999999946
0
LINE
8
BLACK
6
CONTINUOUS
10
160.1979649999999822
20
-86.0103249999999946
11
160.01532499999999
21
-86.1929650000000009
0
LINE
8
BLACK
6
CONTINUOUS
10
160.01532499999999
20
-86.1929650000000009
11
160.0153190000000052
21
-86.1929719999999975
0
LINE
8
BLACK
6
CONTINUOUS
10
160.0153190000000052
20
-86.1929719999999975
11
159.8580800000000011
21
-86.3978910000000013
0
LINE
8
BLACK
6
CONTINUOUS
10
159.8580800000000011
20
-86.3978910000000013
11
159.8580690000000004
21
-86.3979069999999894
0
LINE
8
BLACK
6
CONTINUOUS
10
159.8580690000000004
20
-86.3979069999999894
11
159.7289229999999804
21
-86.6215919999999926
0
LINE
8
BLACK
6
CONTINUOUS
10
159.7289229999999804
20
-86.6215919999999926
11
159.7289179999999931
21
-86.6216029999999932
0
LINE
8
BLACK
6
CONTINUOUS
10
159.7289179999999931
20
-86.6216029999999932
11
159.6300709999999867
21
-86.860241000000002
0
LINE
8
BLACK
6
CONTINUOUS
10
159.6300709999999867
20
-86.860241000000002
11
159.5632149999999854
21
-87.1097510000000028
0
LINE
8
BLACK
6
CONTINUOUS
10
159.5632149999999854
20
-87.1097510000000028
11
159.529500999999982
21
-87.3658369999999991
0
LINE
8
BLACK
6
CONTINUOUS
10
159.529500999999982
20
-87.3658369999999991
11
159.5294999999999845
21
-87.3658530000000013
0
LINE
8
BLACK
6
CONTINUOUS
10
159.5294999999999845
20
-87.3658530000000013
11
159.5294999999999845
21
-87.6241459999999961
0
LINE
8
BLACK
6
CONTINUOUS
10
159.5294999999999845
20
-87.6241459999999961
11
159.529500999999982
21
-87.6241619999999983
0
LINE
8
BLACK
6
CONTINUOUS
10
159.529500999999982
20
-87.6241619999999983
11
159.5632149999999854
21
-87.8802479999999946
0
LINE
8
BLACK
6
CONTINUOUS
10
159.5632149999999854
20
-87.8802479999999946
11
159.6300709999999867
21
-88.1297579999999954
0
LINE
8
BLACK
6
CONTINUOUS
10
159.6300709999999867
20
-88.1297579999999954
11
159.7289179999999931
21
-88.36839599999999
0
LINE
8
BLACK
6
CONTINUOUS
10
159.7289179999999931
20
-88.36839599999999
11
159.7289229999999804
21
-88.3684069999999906
0
LINE
8
BLACK
6
CONTINUOUS
10
159.7289229999999804
20
-88.3684069999999906
11
159.8580690000000004
21
-88.5920919999999938
0
LINE
8
BLACK
6
CONTINUOUS
10
159.8580690000000004
20
-88.5920919999999938
11
159.8580800000000011
21
-88.5921089999999936
0
LINE
8
BLACK
6
CONTINUOUS
10
159.8580800000000011
20
-88.5921089999999936
11
159.9592939999999999
21
-88.7240139999999968
0
LINE
8
BLACK
6
CONTINUOUS
10
159.9592939999999999
20
-88.7240139999999968
11
159.9844879999999989
21
-88.7891829999999942
0
LINE
8
BLACK
6
CONTINUOUS
10
159.9844879999999989
20
-88.7891829999999942
11
159.9704490000000021
21
-88.8576279999999912
0
LINE
8
BLACK
6
CONTINUOUS
10
159.9704490000000021
20
-88.8576279999999912
11
159.9216349999999807
21
-88.9076179999999994
0
LINE
8
BLACK
6
CONTINUOUS
10
159.9216349999999807
20
-88.9076179999999994
11
159.8609179999999981
21
-88.92349999999999
0
LINE
8
BLACK
6
CONTINUOUS
10
159.8609179999999981
20
-88.92349999999999
11
158.8082609999999875
21
-88.92349999999999
0
LINE
8
BLACK
6
CONTINUOUS
10
158.8082609999999875
20
-88.92349999999999
11
158.7412219999999934
21
-88.9038149999999945
0
LINE
8
BLACK
6
CONTINUOUS
10
158.7412219999999934
20
-88.9038149999999945
11
158.7205840000000023
21
-88.8871850000000023
0
LINE
8
BLACK
6
CONTINUOUS
10
158.7205840000000023
20
-88.8871850000000023
11
158.6000799999999913
21
-88.7666809999999913
0
LINE
8
BLACK
6
CONTINUOUS
10
158.6000799999999913
20
-88.7666809999999913
11
158.6000789999999938
21
-88.7666799999999938
0
LINE
8
BLACK
6
CONTINUOUS
10
158.6000789999999938
20
-88.7666799999999938
11
158.6000769999999989
21
-88.7666779999999989
0
LINE
8
BLACK
6
CONTINUOUS
10
158.6000769999999989
20
-88.7666779999999989
11
158.3608309999999904
21
-88.58309899999999
0
LINE
8
BLACK
6
CONTINUOUS
10
158.3608309999999904
20
-88.58309899999999
11
158.0996710000000007
21
-88.4323179999999951
0
LINE
8
BLACK
6
CONTINUOUS
10
158.0996710000000007
20
-88.4323179999999951
11
158.0996609999999976
21
-88.432313999999991
0
LINE
8
BLACK
6
CONTINUOUS
10
158.0996609999999976
20
-88.432313999999991
11
157.8210599999999886
21
-88.3169129999999996
0
LINE
8
BLACK
6
CONTINUOUS
10
157.8210599999999886
20
-88.3169129999999996
11
157.5297659999999951
21
-88.238861
0
LINE
8
BLACK
6
CONTINUOUS
10
157.5297659999999951
20
-88.238861
11
157.2307930000000056
21
-88.1995009999999979
0
LINE
8
BLACK
6
CONTINUOUS
10
157.2307930000000056
20
-88.1995009999999979
11
157.2307879999999898
21
-88.1995000000000005
0
LINE
8
BLACK
6
CONTINUOUS
10
157.2307879999999898
20
-88.1995000000000005
11
157.2307830000000024
21
-88.1995000000000005
0
LINE
8
BLACK
6
CONTINUOUS
10
157.2307830000000024
20
-88.1995000000000005
11
156.9292169999999942
21
-88.1995000000000005
0
LINE
8
BLACK
6
CONTINUOUS
10
156.9292169999999942
20
-88.1995000000000005
11
156.9292109999999809
21
-88.1995000000000005
0
LINE
8
BLACK
6
CONTINUOUS
10
156.9292109999999809
20
-88.1995000000000005
11
156.9292059999999935
21
-88.1995009999999979
0
LINE
8
BLACK
6
CONTINUOUS
10
156.9292059999999935
20
-88.1995009999999979
11
156.630233000000004
21
-88.238861
0
LINE
8
BLACK
6
CONTINUOUS
10
156.630233000000004
20
-88.238861
11
156.3389389999999821
21
-88.3169129999999996
0
LINE
8
BLACK
6
CONTINUOUS
10
156.3389389999999821
20
-88.3169129999999996
11
156.0603380000000016
21
-88.432313999999991
0
LINE
8
BLACK
6
CONTINUOUS
10
156.0603380000000016
20
-88.432313999999991
11
156.0603279999999984
21
-88.4323179999999951
0
LINE
8
BLACK
6
CONTINUOUS
10
156.0603279999999984
20
-88.4323179999999951
11
155.7991679999999803
21
-88.58309899999999
0
LINE
8
BLACK
6
CONTINUOUS
10
155.7991679999999803
20
-88.58309899999999
11
155.5599210000000028
21
-88.7666789999999963
0
LINE
8
BLACK
6
CONTINUOUS
10
155.5599210000000028
20
-88.7666789999999963
11
155.559913999999992
21
-88.7666849999999954
0
LINE
8
BLACK
6
CONTINUOUS
10
155.559913999999992
20
-88.7666849999999954
11
155.3466849999999795
21
-88.9799139999999937
0
LINE
8
BLACK
6
CONTINUOUS
10
155.3466849999999795
20
-88.9799139999999937
11
155.3466789999999946
21
-88.9799209999999903
0
LINE
8
BLACK
6
CONTINUOUS
10
155.3466789999999946
20
-88.9799209999999903
11
155.1630989999999883
21
-89.2191679999999963
0
LINE
8
BLACK
6
CONTINUOUS
10
155.1630989999999883
20
-89.2191679999999963
11
155.0123179999999934
21
-89.4803280000000001
0
LINE
8
BLACK
6
CONTINUOUS
10
155.0123179999999934
20
-89.4803280000000001
11
155.0123140000000035
21
-89.4803379999999891
0
LINE
8
BLACK
6
CONTINUOUS
10
155.0123140000000035
20
-89.4803379999999891
11
154.8969129999999836
21
-89.758938999999998
0
LINE
8
BLACK
6
CONTINUOUS
10
154.8969129999999836
20
-89.758938999999998
11
154.8188609999999983
21
-90.0502329999999915
0
LINE
8
BLACK
6
CONTINUOUS
10
154.8188609999999983
20
-90.0502329999999915
11
154.779500999999982
21
-90.3492059999999952
0
LINE
8
BLACK
6
CONTINUOUS
10
154.779500999999982
20
-90.3492059999999952
11
154.7794999999999845
21
-90.349222999999995
0
LINE
8
BLACK
6
CONTINUOUS
10
154.7794999999999845
20
-90.349222999999995
11
154.7794999999999845
21
-90.6507759999999934
0
LINE
8
BLACK
6
CONTINUOUS
10
154.7794999999999845
20
-90.6507759999999934
11
154.779500999999982
21
-90.6507929999999931
0
LINE
8
BLACK
6
CONTINUOUS
10
154.779500999999982
20
-90.6507929999999931
11
154.8188609999999983
21
-90.9497659999999968
0
LINE
8
BLACK
6
CONTINUOUS
10
154.8188609999999983
20
-90.9497659999999968
11
154.8969139999999811
21
-91.2410629999999969
0
LINE
8
BLACK
6
CONTINUOUS
10
154.8969139999999811
20
-91.2410629999999969
11
154.9822699999999998
21
-91.4471309999999988
0
LINE
8
BLACK
6
CONTINUOUS
10
154.9822699999999998
20
-91.4471309999999988
11
154.9897389999999859
21
-91.5165999999999968
0
LINE
8
BLACK
6
CONTINUOUS
10
154.9897389999999859
20
-91.5165999999999968
11
154.9584639999999922
21
-91.579078999999993
0
LINE
8
BLACK
6
CONTINUOUS
10
154.9584639999999922
20
-91.579078999999993
11
154.8983749999999873
21
-91.6147309999999919
0
LINE
8
BLACK
6
CONTINUOUS
10
154.8983749999999873
20
-91.6147309999999919
11
154.828550000000007
21
-91.6122369999999933
0
LINE
8
BLACK
6
CONTINUOUS
10
154.828550000000007
20
-91.6122369999999933
11
154.7800279999999873
21
-91.582263999999995
0
LINE
8
BLACK
6
CONTINUOUS
10
154.7800279999999873
20
-91.582263999999995
11
154.2877519999999834
21
-91.0899879999999911
0
LINE
8
BLACK
6
CONTINUOUS
10
154.2877519999999834
20
-91.0899879999999911
11
154.2542669999999987
21
-91.0286649999999895
0
LINE
8
BLACK
6
CONTINUOUS
10
154.2542669999999987
20
-91.0286649999999895
11
154.2556589999999801
21
-90.9702119999999894
0
LINE
8
BLACK
6
CONTINUOUS
10
154.2556589999999801
20
-90.9702119999999894
11
154.2611379999999883
21
-90.9497679999999917
0
LINE
8
BLACK
6
CONTINUOUS
10
154.2611379999999883
20
-90.9497679999999917
11
154.3004999999999995
21
-90.6507829999999899
0
LINE
8
BLACK
6
CONTINUOUS
10
154.3004999999999995
20
-90.6507829999999899
11
154.3004999999999995
21
-90.3492169999999959
0
LINE
8
BLACK
6
CONTINUOUS
10
154.3004999999999995
20
-90.3492169999999959
11
154.2611379999999883
21
-90.0502319999999941
0
LINE
8
BLACK
6
CONTINUOUS
10
154.2611379999999883
20
-90.0502319999999941
11
154.1830870000000004
21
-89.7589419999999905
0
LINE
8
BLACK
6
CONTINUOUS
10
154.1830870000000004
20
-89.7589419999999905
11
154.0676829999999882
21
-89.48033199999999
0
LINE
8
BLACK
6
CONTINUOUS
10
154.0676829999999882
20
-89.48033199999999
11
153.9983479999999929
21
-89.360241000000002
0
LINE
8
BLACK
6
CONTINUOUS
10
153.9983479999999929
20
-89.360241000000002
11
153.9168999999999983
21
-89.2191679999999963
0
LINE
8
BLACK
6
CONTINUOUS
10
153.9168999999999983
20
-89.2191679999999963
11
153.733319999999992
21
-88.9799209999999903
0
LINE
8
BLACK
6
CONTINUOUS
10
153.733319999999992
20
-88.9799209999999903
11
153.7333140000000071
21
-88.9799139999999937
0
LINE
8
BLACK
6
CONTINUOUS
10
153.7333140000000071
20
-88.9799139999999937
11
153.5200849999999946
21
-88.7666849999999954
0
LINE
8
BLACK
6
CONTINUOUS
10
153.5200849999999946
20
-88.7666849999999954
11
153.5200779999999838
21
-88.7666789999999963
0
LINE
8
BLACK
6
CONTINUOUS
10
153.5200779999999838
20
-88.7666789999999963
11
153.2808310000000063
21
-88.58309899999999
0
LINE
8
BLACK
6
CONTINUOUS
10
153.2808310000000063
20
-88.58309899999999
11
153.0196709999999882
21
-88.4323179999999951
0
LINE
8
BLACK
6
CONTINUOUS
10
153.0196709999999882
20
-88.4323179999999951
11
153.0196609999999851
21
-88.432313999999991
0
LINE
8
BLACK
6
CONTINUOUS
10
153.0196609999999851
20
-88.432313999999991
11
152.7410600000000045
21
-88.3169129999999996
0
LINE
8
BLACK
6
CONTINUOUS
10
152.7410600000000045
20
-88.3169129999999996
11
152.4497659999999826
21
-88.238861
0
LINE
8
BLACK
6
CONTINUOUS
10
152.4497659999999826
20
-88.238861
11
152.1507929999999931
21
-88.1995009999999979
0
LINE
8
BLACK
6
CONTINUOUS
10
152.1507929999999931
20
-88.1995009999999979
11
152.1507880000000057
21
-88.1995000000000005
0
LINE
8
BLACK
6
CONTINUOUS
10
152.1507880000000057
20
-88.1995000000000005
11
152.1507829999999899
21
-88.1995000000000005
0
LINE
8
BLACK
6
CONTINUOUS
10
152.1507829999999899
20
-88.1995000000000005
11
151.8492169999999817
21
-88.1995000000000005
0
LINE
8
BLACK
6
CONTINUOUS
10
151.8492169999999817
20
-88.1995000000000005
11
151.8492109999999968
21
-88.1995000000000005
0
LINE
8
BLACK
6
CONTINUOUS
10
151.8492109999999968
20
-88.1995000000000005
11
151.849205999999981
21
-88.1995009999999979
0
LINE
8
BLACK
6
CONTINUOUS
10
151.849205999999981
20
-88.1995009999999979
11
151.5502329999999915
21
-88.238861
0
LINE
8
BLACK
6
CONTINUOUS
10
151.5502329999999915
20
-88.238861
11
151.258938999999998
21
-88.3169129999999996
0
LINE
8
BLACK
6
CONTINUOUS
10
151.258938999999998
20
-88.3169129999999996
11
150.9803379999999891
21
-88.432313999999991
0
LINE
8
BLACK
6
CONTINUOUS
10
150.9803379999999891
20
-88.432313999999991
11
150.9803279999999859
21
-88.4323179999999951
0
LINE
8
BLACK
6
CONTINUOUS
10
150.9803279999999859
20
-88.4323179999999951
11
150.7191679999999963
21
-88.58309899999999
0
LINE
8
BLACK
6
CONTINUOUS
10
150.7191679999999963
20
-88.58309899999999
11
150.4799209999999903
21
-88.7666789999999963
0
LINE
8
BLACK
6
CONTINUOUS
10
150.4799209999999903
20
-88.7666789999999963
11
150.4799139999999795
21
-88.7666849999999954
0
LINE
8
BLACK
6
CONTINUOUS
10
150.4799139999999795
20
-88.7666849999999954
11
150.2666849999999954
21
-88.9799139999999937
0
LINE
8
BLACK
6
CONTINUOUS
10
150.2666849999999954
20
-88.9799139999999937
11
150.2666789999999821
21
-88.9799209999999903
0
LINE
8
BLACK
6
CONTINUOUS
10
150.2666789999999821
20
-88.9799209999999903
11
150.0830990000000043
21
-89.2191679999999963
0
LINE
8
BLACK
6
CONTINUOUS
10
150.0830990000000043
20
-89.2191679999999963
11
149.9323179999999809
21
-89.4803280000000001
0
LINE
8
BLACK
6
CONTINUOUS
10
149.9323179999999809
20
-89.4803280000000001
11
149.932313999999991
21
-89.4803379999999891
0
LINE
8
BLACK
6
CONTINUOUS
10
149.932313999999991
20
-89.4803379999999891
11
149.8169129999999996
21
-89.758938999999998
0
LINE
8
BLACK
6
CONTINUOUS
10
149.8169129999999996
20
-89.758938999999998
11
149.7388609999999858
21
-90.0502329999999915
0
LINE
8
BLACK
6
CONTINUOUS
10
149.7388609999999858
20
-90.0502329999999915
11
149.6995009999999979
21
-90.3492059999999952
0
LINE
8
BLACK
6
CONTINUOUS
10
149.6995009999999979
20
-90.3492059999999952
11
149.6995000000000005
21
-90.349222999999995
0
LINE
8
BLACK
6
CONTINUOUS
10
149.6995000000000005
20
-90.349222999999995
11
149.6995000000000005
21
-90.6507759999999934
0
LINE
8
BLACK
6
CONTINUOUS
10
149.6995000000000005
20
-90.6507759999999934
11
149.6995009999999979
21
-90.6507929999999931
0
LINE
8
BLACK
6
CONTINUOUS
10
149.6995009999999979
20
-90.6507929999999931
11
149.7388609999999858
21
-90.9497659999999968
0
LINE
8
BLACK
6
CONTINUOUS
10
149.7388609999999858
20
-90.9497659999999968
11
149.8169129999999996
21
-91.2410599999999903
0
LINE
8
BLACK
6
CONTINUOUS
10
149.8169129999999996
20
-91.2410599999999903
11
149.932313999999991
21
-91.5196609999999993
0
LINE
8
BLACK
6
CONTINUOUS
10
149.932313999999991
20
-91.5196609999999993
11
149.9323179999999809
21
-91.5196710000000024
0
LINE
8
BLACK
6
CONTINUOUS
10
149.9323179999999809
20
-91.5196710000000024
11
150.0830990000000043
21
-91.7808309999999921
0
LINE
8
BLACK
6
CONTINUOUS
10
150.0830990000000043
20
-91.7808309999999921
11
150.2666789999999821
21
-92.020077999999998
0
LINE
8
BLACK
6
CONTINUOUS
10
150.2666789999999821
20
-92.020077999999998
11
150.2666849999999954
21
-92.0200849999999946
0
LINE
8
BLACK
6
CONTINUOUS
10
150.2666849999999954
20
-92.0200849999999946
11
150.4799139999999795
21
-92.2333139999999929
0
LINE
8
BLACK
6
CONTINUOUS
10
150.4799139999999795
20
-92.2333139999999929
11
150.4799209999999903
21
-92.233319999999992
0
LINE
8
BLACK
6
CONTINUOUS
10
150.4799209999999903
20
-92.233319999999992
11
150.7191679999999963
21
-92.4168999999999983
0
LINE
8
BLACK
6
CONTINUOUS
10
150.7191679999999963
20
-92.4168999999999983
11
150.9803279999999859
21
-92.5676809999999932
0
LINE
8
BLACK
6
CONTINUOUS
10
150.9803279999999859
20
-92.5676809999999932
11
150.9803289999999834
21
-92.5676809999999932
0
LINE
8
BLACK
6
CONTINUOUS
10
150.9803289999999834
20
-92.5676809999999932
11
150.9803320000000042
21
-92.5676830000000024
0
LINE
8
BLACK
6
CONTINUOUS
10
150.9803320000000042
20
-92.5676830000000024
11
151.1660719999999856
21
-92.6446189999999916
0
LINE
8
BLACK
6
CONTINUOUS
10
151.1660719999999856
20
-92.6446189999999916
11
151.258938999999998
21
-92.6830859999999888
0
LINE
8
BLACK
6
CONTINUOUS
10
151.258938999999998
20
-92.6830859999999888
11
151.2589399999999955
21
-92.6830859999999888
0
LINE
8
BLACK
6
CONTINUOUS
10
151.2589399999999955
20
-92.6830859999999888
11
151.2589419999999905
21
-92.6830870000000004
0
LINE
8
BLACK
6
CONTINUOUS
10
151.2589419999999905
20
-92.6830870000000004
11
151.5502319999999941
21
-92.7611380000000025
0
LINE
8
BLACK
6
CONTINUOUS
10
151.5502319999999941
20
-92.7611380000000025
11
151.8492169999999817
21
-92.8004999999999995
0
LINE
8
BLACK
6
CONTINUOUS
10
151.8492169999999817
20
-92.8004999999999995
11
151.8492239999999924
21
-92.8004999999999995
0
LINE
8
BLACK
6
CONTINUOUS
10
151.8492239999999924
20
-92.8004999999999995
11
152.1507759999999791
21
-92.8004999999999995
0
LINE
8
BLACK
6
CONTINUOUS
10
152.1507759999999791
20
-92.8004999999999995
11
152.1507829999999899
21
-92.8004999999999995
0
LINE
8
BLACK
6
CONTINUOUS
10
152.1507829999999899
20
-92.8004999999999995
11
152.4497680000000059
21
-92.7611380000000025
0
LINE
8
BLACK
6
CONTINUOUS
10
152.4497680000000059
20
-92.7611380000000025
11
152.4702110000000062
21
-92.7556599999999918
0
LINE
8
BLACK
6
CONTINUOUS
10
152.4702110000000062
20
-92.7556599999999918
11
152.5400579999999877
21
-92.7573189999999954
0
LINE
8
BLACK
6
CONTINUOUS
10
152.5400579999999877
20
-92.7573189999999954
11
152.5899880000000053
21
-92.7877519999999976
0
LINE
8
BLACK
6
CONTINUOUS
10
152.5899880000000053
20
-92.7877519999999976
11
153.6431809999999984
21
-93.8409449999999907
0
LINE
8
BLACK
6
CONTINUOUS
10
153.6431809999999984
20
-93.8409449999999907
11
153.6766659999999831
21
-93.9022679999999923
0
LINE
8
BLACK
6
CONTINUOUS
10
153.6766659999999831
20
-93.9022679999999923
11
153.6794999999999902
21
-93.9286259999999942
0
LINE
8
BLACK
6
CONTINUOUS
10
153.6794999999999902
20
-93.9286259999999942
11
153.6794999999999902
21
-96.526252999999997
0
LINE
8
BLACK
6
CONTINUOUS
10
153.6794999999999902
20
-96.526252999999997
11
153.6598149999999805
21
-96.593291999999991
0
LINE
8
BLACK
6
CONTINUOUS
10
153.6598149999999805
20
-96.593291999999991
11
153.607011
21
-96.6390469999999908
0
LINE
8
BLACK
6
CONTINUOUS
10
153.607011
20
-96.6390469999999908
11
153.5914960000000065
21
-96.6449130000000025
0
LINE
8
BLACK
6
CONTINUOUS
10
153.5914960000000065
20
-96.6449130000000025
11
153.5260470000000055
21
-96.6647669999999977
0
LINE
8
BLACK
6
CONTINUOUS
10
153.5260470000000055
20
-96.6647669999999977
11
153.4474869999999953
21
-96.706758999999991
0
LINE
8
BLACK
6
CONTINUOUS
10
153.4474869999999953
20
-96.706758999999991
11
153.3435499999999934
21
-96.762315000000001
0
LINE
8
BLACK
6
CONTINUOUS
10
153.3435499999999934
20
-96.762315000000001
11
153.3435479999999984
21
-96.7623159999999984
0
LINE
8
BLACK
6
CONTINUOUS
10
153.3435479999999984
20
-96.7623159999999984
11
153.3435470000000009
21
-96.7623169999999959
0
LINE
8
BLACK
6
CONTINUOUS
10
153.3435470000000009
20
-96.7623169999999959
11
153.1835889999999836
21
-96.8935889999999915
0
LINE
8
BLACK
6
CONTINUOUS
10
153.1835889999999836
20
-96.8935889999999915
11
153.052316999999988
21
-97.0535469999999947
0
LINE
8
BLACK
6
CONTINUOUS
10
153.052316999999988
20
-97.0535469999999947
11
152.9547689999999989
21
-97.2360429999999951
0
LINE
8
BLACK
6
CONTINUOUS
10
152.9547689999999989
20
-97.2360429999999951
11
152.9065630000000056
21
-97.3949599999999975
0
LINE
8
BLACK
6
CONTINUOUS
10
152.9065630000000056
20
-97.3949599999999975
11
152.8947000000000003
21
-97.4340660000000014
0
LINE
8
BLACK
6
CONTINUOUS
10
152.8947000000000003
20
-97.4340660000000014
11
152.8880279999999914
21
-97.5017989999999912
0
LINE
8
BLACK
6
CONTINUOUS
10
152.8880279999999914
20
-97.5017989999999912
11
152.8880139999999983
21
-97.501930999999999
0
LINE
8
BLACK
6
CONTINUOUS
10
152.8880139999999983
20
-97.501930999999999
11
152.8807579999999859
21
-97.5756159999999966
0
LINE
8
BLACK
6
CONTINUOUS
10
152.8807579999999859
20
-97.5756159999999966
11
152.8795000000000073
21
-97.5883919999999989
0
LINE
8
BLACK
6
CONTINUOUS
10
152.8795000000000073
20
-97.5883919999999989
11
152.8795000000000073
21
-98.7916079999999965
0
LINE
8
BLACK
6
CONTINUOUS
10
152.8795000000000073
20
-98.7916079999999965
11
152.8845019999999977
21
-98.8423979999999887
0
LINE
8
BLACK
6
CONTINUOUS
10
152.8845019999999977
20
-98.8423979999999887
11
152.8946990000000028
21
-98.9459319999999991
0
LINE
8
BLACK
6
CONTINUOUS
10
152.8946990000000028
20
-98.9459319999999991
11
152.9198499999999967
21
-99.0288449999999898
0
LINE
8
BLACK
6
CONTINUOUS
10
152.9198499999999967
20
-99.0288449999999898
11
152.9547680000000014
21
-99.1439539999999937
0
LINE
8
BLACK
6
CONTINUOUS
10
152.9547680000000014
20
-99.1439539999999937
11
153.052314999999993
21
-99.3264499999999941
0
LINE
8
BLACK
6
CONTINUOUS
10
153.052314999999993
20
-99.3264499999999941
11
153.0910979999999881
21
-99.373706999999996
0
LINE
8
BLACK
6
CONTINUOUS
10
153.0910979999999881
20
-99.373706999999996
11
153.183589999999981
21
-99.4864099999999922
0
LINE
8
BLACK
6
CONTINUOUS
10
153.183589999999981
20
-99.4864099999999922
11
153.2320489999999893
21
-99.5261799999999965
0
LINE
8
BLACK
6
CONTINUOUS
10
153.2320489999999893
20
-99.5261799999999965
11
153.2713829999999859
21
-99.5839259999999911
0
LINE
8
BLACK
6
CONTINUOUS
10
153.2713829999999859
20
-99.5839259999999911
11
153.2732539999999801
21
-99.6537699999999944
0
LINE
8
BLACK
6
CONTINUOUS
10
153.2732539999999801
20
-99.6537699999999944
11
153.2537030000000016
21
-99.6949180000000013
0
LINE
8
BLACK
6
CONTINUOUS
10
153.2537030000000016
20
-99.6949180000000013
11
153.1111290000000054
21
-99.8911549999999977
0
LINE
8
BLACK
6
CONTINUOUS
10
153.1111290000000054
20
-99.8911549999999977
11
152.9967599999999948
21
-100.1156159999999886
0
LINE
8
BLACK
6
CONTINUOUS
10
152.9967599999999948
20
-100.1156159999999886
11
152.9189099999999826
21
-100.3552139999999895
0
LINE
8
BLACK
6
CONTINUOUS
10
152.9189099999999826
20
-100.3552139999999895
11
152.8795000000000073
21
-100.6040379999999885
0
LINE
8
BLACK
6
CONTINUOUS
10
152.8795000000000073
20
-100.6040379999999885
11
152.8795000000000073
21
-100.8559609999999935
0
LINE
8
BLACK
6
CONTINUOUS
10
152.8795000000000073
20
-100.8559609999999935
11
152.9189099999999826
21
-101.1047849999999926
0
LINE
8
BLACK
6
CONTINUOUS
10
152.9189099999999826
20
-101.1047849999999926
11
152.9967599999999948
21
-101.3443829999999934
0
LINE
8
BLACK
6
CONTINUOUS
10
152.9967599999999948
20
-101.3443829999999934
11
153.0675119999999936
21
-101.4832389999999975
0
LINE
8
BLACK
6
CONTINUOUS
10
153.0675119999999936
20
-101.4832389999999975
11
153.1071780000000047
21
-101.5610889999999955
0
LINE
8
BLACK
6
CONTINUOUS
10
153.1071780000000047
20
-101.5610889999999955
11
153.1111319999999978
21
-101.5688479999999885
0
LINE
8
BLACK
6
CONTINUOUS
10
153.1111319999999978
20
-101.5688479999999885
11
153.2592009999999902
21
-101.7726490000000013
0
LINE
8
BLACK
6
CONTINUOUS
10
153.2592009999999902
20
-101.7726490000000013
11
153.2592049999999801
21
-101.7726539999999886
0
LINE
8
BLACK
6
CONTINUOUS
10
153.2592049999999801
20
-101.7726539999999886
11
153.3443699999999978
21
-101.8578189999999921
0
LINE
8
BLACK
6
CONTINUOUS
10
153.3443699999999978
20
-101.8578189999999921
11
153.3778549999999825
21
-101.9191419999999937
0
LINE
8
BLACK
6
CONTINUOUS
10
153.3778549999999825
20
-101.9191419999999937
11
153.3728710000000035
21
-101.9888339999999971
0
LINE
8
BLACK
6
CONTINUOUS
10
153.3728710000000035
20
-101.9888339999999971
11
153.3309989999999914
21
-102.0447669999999931
0
LINE
8
BLACK
6
CONTINUOUS
10
153.3309989999999914
20
-102.0447669999999931
11
153.2655349999999999
21
-102.0691839999999928
0
LINE
8
BLACK
6
CONTINUOUS
10
153.2655349999999999
20
-102.0691839999999928
11
153.2566889999999944
21
-102.0694999999999908
0
LINE
8
BLACK
6
CONTINUOUS
10
153.2566889999999944
20
-102.0694999999999908
11
152.7855140000000063
21
-102.0694999999999908
0
LINE
8
BLACK
6
CONTINUOUS
10
152.7855140000000063
20
-102.0694999999999908
11
152.5988810000000058
21
-102.0990589999999969
0
LINE
8
BLACK
6
CONTINUOUS
10
152.5988810000000058
20
-102.0990589999999969
11
152.4191629999999975
21
-102.1574540000000013
0
LINE
8
BLACK
6
CONTINUOUS
10
152.4191629999999975
20
-102.1574540000000013
11
152.2507990000000007
21
-102.2432400000000001
0
LINE
8
BLACK
6
CONTINUOUS
10
152.2507990000000007
20
-102.2432400000000001
11
152.1849409999999807
21
-102.291089999999997
0
LINE
8
BLACK
6
CONTINUOUS
10
152.1849409999999807
20
-102.291089999999997
11
152.101980999999995
21
-102.3513650000000013
0
LINE
8
BLACK
6
CONTINUOUS
10
152.101980999999995
20
-102.3513650000000013
11
152.1019780000000026
21
-102.3513669999999962
0
LINE
8
BLACK
6
CONTINUOUS
10
152.1019780000000026
20
-102.3513669999999962
11
152.0979319999999859
21
-102.3543049999999965
0
LINE
8
BLACK
6
CONTINUOUS
10
152.0979319999999859
20
-102.3543049999999965
11
152.0979209999999853
21
-102.3543149999999997
0
LINE
8
BLACK
6
CONTINUOUS
10
152.0979209999999853
20
-102.3543149999999997
11
150.0843079999999929
21
-104.3679269999999946
0
LINE
8
BLACK
6
CONTINUOUS
10
150.0843079999999929
20
-104.3679269999999946
11
150.084304000000003
21
-104.3679319999999962
0
LINE
8
BLACK
6
CONTINUOUS
10
150.084304000000003
20
-104.3679319999999962
11
150.0097859999999912
21
-104.4704989999999896
0
LINE
8
BLACK
6
CONTINUOUS
10
150.0097859999999912
20
-104.4704989999999896
11
150.0097859999999912
21
-104.4705000000000013
0
LINE
8
BLACK
6
CONTINUOUS
10
150.0097859999999912
20
-104.4705000000000013
11
149.9732400000000041
21
-104.5207999999999942
0
LINE
8
BLACK
6
CONTINUOUS
10
149.9732400000000041
20
-104.5207999999999942
11
149.8874539999999911
21
-104.6891629999999935
0
LINE
8
BLACK
6
CONTINUOUS
10
149.8874539999999911
20
-104.6891629999999935
11
149.8290590000000009
21
-104.8688810000000018
0
LINE
8
BLACK
6
CONTINUOUS
10
149.8290590000000009
20
-104.8688810000000018
11
149.7994999999999948
21
-105.0555129999999906
0
LINE
8
BLACK
6
CONTINUOUS
10
149.7994999999999948
20
-105.0555129999999906
11
149.7994999999999948
21
-106.1862309999999923
0
LINE
8
BLACK
6
CONTINUOUS
10
149.7994999999999948
20
-106.1862309999999923
11
149.779814999999985
21
-106.2532700000000006
0
LINE
8
BLACK
6
CONTINUOUS
10
149.779814999999985
20
-106.2532700000000006
11
149.7541640000000029
21
-106.282084999999995
0
LINE
8
BLACK
6
CONTINUOUS
10
149.7541640000000029
20
-106.282084999999995
11
149.7035889999999938
21
-106.3235889999999984
0
LINE
8
BLACK
6
CONTINUOUS
10
149.7035889999999938
20
-106.3235889999999984
11
149.5723169999999982
21
-106.4835470000000015
0
LINE
8
BLACK
6
CONTINUOUS
10
149.5723169999999982
20
-106.4835470000000015
11
149.5723150000000032
21
-106.4835499999999939
0
LINE
8
BLACK
6
CONTINUOUS
10
149.5723150000000032
20
-106.4835499999999939
11
149.5593089999999847
21
-106.5078819999999951
0
LINE
8
BLACK
6
CONTINUOUS
10
149.5593089999999847
20
-106.5078819999999951
11
149.4747689999999807
21
-106.6660430000000019
0
LINE
8
BLACK
6
CONTINUOUS
10
149.4747689999999807
20
-106.6660430000000019
11
149.4146989999999846
21
-106.8640669999999915
0
LINE
8
BLACK
6
CONTINUOUS
10
149.4146989999999846
20
-106.8640669999999915
11
149.3994999999999891
21
-107.0183949999999982
0
LINE
8
BLACK
6
CONTINUOUS
10
149.3994999999999891
20
-107.0183949999999982
11
149.3994999999999891
21
-108.2216039999999992
0
LINE
8
BLACK
6
CONTINUOUS
10
153.2033909999999821
20
-106.0600000000000023
11
153.2120089999999948
21
-106.114412999999999
0
LINE
8
BLACK
6
CONTINUOUS
10
153.2120089999999948
20
-106.114412999999999
11
153.2752439999999865
21
-106.3090289999999953
0
LINE
8
BLACK
6
CONTINUOUS
10
153.2752439999999865
20
-106.3090289999999953
11
153.3681399999999826
21
-106.4913489999999996
0
LINE
8
BLACK
6
CONTINUOUS
10
153.3681399999999826
20
-106.4913489999999996
11
153.4884169999999983
21
-106.6568939999999941
0
LINE
8
BLACK
6
CONTINUOUS
10
153.4884169999999983
20
-106.6568939999999941
11
153.4884169999999983
21
-106.6568949999999916
0
LINE
8
BLACK
6
CONTINUOUS
10
153.4884169999999983
20
-106.6568949999999916
11
153.633104000000003
21
-106.8015819999999962
0
LINE
8
BLACK
6
CONTINUOUS
10
153.633104000000003
20
-106.8015819999999962
11
153.7986499999999808
21
-106.9218589999999978
0
LINE
8
BLACK
6
CONTINUOUS
10
153.7986499999999808
20
-106.9218589999999978
11
153.9809679999999901
21
-107.0147549999999939
0
LINE
8
BLACK
6
CONTINUOUS
10
153.9809679999999901
20
-107.0147549999999939
11
154.1755819999999915
21
-107.0779899999999998
0
LINE
8
BLACK
6
CONTINUOUS
10
154.1755819999999915
20
-107.0779899999999998
11
154.3776829999999904
21
-107.1099999999999994
0
LINE
8
BLACK
6
CONTINUOUS
10
154.3776829999999904
20
-107.1099999999999994
11
154.6299999999999955
21
-107.1099999999999994
0
LINE
8
BLACK
6
CONTINUOUS
10
154.6299999999999955
20
-107.1099999999999994
11
154.6299999999999955
21
-106.6099999999999994
0
LINE
8
BLACK
6
CONTINUOUS
10
154.6299999999999955
20
-106.6099999999999994
11
154.4799999999999898
21
-106.6099999999999994
0
LINE
8
BLACK
6
CONTINUOUS
10
154.4799999999999898
20
-106.6099999999999994
11
154.4015859999999805
21
-106.6061479999999904
0
LINE
8
BLACK
6
CONTINUOUS
10
154.4015859999999805
20
-106.6061479999999904
11
154.2477719999999977
21
-106.5755520000000018
0
LINE
8
BLACK
6
CONTINUOUS
10
154.2477719999999977
20
-106.5755520000000018
11
154.1028829999999914
21
-106.5155369999999948
0
LINE
8
BLACK
6
CONTINUOUS
10
154.1028829999999914
20
-106.5155369999999948
11
153.972485000000006
21
-106.4284079999999904
0
LINE
8
BLACK
6
CONTINUOUS
10
153.972485000000006
20
-106.4284079999999904
11
153.8615920000000017
21
-106.3175150000000002
0
LINE
8
BLACK
6
CONTINUOUS
10
153.8615920000000017
20
-106.3175150000000002
11
153.7744629999999972
21
-106.1871170000000006
0
LINE
8
BLACK
6
CONTINUOUS
10
153.7744629999999972
20
-106.1871170000000006
11
153.7218089999999791
21
-106.0600000000000023
0
LINE
8
BLACK
6
CONTINUOUS
10
153.7218089999999791
20
-106.0600000000000023
11
153.2033909999999821
21
-106.0600000000000023
0
LINE
8
BLACK
6
CONTINUOUS
10
155.1299999999999955
20
-107.1099999999999994
11
155.3823170000000005
21
-107.1099999999999994
0
LINE
8
BLACK
6
CONTINUOUS
10
155.3823170000000005
20
-107.1099999999999994
11
155.5825920000000053
21
-107.0782779999999974
0
LINE
8
BLACK
6
CONTINUOUS
10
155.5825920000000053
20
-107.0782779999999974
11
155.1299999999999955
21
-106.6256860000000017
0
LINE
8
BLACK
6
CONTINUOUS
10
155.1299999999999955
20
-106.6256860000000017
11
155.1299999999999955
21
-107.1099999999999994
0
LINE
8
BLACK
6
CONTINUOUS
10
174.013198999999986
20
-106.1698579999999907
11
173.8786120000000039
21
-106.1966290000000015
0
LINE
8
BLACK
6
CONTINUOUS
10
173.8786120000000039
20
-106.1966290000000015
11
173.7413880000000006
21
-106.1966290000000015
0
LINE
8
BLACK
6
CONTINUOUS
10
173.7413880000000006
20
-106.1966290000000015
11
173.6893969999999854
21
-106.186286999999993
0
LINE
8
BLACK
6
CONTINUOUS
10
173.6893969999999854
20
-106.186286999999993
11
173.2925479999999823
21
-106.5831359999999961
0
LINE
8
BLACK
6
CONTINUOUS
10
173.2925479999999823
20
-106.5831359999999961
11
173.3493619999999851
21
-106.6120849999999933
0
LINE
8
BLACK
6
CONTINUOUS
10
173.3493619999999851
20
-106.6120849999999933
11
173.5289970000000039
21
-106.6704509999999999
0
LINE
8
BLACK
6
CONTINUOUS
10
173.5289970000000039
20
-106.6704509999999999
11
173.7155529999999999
21
-106.6999999999999886
0
LINE
8
BLACK
6
CONTINUOUS
10
173.7155529999999999
20
-106.6999999999999886
11
173.9044470000000047
21
-106.6999999999999886
0
LINE
8
BLACK
6
CONTINUOUS
10
173.9044470000000047
20
-106.6999999999999886
11
174.0910020000000031
21
-106.6704509999999999
0
LINE
8
BLACK
6
CONTINUOUS
10
174.0910020000000031
20
-106.6704509999999999
11
174.2706369999999936
21
-106.6120849999999933
0
LINE
8
BLACK
6
CONTINUOUS
10
174.2706369999999936
20
-106.6120849999999933
11
174.4389369999999815
21
-106.526330999999999
0
LINE
8
BLACK
6
CONTINUOUS
10
174.4389369999999815
20
-106.526330999999999
11
174.4643279999999947
21
-106.5078829999999925
0
LINE
8
BLACK
6
CONTINUOUS
10
174.4643279999999947
20
-106.5078829999999925
11
174.4643279999999947
21
-106.5078819999999951
0
LINE
8
BLACK
6
CONTINUOUS
10
174.4643279999999947
20
-106.5078819999999951
11
174.0931759999999997
21
-106.13673
0
LINE
8
BLACK
6
CONTINUOUS
10
174.0931759999999997
20
-106.13673
11
174.013198999999986
21
-106.1698579999999907
0
LINE
8
BLACK
6
CONTINUOUS
10
174.4467300000000023
20
-105.2168219999999934
11
174.4798579999999788
21
-105.2968010000000021
0
LINE
8
BLACK
6
CONTINUOUS
10
174.4798579999999788
20
-105.2968010000000021
11
174.5066290000000038
21
-105.4313879999999983
0
LINE
8
BLACK
6
CONTINUOUS
10
174.5066290000000038
20
-105.4313879999999983
11
174.5066290000000038
21
-105.5686120000000017
0
LINE
8
BLACK
6
CONTINUOUS
10
174.5066290000000038
20
-105.5686120000000017
11
174.4798579999999788
21
-105.7031989999999979
0
LINE
8
BLACK
6
CONTINUOUS
10
174.4798579999999788
20
-105.7031989999999979
11
174.4467300000000023
21
-105.7831759999999974
0
LINE
8
BLACK
6
CONTINUOUS
10
174.4467300000000023
20
-105.7831759999999974
11
174.8178819999999973
21
-106.1543279999999925
0
LINE
8
BLACK
6
CONTINUOUS
10
174.8178819999999973
20
-106.1543279999999925
11
174.8178829999999948
21
-106.1543279999999925
0
LINE
8
BLACK
6
CONTINUOUS
10
174.8178829999999948
20
-106.1543279999999925
11
174.8363310000000013
21
-106.1289369999999934
0
LINE
8
BLACK
6
CONTINUOUS
10
174.8363310000000013
20
-106.1289369999999934
11
174.9220849999999814
21
-105.9606369999999913
0
LINE
8
BLACK
6
CONTINUOUS
10
174.9220849999999814
20
-105.9606369999999913
11
174.980450999999988
21
-105.7810020000000009
0
LINE
8
BLACK
6
CONTINUOUS
10
174.980450999999988
20
-105.7810020000000009
11
175.0099999999999909
21
-105.5944469999999882
0
LINE
8
BLACK
6
CONTINUOUS
10
175.0099999999999909
20
-105.5944469999999882
11
175.0099999999999909
21
-105.4055520000000001
0
LINE
8
BLACK
6
CONTINUOUS
10
175.0099999999999909
20
-105.4055520000000001
11
174.980450999999988
21
-105.2189970000000017
0
LINE
8
BLACK
6
CONTINUOUS
10
174.980450999999988
20
-105.2189970000000017
11
174.9220849999999814
21
-105.039361999999997
0
LINE
8
BLACK
6
CONTINUOUS
10
174.9220849999999814
20
-105.039361999999997
11
174.8363289999999779
21
-104.8710589999999883
0
LINE
8
BLACK
6
CONTINUOUS
10
174.8363289999999779
20
-104.8710589999999883
11
174.8178829999999948
21
-104.8456699999999984
0
LINE
8
BLACK
6
CONTINUOUS
10
174.8178829999999948
20
-104.8456699999999984
11
174.8178819999999973
21
-104.8456690000000009
0
LINE
8
BLACK
6
CONTINUOUS
10
174.8178819999999973
20
-104.8456690000000009
11
174.4467300000000023
21
-105.2168219999999934
0
LINE
8
BLACK
6
CONTINUOUS
10
174.2099999999999795
20
-104.7464449999999943
11
174.4643279999999947
21
-104.4921159999999958
0
LINE
8
BLACK
6
CONTINUOUS
10
174.4643279999999947
20
-104.4921159999999958
11
174.4389329999999916
21
-104.4736659999999944
0
LINE
8
BLACK
6
CONTINUOUS
10
174.4389329999999916
20
-104.4736659999999944
11
174.2706369999999936
21
-104.387913999999995
0
LINE
8
BLACK
6
CONTINUOUS
10
174.2706369999999936
20
-104.387913999999995
11
174.2099999999999795
21
-104.3682119999999998
0
LINE
8
BLACK
6
CONTINUOUS
10
174.2099999999999795
20
-104.3682119999999998
11
174.2099999999999795
21
-104.7464449999999943
0
LINE
8
BLACK
6
CONTINUOUS
10
174.2099999999999795
20
-103.1317859999999911
11
174.2706369999999936
21
-103.1120849999999933
0
LINE
8
BLACK
6
CONTINUOUS
10
174.2706369999999936
20
-103.1120849999999933
11
174.4389369999999815
21
-103.026330999999999
0
LINE
8
BLACK
6
CONTINUOUS
10
174.4389369999999815
20
-103.026330999999999
11
174.4643279999999947
21
-103.0078829999999925
0
LINE
8
BLACK
6
CONTINUOUS
10
174.4643279999999947
20
-103.0078829999999925
11
174.4643279999999947
21
-103.0078819999999951
0
LINE
8
BLACK
6
CONTINUOUS
10
174.4643279999999947
20
-103.0078819999999951
11
174.2099999999999795
21
-102.7535529999999966
0
LINE
8
BLACK
6
CONTINUOUS
10
174.2099999999999795
20
-102.7535529999999966
11
174.2099999999999795
21
-103.1317859999999911
0
LINE
8
BLACK
6
CONTINUOUS
10
174.4467300000000023
20
-101.7168219999999934
11
174.4798579999999788
21
-101.7968010000000021
0
LINE
8
BLACK
6
CONTINUOUS
10
174.4798579999999788
20
-101.7968010000000021
11
174.5066290000000038
21
-101.9313879999999983
0
LINE
8
BLACK
6
CONTINUOUS
10
174.5066290000000038
20
-101.9313879999999983
11
174.5066290000000038
21
-102.0686120000000017
0
LINE
8
BLACK
6
CONTINUOUS
10
174.5066290000000038
20
-102.0686120000000017
11
174.4798579999999788
21
-102.2031989999999979
0
LINE
8
BLACK
6
CONTINUOUS
10
174.4798579999999788
20
-102.2031989999999979
11
174.4467300000000023
21
-102.2831759999999974
0
LINE
8
BLACK
6
CONTINUOUS
10
174.4467300000000023
20
-102.2831759999999974
11
174.8178819999999973
21
-102.6543279999999925
0
LINE
8
BLACK
6
CONTINUOUS
10
174.8178819999999973
20
-102.6543279999999925
11
174.8178829999999948
21
-102.6543279999999925
0
LINE
8
BLACK
6
CONTINUOUS
10
174.8178829999999948
20
-102.6543279999999925
11
174.8363310000000013
21
-102.6289369999999934
0
LINE
8
BLACK
6
CONTINUOUS
10
174.8363310000000013
20
-102.6289369999999934
11
174.9220849999999814
21
-102.4606369999999913
0
LINE
8
BLACK
6
CONTINUOUS
10
174.9220849999999814
20
-102.4606369999999913
11
174.980450999999988
21
-102.2810020000000009
0
LINE
8
BLACK
6
CONTINUOUS
10
174.980450999999988
20
-102.2810020000000009
11
175.0099999999999909
21
-102.0944470000000024
0
LINE
8
BLACK
6
CONTINUOUS
10
175.0099999999999909
20
-102.0944470000000024
11
175.0099999999999909
21
-101.9055520000000001
0
LINE
8
BLACK
6
CONTINUOUS
10
175.0099999999999909
20
-101.9055520000000001
11
174.980450999999988
21
-101.7189970000000017
0
LINE
8
BLACK
6
CONTINUOUS
10
174.980450999999988
20
-101.7189970000000017
11
174.9220849999999814
21
-101.539361999999997
0
LINE
8
BLACK
6
CONTINUOUS
10
174.9220849999999814
20
-101.539361999999997
11
174.8363289999999779
21
-101.3710590000000025
0
LINE
8
BLACK
6
CONTINUOUS
10
174.8363289999999779
20
-101.3710590000000025
11
174.8178829999999948
21
-101.3456699999999984
0
LINE
8
BLACK
6
CONTINUOUS
10
174.8178829999999948
20
-101.3456699999999984
11
174.8178819999999973
21
-101.3456690000000009
0
LINE
8
BLACK
6
CONTINUOUS
10
174.8178819999999973
20
-101.3456690000000009
11
174.4467300000000023
21
-101.7168219999999934
0
LINE
8
BLACK
6
CONTINUOUS
10
149.3495000000000061
20
-97.3949599999999975
11
149.3646300000000053
21
-97.529248999999993
0
LINE
8
BLACK
6
CONTINUOUS
10
149.3646300000000053
20
-97.529248999999993
11
149.3646310000000028
21
-97.5292539999999946
0
LINE
8
BLACK
6
CONTINUOUS
10
149.3646310000000028
20
-97.5292539999999946
11
149.4242109999999855
21
-97.6995229999999992
0
LINE
8
BLACK
6
CONTINUOUS
10
149.4242109999999855
20
-97.6995229999999992
11
149.5201840000000004
21
-97.8522619999999961
0
LINE
8
BLACK
6
CONTINUOUS
10
149.5201840000000004
20
-97.8522619999999961
11
149.6477399999999989
21
-97.9798179999999945
0
LINE
8
BLACK
6
CONTINUOUS
10
149.6477399999999989
20
-97.9798179999999945
11
149.74147099999999
21
-98.0387119999999896
0
LINE
8
BLACK
6
CONTINUOUS
10
149.74147099999999
20
-98.0387119999999896
11
149.787762999999984
21
-98.0910459999999915
0
LINE
8
BLACK
6
CONTINUOUS
10
149.787762999999984
20
-98.0910459999999915
11
149.7994999999999948
21
-98.1437059999999946
0
LINE
8
BLACK
6
CONTINUOUS
10
149.7994999999999948
20
-98.1437059999999946
11
149.7994999999999948
21
-98.8891220000000004
0
LINE
8
BLACK
6
CONTINUOUS
10
149.7994999999999948
20
-98.8891220000000004
11
149.779814999999985
21
-98.9561609999999945
0
LINE
8
BLACK
6
CONTINUOUS
10
149.779814999999985
20
-98.9561609999999945
11
149.7758179999999868
21
-98.9620069999999998
0
LINE
8
BLACK
6
CONTINUOUS
10
149.7758179999999868
20
-98.9620069999999998
11
149.6311319999999796
21
-99.1611509999999896
0
LINE
8
BLACK
6
CONTINUOUS
10
149.6311319999999796
20
-99.1611509999999896
11
149.516760000000005
21
-99.3856159999999988
0
LINE
8
BLACK
6
CONTINUOUS
10
149.516760000000005
20
-99.3856159999999988
11
149.4389099999999928
21
-99.6252139999999997
0
LINE
8
BLACK
6
CONTINUOUS
10
149.4389099999999928
20
-99.6252139999999997
11
149.3994999999999891
21
-99.8740379999999988
0
LINE
8
BLACK
6
CONTINUOUS
10
149.3994999999999891
20
-99.8740379999999988
11
149.3994999999999891
21
-100.1259609999999896
0
LINE
8
BLACK
6
CONTINUOUS
10
149.3994999999999891
20
-100.1259609999999896
11
149.4389099999999928
21
-100.3747849999999886
0
LINE
8
BLACK
6
CONTINUOUS
10
149.4389099999999928
20
-100.3747849999999886
11
149.516760000000005
21
-100.6143829999999895
0
LINE
8
BLACK
6
CONTINUOUS
10
149.516760000000005
20
-100.6143829999999895
11
149.6311319999999796
21
-100.8388479999999987
0
LINE
8
BLACK
6
CONTINUOUS
10
149.6311319999999796
20
-100.8388479999999987
11
149.7792010000000005
21
-101.0426489999999973
0
LINE
8
BLACK
6
CONTINUOUS
10
149.7792010000000005
20
-101.0426489999999973
11
149.7792049999999904
21
-101.0426539999999989
0
LINE
8
BLACK
6
CONTINUOUS
10
149.7792049999999904
20
-101.0426539999999989
11
149.9573450000000037
21
-101.2207939999999979
0
LINE
8
BLACK
6
CONTINUOUS
10
149.9573450000000037
20
-101.2207939999999979
11
149.957349999999991
21
-101.220798000000002
0
LINE
8
BLACK
6
CONTINUOUS
10
149.957349999999991
20
-101.220798000000002
11
150.127445999999992
21
-101.3443789999999893
0
LINE
8
BLACK
6
CONTINUOUS
10
150.127445999999992
20
-101.3443789999999893
11
150.1611549999999795
21
-101.3688700000000011
0
LINE
8
BLACK
6
CONTINUOUS
10
150.1611549999999795
20
-101.3688700000000011
11
150.269360000000006
21
-101.424002999999999
0
LINE
8
BLACK
6
CONTINUOUS
10
150.269360000000006
20
-101.424002999999999
11
150.3856159999999988
21
-101.4832389999999975
0
LINE
8
BLACK
6
CONTINUOUS
10
150.3856159999999988
20
-101.4832389999999975
11
150.3856179999999938
21
-101.4832389999999975
0
LINE
8
BLACK
6
CONTINUOUS
10
150.3856179999999938
20
-101.4832389999999975
11
150.3856209999999862
21
-101.4832409999999925
0
LINE
8
BLACK
6
CONTINUOUS
10
150.3856209999999862
20
-101.4832409999999925
11
150.6252149999999972
21
-101.561089999999993
0
LINE
8
BLACK
6
CONTINUOUS
10
150.6252149999999972
20
-101.561089999999993
11
150.8740379999999845
21
-101.6004999999999967
0
LINE
8
BLACK
6
CONTINUOUS
10
150.8740379999999845
20
-101.6004999999999967
11
150.874038999999982
21
-101.6004999999999967
0
LINE
8
BLACK
6
CONTINUOUS
10
150.874038999999982
20
-101.6004999999999967
11
151.1259609999999896
21
-101.6004999999999967
0
LINE
8
BLACK
6
CONTINUOUS
10
151.1259609999999896
20
-101.6004999999999967
11
151.125961999999987
21
-101.6004999999999967
0
LINE
8
BLACK
6
CONTINUOUS
10
151.125961999999987
20
-101.6004999999999967
11
151.3747850000000028
21
-101.561089999999993
0
LINE
8
BLACK
6
CONTINUOUS
10
151.3747850000000028
20
-101.561089999999993
11
151.6143789999999854
21
-101.4832409999999925
0
LINE
8
BLACK
6
CONTINUOUS
10
151.6143789999999854
20
-101.4832409999999925
11
151.8388449999999921
21
-101.3688700000000011
0
LINE
8
BLACK
6
CONTINUOUS
10
151.8388449999999921
20
-101.3688700000000011
11
152.0426559999999938
21
-101.2207930000000005
0
LINE
8
BLACK
6
CONTINUOUS
10
152.0426559999999938
20
-101.2207930000000005
11
152.2207929999999863
21
-101.0426559999999938
0
LINE
8
BLACK
6
CONTINUOUS
10
152.2207929999999863
20
-101.0426559999999938
11
152.3688699999999869
21
-100.8388449999999921
0
LINE
8
BLACK
6
CONTINUOUS
10
152.3688699999999869
20
-100.8388449999999921
11
152.4832409999999925
21
-100.6143789999999996
0
LINE
8
BLACK
6
CONTINUOUS
10
152.4832409999999925
20
-100.6143789999999996
11
152.5610900000000072
21
-100.3747849999999886
0
LINE
8
BLACK
6
CONTINUOUS
10
152.5610900000000072
20
-100.3747849999999886
11
152.6004999999999825
21
-100.1259620000000012
0
LINE
8
BLACK
6
CONTINUOUS
10
152.6004999999999825
20
-100.1259620000000012
11
152.6004999999999825
21
-99.8740379999999988
0
LINE
8
BLACK
6
CONTINUOUS
10
152.6004999999999825
20
-99.8740379999999988
11
152.5610900000000072
21
-99.6252149999999972
0
LINE
8
BLACK
6
CONTINUOUS
10
152.5610900000000072
20
-99.6252149999999972
11
152.4832409999999925
21
-99.3856210000000004
0
LINE
8
BLACK
6
CONTINUOUS
10
152.4832409999999925
20
-99.3856210000000004
11
152.4832389999999975
21
-99.3856179999999938
0
LINE
8
BLACK
6
CONTINUOUS
10
152.4832389999999975
20
-99.3856179999999938
11
152.4832389999999975
21
-99.3856159999999988
0
LINE
8
BLACK
6
CONTINUOUS
10
152.4832389999999975
20
-99.3856159999999988
11
152.4327020000000061
21
-99.2864330000000024
0
LINE
8
BLACK
6
CONTINUOUS
10
152.4327020000000061
20
-99.2864330000000024
11
152.3688699999999869
21
-99.1611549999999937
0
LINE
8
BLACK
6
CONTINUOUS
10
152.3688699999999869
20
-99.1611549999999937
11
152.2727439999999888
21
-99.0288479999999964
0
LINE
8
BLACK
6
CONTINUOUS
10
152.2727439999999888
20
-99.0288479999999964
11
152.2241819999999848
21
-98.9620069999999998
0
LINE
8
BLACK
6
CONTINUOUS
10
152.2241819999999848
20
-98.9620069999999998
11
152.2007020000000068
21
-98.8962009999999907
0
LINE
8
BLACK
6
CONTINUOUS
10
152.2007020000000068
20
-98.8962009999999907
11
152.2005000000000052
21
-98.8891220000000004
0
LINE
8
BLACK
6
CONTINUOUS
10
152.2005000000000052
20
-98.8891220000000004
11
152.2005000000000052
21
-98.1437059999999946
0
LINE
8
BLACK
6
CONTINUOUS
10
152.2005000000000052
20
-98.1437059999999946
11
152.2201849999999865
21
-98.0766670000000005
0
LINE
8
BLACK
6
CONTINUOUS
10
152.2201849999999865
20
-98.0766670000000005
11
152.2585289999999816
21
-98.0387119999999896
0
LINE
8
BLACK
6
CONTINUOUS
10
152.2585289999999816
20
-98.0387119999999896
11
152.3522590000000037
21
-97.9798179999999945
0
LINE
8
BLACK
6
CONTINUOUS
10
152.3522590000000037
20
-97.9798179999999945
11
152.3522590000000037
21
-97.9798169999999971
0
LINE
8
BLACK
6
CONTINUOUS
10
152.3522590000000037
20
-97.9798169999999971
11
152.3522619999999961
21
-97.9798159999999996
0
LINE
8
BLACK
6
CONTINUOUS
10
152.3522619999999961
20
-97.9798159999999996
11
152.4798159999999996
21
-97.8522619999999961
0
LINE
8
BLACK
6
CONTINUOUS
10
152.4798159999999996
20
-97.8522619999999961
11
152.5757889999999861
21
-97.6995220000000018
0
LINE
8
BLACK
6
CONTINUOUS
10
152.5757889999999861
20
-97.6995220000000018
11
152.6353679999999997
21
-97.529254999999992
0
LINE
8
BLACK
6
CONTINUOUS
10
152.6353679999999997
20
-97.529254999999992
11
152.6504999999999939
21
-97.3949539999999985
0
LINE
8
BLACK
6
CONTINUOUS
10
152.6504999999999939
20
-97.3949539999999985
11
152.6504999999999939
21
-95.6050460000000015
0
LINE
8
BLACK
6
CONTINUOUS
10
152.6504999999999939
20
-95.6050460000000015
11
152.6353679999999997
21
-95.4707449999999938
0
LINE
8
BLACK
6
CONTINUOUS
10
152.6353679999999997
20
-95.4707449999999938
11
152.5757889999999861
21
-95.3004779999999982
0
LINE
8
BLACK
6
CONTINUOUS
10
152.5757889999999861
20
-95.3004779999999982
11
152.4798159999999996
21
-95.1477379999999897
0
LINE
8
BLACK
6
CONTINUOUS
10
152.4798159999999996
20
-95.1477379999999897
11
152.3522619999999961
21
-95.0201840000000004
0
LINE
8
BLACK
6
CONTINUOUS
10
152.3522619999999961
20
-95.0201840000000004
11
152.1995229999999992
21
-94.9242109999999997
0
LINE
8
BLACK
6
CONTINUOUS
10
152.1995229999999992
20
-94.9242109999999997
11
152.0292539999999804
21
-94.8646309999999886
0
LINE
8
BLACK
6
CONTINUOUS
10
152.0292539999999804
20
-94.8646309999999886
11
152.029248999999993
21
-94.8646299999999911
0
LINE
8
BLACK
6
CONTINUOUS
10
152.029248999999993
20
-94.8646299999999911
11
151.8949599999999975
21
-94.8494999999999919
0
LINE
8
BLACK
6
CONTINUOUS
10
151.8949599999999975
20
-94.8494999999999919
11
151.8949539999999843
21
-94.8494999999999919
0
LINE
8
BLACK
6
CONTINUOUS
10
151.8949539999999843
20
-94.8494999999999919
11
150.1050459999999873
21
-94.8494999999999919
0
LINE
8
BLACK
6
CONTINUOUS
10
150.1050459999999873
20
-94.8494999999999919
11
150.105039000000005
21
-94.8494999999999919
0
LINE
8
BLACK
6
CONTINUOUS
10
150.105039000000005
20
-94.8494999999999919
11
149.9707499999999811
21
-94.8646299999999911
0
LINE
8
BLACK
6
CONTINUOUS
10
149.9707499999999811
20
-94.8646299999999911
11
149.9707449999999938
21
-94.8646309999999886
0
LINE
8
BLACK
6
CONTINUOUS
10
149.9707449999999938
20
-94.8646309999999886
11
149.8004760000000033
21
-94.9242109999999997
0
LINE
8
BLACK
6
CONTINUOUS
10
149.8004760000000033
20
-94.9242109999999997
11
149.6477370000000064
21
-95.0201840000000004
0
LINE
8
BLACK
6
CONTINUOUS
10
149.6477370000000064
20
-95.0201840000000004
11
149.5201840000000004
21
-95.1477369999999922
0
LINE
8
BLACK
6
CONTINUOUS
10
149.5201840000000004
20
-95.1477369999999922
11
149.4242109999999855
21
-95.3004759999999891
0
LINE
8
BLACK
6
CONTINUOUS
10
149.4242109999999855
20
-95.3004759999999891
11
149.3646310000000028
21
-95.4707449999999938
0
LINE
8
BLACK
6
CONTINUOUS
10
149.3646310000000028
20
-95.4707449999999938
11
149.3646300000000053
21
-95.4707499999999953
0
LINE
8
BLACK
6
CONTINUOUS
10
149.3646300000000053
20
-95.4707499999999953
11
149.3495000000000061
21
-95.6050389999999908
0
LINE
8
BLACK
6
CONTINUOUS
10
149.3495000000000061
20
-95.6050389999999908
11
149.3495000000000061
21
-97.3949599999999975
0
LINE
8
BLACK
6
CONTINUOUS
10
144.6194999999999879
20
-92.044959999999989
11
144.6346299999999871
21
-92.1792489999999987
0
LINE
8
BLACK
6
CONTINUOUS
10
144.6346299999999871
20
-92.1792489999999987
11
144.6346309999999846
21
-92.1792540000000002
0
LINE
8
BLACK
6
CONTINUOUS
10
144.6346309999999846
20
-92.1792540000000002
11
144.6942109999999957
21
-92.3495229999999907
0
LINE
8
BLACK
6
CONTINUOUS
10
144.6942109999999957
20
-92.3495229999999907
11
144.7044719999999813
21
-92.3658530000000013
0
LINE
8
BLACK
6
CONTINUOUS
10
144.7044719999999813
20
-92.3658530000000013
11
144.7901839999999822
21
-92.5022620000000018
0
LINE
8
BLACK
6
CONTINUOUS
10
144.7901839999999822
20
-92.5022620000000018
11
144.9177379999999857
21
-92.629815999999991
0
LINE
8
BLACK
6
CONTINUOUS
10
144.9177379999999857
20
-92.629815999999991
11
145.0704779999999801
21
-92.7257889999999918
0
LINE
8
BLACK
6
CONTINUOUS
10
145.0704779999999801
20
-92.7257889999999918
11
145.160585999999995
21
-92.7573189999999954
0
LINE
8
BLACK
6
CONTINUOUS
10
145.160585999999995
20
-92.7573189999999954
11
145.240745000000004
21
-92.7853679999999912
0
LINE
8
BLACK
6
CONTINUOUS
10
145.240745000000004
20
-92.7853679999999912
11
145.2407499999999914
21
-92.7853690000000029
0
LINE
8
BLACK
6
CONTINUOUS
10
145.2407499999999914
20
-92.7853690000000029
11
145.331245999999993
21
-92.7955649999999963
0
LINE
8
BLACK
6
CONTINUOUS
10
145.331245999999993
20
-92.7955649999999963
11
145.3750399999999843
21
-92.8004990000000021
0
LINE
8
BLACK
6
CONTINUOUS
10
145.3750399999999843
20
-92.8004990000000021
11
145.3750430000000051
21
-92.8004999999999995
0
LINE
8
BLACK
6
CONTINUOUS
10
145.3750430000000051
20
-92.8004999999999995
11
145.3750459999999975
21
-92.8004999999999995
0
LINE
8
BLACK
6
CONTINUOUS
10
145.3750459999999975
20
-92.8004999999999995
11
148.4649569999999983
21
-92.8004999999999995
0
LINE
8
BLACK
6
CONTINUOUS
10
148.4649569999999983
20
-92.8004999999999995
11
148.4649579999999958
21
-92.8004990000000021
0
LINE
8
BLACK
6
CONTINUOUS
10
148.4649579999999958
20
-92.8004990000000021
11
148.5321040000000039
21
-92.7929340000000025
0
LINE
8
BLACK
6
CONTINUOUS
10
148.5321040000000039
20
-92.7929340000000025
11
148.5992489999999862
21
-92.7853690000000029
0
LINE
8
BLACK
6
CONTINUOUS
10
148.5992489999999862
20
-92.7853690000000029
11
148.599252000000007
21
-92.7853679999999912
0
LINE
8
BLACK
6
CONTINUOUS
10
148.599252000000007
20
-92.7853679999999912
11
148.5992549999999994
21
-92.7853679999999912
0
LINE
8
BLACK
6
CONTINUOUS
10
148.5992549999999994
20
-92.7853679999999912
11
148.7695219999999949
21
-92.7257889999999918
0
LINE
8
BLACK
6
CONTINUOUS
10
148.7695219999999949
20
-92.7257889999999918
11
148.9222619999999893
21
-92.629815999999991
0
LINE
8
BLACK
6
CONTINUOUS
10
148.9222619999999893
20
-92.629815999999991
11
149.0498159999999928
21
-92.5022620000000018
0
LINE
8
BLACK
6
CONTINUOUS
10
149.0498159999999928
20
-92.5022620000000018
11
149.1457889999999793
21
-92.3495219999999932
0
LINE
8
BLACK
6
CONTINUOUS
10
149.1457889999999793
20
-92.3495219999999932
11
149.2053679999999929
21
-92.1792549999999977
0
LINE
8
BLACK
6
CONTINUOUS
10
149.2053679999999929
20
-92.1792549999999977
11
149.220499999999987
21
-92.0449539999999899
0
LINE
8
BLACK
6
CONTINUOUS
10
149.220499999999987
20
-92.0449539999999899
11
149.220499999999987
21
-88.9550459999999958
0
LINE
8
BLACK
6
CONTINUOUS
10
149.220499999999987
20
-88.9550459999999958
11
149.2140599999999893
21
-88.8978910000000013
0
LINE
8
BLACK
6
CONTINUOUS
10
149.2140599999999893
20
-88.8978910000000013
11
149.2053689999999904
21
-88.8207499999999897
0
LINE
8
BLACK
6
CONTINUOUS
10
149.2053689999999904
20
-88.8207499999999897
11
149.2053679999999929
21
-88.8207450000000023
0
LINE
8
BLACK
6
CONTINUOUS
10
149.2053679999999929
20
-88.8207450000000023
11
149.1943239999999946
21
-88.7891829999999942
0
LINE
8
BLACK
6
CONTINUOUS
10
149.1943239999999946
20
-88.7891829999999942
11
149.1457889999999793
21
-88.6504779999999926
0
LINE
8
BLACK
6
CONTINUOUS
10
149.1457889999999793
20
-88.6504779999999926
11
149.0498159999999928
21
-88.4977379999999982
0
LINE
8
BLACK
6
CONTINUOUS
10
149.0498159999999928
20
-88.4977379999999982
11
148.9222619999999893
21
-88.3701839999999947
0
LINE
8
BLACK
6
CONTINUOUS
10
148.9222619999999893
20
-88.3701839999999947
11
148.8374819999999943
21
-88.3169129999999996
0
LINE
8
BLACK
6
CONTINUOUS
10
148.8374819999999943
20
-88.3169129999999996
11
148.7695229999999924
21
-88.274210999999994
0
LINE
8
BLACK
6
CONTINUOUS
10
148.7695229999999924
20
-88.274210999999994
11
148.599254000000002
21
-88.2146309999999971
0
LINE
8
BLACK
6
CONTINUOUS
10
148.599254000000002
20
-88.2146309999999971
11
148.5992489999999862
21
-88.2146299999999997
0
LINE
8
BLACK
6
CONTINUOUS
10
148.5992489999999862
20
-88.2146299999999997
11
148.4649599999999907
21
-88.1995000000000005
0
LINE
8
BLACK
6
CONTINUOUS
10
148.4649599999999907
20
-88.1995000000000005
11
148.4649540000000059
21
-88.1995000000000005
0
LINE
8
BLACK
6
CONTINUOUS
10
148.4649540000000059
20
-88.1995000000000005
11
145.3750459999999975
21
-88.1995000000000005
0
LINE
8
BLACK
6
CONTINUOUS
10
145.3750459999999975
20
-88.1995000000000005
11
145.3750389999999868
21
-88.1995000000000005
0
LINE
8
BLACK
6
CONTINUOUS
10
145.3750389999999868
20
-88.1995000000000005
11
145.2407499999999914
21
-88.2146299999999997
0
LINE
8
BLACK
6
CONTINUOUS
10
145.2407499999999914
20
-88.2146299999999997
11
145.240745000000004
21
-88.2146309999999971
0
LINE
8
BLACK
6
CONTINUOUS
10
145.240745000000004
20
-88.2146309999999971
11
145.0704759999999851
21
-88.274210999999994
0
LINE
8
BLACK
6
CONTINUOUS
10
145.0704759999999851
20
-88.274210999999994
11
144.9177369999999883
21
-88.3701839999999947
0
LINE
8
BLACK
6
CONTINUOUS
10
144.9177369999999883
20
-88.3701839999999947
11
144.7901839999999822
21
-88.4977370000000008
0
LINE
8
BLACK
6
CONTINUOUS
10
144.7901839999999822
20
-88.4977370000000008
11
144.6942109999999957
21
-88.6504759999999976
0
LINE
8
BLACK
6
CONTINUOUS
10
144.6942109999999957
20
-88.6504759999999976
11
144.6346309999999846
21
-88.8207450000000023
0
LINE
8
BLACK
6
CONTINUOUS
10
144.6346309999999846
20
-88.8207450000000023
11
144.6346299999999871
21
-88.8207499999999897
0
LINE
8
BLACK
6
CONTINUOUS
10
144.6346299999999871
20
-88.8207499999999897
11
144.6194999999999879
21
-88.9550389999999993
0
LINE
8
BLACK
6
CONTINUOUS
10
144.6194999999999879
20
-88.9550389999999993
11
144.6194999999999879
21
-92.044959999999989
0
LINE
8
BLACK
6
CONTINUOUS
10
172.6099999999999852
20
-105.5944469999999882
11
172.6395479999999907
21
-105.7810020000000009
0
LINE
8
BLACK
6
CONTINUOUS
10
172.6395479999999907
20
-105.7810020000000009
11
172.6979139999999973
21
-105.9606369999999913
0
LINE
8
BLACK
6
CONTINUOUS
10
172.6979139999999973
20
-105.9606369999999913
11
172.7268619999999828
21
-106.0174509999999941
0
LINE
8
BLACK
6
CONTINUOUS
10
172.7268619999999828
20
-106.0174509999999941
11
173.1237119999999834
21
-105.620601999999991
0
LINE
8
BLACK
6
CONTINUOUS
10
173.1237119999999834
20
-105.620601999999991
11
173.1133710000000008
21
-105.5686120000000017
0
LINE
8
BLACK
6
CONTINUOUS
10
173.1133710000000008
20
-105.5686120000000017
11
173.1133710000000008
21
-105.4313879999999983
0
LINE
8
BLACK
6
CONTINUOUS
10
173.1133710000000008
20
-105.4313879999999983
11
173.1401419999999973
21
-105.2968010000000021
0
LINE
8
BLACK
6
CONTINUOUS
10
173.1401419999999973
20
-105.2968010000000021
11
173.1732690000000048
21
-105.2168219999999934
0
LINE
8
BLACK
6
CONTINUOUS
10
173.1732690000000048
20
-105.2168219999999934
11
172.8021159999999838
21
-104.8456690000000009
0
LINE
8
BLACK
6
CONTINUOUS
10
172.8021159999999838
20
-104.8456690000000009
11
172.8021159999999838
21
-104.8456699999999984
0
LINE
8
BLACK
6
CONTINUOUS
10
172.8021159999999838
20
-104.8456699999999984
11
172.7836690000000033
21
-104.8710599999999999
0
LINE
8
BLACK
6
CONTINUOUS
10
172.7836690000000033
20
-104.8710599999999999
11
172.6979139999999973
21
-105.039361999999997
0
LINE
8
BLACK
6
CONTINUOUS
10
172.6979139999999973
20
-105.039361999999997
11
172.6395479999999907
21
-105.2189970000000017
0
LINE
8
BLACK
6
CONTINUOUS
10
172.6395479999999907
20
-105.2189970000000017
11
172.6099999999999852
21
-105.4055520000000001
0
LINE
8
BLACK
6
CONTINUOUS
10
172.6099999999999852
20
-105.4055520000000001
11
172.6099999999999852
21
-105.5944469999999882
0
LINE
8
BLACK
6
CONTINUOUS
10
173.4099999999999966
20
-104.7464459999999917
11
173.4099999999999966
21
-104.3682110000000023
0
LINE
8
BLACK
6
CONTINUOUS
10
173.4099999999999966
20
-104.3682110000000023
11
173.3493619999999851
21
-104.387913999999995
0
LINE
8
BLACK
6
CONTINUOUS
10
173.3493619999999851
20
-104.387913999999995
11
173.1810600000000022
21
-104.473669000000001
0
LINE
8
BLACK
6
CONTINUOUS
10
173.1810600000000022
20
-104.473669000000001
11
173.1556699999999864
21
-104.4921159999999958
0
LINE
8
BLACK
6
CONTINUOUS
10
173.1556699999999864
20
-104.4921159999999958
11
173.155668999999989
21
-104.4921159999999958
0
LINE
8
BLACK
6
CONTINUOUS
10
173.155668999999989
20
-104.4921159999999958
11
173.4099999999999966
21
-104.7464459999999917
0
LINE
8
BLACK
6
CONTINUOUS
10
173.1556699999999864
20
-103.0078829999999925
11
173.1810590000000047
21
-103.0263289999999898
0
LINE
8
BLACK
6
CONTINUOUS
10
173.1810590000000047
20
-103.0263289999999898
11
173.3493619999999851
21
-103.1120849999999933
0
LINE
8
BLACK
6
CONTINUOUS
10
173.3493619999999851
20
-103.1120849999999933
11
173.4099999999999966
21
-103.1317869999999886
0
LINE
8
BLACK
6
CONTINUOUS
10
173.4099999999999966
20
-103.1317869999999886
11
173.4099999999999966
21
-102.7535519999999991
0
LINE
8
BLACK
6
CONTINUOUS
10
173.4099999999999966
20
-102.7535519999999991
11
173.155668999999989
21
-103.0078819999999951
0
LINE
8
BLACK
6
CONTINUOUS
10
173.155668999999989
20
-103.0078819999999951
11
173.1556699999999864
21
-103.0078829999999925
0
CIRCLE
8
BLACK
10
166.1899999999999977
20
-105.5
40
0.175
0
CIRCLE
8
BLACK
10
173.8100000000000023
20
-105.5
40
0.175
0
CIRCLE
8
BLACK
10
151.
20
-96.5
40
0.175
0
CIRCLE
8
BLACK
10
154.8799999999999955
20
-98.1899999999999977
40
0.175
0
CIRCLE
8
BLACK
10
154.8799999999999955
20
-100.7299999999999898
40
0.175
0
CIRCLE
8
BLACK
10
154.8799999999999955
20
-103.269999999999996
40
0.175
0
CIRCLE
8
BLACK
10
154.8799999999999955
20
-105.8100000000000023
40
0.175
0
CIRCLE
8
BLACK
10
162.5
20
-105.8100000000000023
40
0.175
0
CIRCLE
8
BLACK
10
162.5
20
-103.269999999999996
40
0.175
0
CIRCLE
8
BLACK
10
162.5
20
-100.7299999999999898
40
0.175
0
CIRCLE
8
BLACK
10
162.5
20
-98.1899999999999977
40
0.175
0
CIRCLE
8
BLACK
10
151.
20
-107.6199999999999903
40
0.175
0
CIRCLE
8
BLACK
10
151.
20
-100.
40
0.175
0
CIRCLE
8
BLACK
10
161.5
20
-92.4949999999999903
40
0.175
0
CIRCLE
8
BLACK
10
171.5
20
-89.9949999999999903
40
0.175
0
CIRCLE
8
BLACK
10
161.5
20
-87.4949999999999903
40
0.175
0
CIRCLE
8
BLACK
10
146.9199999999999875
20
-90.5
40
0.175
0
CIRCLE
8
BLACK
10
152.
20
-90.5
40
0.175
0
CIRCLE
8
BLACK
10
157.0799999999999841
20
-90.5
40
0.175
0
CIRCLE
8
BLACK
10
173.8100000000000023
20
-98.5
40
0.175
0
CIRCLE
8
BLACK
10
166.1899999999999977
20
-98.5
40
0.175
0
CIRCLE
8
BLACK
10
166.1899999999999977
20
-102.
40
0.175
0
CIRCLE
8
BLACK
10
173.8100000000000023
20
-102.
40
0.175
0
LINE
8
BLACK
6
CONTINUOUS
10
142.
20
-83.
11
176.5
21
-83.
0
LINE
8
BLACK
6
CONTINUOUS
10
142.
20
-111.5
11
142.
21
-83.
0
LINE
8
BLACK
6
CONTINUOUS
10
176.5
20
-111.5
11
142.
21
-111.5
0
LINE
8
BLACK
6
CONTINUOUS
10
176.5
20
-83.
11
176.5
21
-111.5
0
CIRCLE
8
WHITE
10
166.1899999999999977
20
-105.5
40
0.175
0
CIRCLE
8
WHITE
10
173.8100000000000023
20
-105.5
40
0.175
0
CIRCLE
8
WHITE
10
151.
20
-96.5
40
0.175
0
CIRCLE
8
WHITE
10
154.8799999999999955
20
-98.1899999999999977
40
0.175
0
CIRCLE
8
WHITE
10
154.8799999999999955
20
-100.7299999999999898
40
0.175
0
CIRCLE
8
WHITE
10
154.8799999999999955
20
-103.269999999999996
40
0.175
0
CIRCLE
8
WHITE
10
154.8799999999999955
20
-105.8100000000000023
40
0.175
0
CIRCLE
8
WHITE
10
162.5
20
-105.8100000000000023
40
0.175
0
CIRCLE
8
WHITE
10
162.5
20
-103.269999999999996
40
0.175
0
CIRCLE
8
WHITE
10
162.5
20
-100.7299999999999898
40
0.175
0
CIRCLE
8
WHITE
10
162.5
20
-98.1899999999999977
40
0.175
0
CIRCLE
8
WHITE
10
151.
20
-107.6199999999999903
40
0.175
0
CIRCLE
8
WHITE
10
151.
20
-100.
40
0.175
0
CIRCLE
8
WHITE
10
161.5
20
-92.4949999999999903
40
0.175
0
CIRCLE
8
WHITE
10
171.5
20
-89.9949999999999903
40
0.175
0
CIRCLE
8
WHITE
10
161.5
20
-87.4949999999999903
40
0.175
0
CIRCLE
8
WHITE
10
146.9199999999999875
20
-90.5
40
0.175
0
CIRCLE
8
WHITE
10
152.
20
-90.5
40
0.175
0
CIRCLE
8
WHITE
10
157.0799999999999841
20
-90.5
40
0.175
0
CIRCLE
8
WHITE
10
173.8100000000000023
20
-98.5
40
0.175
0
CIRCLE
8
WHITE
10
166.1899999999999977
20
-98.5
40
0.175
0
CIRCLE
8
WHITE
10
166.1899999999999977
20
-102.
40
0.175
0
CIRCLE
8
WHITE
10
173.8100000000000023
20
-102.
40
0.175
  0
ENDSEC
  0
EOF
