  0
SECTION
  2
HEADER
  9
$ANGBASE
  50
0.0
  9
$ANGDIR
  70
1
  9
$MEASUREMENT
  70
1
  0
ENDSEC
  0
SECTION
  2
TABLES
  0
TABLE
  2
LTYPE
  70
4
  0
LTYPE
  5
40F
  2
CONTINUOUS
  70
0
  3
Solid line
  72
65
  73
0
  40
0.0
  0
LTYPE
  5
410
  2
DASHDOT
 70
0
  3
Dash Dot ____ _ ____ _
 72
65
 73
4
 40
2.0
 49
1.25
 49
-0.25
 49
0.25
 49
-0.25
  0
LTYPE
  5
411
  2
DASHED
 70
0
  3
Dashed __ __ __ __ __
 72
65
 73
2
 40
0.75
 49
0.5
 49
-0.25
  0
LTYPE
  5
43B
  2
DOTTED
 70
0
  3
Dotted .  .  .  .
 72
65
 73
2
 40
0.2
 49
0.0
 49
-0.2
  0
ENDTAB
  0
TABLE
  2
STYLE
  70
4
  0
STYLE
  2
KICAD
  70
0
  40
0
  41
1
  42
1
  50
0
  71
0
  3
isocp.shx
  0
STYLE
  2
KICADB
  70
0
  40
0
  41
1
  42
1
  50
0
  71
0
  3
isocp.shx
  0
STYLE
  2
KICADI
  70
0
  40
0
  41
1
  42
1
  50
15
  71
0
  3
isocp.shx
  0
STYLE
  2
KICADBI
  70
0
  40
0
  41
1
  42
1
  50
15
  71
0
  3
isocp.shx
  0
ENDTAB
  0
TABLE
  2
LAYER
  70
1
  0
LAYER
  2
BLACK
  70
0
  62
7
  6
CONTINUOUS
  0
ENDTAB
  0
ENDSEC
  0
SECTION
  2
ENTITIES
0
LINE
8
BLACK
6
CONTINUOUS
10
135.7322279999999921
20
-86.2744479999999925
11
135.8771169999999984
21
-86.3344629999999995
0
LINE
8
BLACK
6
CONTINUOUS
10
135.8771169999999984
20
-86.3344629999999995
11
136.0075149999999837
21
-86.4215919999999898
0
LINE
8
BLACK
6
CONTINUOUS
10
136.0075149999999837
20
-86.4215919999999898
11
136.1184079999999881
21
-86.5324849999999941
0
LINE
8
BLACK
6
CONTINUOUS
10
136.1184079999999881
20
-86.5324849999999941
11
136.2055369999999925
21
-86.6628829999999937
0
LINE
8
BLACK
6
CONTINUOUS
10
136.2055369999999925
20
-86.6628829999999937
11
136.2655519999999854
21
-86.8077719999999999
0
LINE
8
BLACK
6
CONTINUOUS
10
136.2655519999999854
20
-86.8077719999999999
11
136.2961479999999881
21
-86.9615859999999969
0
LINE
8
BLACK
6
CONTINUOUS
10
136.2961479999999881
20
-86.9615859999999969
11
136.2961479999999881
21
-87.1184140000000014
0
LINE
8
BLACK
6
CONTINUOUS
10
136.2961479999999881
20
-87.1184140000000014
11
136.2655519999999854
21
-87.2722279999999984
0
LINE
8
BLACK
6
CONTINUOUS
10
136.2655519999999854
20
-87.2722279999999984
11
136.2055369999999925
21
-87.4171169999999904
0
LINE
8
BLACK
6
CONTINUOUS
10
136.2055369999999925
20
-87.4171169999999904
11
136.1184079999999881
21
-87.54751499999999
0
LINE
8
BLACK
6
CONTINUOUS
10
136.1184079999999881
20
-87.54751499999999
11
136.0075149999999837
21
-87.6584079999999943
0
LINE
8
BLACK
6
CONTINUOUS
10
136.0075149999999837
20
-87.6584079999999943
11
135.8771169999999984
21
-87.7455369999999988
0
LINE
8
BLACK
6
CONTINUOUS
10
135.8771169999999984
20
-87.7455369999999988
11
135.7322279999999921
21
-87.8055519999999916
0
LINE
8
BLACK
6
CONTINUOUS
10
135.7322279999999921
20
-87.8055519999999916
11
135.5784139999999809
21
-87.8361479999999943
0
LINE
8
BLACK
6
CONTINUOUS
10
135.5784139999999809
20
-87.8361479999999943
11
135.4215859999999907
21
-87.8361479999999943
0
LINE
8
BLACK
6
CONTINUOUS
10
135.4215859999999907
20
-87.8361479999999943
11
135.2677720000000079
21
-87.8055519999999916
0
LINE
8
BLACK
6
CONTINUOUS
10
135.2677720000000079
20
-87.8055519999999916
11
135.1228830000000016
21
-87.7455369999999988
0
LINE
8
BLACK
6
CONTINUOUS
10
135.1228830000000016
20
-87.7455369999999988
11
134.9924849999999878
21
-87.6584079999999943
0
LINE
8
BLACK
6
CONTINUOUS
10
134.9924849999999878
20
-87.6584079999999943
11
134.8815919999999835
21
-87.54751499999999
0
LINE
8
BLACK
6
CONTINUOUS
10
134.8815919999999835
20
-87.54751499999999
11
134.7944630000000075
21
-87.4171169999999904
0
LINE
8
BLACK
6
CONTINUOUS
10
134.7944630000000075
20
-87.4171169999999904
11
134.7344479999999862
21
-87.2722279999999984
0
LINE
8
BLACK
6
CONTINUOUS
10
134.7344479999999862
20
-87.2722279999999984
11
134.7038519999999835
21
-87.1184140000000014
0
LINE
8
BLACK
6
CONTINUOUS
10
134.7038519999999835
20
-87.1184140000000014
11
134.7038519999999835
21
-86.9615859999999969
0
LINE
8
BLACK
6
CONTINUOUS
10
134.7038519999999835
20
-86.9615859999999969
11
134.7344479999999862
21
-86.8077719999999999
0
LINE
8
BLACK
6
CONTINUOUS
10
134.7344479999999862
20
-86.8077719999999999
11
134.7944630000000075
21
-86.6628829999999937
0
LINE
8
BLACK
6
CONTINUOUS
10
134.7944630000000075
20
-86.6628829999999937
11
134.8815919999999835
21
-86.5324849999999941
0
LINE
8
BLACK
6
CONTINUOUS
10
134.8815919999999835
20
-86.5324849999999941
11
134.9924849999999878
21
-86.4215919999999898
0
LINE
8
BLACK
6
CONTINUOUS
10
134.9924849999999878
20
-86.4215919999999898
11
135.1228830000000016
21
-86.3344629999999995
0
LINE
8
BLACK
6
CONTINUOUS
10
135.1228830000000016
20
-86.3344629999999995
11
135.2677720000000079
21
-86.2744479999999925
0
LINE
8
BLACK
6
CONTINUOUS
10
135.2677720000000079
20
-86.2744479999999925
11
135.4215859999999907
21
-86.2438519999999897
0
LINE
8
BLACK
6
CONTINUOUS
10
135.4215859999999907
20
-86.2438519999999897
11
135.5784139999999809
21
-86.2438519999999897
0
LINE
8
BLACK
6
CONTINUOUS
10
135.5784139999999809
20
-86.2438519999999897
11
135.7322279999999921
21
-86.2744479999999925
0
LINE
8
BLACK
6
CONTINUOUS
10
135.7322279999999921
20
-83.7344480000000004
11
135.8771169999999984
21
-83.7944629999999933
0
LINE
8
BLACK
6
CONTINUOUS
10
135.8771169999999984
20
-83.7944629999999933
11
136.0075149999999837
21
-83.8815919999999977
0
LINE
8
BLACK
6
CONTINUOUS
10
136.0075149999999837
20
-83.8815919999999977
11
136.1184079999999881
21
-83.9924850000000021
0
LINE
8
BLACK
6
CONTINUOUS
10
136.1184079999999881
20
-83.9924850000000021
11
136.2055369999999925
21
-84.1228830000000016
0
LINE
8
BLACK
6
CONTINUOUS
10
136.2055369999999925
20
-84.1228830000000016
11
136.2655519999999854
21
-84.2677719999999937
0
LINE
8
BLACK
6
CONTINUOUS
10
136.2655519999999854
20
-84.2677719999999937
11
136.2961479999999881
21
-84.4215859999999907
0
LINE
8
BLACK
6
CONTINUOUS
10
136.2961479999999881
20
-84.4215859999999907
11
136.2961479999999881
21
-84.5784139999999951
0
LINE
8
BLACK
6
CONTINUOUS
10
136.2961479999999881
20
-84.5784139999999951
11
136.2655519999999854
21
-84.7322279999999921
0
LINE
8
BLACK
6
CONTINUOUS
10
136.2655519999999854
20
-84.7322279999999921
11
136.2055369999999925
21
-84.8771169999999984
0
LINE
8
BLACK
6
CONTINUOUS
10
136.2055369999999925
20
-84.8771169999999984
11
136.1184079999999881
21
-85.0075149999999979
0
LINE
8
BLACK
6
CONTINUOUS
10
136.1184079999999881
20
-85.0075149999999979
11
136.0075149999999837
21
-85.1184080000000023
0
LINE
8
BLACK
6
CONTINUOUS
10
136.0075149999999837
20
-85.1184080000000023
11
135.8771169999999984
21
-85.2055369999999925
0
LINE
8
BLACK
6
CONTINUOUS
10
135.8771169999999984
20
-85.2055369999999925
11
135.7322279999999921
21
-85.2655519999999996
0
LINE
8
BLACK
6
CONTINUOUS
10
135.7322279999999921
20
-85.2655519999999996
11
135.5784139999999809
21
-85.2961480000000023
0
LINE
8
BLACK
6
CONTINUOUS
10
135.5784139999999809
20
-85.2961480000000023
11
135.4215859999999907
21
-85.2961480000000023
0
LINE
8
BLACK
6
CONTINUOUS
10
135.4215859999999907
20
-85.2961480000000023
11
135.2677720000000079
21
-85.2655519999999996
0
LINE
8
BLACK
6
CONTINUOUS
10
135.2677720000000079
20
-85.2655519999999996
11
135.1228830000000016
21
-85.2055369999999925
0
LINE
8
BLACK
6
CONTINUOUS
10
135.1228830000000016
20
-85.2055369999999925
11
134.9924849999999878
21
-85.1184080000000023
0
LINE
8
BLACK
6
CONTINUOUS
10
134.9924849999999878
20
-85.1184080000000023
11
134.8815919999999835
21
-85.0075149999999979
0
LINE
8
BLACK
6
CONTINUOUS
10
134.8815919999999835
20
-85.0075149999999979
11
134.7944630000000075
21
-84.8771169999999984
0
LINE
8
BLACK
6
CONTINUOUS
10
134.7944630000000075
20
-84.8771169999999984
11
134.7344479999999862
21
-84.7322279999999921
0
LINE
8
BLACK
6
CONTINUOUS
10
134.7344479999999862
20
-84.7322279999999921
11
134.7038519999999835
21
-84.5784139999999951
0
LINE
8
BLACK
6
CONTINUOUS
10
134.7038519999999835
20
-84.5784139999999951
11
134.7038519999999835
21
-84.4215859999999907
0
LINE
8
BLACK
6
CONTINUOUS
10
134.7038519999999835
20
-84.4215859999999907
11
134.7344479999999862
21
-84.2677719999999937
0
LINE
8
BLACK
6
CONTINUOUS
10
134.7344479999999862
20
-84.2677719999999937
11
134.7944630000000075
21
-84.1228830000000016
0
LINE
8
BLACK
6
CONTINUOUS
10
134.7944630000000075
20
-84.1228830000000016
11
134.8815919999999835
21
-83.9924850000000021
0
LINE
8
BLACK
6
CONTINUOUS
10
134.8815919999999835
20
-83.9924850000000021
11
134.9924849999999878
21
-83.8815919999999977
0
LINE
8
BLACK
6
CONTINUOUS
10
134.9924849999999878
20
-83.8815919999999977
11
135.1228830000000016
21
-83.7944629999999933
0
LINE
8
BLACK
6
CONTINUOUS
10
135.1228830000000016
20
-83.7944629999999933
11
135.2677720000000079
21
-83.7344480000000004
0
LINE
8
BLACK
6
CONTINUOUS
10
135.2677720000000079
20
-83.7344480000000004
11
135.4215859999999907
21
-83.7038519999999977
0
LINE
8
BLACK
6
CONTINUOUS
10
135.4215859999999907
20
-83.7038519999999977
11
135.5784139999999809
21
-83.7038519999999977
0
LINE
8
BLACK
6
CONTINUOUS
10
135.5784139999999809
20
-83.7038519999999977
11
135.7322279999999921
21
-83.7344480000000004
0
LINE
8
BLACK
6
CONTINUOUS
10
135.7322279999999921
20
-81.1944479999999942
11
135.8771169999999984
21
-81.2544630000000012
0
LINE
8
BLACK
6
CONTINUOUS
10
135.8771169999999984
20
-81.2544630000000012
11
136.0075149999999837
21
-81.3415919999999915
0
LINE
8
BLACK
6
CONTINUOUS
10
136.0075149999999837
20
-81.3415919999999915
11
136.1184079999999881
21
-81.4524849999999958
0
LINE
8
BLACK
6
CONTINUOUS
10
136.1184079999999881
20
-81.4524849999999958
11
136.2055369999999925
21
-81.5828829999999954
0
LINE
8
BLACK
6
CONTINUOUS
10
136.2055369999999925
20
-81.5828829999999954
11
136.2655519999999854
21
-81.7277720000000016
0
LINE
8
BLACK
6
CONTINUOUS
10
136.2655519999999854
20
-81.7277720000000016
11
136.2961479999999881
21
-81.8815859999999986
0
LINE
8
BLACK
6
CONTINUOUS
10
136.2961479999999881
20
-81.8815859999999986
11
136.2961479999999881
21
-82.0384140000000031
0
LINE
8
BLACK
6
CONTINUOUS
10
136.2961479999999881
20
-82.0384140000000031
11
136.2655519999999854
21
-82.1922280000000001
0
LINE
8
BLACK
6
CONTINUOUS
10
136.2655519999999854
20
-82.1922280000000001
11
136.2055369999999925
21
-82.3371169999999921
0
LINE
8
BLACK
6
CONTINUOUS
10
136.2055369999999925
20
-82.3371169999999921
11
136.1184079999999881
21
-82.4675149999999917
0
LINE
8
BLACK
6
CONTINUOUS
10
136.1184079999999881
20
-82.4675149999999917
11
136.0075149999999837
21
-82.578407999999996
0
LINE
8
BLACK
6
CONTINUOUS
10
136.0075149999999837
20
-82.578407999999996
11
135.8771169999999984
21
-82.6655370000000005
0
LINE
8
BLACK
6
CONTINUOUS
10
135.8771169999999984
20
-82.6655370000000005
11
135.7322279999999921
21
-82.7255519999999933
0
LINE
8
BLACK
6
CONTINUOUS
10
135.7322279999999921
20
-82.7255519999999933
11
135.5784139999999809
21
-82.756147999999996
0
LINE
8
BLACK
6
CONTINUOUS
10
135.5784139999999809
20
-82.756147999999996
11
135.4215859999999907
21
-82.756147999999996
0
LINE
8
BLACK
6
CONTINUOUS
10
135.4215859999999907
20
-82.756147999999996
11
135.2677720000000079
21
-82.7255519999999933
0
LINE
8
BLACK
6
CONTINUOUS
10
135.2677720000000079
20
-82.7255519999999933
11
135.1228830000000016
21
-82.6655370000000005
0
LINE
8
BLACK
6
CONTINUOUS
10
135.1228830000000016
20
-82.6655370000000005
11
134.9924849999999878
21
-82.578407999999996
0
LINE
8
BLACK
6
CONTINUOUS
10
134.9924849999999878
20
-82.578407999999996
11
134.8815919999999835
21
-82.4675149999999917
0
LINE
8
BLACK
6
CONTINUOUS
10
134.8815919999999835
20
-82.4675149999999917
11
134.7944630000000075
21
-82.3371169999999921
0
LINE
8
BLACK
6
CONTINUOUS
10
134.7944630000000075
20
-82.3371169999999921
11
134.7344479999999862
21
-82.1922280000000001
0
LINE
8
BLACK
6
CONTINUOUS
10
134.7344479999999862
20
-82.1922280000000001
11
134.7038519999999835
21
-82.0384140000000031
0
LINE
8
BLACK
6
CONTINUOUS
10
134.7038519999999835
20
-82.0384140000000031
11
134.7038519999999835
21
-81.8815859999999986
0
LINE
8
BLACK
6
CONTINUOUS
10
134.7038519999999835
20
-81.8815859999999986
11
134.7344479999999862
21
-81.7277720000000016
0
LINE
8
BLACK
6
CONTINUOUS
10
134.7344479999999862
20
-81.7277720000000016
11
134.7944630000000075
21
-81.5828829999999954
0
LINE
8
BLACK
6
CONTINUOUS
10
134.7944630000000075
20
-81.5828829999999954
11
134.8815919999999835
21
-81.4524849999999958
0
LINE
8
BLACK
6
CONTINUOUS
10
134.8815919999999835
20
-81.4524849999999958
11
134.9924849999999878
21
-81.3415919999999915
0
LINE
8
BLACK
6
CONTINUOUS
10
134.9924849999999878
20
-81.3415919999999915
11
135.1228830000000016
21
-81.2544630000000012
0
LINE
8
BLACK
6
CONTINUOUS
10
135.1228830000000016
20
-81.2544630000000012
11
135.2677720000000079
21
-81.1944479999999942
0
LINE
8
BLACK
6
CONTINUOUS
10
135.2677720000000079
20
-81.1944479999999942
11
135.4215859999999907
21
-81.1638519999999914
0
LINE
8
BLACK
6
CONTINUOUS
10
135.4215859999999907
20
-81.1638519999999914
11
135.5784139999999809
21
-81.1638519999999914
0
LINE
8
BLACK
6
CONTINUOUS
10
135.5784139999999809
20
-81.1638519999999914
11
135.7322279999999921
21
-81.1944479999999942
0
LINE
8
BLACK
6
CONTINUOUS
10
133.2467419999999834
20
-74.686600999999996
11
133.4006870000000049
21
-74.7503669999999971
0
LINE
8
BLACK
6
CONTINUOUS
10
133.4006870000000049
20
-74.7503669999999971
11
133.5392339999999933
21
-74.8429409999999962
0
LINE
8
BLACK
6
CONTINUOUS
10
133.5392339999999933
20
-74.8429409999999962
11
133.6570590000000038
21
-74.9607659999999925
0
LINE
8
BLACK
6
CONTINUOUS
10
133.6570590000000038
20
-74.9607659999999925
11
133.7496329999999887
21
-75.0993129999999951
0
LINE
8
BLACK
6
CONTINUOUS
10
133.7496329999999887
20
-75.0993129999999951
11
133.813399000000004
21
-75.2532580000000024
0
LINE
8
BLACK
6
CONTINUOUS
10
133.813399000000004
20
-75.2532580000000024
11
133.8459069999999826
21
-75.4166850000000011
0
LINE
8
BLACK
6
CONTINUOUS
10
133.8459069999999826
20
-75.4166850000000011
11
133.8459069999999826
21
-75.5833149999999989
0
LINE
8
BLACK
6
CONTINUOUS
10
133.8459069999999826
20
-75.5833149999999989
11
133.813399000000004
21
-75.7467419999999976
0
LINE
8
BLACK
6
CONTINUOUS
10
133.813399000000004
20
-75.7467419999999976
11
133.7496329999999887
21
-75.9006869999999907
0
LINE
8
BLACK
6
CONTINUOUS
10
133.7496329999999887
20
-75.9006869999999907
11
133.6570590000000038
21
-76.0392339999999933
0
LINE
8
BLACK
6
CONTINUOUS
10
133.6570590000000038
20
-76.0392339999999933
11
133.5392339999999933
21
-76.1570589999999896
0
LINE
8
BLACK
6
CONTINUOUS
10
133.5392339999999933
20
-76.1570589999999896
11
133.4006870000000049
21
-76.2496330000000029
0
LINE
8
BLACK
6
CONTINUOUS
10
133.4006870000000049
20
-76.2496330000000029
11
133.4000000000000057
21
-76.2499169999999964
0
LINE
8
BLACK
6
CONTINUOUS
10
133.4000000000000057
20
-76.2499169999999964
11
133.4000000000000057
21
-76.7543139999999937
0
LINE
8
BLACK
6
CONTINUOUS
10
133.4000000000000057
20
-76.7543139999999937
11
135.2947639999999865
21
-78.6490780000000029
0
LINE
8
BLACK
6
CONTINUOUS
10
135.2947639999999865
20
-78.6490780000000029
11
135.4215859999999907
21
-78.6238519999999994
0
LINE
8
BLACK
6
CONTINUOUS
10
135.4215859999999907
20
-78.6238519999999994
11
135.5784139999999809
21
-78.6238519999999994
0
LINE
8
BLACK
6
CONTINUOUS
10
135.5784139999999809
20
-78.6238519999999994
11
135.7322279999999921
21
-78.6544480000000021
0
LINE
8
BLACK
6
CONTINUOUS
10
135.7322279999999921
20
-78.6544480000000021
11
135.8771169999999984
21
-78.714462999999995
0
LINE
8
BLACK
6
CONTINUOUS
10
135.8771169999999984
20
-78.714462999999995
11
136.0075149999999837
21
-78.8015919999999994
0
LINE
8
BLACK
6
CONTINUOUS
10
136.0075149999999837
20
-78.8015919999999994
11
136.1184079999999881
21
-78.9124849999999896
0
LINE
8
BLACK
6
CONTINUOUS
10
136.1184079999999881
20
-78.9124849999999896
11
136.2055369999999925
21
-79.0428830000000033
0
LINE
8
BLACK
6
CONTINUOUS
10
136.2055369999999925
20
-79.0428830000000033
11
136.2655519999999854
21
-79.1877719999999954
0
LINE
8
BLACK
6
CONTINUOUS
10
136.2655519999999854
20
-79.1877719999999954
11
136.2961479999999881
21
-79.3415859999999924
0
LINE
8
BLACK
6
CONTINUOUS
10
136.2961479999999881
20
-79.3415859999999924
11
136.2961479999999881
21
-79.4984139999999968
0
LINE
8
BLACK
6
CONTINUOUS
10
136.2961479999999881
20
-79.4984139999999968
11
136.2655519999999854
21
-79.6522279999999938
0
LINE
8
BLACK
6
CONTINUOUS
10
136.2655519999999854
20
-79.6522279999999938
11
136.2055369999999925
21
-79.7971170000000001
0
LINE
8
BLACK
6
CONTINUOUS
10
136.2055369999999925
20
-79.7971170000000001
11
136.1184079999999881
21
-79.9275149999999996
0
LINE
8
BLACK
6
CONTINUOUS
10
136.1184079999999881
20
-79.9275149999999996
11
136.0075149999999837
21
-80.0384079999999898
0
LINE
8
BLACK
6
CONTINUOUS
10
136.0075149999999837
20
-80.0384079999999898
11
135.8771169999999984
21
-80.1255369999999942
0
LINE
8
BLACK
6
CONTINUOUS
10
135.8771169999999984
20
-80.1255369999999942
11
135.7322279999999921
21
-80.1855520000000013
0
LINE
8
BLACK
6
CONTINUOUS
10
135.7322279999999921
20
-80.1855520000000013
11
135.5784139999999809
21
-80.2161479999999898
0
LINE
8
BLACK
6
CONTINUOUS
10
135.5784139999999809
20
-80.2161479999999898
11
135.4215859999999907
21
-80.2161479999999898
0
LINE
8
BLACK
6
CONTINUOUS
10
135.4215859999999907
20
-80.2161479999999898
11
135.2677720000000079
21
-80.1855520000000013
0
LINE
8
BLACK
6
CONTINUOUS
10
135.2677720000000079
20
-80.1855520000000013
11
135.1228830000000016
21
-80.1255369999999942
0
LINE
8
BLACK
6
CONTINUOUS
10
135.1228830000000016
20
-80.1255369999999942
11
134.9924849999999878
21
-80.0384079999999898
0
LINE
8
BLACK
6
CONTINUOUS
10
134.9924849999999878
20
-80.0384079999999898
11
134.8815919999999835
21
-79.9275149999999996
0
LINE
8
BLACK
6
CONTINUOUS
10
134.8815919999999835
20
-79.9275149999999996
11
134.7944630000000075
21
-79.7971170000000001
0
LINE
8
BLACK
6
CONTINUOUS
10
134.7944630000000075
20
-79.7971170000000001
11
134.7344479999999862
21
-79.6522279999999938
0
LINE
8
BLACK
6
CONTINUOUS
10
134.7344479999999862
20
-79.6522279999999938
11
134.7038519999999835
21
-79.4984139999999968
0
LINE
8
BLACK
6
CONTINUOUS
10
134.7038519999999835
20
-79.4984139999999968
11
134.7038519999999835
21
-79.3415859999999924
0
LINE
8
BLACK
6
CONTINUOUS
10
134.7038519999999835
20
-79.3415859999999924
11
134.729077999999987
21
-79.2147640000000024
0
LINE
8
BLACK
6
CONTINUOUS
10
134.729077999999987
20
-79.2147640000000024
11
132.7171569999999861
21
-77.2028430000000014
0
LINE
8
BLACK
6
CONTINUOUS
10
132.7171569999999861
20
-77.2028430000000014
11
132.682659000000001
21
-77.1635050000000007
0
LINE
8
BLACK
6
CONTINUOUS
10
132.682659000000001
20
-77.1635050000000007
11
132.6304480000000012
21
-77.0730739999999912
0
LINE
8
BLACK
6
CONTINUOUS
10
132.6304480000000012
20
-77.0730739999999912
11
132.6034219999999948
21
-76.9722099999999898
0
LINE
8
BLACK
6
CONTINUOUS
10
132.6034219999999948
20
-76.9722099999999898
11
132.5999999999999943
21
-76.9200000000000017
0
LINE
8
BLACK
6
CONTINUOUS
10
132.5999999999999943
20
-76.9200000000000017
11
132.5999999999999943
21
-76.2499169999999964
0
LINE
8
BLACK
6
CONTINUOUS
10
132.5999999999999943
20
-76.2499169999999964
11
132.5993129999999951
21
-76.2496330000000029
0
LINE
8
BLACK
6
CONTINUOUS
10
132.5993129999999951
20
-76.2496330000000029
11
132.4607660000000067
21
-76.1570589999999896
0
LINE
8
BLACK
6
CONTINUOUS
10
132.4607660000000067
20
-76.1570589999999896
11
132.3429409999999962
21
-76.0392339999999933
0
LINE
8
BLACK
6
CONTINUOUS
10
132.3429409999999962
20
-76.0392339999999933
11
132.2503669999999829
21
-75.9006869999999907
0
LINE
8
BLACK
6
CONTINUOUS
10
132.2503669999999829
20
-75.9006869999999907
11
132.186600999999996
21
-75.7467419999999976
0
LINE
8
BLACK
6
CONTINUOUS
10
132.186600999999996
20
-75.7467419999999976
11
132.1540929999999889
21
-75.5833149999999989
0
LINE
8
BLACK
6
CONTINUOUS
10
132.1540929999999889
20
-75.5833149999999989
11
132.1540929999999889
21
-75.4166850000000011
0
LINE
8
BLACK
6
CONTINUOUS
10
132.1540929999999889
20
-75.4166850000000011
11
132.186600999999996
21
-75.2532580000000024
0
LINE
8
BLACK
6
CONTINUOUS
10
132.186600999999996
20
-75.2532580000000024
11
132.2503669999999829
21
-75.0993129999999951
0
LINE
8
BLACK
6
CONTINUOUS
10
132.2503669999999829
20
-75.0993129999999951
11
132.3429409999999962
21
-74.9607659999999925
0
LINE
8
BLACK
6
CONTINUOUS
10
132.3429409999999962
20
-74.9607659999999925
11
132.4607660000000067
21
-74.8429409999999962
0
LINE
8
BLACK
6
CONTINUOUS
10
132.4607660000000067
20
-74.8429409999999962
11
132.5993129999999951
21
-74.7503669999999971
0
LINE
8
BLACK
6
CONTINUOUS
10
132.5993129999999951
20
-74.7503669999999971
11
132.7532579999999882
21
-74.686600999999996
0
LINE
8
BLACK
6
CONTINUOUS
10
132.7532579999999882
20
-74.686600999999996
11
132.9166850000000011
21
-74.6540930000000031
0
LINE
8
BLACK
6
CONTINUOUS
10
132.9166850000000011
20
-74.6540930000000031
11
133.0833149999999989
21
-74.6540930000000031
0
LINE
8
BLACK
6
CONTINUOUS
10
133.0833149999999989
20
-74.6540930000000031
11
133.2467419999999834
21
-74.686600999999996
0
LINE
8
BLACK
6
CONTINUOUS
10
128.1122279999999876
20
-83.7344480000000004
11
128.2571169999999938
21
-83.7944629999999933
0
LINE
8
BLACK
6
CONTINUOUS
10
128.2571169999999938
20
-83.7944629999999933
11
128.3875150000000076
21
-83.8815919999999977
0
LINE
8
BLACK
6
CONTINUOUS
10
128.3875150000000076
20
-83.8815919999999977
11
128.4984079999999835
21
-83.9924850000000021
0
LINE
8
BLACK
6
CONTINUOUS
10
128.4984079999999835
20
-83.9924850000000021
11
128.585536999999988
21
-84.1228830000000016
0
LINE
8
BLACK
6
CONTINUOUS
10
128.585536999999988
20
-84.1228830000000016
11
128.6455519999999808
21
-84.2677719999999937
0
LINE
8
BLACK
6
CONTINUOUS
10
128.6455519999999808
20
-84.2677719999999937
11
128.6761479999999835
21
-84.4215859999999907
0
LINE
8
BLACK
6
CONTINUOUS
10
128.6761479999999835
20
-84.4215859999999907
11
128.6761479999999835
21
-84.5784139999999951
0
LINE
8
BLACK
6
CONTINUOUS
10
128.6761479999999835
20
-84.5784139999999951
11
128.6455519999999808
21
-84.7322279999999921
0
LINE
8
BLACK
6
CONTINUOUS
10
128.6455519999999808
20
-84.7322279999999921
11
128.585536999999988
21
-84.8771169999999984
0
LINE
8
BLACK
6
CONTINUOUS
10
128.585536999999988
20
-84.8771169999999984
11
128.4984079999999835
21
-85.0075149999999979
0
LINE
8
BLACK
6
CONTINUOUS
10
128.4984079999999835
20
-85.0075149999999979
11
128.3875150000000076
21
-85.1184080000000023
0
LINE
8
BLACK
6
CONTINUOUS
10
128.3875150000000076
20
-85.1184080000000023
11
128.2571169999999938
21
-85.2055369999999925
0
LINE
8
BLACK
6
CONTINUOUS
10
128.2571169999999938
20
-85.2055369999999925
11
128.1122279999999876
21
-85.2655519999999996
0
LINE
8
BLACK
6
CONTINUOUS
10
128.1122279999999876
20
-85.2655519999999996
11
127.9584139999999906
21
-85.2961480000000023
0
LINE
8
BLACK
6
CONTINUOUS
10
127.9584139999999906
20
-85.2961480000000023
11
127.8015860000000004
21
-85.2961480000000023
0
LINE
8
BLACK
6
CONTINUOUS
10
127.8015860000000004
20
-85.2961480000000023
11
127.6477719999999891
21
-85.2655519999999996
0
LINE
8
BLACK
6
CONTINUOUS
10
127.6477719999999891
20
-85.2655519999999996
11
127.5028829999999971
21
-85.2055369999999925
0
LINE
8
BLACK
6
CONTINUOUS
10
127.5028829999999971
20
-85.2055369999999925
11
127.3724849999999975
21
-85.1184080000000023
0
LINE
8
BLACK
6
CONTINUOUS
10
127.3724849999999975
20
-85.1184080000000023
11
127.2615919999999932
21
-85.0075149999999979
0
LINE
8
BLACK
6
CONTINUOUS
10
127.2615919999999932
20
-85.0075149999999979
11
127.1897529999999961
21
-84.8999999999999915
0
LINE
8
BLACK
6
CONTINUOUS
10
127.1897529999999961
20
-84.8999999999999915
11
126.9143159999999995
21
-84.8999999999999915
0
LINE
8
BLACK
6
CONTINUOUS
10
126.9143159999999995
20
-84.8999999999999915
11
125.2414729999999992
21
-86.5728429999999918
0
LINE
8
BLACK
6
CONTINUOUS
10
125.2414729999999992
20
-86.5728429999999918
11
125.2021349999999984
21
-86.607340999999991
0
LINE
8
BLACK
6
CONTINUOUS
10
125.2021349999999984
20
-86.607340999999991
11
125.1117039999999889
21
-86.6595519999999908
0
LINE
8
BLACK
6
CONTINUOUS
10
125.1117039999999889
20
-86.6595519999999908
11
125.0108399999999875
21
-86.6865779999999972
0
LINE
8
BLACK
6
CONTINUOUS
10
125.0108399999999875
20
-86.6865779999999972
11
124.9586299999999994
21
-86.6899999999999977
0
LINE
8
BLACK
6
CONTINUOUS
10
124.9586299999999994
20
-86.6899999999999977
11
124.2499179999999939
21
-86.6899999999999977
0
LINE
8
BLACK
6
CONTINUOUS
10
124.2499179999999939
20
-86.6899999999999977
11
124.2496329999999887
21
-86.6906869999999969
0
LINE
8
BLACK
6
CONTINUOUS
10
124.2496329999999887
20
-86.6906869999999969
11
124.1570589999999896
21
-86.8292339999999996
0
LINE
8
BLACK
6
CONTINUOUS
10
124.1570589999999896
20
-86.8292339999999996
11
124.0392339999999933
21
-86.9470589999999959
0
LINE
8
BLACK
6
CONTINUOUS
10
124.0392339999999933
20
-86.9470589999999959
11
123.9006869999999907
21
-87.0396329999999949
0
LINE
8
BLACK
6
CONTINUOUS
10
123.9006869999999907
20
-87.0396329999999949
11
123.7467419999999976
21
-87.103398999999996
0
LINE
8
BLACK
6
CONTINUOUS
10
123.7467419999999976
20
-87.103398999999996
11
123.5833149999999989
21
-87.1359070000000031
0
LINE
8
BLACK
6
CONTINUOUS
10
123.5833149999999989
20
-87.1359070000000031
11
123.4166850000000011
21
-87.1359070000000031
0
LINE
8
BLACK
6
CONTINUOUS
10
123.4166850000000011
20
-87.1359070000000031
11
123.2532579999999882
21
-87.103398999999996
0
LINE
8
BLACK
6
CONTINUOUS
10
123.2532579999999882
20
-87.103398999999996
11
123.0993129999999951
21
-87.0396329999999949
0
LINE
8
BLACK
6
CONTINUOUS
10
123.0993129999999951
20
-87.0396329999999949
11
122.9607659999999925
21
-86.9470589999999959
0
LINE
8
BLACK
6
CONTINUOUS
10
122.9607659999999925
20
-86.9470589999999959
11
122.8429409999999962
21
-86.8292339999999996
0
LINE
8
BLACK
6
CONTINUOUS
10
122.8429409999999962
20
-86.8292339999999996
11
122.7503669999999971
21
-86.6906869999999969
0
LINE
8
BLACK
6
CONTINUOUS
10
122.7503669999999971
20
-86.6906869999999969
11
122.686600999999996
21
-86.5367419999999896
0
LINE
8
BLACK
6
CONTINUOUS
10
122.686600999999996
20
-86.5367419999999896
11
122.6540929999999889
21
-86.373314999999991
0
LINE
8
BLACK
6
CONTINUOUS
10
122.6540929999999889
20
-86.373314999999991
11
122.6540929999999889
21
-86.2066849999999931
0
LINE
8
BLACK
6
CONTINUOUS
10
122.6540929999999889
20
-86.2066849999999931
11
122.686600999999996
21
-86.0432579999999945
0
LINE
8
BLACK
6
CONTINUOUS
10
122.686600999999996
20
-86.0432579999999945
11
122.7503669999999971
21
-85.8893130000000014
0
LINE
8
BLACK
6
CONTINUOUS
10
122.7503669999999971
20
-85.8893130000000014
11
122.8429409999999962
21
-85.7507659999999987
0
LINE
8
BLACK
6
CONTINUOUS
10
122.8429409999999962
20
-85.7507659999999987
11
122.9607659999999925
21
-85.6329410000000024
0
LINE
8
BLACK
6
CONTINUOUS
10
122.9607659999999925
20
-85.6329410000000024
11
123.0993129999999951
21
-85.5403669999999892
0
LINE
8
BLACK
6
CONTINUOUS
10
123.0993129999999951
20
-85.5403669999999892
11
123.2532579999999882
21
-85.4766010000000023
0
LINE
8
BLACK
6
CONTINUOUS
10
123.2532579999999882
20
-85.4766010000000023
11
123.4166850000000011
21
-85.4440929999999952
0
LINE
8
BLACK
6
CONTINUOUS
10
123.4166850000000011
20
-85.4440929999999952
11
123.5833149999999989
21
-85.4440929999999952
0
LINE
8
BLACK
6
CONTINUOUS
10
123.5833149999999989
20
-85.4440929999999952
11
123.7467419999999976
21
-85.4766010000000023
0
LINE
8
BLACK
6
CONTINUOUS
10
123.7467419999999976
20
-85.4766010000000023
11
123.9006869999999907
21
-85.5403669999999892
0
LINE
8
BLACK
6
CONTINUOUS
10
123.9006869999999907
20
-85.5403669999999892
11
124.0392339999999933
21
-85.6329410000000024
0
LINE
8
BLACK
6
CONTINUOUS
10
124.0392339999999933
20
-85.6329410000000024
11
124.1570589999999896
21
-85.7507659999999987
0
LINE
8
BLACK
6
CONTINUOUS
10
124.1570589999999896
20
-85.7507659999999987
11
124.2496329999999887
21
-85.8893130000000014
0
LINE
8
BLACK
6
CONTINUOUS
10
124.2496329999999887
20
-85.8893130000000014
11
124.2499179999999939
21
-85.8900000000000006
0
LINE
8
BLACK
6
CONTINUOUS
10
124.2499179999999939
20
-85.8900000000000006
11
124.7929439999999914
21
-85.8900000000000006
0
LINE
8
BLACK
6
CONTINUOUS
10
124.7929439999999914
20
-85.8900000000000006
11
126.4657869999999917
21
-84.2171570000000003
0
LINE
8
BLACK
6
CONTINUOUS
10
126.4657869999999917
20
-84.2171570000000003
11
126.5051249999999925
21
-84.182659000000001
0
LINE
8
BLACK
6
CONTINUOUS
10
126.5051249999999925
20
-84.182659000000001
11
126.5178469999999891
21
-84.1753140000000002
0
LINE
8
BLACK
6
CONTINUOUS
10
126.5178469999999891
20
-84.1753140000000002
11
126.5955569999999994
21
-84.1304480000000012
0
LINE
8
BLACK
6
CONTINUOUS
10
126.5955569999999994
20
-84.1304480000000012
11
126.6964199999999892
21
-84.1034219999999948
0
LINE
8
BLACK
6
CONTINUOUS
10
126.6964199999999892
20
-84.1034219999999948
11
126.7486299999999915
21
-84.0999999999999943
0
LINE
8
BLACK
6
CONTINUOUS
10
126.7486299999999915
20
-84.0999999999999943
11
127.1897529999999961
21
-84.0999999999999943
0
LINE
8
BLACK
6
CONTINUOUS
10
127.1897529999999961
20
-84.0999999999999943
11
127.2615919999999932
21
-83.9924850000000021
0
LINE
8
BLACK
6
CONTINUOUS
10
127.2615919999999932
20
-83.9924850000000021
11
127.3724849999999975
21
-83.8815919999999977
0
LINE
8
BLACK
6
CONTINUOUS
10
127.3724849999999975
20
-83.8815919999999977
11
127.5028829999999971
21
-83.7944629999999933
0
LINE
8
BLACK
6
CONTINUOUS
10
127.5028829999999971
20
-83.7944629999999933
11
127.6477719999999891
21
-83.7344480000000004
0
LINE
8
BLACK
6
CONTINUOUS
10
127.6477719999999891
20
-83.7344480000000004
11
127.8015860000000004
21
-83.7038519999999977
0
LINE
8
BLACK
6
CONTINUOUS
10
127.8015860000000004
20
-83.7038519999999977
11
127.9584139999999906
21
-83.7038519999999977
0
LINE
8
BLACK
6
CONTINUOUS
10
127.9584139999999906
20
-83.7038519999999977
11
128.1122279999999876
21
-83.7344480000000004
0
LINE
8
BLACK
6
CONTINUOUS
10
128.1122279999999876
20
-81.1944479999999942
11
128.2571169999999938
21
-81.2544630000000012
0
LINE
8
BLACK
6
CONTINUOUS
10
128.2571169999999938
20
-81.2544630000000012
11
128.3875150000000076
21
-81.3415919999999915
0
LINE
8
BLACK
6
CONTINUOUS
10
128.3875150000000076
20
-81.3415919999999915
11
128.4984079999999835
21
-81.4524849999999958
0
LINE
8
BLACK
6
CONTINUOUS
10
128.4984079999999835
20
-81.4524849999999958
11
128.585536999999988
21
-81.5828829999999954
0
LINE
8
BLACK
6
CONTINUOUS
10
128.585536999999988
20
-81.5828829999999954
11
128.6455519999999808
21
-81.7277720000000016
0
LINE
8
BLACK
6
CONTINUOUS
10
128.6455519999999808
20
-81.7277720000000016
11
128.6761479999999835
21
-81.8815859999999986
0
LINE
8
BLACK
6
CONTINUOUS
10
128.6761479999999835
20
-81.8815859999999986
11
128.6761479999999835
21
-82.0384140000000031
0
LINE
8
BLACK
6
CONTINUOUS
10
128.6761479999999835
20
-82.0384140000000031
11
128.6455519999999808
21
-82.1922280000000001
0
LINE
8
BLACK
6
CONTINUOUS
10
128.6455519999999808
20
-82.1922280000000001
11
128.585536999999988
21
-82.3371169999999921
0
LINE
8
BLACK
6
CONTINUOUS
10
128.585536999999988
20
-82.3371169999999921
11
128.4984079999999835
21
-82.4675149999999917
0
LINE
8
BLACK
6
CONTINUOUS
10
128.4984079999999835
20
-82.4675149999999917
11
128.3875150000000076
21
-82.578407999999996
0
LINE
8
BLACK
6
CONTINUOUS
10
128.3875150000000076
20
-82.578407999999996
11
128.2571169999999938
21
-82.6655370000000005
0
LINE
8
BLACK
6
CONTINUOUS
10
128.2571169999999938
20
-82.6655370000000005
11
128.1122279999999876
21
-82.7255519999999933
0
LINE
8
BLACK
6
CONTINUOUS
10
128.1122279999999876
20
-82.7255519999999933
11
127.9584139999999906
21
-82.756147999999996
0
LINE
8
BLACK
6
CONTINUOUS
10
127.9584139999999906
20
-82.756147999999996
11
127.8015860000000004
21
-82.756147999999996
0
LINE
8
BLACK
6
CONTINUOUS
10
127.8015860000000004
20
-82.756147999999996
11
127.6477719999999891
21
-82.7255519999999933
0
LINE
8
BLACK
6
CONTINUOUS
10
127.6477719999999891
20
-82.7255519999999933
11
127.5028829999999971
21
-82.6655370000000005
0
LINE
8
BLACK
6
CONTINUOUS
10
127.5028829999999971
20
-82.6655370000000005
11
127.3724849999999975
21
-82.578407999999996
0
LINE
8
BLACK
6
CONTINUOUS
10
127.3724849999999975
20
-82.578407999999996
11
127.2615919999999932
21
-82.4675149999999917
0
LINE
8
BLACK
6
CONTINUOUS
10
127.2615919999999932
20
-82.4675149999999917
11
127.1897529999999961
21
-82.3599999999999994
0
LINE
8
BLACK
6
CONTINUOUS
10
127.1897529999999961
20
-82.3599999999999994
11
125.455686
21
-82.3599999999999994
0
LINE
8
BLACK
6
CONTINUOUS
10
125.455686
20
-82.3599999999999994
11
124.3499999999999943
21
-83.4656859999999909
0
LINE
8
BLACK
6
CONTINUOUS
10
124.3499999999999943
20
-83.4656859999999909
11
124.3499999999999943
21
-84.5999999999999943
0
LINE
8
BLACK
6
CONTINUOUS
10
124.3499999999999943
20
-84.5999999999999943
11
122.6499999999999915
21
-84.5999999999999943
0
LINE
8
BLACK
6
CONTINUOUS
10
122.6499999999999915
20
-84.5999999999999943
11
122.6499999999999915
21
-82.8999999999999915
0
LINE
8
BLACK
6
CONTINUOUS
10
122.6499999999999915
20
-82.8999999999999915
11
123.7843139999999948
21
-82.8999999999999915
0
LINE
8
BLACK
6
CONTINUOUS
10
123.7843139999999948
20
-82.8999999999999915
11
125.0071569999999923
21
-81.677156999999994
0
LINE
8
BLACK
6
CONTINUOUS
10
125.0071569999999923
20
-81.677156999999994
11
125.0464949999999931
21
-81.6426589999999948
0
LINE
8
BLACK
6
CONTINUOUS
10
125.0464949999999931
20
-81.6426589999999948
11
125.136927
21
-81.590447999999995
0
LINE
8
BLACK
6
CONTINUOUS
10
125.136927
20
-81.590447999999995
11
125.2377899999999897
21
-81.5634220000000028
0
LINE
8
BLACK
6
CONTINUOUS
10
125.2377899999999897
20
-81.5634220000000028
11
125.289999999999992
21
-81.5600000000000023
0
LINE
8
BLACK
6
CONTINUOUS
10
125.289999999999992
20
-81.5600000000000023
11
127.1897529999999961
21
-81.5600000000000023
0
LINE
8
BLACK
6
CONTINUOUS
10
127.1897529999999961
20
-81.5600000000000023
11
127.2615919999999932
21
-81.4524849999999958
0
LINE
8
BLACK
6
CONTINUOUS
10
127.2615919999999932
20
-81.4524849999999958
11
127.3724849999999975
21
-81.3415919999999915
0
LINE
8
BLACK
6
CONTINUOUS
10
127.3724849999999975
20
-81.3415919999999915
11
127.5028829999999971
21
-81.2544630000000012
0
LINE
8
BLACK
6
CONTINUOUS
10
127.5028829999999971
20
-81.2544630000000012
11
127.6477719999999891
21
-81.1944479999999942
0
LINE
8
BLACK
6
CONTINUOUS
10
127.6477719999999891
20
-81.1944479999999942
11
127.8015860000000004
21
-81.1638519999999914
0
LINE
8
BLACK
6
CONTINUOUS
10
127.8015860000000004
20
-81.1638519999999914
11
127.9584139999999906
21
-81.1638519999999914
0
LINE
8
BLACK
6
CONTINUOUS
10
127.9584139999999906
20
-81.1638519999999914
11
128.1122279999999876
21
-81.1944479999999942
0
LINE
8
BLACK
6
CONTINUOUS
10
126.2837589999999892
20
-83.1801849999999945
11
126.329513999999989
21
-83.2329889999999892
0
LINE
8
BLACK
6
CONTINUOUS
10
126.329513999999989
20
-83.2329889999999892
11
126.3394579999999934
21
-83.3021469999999908
0
LINE
8
BLACK
6
CONTINUOUS
10
126.3394579999999934
20
-83.3021469999999908
11
126.3104329999999891
21
-83.3657029999999963
0
LINE
8
BLACK
6
CONTINUOUS
10
126.3104329999999891
20
-83.3657029999999963
11
126.2730150000000009
21
-83.3949849999999913
0
LINE
8
BLACK
6
CONTINUOUS
10
126.2730150000000009
20
-83.3949849999999913
11
126.1194299999999942
21
-83.4732399999999899
0
LINE
8
BLACK
6
CONTINUOUS
10
126.1194299999999942
20
-83.4732399999999899
11
125.9665529999999904
21
-83.5843119999999971
0
LINE
8
BLACK
6
CONTINUOUS
10
125.9665529999999904
20
-83.5843119999999971
11
125.3621809999999925
21
-84.1886849999999924
0
LINE
8
BLACK
6
CONTINUOUS
10
125.3621809999999925
20
-84.1886849999999924
11
125.300857999999991
21
-84.2221699999999913
0
LINE
8
BLACK
6
CONTINUOUS
10
125.300857999999991
20
-84.2221699999999913
11
125.2311659999999875
21
-84.2171859999999981
0
LINE
8
BLACK
6
CONTINUOUS
10
125.2311659999999875
20
-84.2171859999999981
11
125.1752329999999915
21
-84.1753140000000002
0
LINE
8
BLACK
6
CONTINUOUS
10
125.1752329999999915
20
-84.1753140000000002
11
125.1508159999999918
21
-84.1098499999999945
0
LINE
8
BLACK
6
CONTINUOUS
10
125.1508159999999918
20
-84.1098499999999945
11
125.1504999999999939
21
-84.1010040000000032
0
LINE
8
BLACK
6
CONTINUOUS
10
125.1504999999999939
20
-84.1010040000000032
11
125.1504999999999939
21
-83.8486259999999959
0
LINE
8
BLACK
6
CONTINUOUS
10
125.1504999999999939
20
-83.8486259999999959
11
125.1701849999999894
21
-83.7815870000000018
0
LINE
8
BLACK
6
CONTINUOUS
10
125.1701849999999894
20
-83.7815870000000018
11
125.1868189999999998
21
-83.7609449999999924
0
LINE
8
BLACK
6
CONTINUOUS
10
125.1868189999999998
20
-83.7609449999999924
11
125.7509449999999873
21
-83.1968189999999908
0
LINE
8
BLACK
6
CONTINUOUS
10
125.7509449999999873
20
-83.1968189999999908
11
125.8122679999999889
21
-83.1633339999999919
0
LINE
8
BLACK
6
CONTINUOUS
10
125.8122679999999889
20
-83.1633339999999919
11
125.8386259999999908
21
-83.160499999999999
0
LINE
8
BLACK
6
CONTINUOUS
10
125.8386259999999908
20
-83.160499999999999
11
126.2167199999999951
21
-83.160499999999999
0
LINE
8
BLACK
6
CONTINUOUS
10
126.2167199999999951
20
-83.160499999999999
11
126.2837589999999892
21
-83.1801849999999945
0
LINE
8
BLACK
6
CONTINUOUS
10
124.3499999999999943
20
-78.2843139999999948
11
125.0856859999999955
21
-79.019999999999996
0
LINE
8
BLACK
6
CONTINUOUS
10
125.0856859999999955
20
-79.019999999999996
11
127.0799999999999983
21
-79.019999999999996
0
LINE
8
BLACK
6
CONTINUOUS
10
127.0799999999999983
20
-79.019999999999996
11
127.0799999999999983
21
-78.8699999999999903
0
LINE
8
BLACK
6
CONTINUOUS
10
127.0799999999999983
20
-78.8699999999999903
11
127.0990299999999991
21
-78.7743289999999945
0
LINE
8
BLACK
6
CONTINUOUS
10
127.0990299999999991
20
-78.7743289999999945
11
127.153222999999997
21
-78.6932230000000033
0
LINE
8
BLACK
6
CONTINUOUS
10
127.153222999999997
20
-78.6932230000000033
11
127.2343289999999882
21
-78.6390299999999911
0
LINE
8
BLACK
6
CONTINUOUS
10
127.2343289999999882
20
-78.6390299999999911
11
127.3299999999999983
21
-78.6199999999999903
0
LINE
8
BLACK
6
CONTINUOUS
10
127.3299999999999983
20
-78.6199999999999903
11
128.4300000000000068
21
-78.6199999999999903
0
LINE
8
BLACK
6
CONTINUOUS
10
128.4300000000000068
20
-78.6199999999999903
11
128.5256709999999885
21
-78.6390299999999911
0
LINE
8
BLACK
6
CONTINUOUS
10
128.5256709999999885
20
-78.6390299999999911
11
128.6067769999999939
21
-78.6932230000000033
0
LINE
8
BLACK
6
CONTINUOUS
10
128.6067769999999939
20
-78.6932230000000033
11
128.6609699999999918
21
-78.7743289999999945
0
LINE
8
BLACK
6
CONTINUOUS
10
128.6609699999999918
20
-78.7743289999999945
11
128.6800000000000068
21
-78.8699999999999903
0
LINE
8
BLACK
6
CONTINUOUS
10
128.6800000000000068
20
-78.8699999999999903
11
128.6800000000000068
21
-79.9699999999999989
0
LINE
8
BLACK
6
CONTINUOUS
10
128.6800000000000068
20
-79.9699999999999989
11
128.6609699999999918
21
-80.0656709999999947
0
LINE
8
BLACK
6
CONTINUOUS
10
128.6609699999999918
20
-80.0656709999999947
11
128.6067769999999939
21
-80.1467770000000002
0
LINE
8
BLACK
6
CONTINUOUS
10
128.6067769999999939
20
-80.1467770000000002
11
128.5256709999999885
21
-80.2009699999999981
0
LINE
8
BLACK
6
CONTINUOUS
10
128.5256709999999885
20
-80.2009699999999981
11
128.4300000000000068
21
-80.2199999999999989
0
LINE
8
BLACK
6
CONTINUOUS
10
128.4300000000000068
20
-80.2199999999999989
11
127.3299999999999983
21
-80.2199999999999989
0
LINE
8
BLACK
6
CONTINUOUS
10
127.3299999999999983
20
-80.2199999999999989
11
127.2343289999999882
21
-80.2009699999999981
0
LINE
8
BLACK
6
CONTINUOUS
10
127.2343289999999882
20
-80.2009699999999981
11
127.153222999999997
21
-80.1467770000000002
0
LINE
8
BLACK
6
CONTINUOUS
10
127.153222999999997
20
-80.1467770000000002
11
127.0990299999999991
21
-80.0656709999999947
0
LINE
8
BLACK
6
CONTINUOUS
10
127.0990299999999991
20
-80.0656709999999947
11
127.0799999999999983
21
-79.9699999999999989
0
LINE
8
BLACK
6
CONTINUOUS
10
127.0799999999999983
20
-79.9699999999999989
11
127.0799999999999983
21
-79.8199999999999932
0
LINE
8
BLACK
6
CONTINUOUS
10
127.0799999999999983
20
-79.8199999999999932
11
124.9199999999999875
21
-79.8199999999999932
0
LINE
8
BLACK
6
CONTINUOUS
10
124.9199999999999875
20
-79.8199999999999932
11
124.8677899999999994
21
-79.8165779999999927
0
LINE
8
BLACK
6
CONTINUOUS
10
124.8677899999999994
20
-79.8165779999999927
11
124.7669269999999955
21
-79.7895520000000005
0
LINE
8
BLACK
6
CONTINUOUS
10
124.7669269999999955
20
-79.7895520000000005
11
124.6764949999999885
21
-79.7373410000000007
0
LINE
8
BLACK
6
CONTINUOUS
10
124.6764949999999885
20
-79.7373410000000007
11
124.6371569999999878
21
-79.7028430000000014
0
LINE
8
BLACK
6
CONTINUOUS
10
124.6371569999999878
20
-79.7028430000000014
11
123.7843139999999948
21
-78.8499999999999943
0
LINE
8
BLACK
6
CONTINUOUS
10
123.7843139999999948
20
-78.8499999999999943
11
122.6499999999999915
21
-78.8499999999999943
0
LINE
8
BLACK
6
CONTINUOUS
10
122.6499999999999915
20
-78.8499999999999943
11
122.6499999999999915
21
-77.1499999999999915
0
LINE
8
BLACK
6
CONTINUOUS
10
122.6499999999999915
20
-77.1499999999999915
11
124.3499999999999943
21
-77.1499999999999915
0
LINE
8
BLACK
6
CONTINUOUS
10
124.3499999999999943
20
-77.1499999999999915
11
124.3499999999999943
21
-78.2843139999999948
0
LINE
8
BLACK
6
CONTINUOUS
10
123.7137779999999907
20
-74.4955349999999896
11
123.8100439999999907
21
-74.5918009999999896
0
LINE
8
BLACK
6
CONTINUOUS
10
123.8100439999999907
20
-74.5918009999999896
11
123.8669170000000008
21
-74.8192909999999927
0
LINE
8
BLACK
6
CONTINUOUS
10
123.8669170000000008
20
-74.8192909999999927
11
123.8669170000000008
21
-75.2823640000000012
0
LINE
8
BLACK
6
CONTINUOUS
10
123.8669170000000008
20
-75.2823640000000012
11
123.8100439999999907
21
-75.50985399999999
0
LINE
8
BLACK
6
CONTINUOUS
10
123.8100439999999907
20
-75.50985399999999
11
123.7137779999999907
21
-75.6061210000000017
0
LINE
8
BLACK
6
CONTINUOUS
10
123.7137779999999907
20
-75.6061210000000017
11
123.6243649999999974
21
-75.65082799999999
0
LINE
8
BLACK
6
CONTINUOUS
10
123.6243649999999974
20
-75.65082799999999
11
123.4094699999999989
21
-75.65082799999999
0
LINE
8
BLACK
6
CONTINUOUS
10
123.4094699999999989
20
-75.65082799999999
11
123.3200569999999914
21
-75.6061210000000017
0
LINE
8
BLACK
6
CONTINUOUS
10
123.3200569999999914
20
-75.6061210000000017
11
123.2237899999999939
21
-75.50985399999999
0
LINE
8
BLACK
6
CONTINUOUS
10
123.2237899999999939
20
-75.50985399999999
11
123.166916999999998
21
-75.282361999999992
0
LINE
8
BLACK
6
CONTINUOUS
10
123.166916999999998
20
-75.282361999999992
11
123.166916999999998
21
-74.8192930000000018
0
LINE
8
BLACK
6
CONTINUOUS
10
123.166916999999998
20
-74.8192930000000018
11
123.2237899999999939
21
-74.5918009999999896
0
LINE
8
BLACK
6
CONTINUOUS
10
123.2237899999999939
20
-74.5918009999999896
11
123.3200569999999914
21
-74.4955339999999921
0
LINE
8
BLACK
6
CONTINUOUS
10
123.3200569999999914
20
-74.4955339999999921
11
123.4094699999999989
21
-74.4508280000000013
0
LINE
8
BLACK
6
CONTINUOUS
10
123.4094699999999989
20
-74.4508280000000013
11
123.6243639999999999
21
-74.4508280000000013
0
LINE
8
BLACK
6
CONTINUOUS
10
123.6243639999999999
20
-74.4508280000000013
11
123.7137779999999907
21
-74.4955349999999896
0
LINE
8
BLACK
6
CONTINUOUS
10
137.4425389999999823
20
-73.5201849999999979
11
137.4882939999999962
21
-73.5729889999999926
0
LINE
8
BLACK
6
CONTINUOUS
10
137.4882939999999962
20
-73.5729889999999926
11
137.4994999999999834
21
-73.6244999999999976
0
LINE
8
BLACK
6
CONTINUOUS
10
137.4994999999999834
20
-73.6244999999999976
11
137.4994999999999834
21
-89.3755000000000024
0
LINE
8
BLACK
6
CONTINUOUS
10
137.4994999999999834
20
-89.3755000000000024
11
137.4798150000000021
21
-89.4425389999999965
0
LINE
8
BLACK
6
CONTINUOUS
10
137.4798150000000021
20
-89.4425389999999965
11
137.4270109999999931
21
-89.4882939999999962
0
LINE
8
BLACK
6
CONTINUOUS
10
137.4270109999999931
20
-89.4882939999999962
11
137.3754999999999882
21
-89.4994999999999976
0
LINE
8
BLACK
6
CONTINUOUS
10
137.3754999999999882
20
-89.4994999999999976
11
121.6244999999999976
21
-89.4994999999999976
0
LINE
8
BLACK
6
CONTINUOUS
10
121.6244999999999976
20
-89.4994999999999976
11
121.5574609999999893
21
-89.4798150000000021
0
LINE
8
BLACK
6
CONTINUOUS
10
121.5574609999999893
20
-89.4798150000000021
11
121.5117059999999896
21
-89.4270109999999931
0
LINE
8
BLACK
6
CONTINUOUS
10
121.5117059999999896
20
-89.4270109999999931
11
121.5004999999999882
21
-89.3755000000000024
0
LINE
8
BLACK
6
CONTINUOUS
10
121.5004999999999882
20
-89.3755000000000024
11
121.5004999999999882
21
-77.1050389999999908
0
LINE
8
BLACK
6
CONTINUOUS
10
121.5004999999999882
20
-77.1050389999999908
11
121.5004999999999882
21
-75.9575529999999901
0
LINE
8
BLACK
6
CONTINUOUS
10
121.5004999999999882
20
-75.9575529999999901
11
121.5004999999999882
21
-73.6244999999999976
0
LINE
8
BLACK
6
CONTINUOUS
10
121.5004999999999882
20
-73.6244999999999976
11
121.5201849999999979
21
-73.5574610000000035
0
LINE
8
BLACK
6
CONTINUOUS
10
121.5201849999999979
20
-73.5574610000000035
11
121.5729889999999926
21
-73.5117060000000038
0
LINE
8
BLACK
6
CONTINUOUS
10
121.5729889999999926
20
-73.5117060000000038
11
121.6244999999999976
21
-73.5005000000000024
0
LINE
8
BLACK
6
CONTINUOUS
10
121.6244999999999976
20
-73.5005000000000024
11
137.3754999999999882
21
-73.5005000000000024
0
LINE
8
BLACK
6
CONTINUOUS
10
137.3754999999999882
20
-73.5005000000000024
11
137.4425389999999823
21
-73.5201849999999979
0
LINE
8
BLACK
6
CONTINUOUS
10
132.613506000000001
20
-73.8901400000000024
11
132.3664229999999975
21
-73.9704219999999992
0
LINE
8
BLACK
6
CONTINUOUS
10
132.3664229999999975
20
-73.9704219999999992
11
132.1349449999999877
21
-74.0883680000000027
0
LINE
8
BLACK
6
CONTINUOUS
10
132.1349449999999877
20
-74.0883680000000027
11
131.9247780000000034
21
-74.2410619999999994
0
LINE
8
BLACK
6
CONTINUOUS
10
131.9247780000000034
20
-74.2410619999999994
11
131.8564999999999827
21
-74.3093399999999917
0
LINE
8
BLACK
6
CONTINUOUS
10
131.8564999999999827
20
-74.3093399999999917
11
131.7951759999999979
21
-74.3428239999999931
0
LINE
8
BLACK
6
CONTINUOUS
10
131.7951759999999979
20
-74.3428239999999931
11
131.7254849999999919
21
-74.3378390000000024
0
LINE
8
BLACK
6
CONTINUOUS
10
131.7254849999999919
20
-74.3378390000000024
11
131.6735669999999914
21
-74.2989740000000012
0
LINE
8
BLACK
6
CONTINUOUS
10
131.6735669999999914
20
-74.2989740000000012
11
131.6734600000000057
21
-74.2990819999999985
0
LINE
8
BLACK
6
CONTINUOUS
10
131.6734600000000057
20
-74.2990819999999985
11
131.6727129999999875
21
-74.2983349999999945
0
LINE
8
BLACK
6
CONTINUOUS
10
131.6727129999999875
20
-74.2983349999999945
11
131.6695509999999842
21
-74.295968000000002
0
LINE
8
BLACK
6
CONTINUOUS
10
131.6695509999999842
20
-74.295968000000002
11
131.6695509999999842
21
-74.2959669999999903
0
LINE
8
BLACK
6
CONTINUOUS
10
131.6695509999999842
20
-74.2959669999999903
11
131.6671869999999842
21
-74.2928089999999912
0
LINE
8
BLACK
6
CONTINUOUS
10
131.6671869999999842
20
-74.2928089999999912
11
131.5520929999999851
21
-74.2066489999999988
0
LINE
8
BLACK
6
CONTINUOUS
10
131.5520929999999851
20
-74.2066489999999988
11
131.5520860000000027
21
-74.2066449999999946
0
LINE
8
BLACK
6
CONTINUOUS
10
131.5520860000000027
20
-74.2066449999999946
11
131.4173789999999826
21
-74.1564029999999974
0
LINE
8
BLACK
6
CONTINUOUS
10
131.4173789999999826
20
-74.1564029999999974
11
131.4173720000000003
21
-74.1564010000000025
0
LINE
8
BLACK
6
CONTINUOUS
10
131.4173720000000003
20
-74.1564010000000025
11
131.3578440000000001
21
-74.1499999999999915
0
LINE
8
BLACK
6
CONTINUOUS
10
131.3578440000000001
20
-74.1499999999999915
11
130.710000000000008
21
-74.1499999999999915
0
LINE
8
BLACK
6
CONTINUOUS
10
130.710000000000008
20
-74.1499999999999915
11
130.710000000000008
21
-74.6499999999999915
0
LINE
8
BLACK
6
CONTINUOUS
10
130.710000000000008
20
-74.6499999999999915
11
131.3100000000000023
21
-74.6499999999999915
0
LINE
8
BLACK
6
CONTINUOUS
10
131.3100000000000023
20
-74.6499999999999915
11
131.3100000000000023
21
-76.3499999999999943
0
LINE
8
BLACK
6
CONTINUOUS
10
131.3100000000000023
20
-76.3499999999999943
11
130.8599999999999852
21
-76.3499999999999943
0
LINE
8
BLACK
6
CONTINUOUS
10
130.8599999999999852
20
-76.3499999999999943
11
130.8599999999999852
21
-76.8499999999999943
0
LINE
8
BLACK
6
CONTINUOUS
10
130.8599999999999852
20
-76.8499999999999943
11
131.3578279999999836
21
-76.8499999999999943
0
LINE
8
BLACK
6
CONTINUOUS
10
131.3578279999999836
20
-76.8499999999999943
11
131.3578440000000001
21
-76.8499989999999968
0
LINE
8
BLACK
6
CONTINUOUS
10
131.3578440000000001
20
-76.8499989999999968
11
131.4173720000000003
21
-76.8435980000000001
0
LINE
8
BLACK
6
CONTINUOUS
10
131.4173720000000003
20
-76.8435980000000001
11
131.4173789999999826
21
-76.8435959999999909
0
LINE
8
BLACK
6
CONTINUOUS
10
131.4173789999999826
20
-76.8435959999999909
11
131.5520860000000027
21
-76.7933539999999937
0
LINE
8
BLACK
6
CONTINUOUS
10
131.5520860000000027
20
-76.7933539999999937
11
131.5520889999999952
21
-76.7933519999999987
0
LINE
8
BLACK
6
CONTINUOUS
10
131.5520889999999952
20
-76.7933519999999987
11
131.6011880000000076
21
-76.7565969999999993
0
LINE
8
BLACK
6
CONTINUOUS
10
131.6011880000000076
20
-76.7565969999999993
11
131.6666519999999991
21
-76.7321790000000021
0
LINE
8
BLACK
6
CONTINUOUS
10
131.6666519999999991
20
-76.7321790000000021
11
131.734925000000004
21
-76.7470299999999952
0
LINE
8
BLACK
6
CONTINUOUS
10
131.734925000000004
20
-76.7470299999999952
11
131.7843309999999803
21
-76.7964350000000024
0
LINE
8
BLACK
6
CONTINUOUS
10
131.7843309999999803
20
-76.7964350000000024
11
131.7994999999999948
21
-76.8558629999999994
0
LINE
8
BLACK
6
CONTINUOUS
10
131.7994999999999948
20
-76.8558629999999994
11
131.7994999999999948
21
-77.0144859999999909
0
LINE
8
BLACK
6
CONTINUOUS
10
131.7994999999999948
20
-77.0144859999999909
11
131.8290590000000009
21
-77.2011179999999939
0
LINE
8
BLACK
6
CONTINUOUS
10
131.8290590000000009
20
-77.2011179999999939
11
131.8874539999999911
21
-77.3808360000000022
0
LINE
8
BLACK
6
CONTINUOUS
10
131.8874539999999911
20
-77.3808360000000022
11
131.9732400000000041
21
-77.5491990000000015
0
LINE
8
BLACK
6
CONTINUOUS
10
131.9732400000000041
20
-77.5491990000000015
11
132.0843099999999879
21
-77.7020739999999961
0
LINE
8
BLACK
6
CONTINUOUS
10
132.0843099999999879
20
-77.7020739999999961
11
132.0843109999999854
21
-77.7020749999999936
0
LINE
8
BLACK
6
CONTINUOUS
10
132.0843109999999854
20
-77.7020749999999936
11
132.0843119999999828
21
-77.702075999999991
0
LINE
8
BLACK
6
CONTINUOUS
10
132.0843119999999828
20
-77.702075999999991
11
133.8656090000000063
21
-79.4833730000000003
0
LINE
8
BLACK
6
CONTINUOUS
10
133.8656090000000063
20
-79.4833730000000003
11
133.899093999999991
21
-79.5446960000000018
0
LINE
8
BLACK
6
CONTINUOUS
10
133.899093999999991
20
-79.5446960000000018
11
133.900400999999988
21
-79.5516559999999942
0
LINE
8
BLACK
6
CONTINUOUS
10
133.900400999999988
20
-79.5516559999999942
11
133.9389089999999953
21
-79.7947849999999903
0
LINE
8
BLACK
6
CONTINUOUS
10
133.9389089999999953
20
-79.7947849999999903
11
134.016760000000005
21
-80.0343829999999912
0
LINE
8
BLACK
6
CONTINUOUS
10
134.016760000000005
20
-80.0343829999999912
11
134.131132000000008
21
-80.2588480000000004
0
LINE
8
BLACK
6
CONTINUOUS
10
134.131132000000008
20
-80.2588480000000004
11
134.2792010000000005
21
-80.462648999999999
0
LINE
8
BLACK
6
CONTINUOUS
10
134.2792010000000005
20
-80.462648999999999
11
134.2792049999999904
21
-80.4626540000000006
0
LINE
8
BLACK
6
CONTINUOUS
10
134.2792049999999904
20
-80.4626540000000006
11
134.4188699999999983
21
-80.6023189999999943
0
LINE
8
BLACK
6
CONTINUOUS
10
134.4188699999999983
20
-80.6023189999999943
11
134.452354999999983
21
-80.6636419999999958
0
LINE
8
BLACK
6
CONTINUOUS
10
134.452354999999983
20
-80.6636419999999958
11
134.447371000000004
21
-80.7333339999999993
0
LINE
8
BLACK
6
CONTINUOUS
10
134.447371000000004
20
-80.7333339999999993
11
134.4188699999999983
21
-80.7776810000000012
0
LINE
8
BLACK
6
CONTINUOUS
10
134.4188699999999983
20
-80.7776810000000012
11
134.2792049999999904
21
-80.9173449999999974
0
LINE
8
BLACK
6
CONTINUOUS
10
134.2792049999999904
20
-80.9173449999999974
11
134.2792010000000005
21
-80.917349999999999
0
LINE
8
BLACK
6
CONTINUOUS
10
134.2792010000000005
20
-80.917349999999999
11
134.131132000000008
21
-81.1211509999999976
0
LINE
8
BLACK
6
CONTINUOUS
10
134.131132000000008
20
-81.1211509999999976
11
134.016760000000005
21
-81.3456159999999926
0
LINE
8
BLACK
6
CONTINUOUS
10
134.016760000000005
20
-81.3456159999999926
11
133.9389099999999928
21
-81.5852139999999935
0
LINE
8
BLACK
6
CONTINUOUS
10
133.9389099999999928
20
-81.5852139999999935
11
133.9389099999999928
21
-81.5852149999999909
0
LINE
8
BLACK
6
CONTINUOUS
10
133.9389099999999928
20
-81.5852149999999909
11
133.8994999999999891
21
-81.8340379999999925
0
LINE
8
BLACK
6
CONTINUOUS
10
133.8994999999999891
20
-81.8340379999999925
11
133.8994999999999891
21
-82.085961999999995
0
LINE
8
BLACK
6
CONTINUOUS
10
133.8994999999999891
20
-82.085961999999995
11
133.9016440000000046
21
-82.0994999999999919
0
LINE
8
BLACK
6
CONTINUOUS
10
133.9016440000000046
20
-82.0994999999999919
11
133.9389099999999928
21
-82.3347849999999966
0
LINE
8
BLACK
6
CONTINUOUS
10
133.9389099999999928
20
-82.3347849999999966
11
134.016760000000005
21
-82.5743829999999974
0
LINE
8
BLACK
6
CONTINUOUS
10
134.016760000000005
20
-82.5743829999999974
11
134.131132000000008
21
-82.7988479999999925
0
LINE
8
BLACK
6
CONTINUOUS
10
134.131132000000008
20
-82.7988479999999925
11
134.2792010000000005
21
-83.002648999999991
0
LINE
8
BLACK
6
CONTINUOUS
10
134.2792010000000005
20
-83.002648999999991
11
134.2792049999999904
21
-83.0026539999999926
0
LINE
8
BLACK
6
CONTINUOUS
10
134.2792049999999904
20
-83.0026539999999926
11
134.4188699999999983
21
-83.1423190000000005
0
LINE
8
BLACK
6
CONTINUOUS
10
134.4188699999999983
20
-83.1423190000000005
11
134.452354999999983
21
-83.2036420000000021
0
LINE
8
BLACK
6
CONTINUOUS
10
134.452354999999983
20
-83.2036420000000021
11
134.447371000000004
21
-83.2733339999999913
0
LINE
8
BLACK
6
CONTINUOUS
10
134.447371000000004
20
-83.2733339999999913
11
134.4188699999999983
21
-83.3176809999999932
0
LINE
8
BLACK
6
CONTINUOUS
10
134.4188699999999983
20
-83.3176809999999932
11
134.2792049999999904
21
-83.4573449999999895
0
LINE
8
BLACK
6
CONTINUOUS
10
134.2792049999999904
20
-83.4573449999999895
11
134.2792010000000005
21
-83.457349999999991
0
LINE
8
BLACK
6
CONTINUOUS
10
134.2792010000000005
20
-83.457349999999991
11
134.131132000000008
21
-83.6611509999999896
0
LINE
8
BLACK
6
CONTINUOUS
10
134.131132000000008
20
-83.6611509999999896
11
134.016760000000005
21
-83.8856159999999988
0
LINE
8
BLACK
6
CONTINUOUS
10
134.016760000000005
20
-83.8856159999999988
11
133.94390199999998
21
-84.1098499999999945
0
LINE
8
BLACK
6
CONTINUOUS
10
133.94390199999998
20
-84.1098499999999945
11
133.9389099999999928
21
-84.1252149999999972
0
LINE
8
BLACK
6
CONTINUOUS
10
133.9389099999999928
20
-84.1252149999999972
11
133.8994999999999891
21
-84.3740379999999988
0
LINE
8
BLACK
6
CONTINUOUS
10
133.8994999999999891
20
-84.3740379999999988
11
133.8994999999999891
21
-84.6259620000000012
0
LINE
8
BLACK
6
CONTINUOUS
10
133.8994999999999891
20
-84.6259620000000012
11
133.9237789999999961
21
-84.7792539999999946
0
LINE
8
BLACK
6
CONTINUOUS
10
133.9237789999999961
20
-84.7792539999999946
11
133.9389099999999928
21
-84.8747850000000028
0
LINE
8
BLACK
6
CONTINUOUS
10
133.9389099999999928
20
-84.8747850000000028
11
134.016760000000005
21
-85.1143829999999895
0
LINE
8
BLACK
6
CONTINUOUS
10
134.016760000000005
20
-85.1143829999999895
11
134.131132000000008
21
-85.3388479999999987
0
LINE
8
BLACK
6
CONTINUOUS
10
134.131132000000008
20
-85.3388479999999987
11
134.2792010000000005
21
-85.5426489999999973
0
LINE
8
BLACK
6
CONTINUOUS
10
134.2792010000000005
20
-85.5426489999999973
11
134.2792049999999904
21
-85.5426539999999989
0
LINE
8
BLACK
6
CONTINUOUS
10
134.2792049999999904
20
-85.5426539999999989
11
134.4188699999999983
21
-85.6823189999999926
0
LINE
8
BLACK
6
CONTINUOUS
10
134.4188699999999983
20
-85.6823189999999926
11
134.452354999999983
21
-85.7436419999999941
0
LINE
8
BLACK
6
CONTINUOUS
10
134.452354999999983
20
-85.7436419999999941
11
134.447371000000004
21
-85.8133339999999976
0
LINE
8
BLACK
6
CONTINUOUS
10
134.447371000000004
20
-85.8133339999999976
11
134.4188699999999983
21
-85.8576809999999995
0
LINE
8
BLACK
6
CONTINUOUS
10
134.4188699999999983
20
-85.8576809999999995
11
134.2792049999999904
21
-85.9973449999999957
0
LINE
8
BLACK
6
CONTINUOUS
10
134.2792049999999904
20
-85.9973449999999957
11
134.2792010000000005
21
-85.9973499999999973
0
LINE
8
BLACK
6
CONTINUOUS
10
134.2792010000000005
20
-85.9973499999999973
11
134.131132000000008
21
-86.2011509999999959
0
LINE
8
BLACK
6
CONTINUOUS
10
134.131132000000008
20
-86.2011509999999959
11
134.016760000000005
21
-86.4256159999999909
0
LINE
8
BLACK
6
CONTINUOUS
10
134.016760000000005
20
-86.4256159999999909
11
133.9389099999999928
21
-86.6652139999999918
0
LINE
8
BLACK
6
CONTINUOUS
10
133.9389099999999928
20
-86.6652139999999918
11
133.8994999999999891
21
-86.9140379999999908
0
LINE
8
BLACK
6
CONTINUOUS
10
133.8994999999999891
20
-86.9140379999999908
11
133.8994999999999891
21
-87.1659609999999958
0
LINE
8
BLACK
6
CONTINUOUS
10
133.8994999999999891
20
-87.1659609999999958
11
133.9389099999999928
21
-87.4147849999999949
0
LINE
8
BLACK
6
CONTINUOUS
10
133.9389099999999928
20
-87.4147849999999949
11
134.016760000000005
21
-87.6543829999999957
0
LINE
8
BLACK
6
CONTINUOUS
10
134.016760000000005
20
-87.6543829999999957
11
134.0735919999999908
21
-87.7659209999999916
0
LINE
8
BLACK
6
CONTINUOUS
10
134.0735919999999908
20
-87.7659209999999916
11
134.1009310000000028
21
-87.8195769999999953
0
LINE
8
BLACK
6
CONTINUOUS
10
134.1009310000000028
20
-87.8195769999999953
11
134.131132000000008
21
-87.8788479999999907
0
LINE
8
BLACK
6
CONTINUOUS
10
134.131132000000008
20
-87.8788479999999907
11
134.2792010000000005
21
-88.0826489999999893
0
LINE
8
BLACK
6
CONTINUOUS
10
134.2792010000000005
20
-88.0826489999999893
11
134.2792049999999904
21
-88.0826539999999909
0
LINE
8
BLACK
6
CONTINUOUS
10
134.2792049999999904
20
-88.0826539999999909
11
134.4573450000000037
21
-88.26079399999999
0
LINE
8
BLACK
6
CONTINUOUS
10
134.4573450000000037
20
-88.26079399999999
11
134.457349999999991
21
-88.2607979999999941
0
LINE
8
BLACK
6
CONTINUOUS
10
134.457349999999991
20
-88.2607979999999941
11
134.5223049999999887
21
-88.3079899999999895
0
LINE
8
BLACK
6
CONTINUOUS
10
134.5223049999999887
20
-88.3079899999999895
11
134.6611550000000079
21
-88.4088699999999932
0
LINE
8
BLACK
6
CONTINUOUS
10
134.6611550000000079
20
-88.4088699999999932
11
134.8041839999999922
21
-88.4817469999999986
0
LINE
8
BLACK
6
CONTINUOUS
10
134.8041839999999922
20
-88.4817469999999986
11
134.8856159999999988
21
-88.5232389999999896
0
LINE
8
BLACK
6
CONTINUOUS
10
134.8856159999999988
20
-88.5232389999999896
11
134.8856179999999938
21
-88.5232389999999896
0
LINE
8
BLACK
6
CONTINUOUS
10
134.8856179999999938
20
-88.5232389999999896
11
134.8856209999999862
21
-88.5232409999999987
0
LINE
8
BLACK
6
CONTINUOUS
10
134.8856209999999862
20
-88.5232409999999987
11
135.1252149999999972
21
-88.6010899999999992
0
LINE
8
BLACK
6
CONTINUOUS
10
135.1252149999999972
20
-88.6010899999999992
11
135.3740379999999845
21
-88.640500000000003
0
LINE
8
BLACK
6
CONTINUOUS
10
135.3740379999999845
20
-88.640500000000003
11
135.374038999999982
21
-88.640500000000003
0
LINE
8
BLACK
6
CONTINUOUS
10
135.374038999999982
20
-88.640500000000003
11
135.6259609999999896
21
-88.640500000000003
0
LINE
8
BLACK
6
CONTINUOUS
10
135.6259609999999896
20
-88.640500000000003
11
135.625961999999987
21
-88.640500000000003
0
LINE
8
BLACK
6
CONTINUOUS
10
135.625961999999987
20
-88.640500000000003
11
135.8747850000000028
21
-88.6010899999999992
0
LINE
8
BLACK
6
CONTINUOUS
10
135.8747850000000028
20
-88.6010899999999992
11
136.1143789999999854
21
-88.5232409999999987
0
LINE
8
BLACK
6
CONTINUOUS
10
136.1143789999999854
20
-88.5232409999999987
11
136.3388449999999921
21
-88.4088699999999932
0
LINE
8
BLACK
6
CONTINUOUS
10
136.3388449999999921
20
-88.4088699999999932
11
136.5426559999999938
21
-88.2607929999999925
0
LINE
8
BLACK
6
CONTINUOUS
10
136.5426559999999938
20
-88.2607929999999925
11
136.7207929999999863
21
-88.0826560000000001
0
LINE
8
BLACK
6
CONTINUOUS
10
136.7207929999999863
20
-88.0826560000000001
11
136.8688699999999869
21
-87.8788449999999983
0
LINE
8
BLACK
6
CONTINUOUS
10
136.8688699999999869
20
-87.8788449999999983
11
136.9832409999999925
21
-87.6543789999999916
0
LINE
8
BLACK
6
CONTINUOUS
10
136.9832409999999925
20
-87.6543789999999916
11
137.0610900000000072
21
-87.4147849999999949
0
LINE
8
BLACK
6
CONTINUOUS
10
137.0610900000000072
20
-87.4147849999999949
11
137.1004999999999825
21
-87.1659619999999933
0
LINE
8
BLACK
6
CONTINUOUS
10
137.1004999999999825
20
-87.1659619999999933
11
137.1004999999999825
21
-86.9140379999999908
0
LINE
8
BLACK
6
CONTINUOUS
10
137.1004999999999825
20
-86.9140379999999908
11
137.0610900000000072
21
-86.6652149999999892
0
LINE
8
BLACK
6
CONTINUOUS
10
137.0610900000000072
20
-86.6652149999999892
11
136.9832409999999925
21
-86.4256209999999925
0
LINE
8
BLACK
6
CONTINUOUS
10
136.9832409999999925
20
-86.4256209999999925
11
136.9832389999999975
21
-86.4256180000000001
0
LINE
8
BLACK
6
CONTINUOUS
10
136.9832389999999975
20
-86.4256180000000001
11
136.9832389999999975
21
-86.4256159999999909
0
LINE
8
BLACK
6
CONTINUOUS
10
136.9832389999999975
20
-86.4256159999999909
11
136.9417469999999923
21
-86.3441839999999985
0
LINE
8
BLACK
6
CONTINUOUS
10
136.9417469999999923
20
-86.3441839999999985
11
136.8688699999999869
21
-86.201155
0
LINE
8
BLACK
6
CONTINUOUS
10
136.8688699999999869
20
-86.201155
11
136.7671069999999816
21
-86.061089999999993
0
LINE
8
BLACK
6
CONTINUOUS
10
136.7671069999999816
20
-86.061089999999993
11
136.720798000000002
21
-85.9973499999999973
0
LINE
8
BLACK
6
CONTINUOUS
10
136.720798000000002
20
-85.9973499999999973
11
136.7207939999999837
21
-85.9973449999999957
0
LINE
8
BLACK
6
CONTINUOUS
10
136.7207939999999837
20
-85.9973449999999957
11
136.5811300000000017
21
-85.8576809999999995
0
LINE
8
BLACK
6
CONTINUOUS
10
136.5811300000000017
20
-85.8576809999999995
11
136.5476449999999886
21
-85.7963579999999979
0
LINE
8
BLACK
6
CONTINUOUS
10
136.5476449999999886
20
-85.7963579999999979
11
136.552628999999996
21
-85.7266659999999945
0
LINE
8
BLACK
6
CONTINUOUS
10
136.552628999999996
20
-85.7266659999999945
11
136.5811300000000017
21
-85.6823189999999926
0
LINE
8
BLACK
6
CONTINUOUS
10
136.5811300000000017
20
-85.6823189999999926
11
136.6070259999999905
21
-85.6564229999999895
0
LINE
8
BLACK
6
CONTINUOUS
10
136.6070259999999905
20
-85.6564229999999895
11
136.7207929999999863
21
-85.5426559999999938
0
LINE
8
BLACK
6
CONTINUOUS
10
136.7207929999999863
20
-85.5426559999999938
11
136.8688699999999869
21
-85.3388449999999921
0
LINE
8
BLACK
6
CONTINUOUS
10
136.8688699999999869
20
-85.3388449999999921
11
136.9832409999999925
21
-85.1143789999999996
0
LINE
8
BLACK
6
CONTINUOUS
10
136.9832409999999925
20
-85.1143789999999996
11
137.0610900000000072
21
-84.8747850000000028
0
LINE
8
BLACK
6
CONTINUOUS
10
137.0610900000000072
20
-84.8747850000000028
11
137.1004999999999825
21
-84.6259620000000012
0
LINE
8
BLACK
6
CONTINUOUS
10
137.1004999999999825
20
-84.6259620000000012
11
137.1004999999999825
21
-84.3740379999999988
0
LINE
8
BLACK
6
CONTINUOUS
10
137.1004999999999825
20
-84.3740379999999988
11
137.0610900000000072
21
-84.1252149999999972
0
LINE
8
BLACK
6
CONTINUOUS
10
137.0610900000000072
20
-84.1252149999999972
11
136.9832409999999925
21
-83.8856210000000004
0
LINE
8
BLACK
6
CONTINUOUS
10
136.9832409999999925
20
-83.8856210000000004
11
136.9832389999999975
21
-83.8856179999999938
0
LINE
8
BLACK
6
CONTINUOUS
10
136.9832389999999975
20
-83.8856179999999938
11
136.9832389999999975
21
-83.8856159999999988
0
LINE
8
BLACK
6
CONTINUOUS
10
136.9832389999999975
20
-83.8856159999999988
11
136.9197149999999965
21
-83.7609449999999924
0
LINE
8
BLACK
6
CONTINUOUS
10
136.9197149999999965
20
-83.7609449999999924
11
136.8688699999999869
21
-83.6611549999999937
0
LINE
8
BLACK
6
CONTINUOUS
10
136.8688699999999869
20
-83.6611549999999937
11
136.8499520000000018
21
-83.6351169999999939
0
LINE
8
BLACK
6
CONTINUOUS
10
136.8499520000000018
20
-83.6351169999999939
11
136.720798000000002
21
-83.457349999999991
0
LINE
8
BLACK
6
CONTINUOUS
10
136.720798000000002
20
-83.457349999999991
11
136.7207939999999837
21
-83.4573449999999895
0
LINE
8
BLACK
6
CONTINUOUS
10
136.7207939999999837
20
-83.4573449999999895
11
136.5811300000000017
21
-83.3176809999999932
0
LINE
8
BLACK
6
CONTINUOUS
10
136.5811300000000017
20
-83.3176809999999932
11
136.5476449999999886
21
-83.2563579999999916
0
LINE
8
BLACK
6
CONTINUOUS
10
136.5476449999999886
20
-83.2563579999999916
11
136.552628999999996
21
-83.1866660000000024
0
LINE
8
BLACK
6
CONTINUOUS
10
136.552628999999996
20
-83.1866660000000024
11
136.5811300000000017
21
-83.1423190000000005
0
LINE
8
BLACK
6
CONTINUOUS
10
136.5811300000000017
20
-83.1423190000000005
11
136.7207929999999863
21
-83.0026560000000018
0
LINE
8
BLACK
6
CONTINUOUS
10
136.7207929999999863
20
-83.0026560000000018
11
136.8688699999999869
21
-82.798845
0
LINE
8
BLACK
6
CONTINUOUS
10
136.8688699999999869
20
-82.798845
11
136.9832409999999925
21
-82.5743789999999933
0
LINE
8
BLACK
6
CONTINUOUS
10
136.9832409999999925
20
-82.5743789999999933
11
137.0610900000000072
21
-82.3347849999999966
0
LINE
8
BLACK
6
CONTINUOUS
10
137.0610900000000072
20
-82.3347849999999966
11
137.1004999999999825
21
-82.085961999999995
0
LINE
8
BLACK
6
CONTINUOUS
10
137.1004999999999825
20
-82.085961999999995
11
137.1004999999999825
21
-81.8340379999999925
0
LINE
8
BLACK
6
CONTINUOUS
10
137.1004999999999825
20
-81.8340379999999925
11
137.0610900000000072
21
-81.5852149999999909
0
LINE
8
BLACK
6
CONTINUOUS
10
137.0610900000000072
20
-81.5852149999999909
11
136.9832409999999925
21
-81.3456209999999942
0
LINE
8
BLACK
6
CONTINUOUS
10
136.9832409999999925
20
-81.3456209999999942
11
136.9832389999999975
21
-81.3456180000000018
0
LINE
8
BLACK
6
CONTINUOUS
10
136.9832389999999975
20
-81.3456180000000018
11
136.9832389999999975
21
-81.3456159999999926
0
LINE
8
BLACK
6
CONTINUOUS
10
136.9832389999999975
20
-81.3456159999999926
11
136.9417469999999923
21
-81.2641840000000002
0
LINE
8
BLACK
6
CONTINUOUS
10
136.9417469999999923
20
-81.2641840000000002
11
136.8688699999999869
21
-81.1211550000000017
0
LINE
8
BLACK
6
CONTINUOUS
10
136.8688699999999869
20
-81.1211550000000017
11
136.8499520000000018
21
-81.0951170000000019
0
LINE
8
BLACK
6
CONTINUOUS
10
136.8499520000000018
20
-81.0951170000000019
11
136.720798000000002
21
-80.917349999999999
0
LINE
8
BLACK
6
CONTINUOUS
10
136.720798000000002
20
-80.917349999999999
11
136.7207939999999837
21
-80.9173449999999974
0
LINE
8
BLACK
6
CONTINUOUS
10
136.7207939999999837
20
-80.9173449999999974
11
136.5811300000000017
21
-80.7776810000000012
0
LINE
8
BLACK
6
CONTINUOUS
10
136.5811300000000017
20
-80.7776810000000012
11
136.5476449999999886
21
-80.7163579999999996
0
LINE
8
BLACK
6
CONTINUOUS
10
136.5476449999999886
20
-80.7163579999999996
11
136.552628999999996
21
-80.6466659999999962
0
LINE
8
BLACK
6
CONTINUOUS
10
136.552628999999996
20
-80.6466659999999962
11
136.5811300000000017
21
-80.6023189999999943
0
LINE
8
BLACK
6
CONTINUOUS
10
136.5811300000000017
20
-80.6023189999999943
11
136.650903999999997
21
-80.5325449999999989
0
LINE
8
BLACK
6
CONTINUOUS
10
136.650903999999997
20
-80.5325449999999989
11
136.7207929999999863
21
-80.4626559999999955
0
LINE
8
BLACK
6
CONTINUOUS
10
136.7207929999999863
20
-80.4626559999999955
11
136.8688699999999869
21
-80.2588449999999938
0
LINE
8
BLACK
6
CONTINUOUS
10
136.8688699999999869
20
-80.2588449999999938
11
136.9832409999999925
21
-80.0343790000000013
0
LINE
8
BLACK
6
CONTINUOUS
10
136.9832409999999925
20
-80.0343790000000013
11
137.0610900000000072
21
-79.7947849999999903
0
LINE
8
BLACK
6
CONTINUOUS
10
137.0610900000000072
20
-79.7947849999999903
11
137.1004999999999825
21
-79.5459620000000029
0
LINE
8
BLACK
6
CONTINUOUS
10
137.1004999999999825
20
-79.5459620000000029
11
137.1004999999999825
21
-79.2940380000000005
0
LINE
8
BLACK
6
CONTINUOUS
10
137.1004999999999825
20
-79.2940380000000005
11
137.0610900000000072
21
-79.0452149999999989
0
LINE
8
BLACK
6
CONTINUOUS
10
137.0610900000000072
20
-79.0452149999999989
11
136.9832409999999925
21
-78.8056210000000021
0
LINE
8
BLACK
6
CONTINUOUS
10
136.9832409999999925
20
-78.8056210000000021
11
136.9832389999999975
21
-78.8056179999999955
0
LINE
8
BLACK
6
CONTINUOUS
10
136.9832389999999975
20
-78.8056179999999955
11
136.9832389999999975
21
-78.8056160000000006
0
LINE
8
BLACK
6
CONTINUOUS
10
136.9832389999999975
20
-78.8056160000000006
11
136.9417469999999923
21
-78.7241839999999939
0
LINE
8
BLACK
6
CONTINUOUS
10
136.9417469999999923
20
-78.7241839999999939
11
136.8688699999999869
21
-78.5811549999999954
0
LINE
8
BLACK
6
CONTINUOUS
10
136.8688699999999869
20
-78.5811549999999954
11
136.78523899999999
21
-78.4660459999999915
0
LINE
8
BLACK
6
CONTINUOUS
10
136.78523899999999
20
-78.4660459999999915
11
136.720798000000002
21
-78.3773499999999927
0
LINE
8
BLACK
6
CONTINUOUS
10
136.720798000000002
20
-78.3773499999999927
11
136.7207939999999837
21
-78.3773449999999912
0
LINE
8
BLACK
6
CONTINUOUS
10
136.7207939999999837
20
-78.3773449999999912
11
136.5426539999999989
21
-78.1992049999999921
0
LINE
8
BLACK
6
CONTINUOUS
10
136.5426539999999989
20
-78.1992049999999921
11
136.5426489999999831
21
-78.1992010000000022
0
LINE
8
BLACK
6
CONTINUOUS
10
136.5426489999999831
20
-78.1992010000000022
11
136.3388479999999845
21
-78.0511319999999955
0
LINE
8
BLACK
6
CONTINUOUS
10
136.3388479999999845
20
-78.0511319999999955
11
136.338846999999987
21
-78.051130999999998
0
LINE
8
BLACK
6
CONTINUOUS
10
136.338846999999987
20
-78.051130999999998
11
136.3388449999999921
21
-78.0511300000000006
0
LINE
8
BLACK
6
CONTINUOUS
10
136.3388449999999921
20
-78.0511300000000006
11
136.223417999999981
21
-77.9923169999999999
0
LINE
8
BLACK
6
CONTINUOUS
10
136.223417999999981
20
-77.9923169999999999
11
136.1143830000000037
21
-77.9367599999999925
0
LINE
8
BLACK
6
CONTINUOUS
10
136.1143830000000037
20
-77.9367599999999925
11
135.8747850000000028
21
-77.858908999999997
0
LINE
8
BLACK
6
CONTINUOUS
10
135.8747850000000028
20
-77.858908999999997
11
135.631654999999995
21
-77.8204009999999897
0
LINE
8
BLACK
6
CONTINUOUS
10
135.631654999999995
20
-77.8204009999999897
11
135.5685200000000066
21
-77.7904719999999941
0
LINE
8
BLACK
6
CONTINUOUS
10
135.5685200000000066
20
-77.7904719999999941
11
135.5633719999999869
21
-77.7856089999999938
0
LINE
8
BLACK
6
CONTINUOUS
10
135.5633719999999869
20
-77.7856089999999938
11
134.3733990000000063
21
-76.5956359999999989
0
LINE
8
BLACK
6
CONTINUOUS
10
134.3733990000000063
20
-76.5956359999999989
11
134.3399139999999932
21
-76.5343129999999974
0
LINE
8
BLACK
6
CONTINUOUS
10
134.3399139999999932
20
-76.5343129999999974
11
134.3448980000000006
21
-76.464620999999994
0
LINE
8
BLACK
6
CONTINUOUS
10
134.3448980000000006
20
-76.464620999999994
11
134.3486919999999998
21
-76.4575529999999901
0
LINE
8
BLACK
6
CONTINUOUS
10
134.3486919999999998
20
-76.4575529999999901
11
134.3607599999999991
21
-76.435071999999991
0
LINE
8
BLACK
6
CONTINUOUS
10
134.3607599999999991
20
-76.435071999999991
11
134.4116339999999923
21
-76.365050999999994
0
LINE
8
BLACK
6
CONTINUOUS
10
134.4116339999999923
20
-76.365050999999994
11
134.529578999999984
21
-76.1335720000000009
0
LINE
8
BLACK
6
CONTINUOUS
10
134.529578999999984
20
-76.1335720000000009
11
134.6098599999999976
21
-75.8864930000000015
0
LINE
8
BLACK
6
CONTINUOUS
10
134.6098599999999976
20
-75.8864930000000015
11
134.6405069999999853
21
-75.6929930000000013
0
LINE
8
BLACK
6
CONTINUOUS
10
134.6405069999999853
20
-75.6929930000000013
11
134.6504999999999939
21
-75.6299020000000013
0
LINE
8
BLACK
6
CONTINUOUS
10
134.6504999999999939
20
-75.6299020000000013
11
134.6504999999999939
21
-75.3700970000000012
0
LINE
8
BLACK
6
CONTINUOUS
10
134.6504999999999939
20
-75.3700970000000012
11
134.6224489999999889
21
-75.1929930000000013
0
LINE
8
BLACK
6
CONTINUOUS
10
134.6224489999999889
20
-75.1929930000000013
11
134.6098599999999976
21
-75.1135069999999985
0
LINE
8
BLACK
6
CONTINUOUS
10
134.6098599999999976
20
-75.1135069999999985
11
134.529578999999984
21
-74.8664279999999991
0
LINE
8
BLACK
6
CONTINUOUS
10
134.529578999999984
20
-74.8664279999999991
11
134.5295769999999891
21
-74.8664249999999925
0
LINE
8
BLACK
6
CONTINUOUS
10
134.5295769999999891
20
-74.8664249999999925
11
134.5295769999999891
21
-74.8664229999999975
0
LINE
8
BLACK
6
CONTINUOUS
10
134.5295769999999891
20
-74.8664229999999975
11
134.4188120000000026
21
-74.6490359999999953
0
LINE
8
BLACK
6
CONTINUOUS
10
134.4188120000000026
20
-74.6490359999999953
11
134.4116319999999973
21
-74.6349450000000019
0
LINE
8
BLACK
6
CONTINUOUS
10
134.4116319999999973
20
-74.6349450000000019
11
134.2589329999999848
21
-74.4247739999999993
0
LINE
8
BLACK
6
CONTINUOUS
10
134.2589329999999848
20
-74.4247739999999993
11
134.2589279999999974
21
-74.4247680000000003
0
LINE
8
BLACK
6
CONTINUOUS
10
134.2589279999999974
20
-74.4247680000000003
11
134.0752310000000023
21
-74.2410709999999909
0
LINE
8
BLACK
6
CONTINUOUS
10
134.0752310000000023
20
-74.2410709999999909
11
134.075224999999989
21
-74.2410660000000036
0
LINE
8
BLACK
6
CONTINUOUS
10
134.075224999999989
20
-74.2410660000000036
11
133.8650539999999864
21
-74.0883680000000027
0
LINE
8
BLACK
6
CONTINUOUS
10
133.8650539999999864
20
-74.0883680000000027
11
133.865052999999989
21
-74.088366999999991
0
LINE
8
BLACK
6
CONTINUOUS
10
133.865052999999989
20
-74.088366999999991
11
133.865050999999994
21
-74.0883659999999935
0
LINE
8
BLACK
6
CONTINUOUS
10
133.865050999999994
20
-74.0883659999999935
11
133.7927640000000054
21
-74.0515340000000037
0
LINE
8
BLACK
6
CONTINUOUS
10
133.7927640000000054
20
-74.0515340000000037
11
133.633576000000005
21
-73.9704219999999992
0
LINE
8
BLACK
6
CONTINUOUS
10
133.633576000000005
20
-73.9704219999999992
11
133.3864930000000015
21
-73.8901400000000024
0
LINE
8
BLACK
6
CONTINUOUS
10
133.3864930000000015
20
-73.8901400000000024
11
133.1299019999999871
21
-73.8494999999999919
0
LINE
8
BLACK
6
CONTINUOUS
10
133.1299019999999871
20
-73.8494999999999919
11
133.1298969999999997
21
-73.8494999999999919
0
LINE
8
BLACK
6
CONTINUOUS
10
133.1298969999999997
20
-73.8494999999999919
11
132.8701030000000003
21
-73.8494999999999919
0
LINE
8
BLACK
6
CONTINUOUS
10
132.8701030000000003
20
-73.8494999999999919
11
132.8700979999999845
21
-73.8494999999999919
0
LINE
8
BLACK
6
CONTINUOUS
10
132.8700979999999845
20
-73.8494999999999919
11
132.613506000000001
21
-73.8901400000000024
0
LINE
8
BLACK
6
CONTINUOUS
10
127.1540759999999892
20
-88.1194739999999967
11
127.1986500000000007
21
-88.1518590000000017
0
LINE
8
BLACK
6
CONTINUOUS
10
127.1986500000000007
20
-88.1518590000000017
11
127.3809679999999958
21
-88.2447549999999978
0
LINE
8
BLACK
6
CONTINUOUS
10
127.3809679999999958
20
-88.2447549999999978
11
127.5755819999999972
21
-88.3079899999999895
0
LINE
8
BLACK
6
CONTINUOUS
10
127.5755819999999972
20
-88.3079899999999895
11
127.7776829999999961
21
-88.3399999999999892
0
LINE
8
BLACK
6
CONTINUOUS
10
127.7776829999999961
20
-88.3399999999999892
11
127.9823169999999948
21
-88.3399999999999892
0
LINE
8
BLACK
6
CONTINUOUS
10
127.9823169999999948
20
-88.3399999999999892
11
128.1844169999999963
21
-88.3079899999999895
0
LINE
8
BLACK
6
CONTINUOUS
10
128.1844169999999963
20
-88.3079899999999895
11
128.3790309999999977
21
-88.2447549999999978
0
LINE
8
BLACK
6
CONTINUOUS
10
128.3790309999999977
20
-88.2447549999999978
11
128.561349000000007
21
-88.1518590000000017
0
LINE
8
BLACK
6
CONTINUOUS
10
128.561349000000007
20
-88.1518590000000017
11
128.605920999999995
21
-88.1194739999999967
0
LINE
8
BLACK
6
CONTINUOUS
10
128.605920999999995
20
-88.1194739999999967
11
128.2393449999999859
21
-87.7528980000000018
0
LINE
8
BLACK
6
CONTINUOUS
10
128.2393449999999859
20
-87.7528980000000018
11
128.1122279999999876
21
-87.8055519999999916
0
LINE
8
BLACK
6
CONTINUOUS
10
128.1122279999999876
20
-87.8055519999999916
11
127.9584139999999906
21
-87.8361479999999943
0
LINE
8
BLACK
6
CONTINUOUS
10
127.9584139999999906
20
-87.8361479999999943
11
127.8015860000000004
21
-87.8361479999999943
0
LINE
8
BLACK
6
CONTINUOUS
10
127.8015860000000004
20
-87.8361479999999943
11
127.6477719999999891
21
-87.8055519999999916
0
LINE
8
BLACK
6
CONTINUOUS
10
127.6477719999999891
20
-87.8055519999999916
11
127.5206529999999958
21
-87.7528969999999902
0
LINE
8
BLACK
6
CONTINUOUS
10
127.5206529999999958
20
-87.7528969999999902
11
127.1540759999999892
21
-88.1194739999999967
0
LINE
8
BLACK
6
CONTINUOUS
10
129.0635800000000017
20
-87.4365779999999972
11
129.0113699999999994
21
-87.4399999999999977
0
LINE
8
BLACK
6
CONTINUOUS
10
129.0113699999999994
20
-87.4399999999999977
11
128.6335530000000063
21
-87.4399999999999977
0
LINE
8
BLACK
6
CONTINUOUS
10
128.6335530000000063
20
-87.4399999999999977
11
128.9594740000000002
21
-87.7659209999999916
0
LINE
8
BLACK
6
CONTINUOUS
10
128.9594740000000002
20
-87.7659209999999916
11
128.9918590000000052
21
-87.7213489999999894
0
LINE
8
BLACK
6
CONTINUOUS
10
128.9918590000000052
20
-87.7213489999999894
11
129.0847550000000012
21
-87.5390309999999943
0
LINE
8
BLACK
6
CONTINUOUS
10
129.0847550000000012
20
-87.5390309999999943
11
129.1232379999999864
21
-87.4205919999999992
0
LINE
8
BLACK
6
CONTINUOUS
10
129.1232379999999864
20
-87.4205919999999992
11
129.0635800000000017
21
-87.4365779999999972
0
LINE
8
BLACK
6
CONTINUOUS
10
121.8494999999999919
20
-78.8949599999999975
11
121.8646299999999911
21
-79.029248999999993
0
LINE
8
BLACK
6
CONTINUOUS
10
121.8646299999999911
20
-79.029248999999993
11
121.8646309999999886
21
-79.0292539999999946
0
LINE
8
BLACK
6
CONTINUOUS
10
121.8646309999999886
20
-79.0292539999999946
11
121.9242109999999997
21
-79.1995229999999992
0
LINE
8
BLACK
6
CONTINUOUS
10
121.9242109999999997
20
-79.1995229999999992
11
121.9835989999999981
21
-79.2940380000000005
0
LINE
8
BLACK
6
CONTINUOUS
10
121.9835989999999981
20
-79.2940380000000005
11
122.0201840000000004
21
-79.3522619999999961
0
LINE
8
BLACK
6
CONTINUOUS
10
122.0201840000000004
20
-79.3522619999999961
11
122.1477379999999897
21
-79.4798159999999996
0
LINE
8
BLACK
6
CONTINUOUS
10
122.1477379999999897
20
-79.4798159999999996
11
122.2380799999999965
21
-79.5365819999999957
0
LINE
8
BLACK
6
CONTINUOUS
10
122.2380799999999965
20
-79.5365819999999957
11
122.2620699999999943
21
-79.5516559999999942
0
LINE
8
BLACK
6
CONTINUOUS
10
122.2620699999999943
20
-79.5516559999999942
11
122.3004779999999982
21
-79.5757890000000003
0
LINE
8
BLACK
6
CONTINUOUS
10
122.3004779999999982
20
-79.5757890000000003
11
122.4707449999999938
21
-79.6353679999999997
0
LINE
8
BLACK
6
CONTINUOUS
10
122.4707449999999938
20
-79.6353679999999997
11
122.4707499999999953
21
-79.6353689999999972
0
LINE
8
BLACK
6
CONTINUOUS
10
122.4707499999999953
20
-79.6353689999999972
11
122.561245999999997
21
-79.6455649999999906
0
LINE
8
BLACK
6
CONTINUOUS
10
122.561245999999997
20
-79.6455649999999906
11
122.6050399999999883
21
-79.6504989999999964
0
LINE
8
BLACK
6
CONTINUOUS
10
122.6050399999999883
20
-79.6504989999999964
11
122.6050429999999949
21
-79.6504999999999939
0
LINE
8
BLACK
6
CONTINUOUS
10
122.6050429999999949
20
-79.6504999999999939
11
122.6050460000000015
21
-79.6504999999999939
0
LINE
8
BLACK
6
CONTINUOUS
10
122.6050460000000015
20
-79.6504999999999939
11
123.4013739999999899
21
-79.6504999999999939
0
LINE
8
BLACK
6
CONTINUOUS
10
123.4013739999999899
20
-79.6504999999999939
11
123.4684129999999982
21
-79.6701849999999894
0
LINE
8
BLACK
6
CONTINUOUS
10
123.4684129999999982
20
-79.6701849999999894
11
123.4890549999999934
21
-79.6868189999999998
0
LINE
8
BLACK
6
CONTINUOUS
10
123.4890549999999934
20
-79.6868189999999998
11
124.1379259999999931
21
-80.3356899999999996
0
LINE
8
BLACK
6
CONTINUOUS
10
124.1379259999999931
20
-80.3356899999999996
11
124.2908009999999877
21
-80.4467599999999976
0
LINE
8
BLACK
6
CONTINUOUS
10
124.2908009999999877
20
-80.4467599999999976
11
124.4591679999999911
21
-80.5325469999999939
0
LINE
8
BLACK
6
CONTINUOUS
10
124.4591679999999911
20
-80.5325469999999939
11
124.6388819999999953
21
-80.5909400000000034
0
LINE
8
BLACK
6
CONTINUOUS
10
124.6388819999999953
20
-80.5909400000000034
11
124.7107269999999914
21
-80.6023189999999943
0
LINE
8
BLACK
6
CONTINUOUS
10
124.7107269999999914
20
-80.6023189999999943
11
124.7911619999999999
21
-80.6150590000000022
0
LINE
8
BLACK
6
CONTINUOUS
10
124.7911619999999999
20
-80.6150590000000022
11
124.8542969999999883
21
-80.6449879999999979
0
LINE
8
BLACK
6
CONTINUOUS
10
124.8542969999999883
20
-80.6449879999999979
11
124.8912279999999981
21
-80.7042999999999893
0
LINE
8
BLACK
6
CONTINUOUS
10
124.8912279999999981
20
-80.7042999999999893
11
124.8902299999999883
21
-80.7741619999999898
0
LINE
8
BLACK
6
CONTINUOUS
10
124.8902299999999883
20
-80.7741619999999898
11
124.8516199999999969
21
-80.8323949999999911
0
LINE
8
BLACK
6
CONTINUOUS
10
124.8516199999999969
20
-80.8323949999999911
11
124.8280589999999961
21
-80.8480169999999987
0
LINE
8
BLACK
6
CONTINUOUS
10
124.8280589999999961
20
-80.8480169999999987
11
124.6607999999999947
21
-80.9332399999999978
0
LINE
8
BLACK
6
CONTINUOUS
10
124.6607999999999947
20
-80.9332399999999978
11
124.507922999999991
21
-81.0443119999999908
0
LINE
8
BLACK
6
CONTINUOUS
10
124.507922999999991
20
-81.0443119999999908
11
123.4890549999999934
21
-82.0631810000000002
0
LINE
8
BLACK
6
CONTINUOUS
10
123.4890549999999934
20
-82.0631810000000002
11
123.4277319999999918
21
-82.096665999999999
0
LINE
8
BLACK
6
CONTINUOUS
10
123.4277319999999918
20
-82.096665999999999
11
123.4013739999999899
21
-82.0994999999999919
0
LINE
8
BLACK
6
CONTINUOUS
10
123.4013739999999899
20
-82.0994999999999919
11
122.6050389999999908
21
-82.0994999999999919
0
LINE
8
BLACK
6
CONTINUOUS
10
122.6050389999999908
20
-82.0994999999999919
11
122.4707499999999953
21
-82.1146299999999911
0
LINE
8
BLACK
6
CONTINUOUS
10
122.4707499999999953
20
-82.1146299999999911
11
122.4707449999999938
21
-82.1146310000000028
0
LINE
8
BLACK
6
CONTINUOUS
10
122.4707449999999938
20
-82.1146310000000028
11
122.3004759999999891
21
-82.1742109999999997
0
LINE
8
BLACK
6
CONTINUOUS
10
122.3004759999999891
20
-82.1742109999999997
11
122.1477369999999922
21
-82.2701840000000004
0
LINE
8
BLACK
6
CONTINUOUS
10
122.1477369999999922
20
-82.2701840000000004
11
122.0201840000000004
21
-82.3977369999999922
0
LINE
8
BLACK
6
CONTINUOUS
10
122.0201840000000004
20
-82.3977369999999922
11
121.9242109999999997
21
-82.5504760000000033
0
LINE
8
BLACK
6
CONTINUOUS
10
121.9242109999999997
20
-82.5504760000000033
11
121.8646309999999886
21
-82.7207449999999938
0
LINE
8
BLACK
6
CONTINUOUS
10
121.8646309999999886
20
-82.7207449999999938
11
121.8646299999999911
21
-82.7207499999999953
0
LINE
8
BLACK
6
CONTINUOUS
10
121.8646299999999911
20
-82.7207499999999953
11
121.8494999999999919
21
-82.8550389999999908
0
LINE
8
BLACK
6
CONTINUOUS
10
121.8494999999999919
20
-82.8550389999999908
11
121.8494999999999919
21
-84.6449599999999975
0
LINE
8
BLACK
6
CONTINUOUS
10
121.8494999999999919
20
-84.6449599999999975
11
121.8646299999999911
21
-84.779248999999993
0
LINE
8
BLACK
6
CONTINUOUS
10
121.8646299999999911
20
-84.779248999999993
11
121.8646309999999886
21
-84.7792539999999946
0
LINE
8
BLACK
6
CONTINUOUS
10
121.8646309999999886
20
-84.7792539999999946
11
121.9242109999999997
21
-84.9495229999999992
0
LINE
8
BLACK
6
CONTINUOUS
10
121.9242109999999997
20
-84.9495229999999992
11
122.0201840000000004
21
-85.1022619999999961
0
LINE
8
BLACK
6
CONTINUOUS
10
122.0201840000000004
20
-85.1022619999999961
11
122.1205759999999998
21
-85.2026539999999954
0
LINE
8
BLACK
6
CONTINUOUS
10
122.1205759999999998
20
-85.2026539999999954
11
122.1540609999999987
21
-85.263976999999997
0
LINE
8
BLACK
6
CONTINUOUS
10
122.1540609999999987
20
-85.263976999999997
11
122.1490769999999912
21
-85.3336690000000004
0
LINE
8
BLACK
6
CONTINUOUS
10
122.1490769999999912
20
-85.3336690000000004
11
122.1332139999999953
21
-85.3632190000000008
0
LINE
8
BLACK
6
CONTINUOUS
10
122.1332139999999953
20
-85.3632190000000008
11
122.088366999999991
21
-85.4249459999999914
0
LINE
8
BLACK
6
CONTINUOUS
10
122.088366999999991
20
-85.4249459999999914
11
121.9704219999999992
21
-85.6564229999999895
0
LINE
8
BLACK
6
CONTINUOUS
10
121.9704219999999992
20
-85.6564229999999895
11
121.8901399999999882
21
-85.903505999999993
0
LINE
8
BLACK
6
CONTINUOUS
10
121.8901399999999882
20
-85.903505999999993
11
121.8494999999999919
21
-86.1600969999999933
0
LINE
8
BLACK
6
CONTINUOUS
10
121.8494999999999919
20
-86.1600969999999933
11
121.8494999999999919
21
-86.4199019999999933
0
LINE
8
BLACK
6
CONTINUOUS
10
121.8494999999999919
20
-86.4199019999999933
11
121.8901399999999882
21
-86.6764929999999936
0
LINE
8
BLACK
6
CONTINUOUS
10
121.8901399999999882
20
-86.6764929999999936
11
121.9704219999999992
21
-86.9235759999999971
0
LINE
8
BLACK
6
CONTINUOUS
10
121.9704219999999992
20
-86.9235759999999971
11
122.0883679999999885
21
-87.1550539999999927
0
LINE
8
BLACK
6
CONTINUOUS
10
122.0883679999999885
20
-87.1550539999999927
11
122.205853999999988
21
-87.3167600000000022
0
LINE
8
BLACK
6
CONTINUOUS
10
122.205853999999988
20
-87.3167600000000022
11
122.241068999999996
21
-87.3652289999999994
0
LINE
8
BLACK
6
CONTINUOUS
10
122.241068999999996
20
-87.3652289999999994
11
122.4247709999999927
21
-87.5489309999999961
0
LINE
8
BLACK
6
CONTINUOUS
10
122.4247709999999927
20
-87.5489309999999961
11
122.6349489999999918
21
-87.7016339999999985
0
LINE
8
BLACK
6
CONTINUOUS
10
122.6349489999999918
20
-87.7016339999999985
11
122.7611189999999937
21
-87.7659209999999916
0
LINE
8
BLACK
6
CONTINUOUS
10
122.7611189999999937
20
-87.7659209999999916
11
122.8664229999999975
21
-87.8195769999999953
0
LINE
8
BLACK
6
CONTINUOUS
10
122.8664229999999975
20
-87.8195769999999953
11
122.8664249999999925
21
-87.8195769999999953
0
LINE
8
BLACK
6
CONTINUOUS
10
122.8664249999999925
20
-87.8195769999999953
11
122.8664279999999991
21
-87.8195789999999903
0
LINE
8
BLACK
6
CONTINUOUS
10
122.8664279999999991
20
-87.8195789999999903
11
123.1135069999999985
21
-87.8998599999999897
0
LINE
8
BLACK
6
CONTINUOUS
10
123.1135069999999985
20
-87.8998599999999897
11
123.2457059999999984
21
-87.9207969999999932
0
LINE
8
BLACK
6
CONTINUOUS
10
123.2457059999999984
20
-87.9207969999999932
11
123.3700979999999987
21
-87.9405000000000001
0
LINE
8
BLACK
6
CONTINUOUS
10
123.3700979999999987
20
-87.9405000000000001
11
123.3701030000000003
21
-87.9405000000000001
0
LINE
8
BLACK
6
CONTINUOUS
10
123.3701030000000003
20
-87.9405000000000001
11
123.6299020000000013
21
-87.9405000000000001
0
LINE
8
BLACK
6
CONTINUOUS
10
123.6299020000000013
20
-87.9405000000000001
11
123.7432979999999958
21
-87.9225390000000004
0
LINE
8
BLACK
6
CONTINUOUS
10
123.7432979999999958
20
-87.9225390000000004
11
123.8864929999999873
21
-87.8998599999999897
0
LINE
8
BLACK
6
CONTINUOUS
10
123.8864929999999873
20
-87.8998599999999897
11
124.1335720000000009
21
-87.8195789999999903
0
LINE
8
BLACK
6
CONTINUOUS
10
124.1335720000000009
20
-87.8195789999999903
11
124.365050999999994
21
-87.7016339999999985
0
LINE
8
BLACK
6
CONTINUOUS
10
124.365050999999994
20
-87.7016339999999985
11
124.5752289999999931
21
-87.5489309999999961
0
LINE
8
BLACK
6
CONTINUOUS
10
124.5752289999999931
20
-87.5489309999999961
11
124.5973410000000001
21
-87.526818999999989
0
LINE
8
BLACK
6
CONTINUOUS
10
124.5973410000000001
20
-87.526818999999989
11
124.6586639999999875
21
-87.4933339999999902
0
LINE
8
BLACK
6
CONTINUOUS
10
124.6586639999999875
20
-87.4933339999999902
11
124.6850219999999894
21
-87.4904999999999973
0
LINE
8
BLACK
6
CONTINUOUS
10
124.6850219999999894
20
-87.4904999999999973
11
125.0531159999999886
21
-87.4904999999999973
0
LINE
8
BLACK
6
CONTINUOUS
10
125.0531159999999886
20
-87.4904999999999973
11
125.2397479999999916
21
-87.4609399999999937
0
LINE
8
BLACK
6
CONTINUOUS
10
125.2397479999999916
20
-87.4609399999999937
11
125.4194619999999958
21
-87.4025469999999984
0
LINE
8
BLACK
6
CONTINUOUS
10
125.4194619999999958
20
-87.4025469999999984
11
125.5878289999999993
21
-87.3167600000000022
0
LINE
8
BLACK
6
CONTINUOUS
10
125.5878289999999993
20
-87.3167600000000022
11
125.7407039999999938
21
-87.2056899999999899
0
LINE
8
BLACK
6
CONTINUOUS
10
125.7407039999999938
20
-87.2056899999999899
11
126.4398920000000004
21
-86.5065010000000001
0
LINE
8
BLACK
6
CONTINUOUS
10
126.4398920000000004
20
-86.5065010000000001
11
126.5012139999999903
21
-86.4730169999999987
0
LINE
8
BLACK
6
CONTINUOUS
10
126.5012139999999903
20
-86.4730169999999987
11
126.5709049999999962
21
-86.4780009999999919
0
LINE
8
BLACK
6
CONTINUOUS
10
126.5709049999999962
20
-86.4780009999999919
11
126.6268389999999897
21
-86.5198719999999923
0
LINE
8
BLACK
6
CONTINUOUS
10
126.6268389999999897
20
-86.5198719999999923
11
126.6512559999999894
21
-86.5853369999999956
0
LINE
8
BLACK
6
CONTINUOUS
10
126.6512559999999894
20
-86.5853369999999956
11
126.6455029999999908
21
-86.6325009999999907
0
LINE
8
BLACK
6
CONTINUOUS
10
126.6455029999999908
20
-86.6325009999999907
11
126.6120099999999979
21
-86.7355779999999896
0
LINE
8
BLACK
6
CONTINUOUS
10
126.6120099999999979
20
-86.7355779999999896
11
126.6120099999999979
21
-86.7355809999999963
0
LINE
8
BLACK
6
CONTINUOUS
10
126.6120099999999979
20
-86.7355809999999963
11
126.5799999999999983
21
-86.9376819999999952
0
LINE
8
BLACK
6
CONTINUOUS
10
126.5799999999999983
20
-86.9376819999999952
11
126.5799999999999983
21
-87.1423169999999914
0
LINE
8
BLACK
6
CONTINUOUS
10
126.5799999999999983
20
-87.1423169999999914
11
126.6120090000000005
21
-87.3444169999999929
0
LINE
8
BLACK
6
CONTINUOUS
10
126.6120090000000005
20
-87.3444169999999929
11
126.6752439999999922
21
-87.5390309999999943
0
LINE
8
BLACK
6
CONTINUOUS
10
126.6752439999999922
20
-87.5390309999999943
11
126.768141
21
-87.721350000000001
0
LINE
8
BLACK
6
CONTINUOUS
10
126.768141
20
-87.721350000000001
11
126.768146999999999
21
-87.7213589999999925
0
LINE
8
BLACK
6
CONTINUOUS
10
126.768146999999999
20
-87.7213589999999925
11
126.8005229999999983
21
-87.7659209999999916
0
LINE
8
BLACK
6
CONTINUOUS
10
126.8005229999999983
20
-87.7659209999999916
11
126.8005239999999958
21
-87.7659219999999891
0
LINE
8
BLACK
6
CONTINUOUS
10
126.8005239999999958
20
-87.7659219999999891
11
127.1671009999999882
21
-87.3993439999999993
0
LINE
8
BLACK
6
CONTINUOUS
10
127.1671009999999882
20
-87.3993439999999993
11
127.1144479999999959
21
-87.2722279999999984
0
LINE
8
BLACK
6
CONTINUOUS
10
127.1144479999999959
20
-87.2722279999999984
11
127.0838519999999932
21
-87.1184140000000014
0
LINE
8
BLACK
6
CONTINUOUS
10
127.0838519999999932
20
-87.1184140000000014
11
127.0838519999999932
21
-86.9615859999999969
0
LINE
8
BLACK
6
CONTINUOUS
10
127.0838519999999932
20
-86.9615859999999969
11
127.1144479999999959
21
-86.8077719999999999
0
LINE
8
BLACK
6
CONTINUOUS
10
127.1144479999999959
20
-86.8077719999999999
11
127.1744629999999887
21
-86.6628829999999937
0
LINE
8
BLACK
6
CONTINUOUS
10
127.1744629999999887
20
-86.6628829999999937
11
127.2615919999999932
21
-86.5324849999999941
0
LINE
8
BLACK
6
CONTINUOUS
10
127.2615919999999932
20
-86.5324849999999941
11
127.3724849999999975
21
-86.4215919999999898
0
LINE
8
BLACK
6
CONTINUOUS
10
127.3724849999999975
20
-86.4215919999999898
11
127.5028829999999971
21
-86.3344629999999995
0
LINE
8
BLACK
6
CONTINUOUS
10
127.5028829999999971
20
-86.3344629999999995
11
127.6477719999999891
21
-86.2744479999999925
0
LINE
8
BLACK
6
CONTINUOUS
10
127.6477719999999891
20
-86.2744479999999925
11
127.8015860000000004
21
-86.2438519999999897
0
LINE
8
BLACK
6
CONTINUOUS
10
127.8015860000000004
20
-86.2438519999999897
11
127.9584139999999906
21
-86.2438519999999897
0
LINE
8
BLACK
6
CONTINUOUS
10
127.9584139999999906
20
-86.2438519999999897
11
128.1122279999999876
21
-86.2744479999999925
0
LINE
8
BLACK
6
CONTINUOUS
10
128.1122279999999876
20
-86.2744479999999925
11
128.2393439999999885
21
-86.327100999999999
0
LINE
8
BLACK
6
CONTINUOUS
10
128.2393439999999885
20
-86.327100999999999
11
128.6241179999999815
21
-85.9423279999999892
0
LINE
8
BLACK
6
CONTINUOUS
10
128.6241179999999815
20
-85.9423279999999892
11
128.624196999999981
21
-85.9419559999999905
0
LINE
8
BLACK
6
CONTINUOUS
10
128.624196999999981
20
-85.9419559999999905
11
128.6732419999999877
21
-85.8921929999999918
0
LINE
8
BLACK
6
CONTINUOUS
10
128.6732419999999877
20
-85.8921929999999918
11
128.6770999999999958
21
-85.8901389999999907
0
LINE
8
BLACK
6
CONTINUOUS
10
128.6770999999999958
20
-85.8901389999999907
11
128.7188449999999875
21
-85.8688700000000011
0
LINE
8
BLACK
6
CONTINUOUS
10
128.7188449999999875
20
-85.8688700000000011
11
128.9226559999999893
21
-85.7207930000000005
0
LINE
8
BLACK
6
CONTINUOUS
10
128.9226559999999893
20
-85.7207930000000005
11
129.1007929999999817
21
-85.5426559999999938
0
LINE
8
BLACK
6
CONTINUOUS
10
129.1007929999999817
20
-85.5426559999999938
11
129.2488699999999824
21
-85.3388449999999921
0
LINE
8
BLACK
6
CONTINUOUS
10
129.2488699999999824
20
-85.3388449999999921
11
129.3632409999999879
21
-85.1143789999999996
0
LINE
8
BLACK
6
CONTINUOUS
10
129.3632409999999879
20
-85.1143789999999996
11
129.4410900000000026
21
-84.8747850000000028
0
LINE
8
BLACK
6
CONTINUOUS
10
129.4410900000000026
20
-84.8747850000000028
11
129.4805000000000064
21
-84.6259620000000012
0
LINE
8
BLACK
6
CONTINUOUS
10
129.4805000000000064
20
-84.6259620000000012
11
129.4805000000000064
21
-84.3740379999999988
0
LINE
8
BLACK
6
CONTINUOUS
10
129.4805000000000064
20
-84.3740379999999988
11
129.4410900000000026
21
-84.1252149999999972
0
LINE
8
BLACK
6
CONTINUOUS
10
129.4410900000000026
20
-84.1252149999999972
11
129.3632409999999879
21
-83.8856210000000004
0
LINE
8
BLACK
6
CONTINUOUS
10
129.3632409999999879
20
-83.8856210000000004
11
129.363238999999993
21
-83.8856179999999938
0
LINE
8
BLACK
6
CONTINUOUS
10
129.363238999999993
20
-83.8856179999999938
11
129.363238999999993
21
-83.8856159999999988
0
LINE
8
BLACK
6
CONTINUOUS
10
129.363238999999993
20
-83.8856159999999988
11
129.299714999999992
21
-83.7609449999999924
0
LINE
8
BLACK
6
CONTINUOUS
10
129.299714999999992
20
-83.7609449999999924
11
129.2488699999999824
21
-83.6611549999999937
0
LINE
8
BLACK
6
CONTINUOUS
10
129.2488699999999824
20
-83.6611549999999937
11
129.2299519999999973
21
-83.6351169999999939
0
LINE
8
BLACK
6
CONTINUOUS
10
129.2299519999999973
20
-83.6351169999999939
11
129.1007979999999975
21
-83.457349999999991
0
LINE
8
BLACK
6
CONTINUOUS
10
129.1007979999999975
20
-83.457349999999991
11
129.1007940000000076
21
-83.4573449999999895
0
LINE
8
BLACK
6
CONTINUOUS
10
129.1007940000000076
20
-83.4573449999999895
11
128.9611299999999972
21
-83.3176809999999932
0
LINE
8
BLACK
6
CONTINUOUS
10
128.9611299999999972
20
-83.3176809999999932
11
128.9276449999999841
21
-83.2563579999999916
0
LINE
8
BLACK
6
CONTINUOUS
10
128.9276449999999841
20
-83.2563579999999916
11
128.9326289999999915
21
-83.1866660000000024
0
LINE
8
BLACK
6
CONTINUOUS
10
128.9326289999999915
20
-83.1866660000000024
11
128.9611299999999972
21
-83.1423190000000005
0
LINE
8
BLACK
6
CONTINUOUS
10
128.9611299999999972
20
-83.1423190000000005
11
129.1007929999999817
21
-83.0026560000000018
0
LINE
8
BLACK
6
CONTINUOUS
10
129.1007929999999817
20
-83.0026560000000018
11
129.2488699999999824
21
-82.798845
0
LINE
8
BLACK
6
CONTINUOUS
10
129.2488699999999824
20
-82.798845
11
129.3632409999999879
21
-82.5743789999999933
0
LINE
8
BLACK
6
CONTINUOUS
10
129.3632409999999879
20
-82.5743789999999933
11
129.4410900000000026
21
-82.3347849999999966
0
LINE
8
BLACK
6
CONTINUOUS
10
129.4410900000000026
20
-82.3347849999999966
11
129.4805000000000064
21
-82.085961999999995
0
LINE
8
BLACK
6
CONTINUOUS
10
129.4805000000000064
20
-82.085961999999995
11
129.4805000000000064
21
-81.8340379999999925
0
LINE
8
BLACK
6
CONTINUOUS
10
129.4805000000000064
20
-81.8340379999999925
11
129.4410900000000026
21
-81.5852149999999909
0
LINE
8
BLACK
6
CONTINUOUS
10
129.4410900000000026
20
-81.5852149999999909
11
129.3632409999999879
21
-81.3456209999999942
0
LINE
8
BLACK
6
CONTINUOUS
10
129.3632409999999879
20
-81.3456209999999942
11
129.363238999999993
21
-81.3456180000000018
0
LINE
8
BLACK
6
CONTINUOUS
10
129.363238999999993
20
-81.3456180000000018
11
129.363238999999993
21
-81.3456159999999926
0
LINE
8
BLACK
6
CONTINUOUS
10
129.363238999999993
20
-81.3456159999999926
11
129.3217469999999878
21
-81.2641840000000002
0
LINE
8
BLACK
6
CONTINUOUS
10
129.3217469999999878
20
-81.2641840000000002
11
129.2488699999999824
21
-81.1211550000000017
0
LINE
8
BLACK
6
CONTINUOUS
10
129.2488699999999824
20
-81.1211550000000017
11
129.1062959999999862
21
-80.924917999999991
0
LINE
8
BLACK
6
CONTINUOUS
10
129.1062959999999862
20
-80.924917999999991
11
129.0828160000000082
21
-80.8591119999999961
0
LINE
8
BLACK
6
CONTINUOUS
10
129.0828160000000082
20
-80.8591119999999961
11
129.0986409999999864
21
-80.7910579999999925
0
LINE
8
BLACK
6
CONTINUOUS
10
129.0986409999999864
20
-80.7910579999999925
11
129.1279480000000035
21
-80.756180999999998
0
LINE
8
BLACK
6
CONTINUOUS
10
129.1279480000000035
20
-80.756180999999998
11
129.1764100000000042
21
-80.7164099999999962
0
LINE
8
BLACK
6
CONTINUOUS
10
129.1764100000000042
20
-80.7164099999999962
11
129.3076849999999922
21
-80.5564499999999981
0
LINE
8
BLACK
6
CONTINUOUS
10
129.3076849999999922
20
-80.5564499999999981
11
129.4052319999999838
21
-80.3739539999999977
0
LINE
8
BLACK
6
CONTINUOUS
10
129.4052319999999838
20
-80.3739539999999977
11
129.4652999999999849
21
-80.175933999999998
0
LINE
8
BLACK
6
CONTINUOUS
10
129.4652999999999849
20
-80.175933999999998
11
129.4805000000000064
21
-80.0216080000000005
0
LINE
8
BLACK
6
CONTINUOUS
10
129.4805000000000064
20
-80.0216080000000005
11
129.4805000000000064
21
-78.8183920000000029
0
LINE
8
BLACK
6
CONTINUOUS
10
129.4805000000000064
20
-78.8183920000000029
11
129.4652999999999849
21
-78.6640659999999912
0
LINE
8
BLACK
6
CONTINUOUS
10
129.4652999999999849
20
-78.6640659999999912
11
129.4052319999999838
21
-78.4660459999999915
0
LINE
8
BLACK
6
CONTINUOUS
10
129.4052319999999838
20
-78.4660459999999915
11
129.3076849999999922
21
-78.2835499999999911
0
LINE
8
BLACK
6
CONTINUOUS
10
129.3076849999999922
20
-78.2835499999999911
11
129.217915000000005
21
-78.1741639999999904
0
LINE
8
BLACK
6
CONTINUOUS
10
129.217915000000005
20
-78.1741639999999904
11
129.1764100000000042
21
-78.1235889999999955
0
LINE
8
BLACK
6
CONTINUOUS
10
129.1764100000000042
20
-78.1235889999999955
11
129.0164519999999868
21
-77.9923169999999999
0
LINE
8
BLACK
6
CONTINUOUS
10
129.0164519999999868
20
-77.9923169999999999
11
129.0164529999999843
21
-77.9923169999999999
0
LINE
8
BLACK
6
CONTINUOUS
10
129.0164529999999843
20
-77.9923169999999999
11
129.0164499999999919
21
-77.9923149999999907
0
LINE
8
BLACK
6
CONTINUOUS
10
129.0164499999999919
20
-77.9923149999999907
11
128.8339540000000056
21
-77.8947679999999991
0
LINE
8
BLACK
6
CONTINUOUS
10
128.8339540000000056
20
-77.8947679999999991
11
128.6359339999999918
21
-77.834699999999998
0
LINE
8
BLACK
6
CONTINUOUS
10
128.6359339999999918
20
-77.834699999999998
11
128.6359319999999968
21
-77.8346990000000005
0
LINE
8
BLACK
6
CONTINUOUS
10
128.6359319999999968
20
-77.8346990000000005
11
128.6359339999999918
21
-77.8346990000000005
0
LINE
8
BLACK
6
CONTINUOUS
10
128.6359339999999918
20
-77.8346990000000005
11
128.5168050000000051
21
-77.8229659999999939
0
LINE
8
BLACK
6
CONTINUOUS
10
128.5168050000000051
20
-77.8229659999999939
11
128.4816079999999943
21
-77.8194999999999908
0
LINE
8
BLACK
6
CONTINUOUS
10
128.4816079999999943
20
-77.8194999999999908
11
127.2783919999999966
21
-77.8194999999999908
0
LINE
8
BLACK
6
CONTINUOUS
10
127.2783919999999966
20
-77.8194999999999908
11
127.2402979999999957
21
-77.8232509999999991
0
LINE
8
BLACK
6
CONTINUOUS
10
127.2402979999999957
20
-77.8232509999999991
11
127.1240669999999966
21
-77.8346990000000005
0
LINE
8
BLACK
6
CONTINUOUS
10
127.1240669999999966
20
-77.8346990000000005
11
126.9260429999999928
21
-77.8947689999999966
0
LINE
8
BLACK
6
CONTINUOUS
10
126.9260429999999928
20
-77.8947689999999966
11
126.8643749999999955
21
-77.9277319999999918
0
LINE
8
BLACK
6
CONTINUOUS
10
126.8643749999999955
20
-77.9277319999999918
11
126.743549999999999
21
-77.9923149999999907
0
LINE
8
BLACK
6
CONTINUOUS
10
126.743549999999999
20
-77.9923149999999907
11
126.7435479999999899
21
-77.9923160000000024
0
LINE
8
BLACK
6
CONTINUOUS
10
126.7435479999999899
20
-77.9923160000000024
11
126.7435469999999924
21
-77.9923169999999999
0
LINE
8
BLACK
6
CONTINUOUS
10
126.7435469999999924
20
-77.9923169999999999
11
126.5835889999999893
21
-78.1235889999999955
0
LINE
8
BLACK
6
CONTINUOUS
10
126.5835889999999893
20
-78.1235889999999955
11
126.5420850000000002
21
-78.1741639999999904
0
LINE
8
BLACK
6
CONTINUOUS
10
126.5420850000000002
20
-78.1741639999999904
11
126.4843389999999914
21
-78.2134989999999988
0
LINE
8
BLACK
6
CONTINUOUS
10
126.4843389999999914
20
-78.2134989999999988
11
126.4462309999999974
21
-78.2194999999999965
0
LINE
8
BLACK
6
CONTINUOUS
10
126.4462309999999974
20
-78.2194999999999965
11
125.4686260000000004
21
-78.2194999999999965
0
LINE
8
BLACK
6
CONTINUOUS
10
125.4686260000000004
20
-78.2194999999999965
11
125.4015869999999921
21
-78.199815000000001
0
LINE
8
BLACK
6
CONTINUOUS
10
125.4015869999999921
20
-78.199815000000001
11
125.380944999999997
21
-78.1831809999999905
0
LINE
8
BLACK
6
CONTINUOUS
10
125.380944999999997
20
-78.1831809999999905
11
125.1868189999999998
21
-77.9890549999999934
0
LINE
8
BLACK
6
CONTINUOUS
10
125.1868189999999998
20
-77.9890549999999934
11
125.153334000000001
21
-77.9277319999999918
0
LINE
8
BLACK
6
CONTINUOUS
10
125.153334000000001
20
-77.9277319999999918
11
125.1504999999999939
21
-77.9013739999999899
0
LINE
8
BLACK
6
CONTINUOUS
10
125.1504999999999939
20
-77.9013739999999899
11
125.1504999999999939
21
-77.1050429999999949
0
LINE
8
BLACK
6
CONTINUOUS
10
125.1504999999999939
20
-77.1050429999999949
11
125.1504989999999964
21
-77.1050389999999908
0
LINE
8
BLACK
6
CONTINUOUS
10
125.1504989999999964
20
-77.1050389999999908
11
125.1353689999999972
21
-76.9707499999999953
0
LINE
8
BLACK
6
CONTINUOUS
10
125.1353689999999972
20
-76.9707499999999953
11
125.1353679999999997
21
-76.9707449999999938
0
LINE
8
BLACK
6
CONTINUOUS
10
125.1353679999999997
20
-76.9707449999999938
11
125.0908769999999919
21
-76.8435980000000001
0
LINE
8
BLACK
6
CONTINUOUS
10
125.0908769999999919
20
-76.8435980000000001
11
125.0757890000000003
21
-76.8004779999999982
0
LINE
8
BLACK
6
CONTINUOUS
10
125.0757890000000003
20
-76.8004779999999982
11
125.0713109999999944
21
-76.7933519999999987
0
LINE
8
BLACK
6
CONTINUOUS
10
125.0713109999999944
20
-76.7933519999999987
11
124.9798149999999879
21
-76.6477369999999922
0
LINE
8
BLACK
6
CONTINUOUS
10
124.9798149999999879
20
-76.6477369999999922
11
124.8522619999999961
21
-76.5201840000000004
0
LINE
8
BLACK
6
CONTINUOUS
10
124.8522619999999961
20
-76.5201840000000004
11
124.6995229999999992
21
-76.4242109999999997
0
LINE
8
BLACK
6
CONTINUOUS
10
124.6995229999999992
20
-76.4242109999999997
11
124.5292539999999946
21
-76.3646310000000028
0
LINE
8
BLACK
6
CONTINUOUS
10
124.5292539999999946
20
-76.3646310000000028
11
124.529248999999993
21
-76.3646299999999911
0
LINE
8
BLACK
6
CONTINUOUS
10
124.529248999999993
20
-76.3646299999999911
11
124.3949599999999975
21
-76.3494999999999919
0
LINE
8
BLACK
6
CONTINUOUS
10
124.3949599999999975
20
-76.3494999999999919
11
124.3949539999999985
21
-76.3494999999999919
0
LINE
8
BLACK
6
CONTINUOUS
10
124.3949539999999985
20
-76.3494999999999919
11
122.6050460000000015
21
-76.3494999999999919
0
LINE
8
BLACK
6
CONTINUOUS
10
122.6050460000000015
20
-76.3494999999999919
11
122.6050389999999908
21
-76.3494999999999919
0
LINE
8
BLACK
6
CONTINUOUS
10
122.6050389999999908
20
-76.3494999999999919
11
122.4707499999999953
21
-76.3646299999999911
0
LINE
8
BLACK
6
CONTINUOUS
10
122.4707499999999953
20
-76.3646299999999911
11
122.4707449999999938
21
-76.3646310000000028
0
LINE
8
BLACK
6
CONTINUOUS
10
122.4707449999999938
20
-76.3646310000000028
11
122.3004759999999891
21
-76.4242109999999997
0
LINE
8
BLACK
6
CONTINUOUS
10
122.3004759999999891
20
-76.4242109999999997
11
122.1477369999999922
21
-76.5201840000000004
0
LINE
8
BLACK
6
CONTINUOUS
10
122.1477369999999922
20
-76.5201840000000004
11
122.0201840000000004
21
-76.6477369999999922
0
LINE
8
BLACK
6
CONTINUOUS
10
122.0201840000000004
20
-76.6477369999999922
11
121.9242109999999997
21
-76.8004760000000033
0
LINE
8
BLACK
6
CONTINUOUS
10
121.9242109999999997
20
-76.8004760000000033
11
121.8646309999999886
21
-76.9707449999999938
0
LINE
8
BLACK
6
CONTINUOUS
10
121.8646309999999886
20
-76.9707449999999938
11
121.8646299999999911
21
-76.9707499999999953
0
LINE
8
BLACK
6
CONTINUOUS
10
121.8646299999999911
20
-76.9707499999999953
11
121.8494999999999919
21
-77.1050389999999908
0
LINE
8
BLACK
6
CONTINUOUS
10
121.8494999999999919
20
-77.1050389999999908
11
121.8494999999999919
21
-78.8949599999999975
0
LINE
8
BLACK
6
CONTINUOUS
10
128.6335499999999854
20
-86.6400000000000006
11
128.8456840000000057
21
-86.6400000000000006
0
LINE
8
BLACK
6
CONTINUOUS
10
128.8456840000000057
20
-86.6400000000000006
11
129.0374860000000012
21
-86.4481969999999933
0
LINE
8
BLACK
6
CONTINUOUS
10
129.0374860000000012
20
-86.4481969999999933
11
128.9918590000000052
21
-86.3586499999999972
0
LINE
8
BLACK
6
CONTINUOUS
10
128.9918590000000052
20
-86.3586499999999972
11
128.9594740000000002
21
-86.3140769999999975
0
LINE
8
BLACK
6
CONTINUOUS
10
128.9594740000000002
20
-86.3140769999999975
11
128.9594740000000002
21
-86.314076
0
LINE
8
BLACK
6
CONTINUOUS
10
128.9594740000000002
20
-86.314076
11
128.6335499999999854
21
-86.6400000000000006
0
LINE
8
BLACK
6
CONTINUOUS
10
129.1099999999999852
20
-75.75
11
129.1099999999999852
21
-76.3978439999999921
0
LINE
8
BLACK
6
CONTINUOUS
10
129.1099999999999852
20
-76.3978439999999921
11
129.1164009999999962
21
-76.4573719999999923
0
LINE
8
BLACK
6
CONTINUOUS
10
129.1164009999999962
20
-76.4573719999999923
11
129.1164029999999912
21
-76.4573790000000031
0
LINE
8
BLACK
6
CONTINUOUS
10
129.1164029999999912
20
-76.4573790000000031
11
129.1666449999999884
21
-76.5920859999999948
0
LINE
8
BLACK
6
CONTINUOUS
10
129.1666449999999884
20
-76.5920859999999948
11
129.1666490000000067
21
-76.5920929999999913
0
LINE
8
BLACK
6
CONTINUOUS
10
129.1666490000000067
20
-76.5920929999999913
11
129.252808999999985
21
-76.7071869999999905
0
LINE
8
BLACK
6
CONTINUOUS
10
129.252808999999985
20
-76.7071869999999905
11
129.2528120000000058
21
-76.7071899999999971
0
LINE
8
BLACK
6
CONTINUOUS
10
129.2528120000000058
20
-76.7071899999999971
11
129.367906000000005
21
-76.7933499999999896
0
LINE
8
BLACK
6
CONTINUOUS
10
129.367906000000005
20
-76.7933499999999896
11
129.3679129999999873
21
-76.7933539999999937
0
LINE
8
BLACK
6
CONTINUOUS
10
129.3679129999999873
20
-76.7933539999999937
11
129.5026200000000074
21
-76.8435959999999909
0
LINE
8
BLACK
6
CONTINUOUS
10
129.5026200000000074
20
-76.8435959999999909
11
129.5026269999999897
21
-76.8435980000000001
0
LINE
8
BLACK
6
CONTINUOUS
10
129.5026269999999897
20
-76.8435980000000001
11
129.56215499999999
21
-76.8499989999999968
0
LINE
8
BLACK
6
CONTINUOUS
10
129.56215499999999
20
-76.8499989999999968
11
129.5621720000000039
21
-76.8499999999999943
0
LINE
8
BLACK
6
CONTINUOUS
10
129.5621720000000039
20
-76.8499999999999943
11
130.0600000000000023
21
-76.8499999999999943
0
LINE
8
BLACK
6
CONTINUOUS
10
130.0600000000000023
20
-76.8499999999999943
11
130.0600000000000023
21
-76.3499999999999943
0
LINE
8
BLACK
6
CONTINUOUS
10
130.0600000000000023
20
-76.3499999999999943
11
129.6099999999999852
21
-76.3499999999999943
0
LINE
8
BLACK
6
CONTINUOUS
10
129.6099999999999852
20
-76.3499999999999943
11
129.6099999999999852
21
-75.75
0
LINE
8
BLACK
6
CONTINUOUS
10
129.6099999999999852
20
-75.75
11
129.1099999999999852
21
-75.75
0
LINE
8
BLACK
6
CONTINUOUS
10
136.1201549999999827
20
-74.6561549999999983
11
136.0678069999999877
21
-74.6823279999999983
0
LINE
8
BLACK
6
CONTINUOUS
10
136.0678069999999877
20
-74.6823279999999983
11
136.0294600000000003
21
-74.7265429999999924
0
LINE
8
BLACK
6
CONTINUOUS
10
136.0294600000000003
20
-74.7265429999999924
11
136.0174719999999979
21
-74.7533940000000001
0
LINE
8
BLACK
6
CONTINUOUS
10
136.0174719999999979
20
-74.7533940000000001
11
135.6597739999999988
21
-75.8264860000000027
0
LINE
8
BLACK
6
CONTINUOUS
10
135.6597739999999988
20
-75.8264860000000027
11
135.3020759999999996
21
-74.7533940000000001
0
LINE
8
BLACK
6
CONTINUOUS
10
135.3020759999999996
20
-74.7533940000000001
11
135.2900879999999972
21
-74.7265429999999924
0
LINE
8
BLACK
6
CONTINUOUS
10
135.2900879999999972
20
-74.7265429999999924
11
135.2517409999999813
21
-74.6823289999999957
0
LINE
8
BLACK
6
CONTINUOUS
10
135.2517409999999813
20
-74.6823289999999957
11
135.1993939999999839
21
-74.6561549999999983
0
LINE
8
BLACK
6
CONTINUOUS
10
135.1993939999999839
20
-74.6561549999999983
11
135.1410129999999867
21
-74.6520060000000001
0
LINE
8
BLACK
6
CONTINUOUS
10
135.1410129999999867
20
-74.6520060000000001
11
135.0854889999999955
21
-74.6705139999999972
0
LINE
8
BLACK
6
CONTINUOUS
10
135.0854889999999955
20
-74.6705139999999972
11
135.0412749999999846
21
-74.7088609999999989
0
LINE
8
BLACK
6
CONTINUOUS
10
135.0412749999999846
20
-74.7088609999999989
11
135.0151009999999872
21
-74.7612079999999963
0
LINE
8
BLACK
6
CONTINUOUS
10
135.0151009999999872
20
-74.7612079999999963
11
135.0109520000000032
21
-74.8195889999999935
0
LINE
8
BLACK
6
CONTINUOUS
10
135.0109520000000032
20
-74.8195889999999935
11
135.0174719999999979
21
-74.8482619999999912
0
LINE
8
BLACK
6
CONTINUOUS
10
135.0174719999999979
20
-74.8482619999999912
11
135.5174719999999979
21
-76.3482619999999912
0
LINE
8
BLACK
6
CONTINUOUS
10
135.5174719999999979
20
-76.3482619999999912
11
135.5294600000000003
21
-76.3751129999999989
0
LINE
8
BLACK
6
CONTINUOUS
10
135.5294600000000003
20
-76.3751129999999989
11
135.5364820000000066
21
-76.3832099999999912
0
LINE
8
BLACK
6
CONTINUOUS
10
135.5364820000000066
20
-76.3832099999999912
11
135.5412749999999846
21
-76.3927949999999925
0
LINE
8
BLACK
6
CONTINUOUS
10
135.5412749999999846
20
-76.3927949999999925
11
135.5554809999999861
21
-76.4051159999999925
0
LINE
8
BLACK
6
CONTINUOUS
10
135.5554809999999861
20
-76.4051159999999925
11
135.5678069999999877
21
-76.419327999999993
0
LINE
8
BLACK
6
CONTINUOUS
10
135.5678069999999877
20
-76.419327999999993
11
135.5773939999999982
21
-76.4241209999999995
0
LINE
8
BLACK
6
CONTINUOUS
10
135.5773939999999982
20
-76.4241209999999995
11
135.5854889999999955
21
-76.4311419999999941
0
LINE
8
BLACK
6
CONTINUOUS
10
135.5854889999999955
20
-76.4311419999999941
11
135.6033309999999972
21
-76.4370890000000003
0
LINE
8
BLACK
6
CONTINUOUS
10
135.6033309999999972
20
-76.4370890000000003
11
135.6201549999999827
21
-76.445500999999993
0
LINE
8
BLACK
6
CONTINUOUS
10
135.6201549999999827
20
-76.445500999999993
11
135.6308449999999937
21
-76.4462599999999952
0
LINE
8
BLACK
6
CONTINUOUS
10
135.6308449999999937
20
-76.4462599999999952
11
135.6410129999999867
21
-76.4496499999999912
0
LINE
8
BLACK
6
CONTINUOUS
10
135.6410129999999867
20
-76.4496499999999912
11
135.659768999999983
21
-76.448317000000003
0
LINE
8
BLACK
6
CONTINUOUS
10
135.659768999999983
20
-76.448317000000003
11
135.6785349999999823
21
-76.4496510000000029
0
LINE
8
BLACK
6
CONTINUOUS
10
135.6785349999999823
20
-76.4496510000000029
11
135.6887049999999988
21
-76.4462599999999952
0
LINE
8
BLACK
6
CONTINUOUS
10
135.6887049999999988
20
-76.4462599999999952
11
135.6993939999999839
21
-76.445500999999993
0
LINE
8
BLACK
6
CONTINUOUS
10
135.6993939999999839
20
-76.445500999999993
11
135.7162150000000054
21
-76.4370899999999978
0
LINE
8
BLACK
6
CONTINUOUS
10
135.7162150000000054
20
-76.4370899999999978
11
135.734059000000002
21
-76.4311419999999941
0
LINE
8
BLACK
6
CONTINUOUS
10
135.734059000000002
20
-76.4311419999999941
11
135.7421549999999968
21
-76.4241189999999904
0
LINE
8
BLACK
6
CONTINUOUS
10
135.7421549999999968
20
-76.4241189999999904
11
135.7517409999999813
21
-76.4193269999999956
0
LINE
8
BLACK
6
CONTINUOUS
10
135.7517409999999813
20
-76.4193269999999956
11
135.7640639999999905
21
-76.4051180000000016
0
LINE
8
BLACK
6
CONTINUOUS
10
135.7640639999999905
20
-76.4051180000000016
11
135.7782729999999844
21
-76.3927949999999925
0
LINE
8
BLACK
6
CONTINUOUS
10
135.7782729999999844
20
-76.3927949999999925
11
135.7830649999999935
21
-76.3832089999999937
0
LINE
8
BLACK
6
CONTINUOUS
10
135.7830649999999935
20
-76.3832089999999937
11
135.7900879999999972
21
-76.3751129999999989
0
LINE
8
BLACK
6
CONTINUOUS
10
135.7900879999999972
20
-76.3751129999999989
11
135.8020759999999996
21
-76.3482619999999912
0
LINE
8
BLACK
6
CONTINUOUS
10
135.8020759999999996
20
-76.3482619999999912
11
136.302076999999997
21
-74.8482619999999912
0
LINE
8
BLACK
6
CONTINUOUS
10
136.302076999999997
20
-74.8482619999999912
11
136.3085969999999918
21
-74.819587999999996
0
LINE
8
BLACK
6
CONTINUOUS
10
136.3085969999999918
20
-74.819587999999996
11
136.3044469999999819
21
-74.7612079999999963
0
LINE
8
BLACK
6
CONTINUOUS
10
136.3044469999999819
20
-74.7612079999999963
11
136.2782729999999844
21
-74.7088609999999989
0
LINE
8
BLACK
6
CONTINUOUS
10
136.2782729999999844
20
-74.7088609999999989
11
136.234059000000002
21
-74.6705139999999972
0
LINE
8
BLACK
6
CONTINUOUS
10
136.234059000000002
20
-74.6705139999999972
11
136.1785349999999823
21
-74.6520050000000026
0
LINE
8
BLACK
6
CONTINUOUS
10
136.1785349999999823
20
-74.6520050000000026
11
136.1201549999999827
21
-74.6561549999999983
0
LINE
8
BLACK
6
CONTINUOUS
10
123.3447959999999881
20
-74.1537099999999896
11
123.3398149999999873
21
-74.1557729999999964
0
LINE
8
BLACK
6
CONTINUOUS
10
123.3398149999999873
20
-74.1557729999999964
11
123.3344409999999982
21
-74.1561549999999983
0
LINE
8
BLACK
6
CONTINUOUS
10
123.3344409999999982
20
-74.1561549999999983
11
123.3069769999999892
21
-74.1666639999999973
0
LINE
8
BLACK
6
CONTINUOUS
10
123.3069769999999892
20
-74.1666639999999973
11
123.1641209999999944
21
-74.2380929999999921
0
LINE
8
BLACK
6
CONTINUOUS
10
123.1641209999999944
20
-74.2380929999999921
11
123.1515289999999965
21
-74.2460189999999898
0
LINE
8
BLACK
6
CONTINUOUS
10
123.1515289999999965
20
-74.2460189999999898
11
123.1478669999999909
21
-74.2475359999999966
0
LINE
8
BLACK
6
CONTINUOUS
10
123.1478669999999909
20
-74.2475359999999966
11
123.1437439999999981
21
-74.2509189999999961
0
LINE
8
BLACK
6
CONTINUOUS
10
123.1437439999999981
20
-74.2509189999999961
11
123.1392349999999993
21
-74.2537579999999906
0
LINE
8
BLACK
6
CONTINUOUS
10
123.1392349999999993
20
-74.2537579999999906
11
123.1366389999999882
21
-74.2567499999999967
0
LINE
8
BLACK
6
CONTINUOUS
10
123.1366389999999882
20
-74.2567499999999967
11
123.1251369999999952
21
-74.2661909999999921
0
LINE
8
BLACK
6
CONTINUOUS
10
123.1251369999999952
20
-74.2661909999999921
11
122.9822799999999887
21
-74.4090479999999985
0
LINE
8
BLACK
6
CONTINUOUS
10
122.9822799999999887
20
-74.4090479999999985
11
122.9636249999999933
21
-74.4317789999999917
0
LINE
8
BLACK
6
CONTINUOUS
10
122.9636249999999933
20
-74.4317789999999917
11
122.9593569999999971
21
-74.4420819999999992
0
LINE
8
BLACK
6
CONTINUOUS
10
122.9593569999999971
20
-74.4420819999999992
11
122.9527179999999902
21
-74.4510429999999985
0
LINE
8
BLACK
6
CONTINUOUS
10
122.9527179999999902
20
-74.4510429999999985
11
122.9428249999999991
21
-74.4787340000000029
0
LINE
8
BLACK
6
CONTINUOUS
10
122.9428249999999991
20
-74.4787340000000029
11
122.8713959999999901
21
-74.7644469999999899
0
LINE
8
BLACK
6
CONTINUOUS
10
122.8713959999999901
20
-74.7644469999999899
11
122.8706449999999961
21
-74.7695190000000025
0
LINE
8
BLACK
6
CONTINUOUS
10
122.8706449999999961
20
-74.7695190000000025
11
122.8697990000000004
21
-74.7715639999999979
0
LINE
8
BLACK
6
CONTINUOUS
10
122.8697990000000004
20
-74.7715639999999979
11
122.8687129999999996
21
-74.7825849999999974
0
LINE
8
BLACK
6
CONTINUOUS
10
122.8687129999999996
20
-74.7825849999999974
11
122.8670939999999945
21
-74.7935370000000006
0
LINE
8
BLACK
6
CONTINUOUS
10
122.8670939999999945
20
-74.7935370000000006
11
122.8674189999999982
21
-74.7957239999999928
0
LINE
8
BLACK
6
CONTINUOUS
10
122.8674189999999982
20
-74.7957239999999928
11
122.8669170000000008
21
-74.8008279999999957
0
LINE
8
BLACK
6
CONTINUOUS
10
122.8669170000000008
20
-74.8008279999999957
11
122.8669170000000008
21
-75.3008279999999957
0
LINE
8
BLACK
6
CONTINUOUS
10
122.8669170000000008
20
-75.3008279999999957
11
122.8674189999999982
21
-75.3059310000000011
0
LINE
8
BLACK
6
CONTINUOUS
10
122.8674189999999982
20
-75.3059310000000011
11
122.8670939999999945
21
-75.3081189999999907
0
LINE
8
BLACK
6
CONTINUOUS
10
122.8670939999999945
20
-75.3081189999999907
11
122.8687129999999996
21
-75.3190699999999964
0
LINE
8
BLACK
6
CONTINUOUS
10
122.8687129999999996
20
-75.3190699999999964
11
122.8697990000000004
21
-75.3300919999999934
0
LINE
8
BLACK
6
CONTINUOUS
10
122.8697990000000004
20
-75.3300919999999934
11
122.8706449999999961
21
-75.3321359999999913
0
LINE
8
BLACK
6
CONTINUOUS
10
122.8706449999999961
20
-75.3321359999999913
11
122.8713959999999901
21
-75.3372090000000014
0
LINE
8
BLACK
6
CONTINUOUS
10
122.8713959999999901
20
-75.3372090000000014
11
122.9428249999999991
21
-75.6229220000000026
0
LINE
8
BLACK
6
CONTINUOUS
10
122.9428249999999991
20
-75.6229220000000026
11
122.9527179999999902
21
-75.6506129999999928
0
LINE
8
BLACK
6
CONTINUOUS
10
122.9527179999999902
20
-75.6506129999999928
11
122.9593569999999971
21
-75.6595729999999946
0
LINE
8
BLACK
6
CONTINUOUS
10
122.9593569999999971
20
-75.6595729999999946
11
122.9636249999999933
21
-75.6698769999999996
0
LINE
8
BLACK
6
CONTINUOUS
10
122.9636249999999933
20
-75.6698769999999996
11
122.9822799999999887
21
-75.6926079999999928
0
LINE
8
BLACK
6
CONTINUOUS
10
122.9822799999999887
20
-75.6926079999999928
11
123.1251369999999952
21
-75.8354659999999967
0
LINE
8
BLACK
6
CONTINUOUS
10
123.1251369999999952
20
-75.8354659999999967
11
123.1366429999999923
21
-75.8449090000000012
0
LINE
8
BLACK
6
CONTINUOUS
10
123.1366429999999923
20
-75.8449090000000012
11
123.1392359999999968
21
-75.8478989999999982
0
LINE
8
BLACK
6
CONTINUOUS
10
123.1392359999999968
20
-75.8478989999999982
11
123.1437409999999915
21
-75.8507350000000002
0
LINE
8
BLACK
6
CONTINUOUS
10
123.1437409999999915
20
-75.8507350000000002
11
123.1478669999999909
21
-75.8541209999999921
0
LINE
8
BLACK
6
CONTINUOUS
10
123.1478669999999909
20
-75.8541209999999921
11
123.1515299999999939
21
-75.855637999999999
0
LINE
8
BLACK
6
CONTINUOUS
10
123.1515299999999939
20
-75.855637999999999
11
123.1641209999999944
21
-75.8635639999999967
0
LINE
8
BLACK
6
CONTINUOUS
10
123.1641209999999944
20
-75.8635639999999967
11
123.3069789999999983
21
-75.9349919999999941
0
LINE
8
BLACK
6
CONTINUOUS
10
123.3069789999999983
20
-75.9349919999999941
11
123.3344419999999957
21
-75.9455019999999905
0
LINE
8
BLACK
6
CONTINUOUS
10
123.3344419999999957
20
-75.9455019999999905
11
123.3398169999999965
21
-75.9458829999999949
0
LINE
8
BLACK
6
CONTINUOUS
10
123.3398169999999965
20
-75.9458829999999949
11
123.3447959999999881
21
-75.9479460000000017
0
LINE
8
BLACK
6
CONTINUOUS
10
123.3447959999999881
20
-75.9479460000000017
11
123.3740600000000001
21
-75.9508280000000013
0
LINE
8
BLACK
6
CONTINUOUS
10
123.3740600000000001
20
-75.9508280000000013
11
123.6597739999999988
21
-75.9508280000000013
0
LINE
8
BLACK
6
CONTINUOUS
10
123.6597739999999988
20
-75.9508280000000013
11
123.6890379999999965
21
-75.9479460000000017
0
LINE
8
BLACK
6
CONTINUOUS
10
123.6890379999999965
20
-75.9479460000000017
11
123.6940159999999906
21
-75.9458829999999949
0
LINE
8
BLACK
6
CONTINUOUS
10
123.6940159999999906
20
-75.9458829999999949
11
123.6993919999999889
21
-75.9455019999999905
0
LINE
8
BLACK
6
CONTINUOUS
10
123.6993919999999889
20
-75.9455019999999905
11
123.7268550000000005
21
-75.9349919999999941
0
LINE
8
BLACK
6
CONTINUOUS
10
123.7268550000000005
20
-75.9349919999999941
11
123.8697139999999877
21
-75.8635639999999967
0
LINE
8
BLACK
6
CONTINUOUS
10
123.8697139999999877
20
-75.8635639999999967
11
123.8823039999999907
21
-75.855637999999999
0
LINE
8
BLACK
6
CONTINUOUS
10
123.8823039999999907
20
-75.855637999999999
11
123.8859679999999912
21
-75.8541209999999921
0
LINE
8
BLACK
6
CONTINUOUS
10
123.8859679999999912
20
-75.8541209999999921
11
123.8900929999999931
21
-75.8507350000000002
0
LINE
8
BLACK
6
CONTINUOUS
10
123.8900929999999931
20
-75.8507350000000002
11
123.8945989999999995
21
-75.8478989999999982
0
LINE
8
BLACK
6
CONTINUOUS
10
123.8945989999999995
20
-75.8478989999999982
11
123.8971919999999898
21
-75.8449090000000012
0
LINE
8
BLACK
6
CONTINUOUS
10
123.8971919999999898
20
-75.8449090000000012
11
123.9086980000000011
21
-75.8354659999999967
0
LINE
8
BLACK
6
CONTINUOUS
10
123.9086980000000011
20
-75.8354659999999967
11
124.0515549999999934
21
-75.6926079999999928
0
LINE
8
BLACK
6
CONTINUOUS
10
124.0515549999999934
20
-75.6926079999999928
11
124.0702099999999888
21
-75.6698769999999996
0
LINE
8
BLACK
6
CONTINUOUS
10
124.0702099999999888
20
-75.6698769999999996
11
124.0744769999999875
21
-75.6595729999999946
0
LINE
8
BLACK
6
CONTINUOUS
10
124.0744769999999875
20
-75.6595729999999946
11
124.0811169999999919
21
-75.6506129999999928
0
LINE
8
BLACK
6
CONTINUOUS
10
124.0811169999999919
20
-75.6506129999999928
11
124.0910099999999971
21
-75.6229220000000026
0
LINE
8
BLACK
6
CONTINUOUS
10
124.0910099999999971
20
-75.6229220000000026
11
124.1624379999999945
21
-75.3372079999999897
0
LINE
8
BLACK
6
CONTINUOUS
10
124.1624379999999945
20
-75.3372079999999897
11
124.1631869999999935
21
-75.3321359999999913
0
LINE
8
BLACK
6
CONTINUOUS
10
124.1631869999999935
20
-75.3321359999999913
11
124.1640349999999984
21
-75.3300919999999934
0
LINE
8
BLACK
6
CONTINUOUS
10
124.1640349999999984
20
-75.3300919999999934
11
124.1651199999999875
21
-75.3190689999999989
0
LINE
8
BLACK
6
CONTINUOUS
10
124.1651199999999875
20
-75.3190689999999989
11
124.1667399999999901
21
-75.3081189999999907
0
LINE
8
BLACK
6
CONTINUOUS
10
124.1667399999999901
20
-75.3081189999999907
11
124.166413999999989
21
-75.3059310000000011
0
LINE
8
BLACK
6
CONTINUOUS
10
124.166413999999989
20
-75.3059310000000011
11
124.166916999999998
21
-75.3008279999999957
0
LINE
8
BLACK
6
CONTINUOUS
10
124.166916999999998
20
-75.3008279999999957
11
124.166916999999998
21
-74.8008279999999957
0
LINE
8
BLACK
6
CONTINUOUS
10
124.166916999999998
20
-74.8008279999999957
11
124.166413999999989
21
-74.7957239999999928
0
LINE
8
BLACK
6
CONTINUOUS
10
124.166413999999989
20
-74.7957239999999928
11
124.1667399999999901
21
-74.7935370000000006
0
LINE
8
BLACK
6
CONTINUOUS
10
124.1667399999999901
20
-74.7935370000000006
11
124.1651199999999875
21
-74.7825859999999949
0
LINE
8
BLACK
6
CONTINUOUS
10
124.1651199999999875
20
-74.7825859999999949
11
124.1640349999999984
21
-74.7715639999999979
0
LINE
8
BLACK
6
CONTINUOUS
10
124.1640349999999984
20
-74.7715639999999979
11
124.1631869999999935
21
-74.7695190000000025
0
LINE
8
BLACK
6
CONTINUOUS
10
124.1631869999999935
20
-74.7695190000000025
11
124.1624379999999945
21
-74.7644480000000016
0
LINE
8
BLACK
6
CONTINUOUS
10
124.1624379999999945
20
-74.7644480000000016
11
124.0910099999999971
21
-74.4787340000000029
0
LINE
8
BLACK
6
CONTINUOUS
10
124.0910099999999971
20
-74.4787340000000029
11
124.0811169999999919
21
-74.4510429999999985
0
LINE
8
BLACK
6
CONTINUOUS
10
124.0811169999999919
20
-74.4510429999999985
11
124.0744779999999992
21
-74.4420829999999967
0
LINE
8
BLACK
6
CONTINUOUS
10
124.0744779999999992
20
-74.4420829999999967
11
124.0702099999999888
21
-74.4317779999999942
0
LINE
8
BLACK
6
CONTINUOUS
10
124.0702099999999888
20
-74.4317779999999942
11
124.0515549999999934
21
-74.4090479999999985
0
LINE
8
BLACK
6
CONTINUOUS
10
124.0515549999999934
20
-74.4090479999999985
11
123.9086980000000011
21
-74.2661909999999921
0
LINE
8
BLACK
6
CONTINUOUS
10
123.9086980000000011
20
-74.2661909999999921
11
123.8971959999999939
21
-74.2567509999999942
0
LINE
8
BLACK
6
CONTINUOUS
10
123.8971959999999939
20
-74.2567509999999942
11
123.894599999999997
21
-74.2537579999999906
0
LINE
8
BLACK
6
CONTINUOUS
10
123.894599999999997
20
-74.2537579999999906
11
123.8900859999999966
21
-74.2509170000000012
0
LINE
8
BLACK
6
CONTINUOUS
10
123.8900859999999966
20
-74.2509170000000012
11
123.8859669999999937
21
-74.2475359999999966
0
LINE
8
BLACK
6
CONTINUOUS
10
123.8859669999999937
20
-74.2475359999999966
11
123.8823069999999973
21
-74.2460200000000015
0
LINE
8
BLACK
6
CONTINUOUS
10
123.8823069999999973
20
-74.2460200000000015
11
123.8697139999999877
21
-74.2380929999999921
0
LINE
8
BLACK
6
CONTINUOUS
10
123.8697139999999877
20
-74.2380929999999921
11
123.7268559999999979
21
-74.1666639999999973
0
LINE
8
BLACK
6
CONTINUOUS
10
123.7268559999999979
20
-74.1666639999999973
11
123.6993930000000006
21
-74.1561540000000008
0
LINE
8
BLACK
6
CONTINUOUS
10
123.6993930000000006
20
-74.1561540000000008
11
123.6940149999999932
21
-74.1557710000000014
0
LINE
8
BLACK
6
CONTINUOUS
10
123.6940149999999932
20
-74.1557710000000014
11
123.6890379999999965
21
-74.1537099999999896
0
LINE
8
BLACK
6
CONTINUOUS
10
123.6890379999999965
20
-74.1537099999999896
11
123.6597739999999988
21
-74.15082799999999
0
LINE
8
BLACK
6
CONTINUOUS
10
123.6597739999999988
20
-74.15082799999999
11
123.3740600000000001
21
-74.15082799999999
0
LINE
8
BLACK
6
CONTINUOUS
10
123.3740600000000001
20
-74.15082799999999
11
123.3447959999999881
21
-74.1537099999999896
0
LINE
8
BLACK
6
CONTINUOUS
10
129.5026269999999897
20
-74.1564010000000025
11
129.5026200000000074
21
-74.1564029999999974
0
LINE
8
BLACK
6
CONTINUOUS
10
129.5026200000000074
20
-74.1564029999999974
11
129.3679129999999873
21
-74.2066449999999946
0
LINE
8
BLACK
6
CONTINUOUS
10
129.3679129999999873
20
-74.2066449999999946
11
129.367906000000005
21
-74.2066489999999988
0
LINE
8
BLACK
6
CONTINUOUS
10
129.367906000000005
20
-74.2066489999999988
11
129.2528120000000058
21
-74.2928089999999912
0
LINE
8
BLACK
6
CONTINUOUS
10
129.2528120000000058
20
-74.2928089999999912
11
129.252808999999985
21
-74.2928119999999979
0
LINE
8
BLACK
6
CONTINUOUS
10
129.252808999999985
20
-74.2928119999999979
11
129.1666490000000067
21
-74.407905999999997
0
LINE
8
BLACK
6
CONTINUOUS
10
129.1666490000000067
20
-74.407905999999997
11
129.1666449999999884
21
-74.4079129999999935
0
LINE
8
BLACK
6
CONTINUOUS
10
129.1666449999999884
20
-74.4079129999999935
11
129.1164029999999912
21
-74.5426199999999994
0
LINE
8
BLACK
6
CONTINUOUS
10
129.1164029999999912
20
-74.5426199999999994
11
129.1164009999999962
21
-74.542626999999996
0
LINE
8
BLACK
6
CONTINUOUS
10
129.1164009999999962
20
-74.542626999999996
11
129.1099999999999852
21
-74.6021549999999962
0
LINE
8
BLACK
6
CONTINUOUS
10
129.1099999999999852
20
-74.6021549999999962
11
129.1099999999999852
21
-75.25
0
LINE
8
BLACK
6
CONTINUOUS
10
129.1099999999999852
20
-75.25
11
129.6099999999999852
21
-75.25
0
LINE
8
BLACK
6
CONTINUOUS
10
129.6099999999999852
20
-75.25
11
129.6099999999999852
21
-74.6499999999999915
0
LINE
8
BLACK
6
CONTINUOUS
10
129.6099999999999852
20
-74.6499999999999915
11
130.210000000000008
21
-74.6499999999999915
0
LINE
8
BLACK
6
CONTINUOUS
10
130.210000000000008
20
-74.6499999999999915
11
130.210000000000008
21
-74.1499999999999915
0
LINE
8
BLACK
6
CONTINUOUS
10
130.210000000000008
20
-74.1499999999999915
11
129.56215499999999
21
-74.1499999999999915
0
LINE
8
BLACK
6
CONTINUOUS
10
129.56215499999999
20
-74.1499999999999915
11
129.5026269999999897
21
-74.1564010000000025
0
CIRCLE
8
BLACK
10
130.460000000000008
20
-75.5
40
0.175
0
CIRCLE
8
BLACK
10
133.
20
-75.5
40
0.175
0
CIRCLE
8
BLACK
10
127.8799999999999955
20
-79.4200000000000017
40
0.175
0
CIRCLE
8
BLACK
10
127.8799999999999955
20
-81.9599999999999937
40
0.175
0
CIRCLE
8
BLACK
10
127.8799999999999955
20
-84.5
40
0.175
0
CIRCLE
8
BLACK
10
127.8799999999999955
20
-87.039999999999992
40
0.175
0
CIRCLE
8
BLACK
10
135.5
20
-87.039999999999992
40
0.175
0
CIRCLE
8
BLACK
10
135.5
20
-84.5
40
0.175
0
CIRCLE
8
BLACK
10
135.5
20
-81.9599999999999937
40
0.175
0
CIRCLE
8
BLACK
10
135.5
20
-79.4200000000000017
40
0.175
0
CIRCLE
8
BLACK
10
123.5
20
-83.75
40
0.175
0
CIRCLE
8
BLACK
10
123.5
20
-86.289999999999992
40
0.175
0
CIRCLE
8
BLACK
10
123.5
20
-78.
40
0.175
0
LINE
8
BLACK
6
CONTINUOUS
10
121.
20
-73.
11
138.
21
-73.
0
LINE
8
BLACK
6
CONTINUOUS
10
138.
20
-73.
11
138.
21
-90.
0
LINE
8
BLACK
6
CONTINUOUS
10
138.
20
-90.
11
121.
21
-90.
0
LINE
8
BLACK
6
CONTINUOUS
10
121.
20
-90.
11
121.
21
-73.
0
CIRCLE
8
WHITE
10
130.460000000000008
20
-75.5
40
0.175
0
CIRCLE
8
WHITE
10
133.
20
-75.5
40
0.175
0
CIRCLE
8
WHITE
10
127.8799999999999955
20
-79.4200000000000017
40
0.175
0
CIRCLE
8
WHITE
10
127.8799999999999955
20
-81.9599999999999937
40
0.175
0
CIRCLE
8
WHITE
10
127.8799999999999955
20
-84.5
40
0.175
0
CIRCLE
8
WHITE
10
127.8799999999999955
20
-87.039999999999992
40
0.175
0
CIRCLE
8
WHITE
10
135.5
20
-87.039999999999992
40
0.175
0
CIRCLE
8
WHITE
10
135.5
20
-84.5
40
0.175
0
CIRCLE
8
WHITE
10
135.5
20
-81.9599999999999937
40
0.175
0
CIRCLE
8
WHITE
10
135.5
20
-79.4200000000000017
40
0.175
0
CIRCLE
8
WHITE
10
123.5
20
-83.75
40
0.175
0
CIRCLE
8
WHITE
10
123.5
20
-86.289999999999992
40
0.175
0
CIRCLE
8
WHITE
10
123.5
20
-78.
40
0.175
  0
ENDSEC
  0
EOF
